G04 #@! TF.GenerationSoftware,KiCad,Pcbnew,7.0.8-7.0.8~ubuntu23.04.1*
G04 #@! TF.CreationDate,2023-11-14T21:47:51+00:00*
G04 #@! TF.ProjectId,demo-badge-2023,64656d6f-2d62-4616-9467-652d32303233,1*
G04 #@! TF.SameCoordinates,Original*
G04 #@! TF.FileFunction,Paste,Bot*
G04 #@! TF.FilePolarity,Positive*
%FSLAX46Y46*%
G04 Gerber Fmt 4.6, Leading zero omitted, Abs format (unit mm)*
G04 Created by KiCad (PCBNEW 7.0.8-7.0.8~ubuntu23.04.1) date 2023-11-14 21:47:51*
%MOMM*%
%LPD*%
G01*
G04 APERTURE LIST*
%ADD10R,1.800000X1.000000*%
%ADD11R,0.600000X0.240000*%
%ADD12R,2.700000X0.800000*%
G04 APERTURE END LIST*
G36*
G01*
X162078617Y-84542971D02*
X162432171Y-84189417D01*
G75*
G02*
X162750369Y-84189417I159099J-159099D01*
G01*
X163068567Y-84507615D01*
G75*
G02*
X163068567Y-84825813I-159099J-159099D01*
G01*
X162715013Y-85179367D01*
G75*
G02*
X162396815Y-85179367I-159099J159099D01*
G01*
X162078617Y-84861169D01*
G75*
G02*
X162078617Y-84542971I159099J159099D01*
G01*
G37*
G36*
G01*
X163174633Y-85638987D02*
X163528187Y-85285433D01*
G75*
G02*
X163846385Y-85285433I159099J-159099D01*
G01*
X164164583Y-85603631D01*
G75*
G02*
X164164583Y-85921829I-159099J-159099D01*
G01*
X163811029Y-86275383D01*
G75*
G02*
X163492831Y-86275383I-159099J159099D01*
G01*
X163174633Y-85957185D01*
G75*
G02*
X163174633Y-85638987I159099J159099D01*
G01*
G37*
G36*
G01*
X149596858Y-91194624D02*
X149596858Y-91694624D01*
G75*
G02*
X149371858Y-91919624I-225000J0D01*
G01*
X148921858Y-91919624D01*
G75*
G02*
X148696858Y-91694624I0J225000D01*
G01*
X148696858Y-91194624D01*
G75*
G02*
X148921858Y-90969624I225000J0D01*
G01*
X149371858Y-90969624D01*
G75*
G02*
X149596858Y-91194624I0J-225000D01*
G01*
G37*
G36*
G01*
X148046858Y-91194624D02*
X148046858Y-91694624D01*
G75*
G02*
X147821858Y-91919624I-225000J0D01*
G01*
X147371858Y-91919624D01*
G75*
G02*
X147146858Y-91694624I0J225000D01*
G01*
X147146858Y-91194624D01*
G75*
G02*
X147371858Y-90969624I225000J0D01*
G01*
X147821858Y-90969624D01*
G75*
G02*
X148046858Y-91194624I0J-225000D01*
G01*
G37*
D10*
X151065935Y-88937389D03*
X151065935Y-91437389D03*
G36*
G01*
X162246649Y-95691060D02*
X161857740Y-95302151D01*
G75*
G02*
X161857740Y-95019309I141421J141421D01*
G01*
X162140583Y-94736466D01*
G75*
G02*
X162423425Y-94736466I141421J-141421D01*
G01*
X162812334Y-95125375D01*
G75*
G02*
X162812334Y-95408217I-141421J-141421D01*
G01*
X162529491Y-95691060D01*
G75*
G02*
X162246649Y-95691060I-141421J141421D01*
G01*
G37*
G36*
G01*
X163413375Y-94524334D02*
X163024466Y-94135425D01*
G75*
G02*
X163024466Y-93852583I141421J141421D01*
G01*
X163307309Y-93569740D01*
G75*
G02*
X163590151Y-93569740I141421J-141421D01*
G01*
X163979060Y-93958649D01*
G75*
G02*
X163979060Y-94241491I-141421J-141421D01*
G01*
X163696217Y-94524334D01*
G75*
G02*
X163413375Y-94524334I-141421J141421D01*
G01*
G37*
G36*
G01*
X103755852Y-83586264D02*
X103402298Y-83232710D01*
G75*
G02*
X103402298Y-82914512I159099J159099D01*
G01*
X103720496Y-82596314D01*
G75*
G02*
X104038694Y-82596314I159099J-159099D01*
G01*
X104392248Y-82949868D01*
G75*
G02*
X104392248Y-83268066I-159099J-159099D01*
G01*
X104074050Y-83586264D01*
G75*
G02*
X103755852Y-83586264I-159099J159099D01*
G01*
G37*
G36*
G01*
X104851868Y-82490248D02*
X104498314Y-82136694D01*
G75*
G02*
X104498314Y-81818496I159099J159099D01*
G01*
X104816512Y-81500298D01*
G75*
G02*
X105134710Y-81500298I159099J-159099D01*
G01*
X105488264Y-81853852D01*
G75*
G02*
X105488264Y-82172050I-159099J-159099D01*
G01*
X105170066Y-82490248D01*
G75*
G02*
X104851868Y-82490248I-159099J159099D01*
G01*
G37*
G36*
G01*
X121701553Y-63754800D02*
X121151553Y-63754800D01*
G75*
G02*
X120951553Y-63554800I0J200000D01*
G01*
X120951553Y-63154800D01*
G75*
G02*
X121151553Y-62954800I200000J0D01*
G01*
X121701553Y-62954800D01*
G75*
G02*
X121901553Y-63154800I0J-200000D01*
G01*
X121901553Y-63554800D01*
G75*
G02*
X121701553Y-63754800I-200000J0D01*
G01*
G37*
G36*
G01*
X121701553Y-62104800D02*
X121151553Y-62104800D01*
G75*
G02*
X120951553Y-61904800I0J200000D01*
G01*
X120951553Y-61504800D01*
G75*
G02*
X121151553Y-61304800I200000J0D01*
G01*
X121701553Y-61304800D01*
G75*
G02*
X121901553Y-61504800I0J-200000D01*
G01*
X121901553Y-61904800D01*
G75*
G02*
X121701553Y-62104800I-200000J0D01*
G01*
G37*
G36*
G01*
X129187800Y-56419600D02*
X129737800Y-56419600D01*
G75*
G02*
X129937800Y-56619600I0J-200000D01*
G01*
X129937800Y-57019600D01*
G75*
G02*
X129737800Y-57219600I-200000J0D01*
G01*
X129187800Y-57219600D01*
G75*
G02*
X128987800Y-57019600I0J200000D01*
G01*
X128987800Y-56619600D01*
G75*
G02*
X129187800Y-56419600I200000J0D01*
G01*
G37*
G36*
G01*
X129187800Y-58069600D02*
X129737800Y-58069600D01*
G75*
G02*
X129937800Y-58269600I0J-200000D01*
G01*
X129937800Y-58669600D01*
G75*
G02*
X129737800Y-58869600I-200000J0D01*
G01*
X129187800Y-58869600D01*
G75*
G02*
X128987800Y-58669600I0J200000D01*
G01*
X128987800Y-58269600D01*
G75*
G02*
X129187800Y-58069600I200000J0D01*
G01*
G37*
G36*
G01*
X99519283Y-102228894D02*
X99130374Y-102617803D01*
G75*
G02*
X98847532Y-102617803I-141421J141421D01*
G01*
X98564689Y-102334960D01*
G75*
G02*
X98564689Y-102052118I141421J141421D01*
G01*
X98953598Y-101663209D01*
G75*
G02*
X99236440Y-101663209I141421J-141421D01*
G01*
X99519283Y-101946052D01*
G75*
G02*
X99519283Y-102228894I-141421J-141421D01*
G01*
G37*
G36*
G01*
X98352557Y-101062168D02*
X97963648Y-101451077D01*
G75*
G02*
X97680806Y-101451077I-141421J141421D01*
G01*
X97397963Y-101168234D01*
G75*
G02*
X97397963Y-100885392I141421J141421D01*
G01*
X97786872Y-100496483D01*
G75*
G02*
X98069714Y-100496483I141421J-141421D01*
G01*
X98352557Y-100779326D01*
G75*
G02*
X98352557Y-101062168I-141421J-141421D01*
G01*
G37*
G36*
G01*
X157793740Y-88827849D02*
X158182649Y-88438940D01*
G75*
G02*
X158465491Y-88438940I141421J-141421D01*
G01*
X158748334Y-88721783D01*
G75*
G02*
X158748334Y-89004625I-141421J-141421D01*
G01*
X158359425Y-89393534D01*
G75*
G02*
X158076583Y-89393534I-141421J141421D01*
G01*
X157793740Y-89110691D01*
G75*
G02*
X157793740Y-88827849I141421J141421D01*
G01*
G37*
G36*
G01*
X158960466Y-89994575D02*
X159349375Y-89605666D01*
G75*
G02*
X159632217Y-89605666I141421J-141421D01*
G01*
X159915060Y-89888509D01*
G75*
G02*
X159915060Y-90171351I-141421J-141421D01*
G01*
X159526151Y-90560260D01*
G75*
G02*
X159243309Y-90560260I-141421J141421D01*
G01*
X158960466Y-90277417D01*
G75*
G02*
X158960466Y-89994575I141421J141421D01*
G01*
G37*
G36*
G01*
X128295601Y-69448000D02*
X127795601Y-69448000D01*
G75*
G02*
X127570601Y-69223000I0J225000D01*
G01*
X127570601Y-68773000D01*
G75*
G02*
X127795601Y-68548000I225000J0D01*
G01*
X128295601Y-68548000D01*
G75*
G02*
X128520601Y-68773000I0J-225000D01*
G01*
X128520601Y-69223000D01*
G75*
G02*
X128295601Y-69448000I-225000J0D01*
G01*
G37*
G36*
G01*
X128295601Y-67898000D02*
X127795601Y-67898000D01*
G75*
G02*
X127570601Y-67673000I0J225000D01*
G01*
X127570601Y-67223000D01*
G75*
G02*
X127795601Y-66998000I225000J0D01*
G01*
X128295601Y-66998000D01*
G75*
G02*
X128520601Y-67223000I0J-225000D01*
G01*
X128520601Y-67673000D01*
G75*
G02*
X128295601Y-67898000I-225000J0D01*
G01*
G37*
G36*
G01*
X104890758Y-84721170D02*
X104537204Y-84367616D01*
G75*
G02*
X104537204Y-84049418I159099J159099D01*
G01*
X104855402Y-83731220D01*
G75*
G02*
X105173600Y-83731220I159099J-159099D01*
G01*
X105527154Y-84084774D01*
G75*
G02*
X105527154Y-84402972I-159099J-159099D01*
G01*
X105208956Y-84721170D01*
G75*
G02*
X104890758Y-84721170I-159099J159099D01*
G01*
G37*
G36*
G01*
X105986774Y-83625154D02*
X105633220Y-83271600D01*
G75*
G02*
X105633220Y-82953402I159099J159099D01*
G01*
X105951418Y-82635204D01*
G75*
G02*
X106269616Y-82635204I159099J-159099D01*
G01*
X106623170Y-82988758D01*
G75*
G02*
X106623170Y-83306956I-159099J-159099D01*
G01*
X106304972Y-83625154D01*
G75*
G02*
X105986774Y-83625154I-159099J159099D01*
G01*
G37*
G36*
G01*
X131011600Y-109622200D02*
X130461600Y-109622200D01*
G75*
G02*
X130261600Y-109422200I0J200000D01*
G01*
X130261600Y-109022200D01*
G75*
G02*
X130461600Y-108822200I200000J0D01*
G01*
X131011600Y-108822200D01*
G75*
G02*
X131211600Y-109022200I0J-200000D01*
G01*
X131211600Y-109422200D01*
G75*
G02*
X131011600Y-109622200I-200000J0D01*
G01*
G37*
G36*
G01*
X131011600Y-107972200D02*
X130461600Y-107972200D01*
G75*
G02*
X130261600Y-107772200I0J200000D01*
G01*
X130261600Y-107372200D01*
G75*
G02*
X130461600Y-107172200I200000J0D01*
G01*
X131011600Y-107172200D01*
G75*
G02*
X131211600Y-107372200I0J-200000D01*
G01*
X131211600Y-107772200D01*
G75*
G02*
X131011600Y-107972200I-200000J0D01*
G01*
G37*
G36*
G01*
X132484800Y-109622200D02*
X131934800Y-109622200D01*
G75*
G02*
X131734800Y-109422200I0J200000D01*
G01*
X131734800Y-109022200D01*
G75*
G02*
X131934800Y-108822200I200000J0D01*
G01*
X132484800Y-108822200D01*
G75*
G02*
X132684800Y-109022200I0J-200000D01*
G01*
X132684800Y-109422200D01*
G75*
G02*
X132484800Y-109622200I-200000J0D01*
G01*
G37*
G36*
G01*
X132484800Y-107972200D02*
X131934800Y-107972200D01*
G75*
G02*
X131734800Y-107772200I0J200000D01*
G01*
X131734800Y-107372200D01*
G75*
G02*
X131934800Y-107172200I200000J0D01*
G01*
X132484800Y-107172200D01*
G75*
G02*
X132684800Y-107372200I0J-200000D01*
G01*
X132684800Y-107772200D01*
G75*
G02*
X132484800Y-107972200I-200000J0D01*
G01*
G37*
G36*
G01*
X100823757Y-99230763D02*
X100470203Y-98877209D01*
G75*
G02*
X100470203Y-98559011I159099J159099D01*
G01*
X100788401Y-98240813D01*
G75*
G02*
X101106599Y-98240813I159099J-159099D01*
G01*
X101460153Y-98594367D01*
G75*
G02*
X101460153Y-98912565I-159099J-159099D01*
G01*
X101141955Y-99230763D01*
G75*
G02*
X100823757Y-99230763I-159099J159099D01*
G01*
G37*
G36*
G01*
X101919773Y-98134747D02*
X101566219Y-97781193D01*
G75*
G02*
X101566219Y-97462995I159099J159099D01*
G01*
X101884417Y-97144797D01*
G75*
G02*
X102202615Y-97144797I159099J-159099D01*
G01*
X102556169Y-97498351D01*
G75*
G02*
X102556169Y-97816549I-159099J-159099D01*
G01*
X102237971Y-98134747D01*
G75*
G02*
X101919773Y-98134747I-159099J159099D01*
G01*
G37*
G36*
G01*
X101144374Y-96084083D02*
X101533283Y-96472992D01*
G75*
G02*
X101533283Y-96755834I-141421J-141421D01*
G01*
X101250440Y-97038677D01*
G75*
G02*
X100967598Y-97038677I-141421J141421D01*
G01*
X100578689Y-96649768D01*
G75*
G02*
X100578689Y-96366926I141421J141421D01*
G01*
X100861532Y-96084083D01*
G75*
G02*
X101144374Y-96084083I141421J-141421D01*
G01*
G37*
G36*
G01*
X99977648Y-97250809D02*
X100366557Y-97639718D01*
G75*
G02*
X100366557Y-97922560I-141421J-141421D01*
G01*
X100083714Y-98205403D01*
G75*
G02*
X99800872Y-98205403I-141421J141421D01*
G01*
X99411963Y-97816494D01*
G75*
G02*
X99411963Y-97533652I141421J141421D01*
G01*
X99694806Y-97250809D01*
G75*
G02*
X99977648Y-97250809I141421J-141421D01*
G01*
G37*
G36*
G01*
X122985400Y-55848600D02*
X122985400Y-55558600D01*
G75*
G02*
X123010400Y-55533600I25000J0D01*
G01*
X123210400Y-55533600D01*
G75*
G02*
X123235400Y-55558600I0J-25000D01*
G01*
X123235400Y-55848600D01*
G75*
G02*
X123210400Y-55873600I-25000J0D01*
G01*
X123010400Y-55873600D01*
G75*
G02*
X122985400Y-55848600I0J25000D01*
G01*
G37*
G36*
G01*
X122985400Y-58908600D02*
X122985400Y-58618600D01*
G75*
G02*
X123010400Y-58593600I25000J0D01*
G01*
X123210400Y-58593600D01*
G75*
G02*
X123235400Y-58618600I0J-25000D01*
G01*
X123235400Y-58908600D01*
G75*
G02*
X123210400Y-58933600I-25000J0D01*
G01*
X123010400Y-58933600D01*
G75*
G02*
X122985400Y-58908600I0J25000D01*
G01*
G37*
G36*
G01*
X122610400Y-57027600D02*
X122610400Y-56179600D01*
G75*
G02*
X122716400Y-56073600I106000J0D01*
G01*
X124004400Y-56073600D01*
G75*
G02*
X124110400Y-56179600I0J-106000D01*
G01*
X124110400Y-57027600D01*
G75*
G02*
X124004400Y-57133600I-106000J0D01*
G01*
X122716400Y-57133600D01*
G75*
G02*
X122610400Y-57027600I0J106000D01*
G01*
G37*
G36*
G01*
X122610400Y-58287600D02*
X122610400Y-57439600D01*
G75*
G02*
X122716400Y-57333600I106000J0D01*
G01*
X124004400Y-57333600D01*
G75*
G02*
X124110400Y-57439600I0J-106000D01*
G01*
X124110400Y-58287600D01*
G75*
G02*
X124004400Y-58393600I-106000J0D01*
G01*
X122716400Y-58393600D01*
G75*
G02*
X122610400Y-58287600I0J106000D01*
G01*
G37*
G36*
G01*
X123485400Y-55848600D02*
X123485400Y-55558600D01*
G75*
G02*
X123510400Y-55533600I25000J0D01*
G01*
X123710400Y-55533600D01*
G75*
G02*
X123735400Y-55558600I0J-25000D01*
G01*
X123735400Y-55848600D01*
G75*
G02*
X123710400Y-55873600I-25000J0D01*
G01*
X123510400Y-55873600D01*
G75*
G02*
X123485400Y-55848600I0J25000D01*
G01*
G37*
G36*
G01*
X123485400Y-58908600D02*
X123485400Y-58618600D01*
G75*
G02*
X123510400Y-58593600I25000J0D01*
G01*
X123710400Y-58593600D01*
G75*
G02*
X123735400Y-58618600I0J-25000D01*
G01*
X123735400Y-58908600D01*
G75*
G02*
X123710400Y-58933600I-25000J0D01*
G01*
X123510400Y-58933600D01*
G75*
G02*
X123485400Y-58908600I0J25000D01*
G01*
G37*
D11*
X121960400Y-58233600D03*
X121960400Y-57733600D03*
X121960400Y-57233600D03*
X121960400Y-56733600D03*
X121960400Y-56233600D03*
X124760400Y-56233600D03*
X124760400Y-56733600D03*
X124760400Y-57233600D03*
X124760400Y-57733600D03*
X124760400Y-58233600D03*
G36*
G01*
X100254261Y-81991237D02*
X100466393Y-82203369D01*
G75*
G02*
X100466393Y-82415501I-106066J-106066D01*
G01*
X99547155Y-83334739D01*
G75*
G02*
X99335023Y-83334739I-106066J106066D01*
G01*
X99122891Y-83122607D01*
G75*
G02*
X99122891Y-82910475I106066J106066D01*
G01*
X100042129Y-81991237D01*
G75*
G02*
X100254261Y-81991237I106066J-106066D01*
G01*
G37*
G36*
G01*
X101152287Y-82889263D02*
X101364419Y-83101395D01*
G75*
G02*
X101364419Y-83313527I-106066J-106066D01*
G01*
X100445181Y-84232765D01*
G75*
G02*
X100233049Y-84232765I-106066J106066D01*
G01*
X100020917Y-84020633D01*
G75*
G02*
X100020917Y-83808501I106066J106066D01*
G01*
X100940155Y-82889263D01*
G75*
G02*
X101152287Y-82889263I106066J-106066D01*
G01*
G37*
G36*
G01*
X102050312Y-83787288D02*
X102262444Y-83999420D01*
G75*
G02*
X102262444Y-84211552I-106066J-106066D01*
G01*
X101343206Y-85130790D01*
G75*
G02*
X101131074Y-85130790I-106066J106066D01*
G01*
X100918942Y-84918658D01*
G75*
G02*
X100918942Y-84706526I106066J106066D01*
G01*
X101838180Y-83787288D01*
G75*
G02*
X102050312Y-83787288I106066J-106066D01*
G01*
G37*
G36*
G01*
X102948338Y-84685314D02*
X103160470Y-84897446D01*
G75*
G02*
X103160470Y-85109578I-106066J-106066D01*
G01*
X102241232Y-86028816D01*
G75*
G02*
X102029100Y-86028816I-106066J106066D01*
G01*
X101816968Y-85816684D01*
G75*
G02*
X101816968Y-85604552I106066J106066D01*
G01*
X102736206Y-84685314D01*
G75*
G02*
X102948338Y-84685314I106066J-106066D01*
G01*
G37*
G36*
G01*
X97857169Y-89776483D02*
X98069301Y-89988615D01*
G75*
G02*
X98069301Y-90200747I-106066J-106066D01*
G01*
X97150063Y-91119985D01*
G75*
G02*
X96937931Y-91119985I-106066J106066D01*
G01*
X96725799Y-90907853D01*
G75*
G02*
X96725799Y-90695721I106066J106066D01*
G01*
X97645037Y-89776483D01*
G75*
G02*
X97857169Y-89776483I106066J-106066D01*
G01*
G37*
G36*
G01*
X96959143Y-88878457D02*
X97171275Y-89090589D01*
G75*
G02*
X97171275Y-89302721I-106066J-106066D01*
G01*
X96252037Y-90221959D01*
G75*
G02*
X96039905Y-90221959I-106066J106066D01*
G01*
X95827773Y-90009827D01*
G75*
G02*
X95827773Y-89797695I106066J106066D01*
G01*
X96747011Y-88878457D01*
G75*
G02*
X96959143Y-88878457I106066J-106066D01*
G01*
G37*
G36*
G01*
X96061118Y-87980432D02*
X96273250Y-88192564D01*
G75*
G02*
X96273250Y-88404696I-106066J-106066D01*
G01*
X95354012Y-89323934D01*
G75*
G02*
X95141880Y-89323934I-106066J106066D01*
G01*
X94929748Y-89111802D01*
G75*
G02*
X94929748Y-88899670I106066J106066D01*
G01*
X95848986Y-87980432D01*
G75*
G02*
X96061118Y-87980432I106066J-106066D01*
G01*
G37*
G36*
G01*
X95163092Y-87082406D02*
X95375224Y-87294538D01*
G75*
G02*
X95375224Y-87506670I-106066J-106066D01*
G01*
X94455986Y-88425908D01*
G75*
G02*
X94243854Y-88425908I-106066J106066D01*
G01*
X94031722Y-88213776D01*
G75*
G02*
X94031722Y-88001644I106066J106066D01*
G01*
X94950960Y-87082406D01*
G75*
G02*
X95163092Y-87082406I106066J-106066D01*
G01*
G37*
G36*
G01*
X156733825Y-89866179D02*
X157087379Y-89512625D01*
G75*
G02*
X157405577Y-89512625I159099J-159099D01*
G01*
X157723775Y-89830823D01*
G75*
G02*
X157723775Y-90149021I-159099J-159099D01*
G01*
X157370221Y-90502575D01*
G75*
G02*
X157052023Y-90502575I-159099J159099D01*
G01*
X156733825Y-90184377D01*
G75*
G02*
X156733825Y-89866179I159099J159099D01*
G01*
G37*
G36*
G01*
X157829841Y-90962195D02*
X158183395Y-90608641D01*
G75*
G02*
X158501593Y-90608641I159099J-159099D01*
G01*
X158819791Y-90926839D01*
G75*
G02*
X158819791Y-91245037I-159099J-159099D01*
G01*
X158466237Y-91598591D01*
G75*
G02*
X158148039Y-91598591I-159099J159099D01*
G01*
X157829841Y-91280393D01*
G75*
G02*
X157829841Y-90962195I159099J159099D01*
G01*
G37*
G36*
G01*
X108089429Y-89205017D02*
X108442983Y-89558571D01*
G75*
G02*
X108442983Y-89876769I-159099J-159099D01*
G01*
X108124785Y-90194967D01*
G75*
G02*
X107806587Y-90194967I-159099J159099D01*
G01*
X107453033Y-89841413D01*
G75*
G02*
X107453033Y-89523215I159099J159099D01*
G01*
X107771231Y-89205017D01*
G75*
G02*
X108089429Y-89205017I159099J-159099D01*
G01*
G37*
G36*
G01*
X106993413Y-90301033D02*
X107346967Y-90654587D01*
G75*
G02*
X107346967Y-90972785I-159099J-159099D01*
G01*
X107028769Y-91290983D01*
G75*
G02*
X106710571Y-91290983I-159099J159099D01*
G01*
X106357017Y-90937429D01*
G75*
G02*
X106357017Y-90619231I159099J159099D01*
G01*
X106675215Y-90301033D01*
G75*
G02*
X106993413Y-90301033I159099J-159099D01*
G01*
G37*
G36*
G01*
X129212500Y-61948000D02*
X129212500Y-61648000D01*
G75*
G02*
X129362500Y-61498000I150000J0D01*
G01*
X130537500Y-61498000D01*
G75*
G02*
X130687500Y-61648000I0J-150000D01*
G01*
X130687500Y-61948000D01*
G75*
G02*
X130537500Y-62098000I-150000J0D01*
G01*
X129362500Y-62098000D01*
G75*
G02*
X129212500Y-61948000I0J150000D01*
G01*
G37*
G36*
G01*
X129212500Y-60048000D02*
X129212500Y-59748000D01*
G75*
G02*
X129362500Y-59598000I150000J0D01*
G01*
X130537500Y-59598000D01*
G75*
G02*
X130687500Y-59748000I0J-150000D01*
G01*
X130687500Y-60048000D01*
G75*
G02*
X130537500Y-60198000I-150000J0D01*
G01*
X129362500Y-60198000D01*
G75*
G02*
X129212500Y-60048000I0J150000D01*
G01*
G37*
G36*
G01*
X131087500Y-60998000D02*
X131087500Y-60698000D01*
G75*
G02*
X131237500Y-60548000I150000J0D01*
G01*
X132412500Y-60548000D01*
G75*
G02*
X132562500Y-60698000I0J-150000D01*
G01*
X132562500Y-60998000D01*
G75*
G02*
X132412500Y-61148000I-150000J0D01*
G01*
X131237500Y-61148000D01*
G75*
G02*
X131087500Y-60998000I0J150000D01*
G01*
G37*
G36*
G01*
X129776800Y-80823000D02*
X129276800Y-80823000D01*
G75*
G02*
X129051800Y-80598000I0J225000D01*
G01*
X129051800Y-80148000D01*
G75*
G02*
X129276800Y-79923000I225000J0D01*
G01*
X129776800Y-79923000D01*
G75*
G02*
X130001800Y-80148000I0J-225000D01*
G01*
X130001800Y-80598000D01*
G75*
G02*
X129776800Y-80823000I-225000J0D01*
G01*
G37*
G36*
G01*
X129776800Y-79273000D02*
X129276800Y-79273000D01*
G75*
G02*
X129051800Y-79048000I0J225000D01*
G01*
X129051800Y-78598000D01*
G75*
G02*
X129276800Y-78373000I225000J0D01*
G01*
X129776800Y-78373000D01*
G75*
G02*
X130001800Y-78598000I0J-225000D01*
G01*
X130001800Y-79048000D01*
G75*
G02*
X129776800Y-79273000I-225000J0D01*
G01*
G37*
G36*
G01*
X125618200Y-60488800D02*
X125618200Y-59988800D01*
G75*
G02*
X125843200Y-59763800I225000J0D01*
G01*
X126293200Y-59763800D01*
G75*
G02*
X126518200Y-59988800I0J-225000D01*
G01*
X126518200Y-60488800D01*
G75*
G02*
X126293200Y-60713800I-225000J0D01*
G01*
X125843200Y-60713800D01*
G75*
G02*
X125618200Y-60488800I0J225000D01*
G01*
G37*
G36*
G01*
X127168200Y-60488800D02*
X127168200Y-59988800D01*
G75*
G02*
X127393200Y-59763800I225000J0D01*
G01*
X127843200Y-59763800D01*
G75*
G02*
X128068200Y-59988800I0J-225000D01*
G01*
X128068200Y-60488800D01*
G75*
G02*
X127843200Y-60713800I-225000J0D01*
G01*
X127393200Y-60713800D01*
G75*
G02*
X127168200Y-60488800I0J225000D01*
G01*
G37*
G36*
G01*
X127279400Y-56766400D02*
X127829400Y-56766400D01*
G75*
G02*
X128029400Y-56966400I0J-200000D01*
G01*
X128029400Y-57366400D01*
G75*
G02*
X127829400Y-57566400I-200000J0D01*
G01*
X127279400Y-57566400D01*
G75*
G02*
X127079400Y-57366400I0J200000D01*
G01*
X127079400Y-56966400D01*
G75*
G02*
X127279400Y-56766400I200000J0D01*
G01*
G37*
G36*
G01*
X127279400Y-58416400D02*
X127829400Y-58416400D01*
G75*
G02*
X128029400Y-58616400I0J-200000D01*
G01*
X128029400Y-59016400D01*
G75*
G02*
X127829400Y-59216400I-200000J0D01*
G01*
X127279400Y-59216400D01*
G75*
G02*
X127079400Y-59016400I0J200000D01*
G01*
X127079400Y-58616400D01*
G75*
G02*
X127279400Y-58416400I200000J0D01*
G01*
G37*
G36*
G01*
X104465114Y-75953977D02*
X104854023Y-76342886D01*
G75*
G02*
X104854023Y-76625728I-141421J-141421D01*
G01*
X104571180Y-76908571D01*
G75*
G02*
X104288338Y-76908571I-141421J141421D01*
G01*
X103899429Y-76519662D01*
G75*
G02*
X103899429Y-76236820I141421J141421D01*
G01*
X104182272Y-75953977D01*
G75*
G02*
X104465114Y-75953977I141421J-141421D01*
G01*
G37*
G36*
G01*
X103298388Y-77120703D02*
X103687297Y-77509612D01*
G75*
G02*
X103687297Y-77792454I-141421J-141421D01*
G01*
X103404454Y-78075297D01*
G75*
G02*
X103121612Y-78075297I-141421J141421D01*
G01*
X102732703Y-77686388D01*
G75*
G02*
X102732703Y-77403546I141421J141421D01*
G01*
X103015546Y-77120703D01*
G75*
G02*
X103298388Y-77120703I141421J-141421D01*
G01*
G37*
G36*
G01*
X109136086Y-76106823D02*
X108747177Y-75717914D01*
G75*
G02*
X108747177Y-75435072I141421J141421D01*
G01*
X109030020Y-75152229D01*
G75*
G02*
X109312862Y-75152229I141421J-141421D01*
G01*
X109701771Y-75541138D01*
G75*
G02*
X109701771Y-75823980I-141421J-141421D01*
G01*
X109418928Y-76106823D01*
G75*
G02*
X109136086Y-76106823I-141421J141421D01*
G01*
G37*
G36*
G01*
X110302812Y-74940097D02*
X109913903Y-74551188D01*
G75*
G02*
X109913903Y-74268346I141421J141421D01*
G01*
X110196746Y-73985503D01*
G75*
G02*
X110479588Y-73985503I141421J-141421D01*
G01*
X110868497Y-74374412D01*
G75*
G02*
X110868497Y-74657254I-141421J-141421D01*
G01*
X110585654Y-74940097D01*
G75*
G02*
X110302812Y-74940097I-141421J141421D01*
G01*
G37*
G36*
G01*
X136274999Y-101173000D02*
X136274999Y-101723000D01*
G75*
G02*
X136074999Y-101923000I-200000J0D01*
G01*
X135674999Y-101923000D01*
G75*
G02*
X135474999Y-101723000I0J200000D01*
G01*
X135474999Y-101173000D01*
G75*
G02*
X135674999Y-100973000I200000J0D01*
G01*
X136074999Y-100973000D01*
G75*
G02*
X136274999Y-101173000I0J-200000D01*
G01*
G37*
G36*
G01*
X134624999Y-101173000D02*
X134624999Y-101723000D01*
G75*
G02*
X134424999Y-101923000I-200000J0D01*
G01*
X134024999Y-101923000D01*
G75*
G02*
X133824999Y-101723000I0J200000D01*
G01*
X133824999Y-101173000D01*
G75*
G02*
X134024999Y-100973000I200000J0D01*
G01*
X134424999Y-100973000D01*
G75*
G02*
X134624999Y-101173000I0J-200000D01*
G01*
G37*
G36*
G01*
X146167620Y-66089831D02*
X147051504Y-65205947D01*
G75*
G02*
X147263636Y-65205947I106066J-106066D01*
G01*
X147475768Y-65418079D01*
G75*
G02*
X147475768Y-65630211I-106066J-106066D01*
G01*
X146591884Y-66514095D01*
G75*
G02*
X146379752Y-66514095I-106066J106066D01*
G01*
X146167620Y-66301963D01*
G75*
G02*
X146167620Y-66089831I106066J106066D01*
G01*
G37*
G36*
G01*
X146874727Y-66796938D02*
X147758611Y-65913054D01*
G75*
G02*
X147970743Y-65913054I106066J-106066D01*
G01*
X148182875Y-66125186D01*
G75*
G02*
X148182875Y-66337318I-106066J-106066D01*
G01*
X147298991Y-67221202D01*
G75*
G02*
X147086859Y-67221202I-106066J106066D01*
G01*
X146874727Y-67009070D01*
G75*
G02*
X146874727Y-66796938I106066J106066D01*
G01*
G37*
G36*
G01*
X147581834Y-67504045D02*
X148465718Y-66620161D01*
G75*
G02*
X148677850Y-66620161I106066J-106066D01*
G01*
X148889982Y-66832293D01*
G75*
G02*
X148889982Y-67044425I-106066J-106066D01*
G01*
X148006098Y-67928309D01*
G75*
G02*
X147793966Y-67928309I-106066J106066D01*
G01*
X147581834Y-67716177D01*
G75*
G02*
X147581834Y-67504045I106066J106066D01*
G01*
G37*
G36*
G01*
X148288941Y-68211152D02*
X149172825Y-67327268D01*
G75*
G02*
X149384957Y-67327268I106066J-106066D01*
G01*
X149597089Y-67539400D01*
G75*
G02*
X149597089Y-67751532I-106066J-106066D01*
G01*
X148713205Y-68635416D01*
G75*
G02*
X148501073Y-68635416I-106066J106066D01*
G01*
X148288941Y-68423284D01*
G75*
G02*
X148288941Y-68211152I106066J106066D01*
G01*
G37*
G36*
G01*
X147758610Y-62236099D02*
X148677849Y-61316860D01*
G75*
G02*
X149031403Y-61316860I176777J-176777D01*
G01*
X149526378Y-61811835D01*
G75*
G02*
X149526378Y-62165389I-176777J-176777D01*
G01*
X148607139Y-63084628D01*
G75*
G02*
X148253585Y-63084628I-176777J176777D01*
G01*
X147758610Y-62589653D01*
G75*
G02*
X147758610Y-62236099I176777J176777D01*
G01*
G37*
G36*
G01*
X151718408Y-66195897D02*
X152637647Y-65276658D01*
G75*
G02*
X152991201Y-65276658I176777J-176777D01*
G01*
X153486176Y-65771633D01*
G75*
G02*
X153486176Y-66125187I-176777J-176777D01*
G01*
X152566937Y-67044426D01*
G75*
G02*
X152213383Y-67044426I-176777J176777D01*
G01*
X151718408Y-66549451D01*
G75*
G02*
X151718408Y-66195897I176777J176777D01*
G01*
G37*
G36*
G01*
X159927340Y-86694249D02*
X160316249Y-86305340D01*
G75*
G02*
X160599091Y-86305340I141421J-141421D01*
G01*
X160881934Y-86588183D01*
G75*
G02*
X160881934Y-86871025I-141421J-141421D01*
G01*
X160493025Y-87259934D01*
G75*
G02*
X160210183Y-87259934I-141421J141421D01*
G01*
X159927340Y-86977091D01*
G75*
G02*
X159927340Y-86694249I141421J141421D01*
G01*
G37*
G36*
G01*
X161094066Y-87860975D02*
X161482975Y-87472066D01*
G75*
G02*
X161765817Y-87472066I141421J-141421D01*
G01*
X162048660Y-87754909D01*
G75*
G02*
X162048660Y-88037751I-141421J-141421D01*
G01*
X161659751Y-88426660D01*
G75*
G02*
X161376909Y-88426660I-141421J141421D01*
G01*
X161094066Y-88143817D01*
G75*
G02*
X161094066Y-87860975I141421J141421D01*
G01*
G37*
G36*
G01*
X132748200Y-80823000D02*
X132198200Y-80823000D01*
G75*
G02*
X131998200Y-80623000I0J200000D01*
G01*
X131998200Y-80223000D01*
G75*
G02*
X132198200Y-80023000I200000J0D01*
G01*
X132748200Y-80023000D01*
G75*
G02*
X132948200Y-80223000I0J-200000D01*
G01*
X132948200Y-80623000D01*
G75*
G02*
X132748200Y-80823000I-200000J0D01*
G01*
G37*
G36*
G01*
X132748200Y-79173000D02*
X132198200Y-79173000D01*
G75*
G02*
X131998200Y-78973000I0J200000D01*
G01*
X131998200Y-78573000D01*
G75*
G02*
X132198200Y-78373000I200000J0D01*
G01*
X132748200Y-78373000D01*
G75*
G02*
X132948200Y-78573000I0J-200000D01*
G01*
X132948200Y-78973000D01*
G75*
G02*
X132748200Y-79173000I-200000J0D01*
G01*
G37*
G36*
G01*
X124248849Y-67930801D02*
X124248849Y-68430801D01*
G75*
G02*
X124023849Y-68655801I-225000J0D01*
G01*
X123573849Y-68655801D01*
G75*
G02*
X123348849Y-68430801I0J225000D01*
G01*
X123348849Y-67930801D01*
G75*
G02*
X123573849Y-67705801I225000J0D01*
G01*
X124023849Y-67705801D01*
G75*
G02*
X124248849Y-67930801I0J-225000D01*
G01*
G37*
G36*
G01*
X122698849Y-67930801D02*
X122698849Y-68430801D01*
G75*
G02*
X122473849Y-68655801I-225000J0D01*
G01*
X122023849Y-68655801D01*
G75*
G02*
X121798849Y-68430801I0J225000D01*
G01*
X121798849Y-67930801D01*
G75*
G02*
X122023849Y-67705801I225000J0D01*
G01*
X122473849Y-67705801D01*
G75*
G02*
X122698849Y-67930801I0J-225000D01*
G01*
G37*
G36*
G01*
X122434352Y-63528201D02*
X122434352Y-62978201D01*
G75*
G02*
X122634352Y-62778201I200000J0D01*
G01*
X123034352Y-62778201D01*
G75*
G02*
X123234352Y-62978201I0J-200000D01*
G01*
X123234352Y-63528201D01*
G75*
G02*
X123034352Y-63728201I-200000J0D01*
G01*
X122634352Y-63728201D01*
G75*
G02*
X122434352Y-63528201I0J200000D01*
G01*
G37*
G36*
G01*
X124084352Y-63528201D02*
X124084352Y-62978201D01*
G75*
G02*
X124284352Y-62778201I200000J0D01*
G01*
X124684352Y-62778201D01*
G75*
G02*
X124884352Y-62978201I0J-200000D01*
G01*
X124884352Y-63528201D01*
G75*
G02*
X124684352Y-63728201I-200000J0D01*
G01*
X124284352Y-63728201D01*
G75*
G02*
X124084352Y-63528201I0J200000D01*
G01*
G37*
D12*
X119578800Y-56091600D03*
X119578800Y-58391600D03*
G36*
X108499504Y-74406140D02*
G01*
X107679260Y-73585896D01*
X108103524Y-73161632D01*
X108923768Y-73981876D01*
X108499504Y-74406140D01*
G37*
G36*
X109065190Y-73840454D02*
G01*
X108244946Y-73020210D01*
X108669210Y-72595946D01*
X109489454Y-73416190D01*
X109065190Y-73840454D01*
G37*
G36*
X109376317Y-71888839D02*
G01*
X110196561Y-72709083D01*
X109984429Y-72921215D01*
X109164185Y-72100971D01*
X109376317Y-71888839D01*
G37*
G36*
X110083423Y-71181733D02*
G01*
X110903667Y-72001977D01*
X110691535Y-72214109D01*
X109871291Y-71393865D01*
X110083423Y-71181733D01*
G37*
G36*
X110436977Y-70828179D02*
G01*
X111257221Y-71648423D01*
X111045089Y-71860555D01*
X110224845Y-71040311D01*
X110436977Y-70828179D01*
G37*
G36*
X111144083Y-70121073D02*
G01*
X111964327Y-70941317D01*
X111752195Y-71153449D01*
X110931951Y-70333205D01*
X111144083Y-70121073D01*
G37*
G36*
X112459302Y-70446342D02*
G01*
X111639058Y-69626098D01*
X112063322Y-69201834D01*
X112883566Y-70022078D01*
X112459302Y-70446342D01*
G37*
G36*
X113024988Y-69880656D02*
G01*
X112204744Y-69060412D01*
X112629008Y-68636148D01*
X113449252Y-69456392D01*
X113024988Y-69880656D01*
G37*
G36*
X113024988Y-69880656D02*
G01*
X112204744Y-69060412D01*
X112629008Y-68636148D01*
X113449252Y-69456392D01*
X113024988Y-69880656D01*
G37*
G36*
X112459302Y-70446342D02*
G01*
X111639058Y-69626098D01*
X112063322Y-69201834D01*
X112883566Y-70022078D01*
X112459302Y-70446342D01*
G37*
G36*
X111497637Y-69767519D02*
G01*
X112317881Y-70587763D01*
X112105749Y-70799895D01*
X111285505Y-69979651D01*
X111497637Y-69767519D01*
G37*
G36*
X110790530Y-70474626D02*
G01*
X111610774Y-71294870D01*
X111398642Y-71507002D01*
X110578398Y-70686758D01*
X110790530Y-70474626D01*
G37*
G36*
X109729870Y-71535286D02*
G01*
X110550114Y-72355530D01*
X110337982Y-72567662D01*
X109517738Y-71747418D01*
X109729870Y-71535286D01*
G37*
G36*
X109022763Y-72242393D02*
G01*
X109843007Y-73062637D01*
X109630875Y-73274769D01*
X108810631Y-72454525D01*
X109022763Y-72242393D01*
G37*
G36*
X109065190Y-73840454D02*
G01*
X108244946Y-73020210D01*
X108669210Y-72595946D01*
X109489454Y-73416190D01*
X109065190Y-73840454D01*
G37*
G36*
X108499504Y-74406140D02*
G01*
X107679260Y-73585896D01*
X108103524Y-73161632D01*
X108923768Y-73981876D01*
X108499504Y-74406140D01*
G37*
G36*
G01*
X103432738Y-74921601D02*
X103821647Y-75310510D01*
G75*
G02*
X103821647Y-75593352I-141421J-141421D01*
G01*
X103538804Y-75876195D01*
G75*
G02*
X103255962Y-75876195I-141421J141421D01*
G01*
X102867053Y-75487286D01*
G75*
G02*
X102867053Y-75204444I141421J141421D01*
G01*
X103149896Y-74921601D01*
G75*
G02*
X103432738Y-74921601I141421J-141421D01*
G01*
G37*
G36*
G01*
X102266012Y-76088327D02*
X102654921Y-76477236D01*
G75*
G02*
X102654921Y-76760078I-141421J-141421D01*
G01*
X102372078Y-77042921D01*
G75*
G02*
X102089236Y-77042921I-141421J141421D01*
G01*
X101700327Y-76654012D01*
G75*
G02*
X101700327Y-76371170I141421J141421D01*
G01*
X101983170Y-76088327D01*
G75*
G02*
X102266012Y-76088327I141421J-141421D01*
G01*
G37*
G36*
G01*
X129538400Y-109622200D02*
X128988400Y-109622200D01*
G75*
G02*
X128788400Y-109422200I0J200000D01*
G01*
X128788400Y-109022200D01*
G75*
G02*
X128988400Y-108822200I200000J0D01*
G01*
X129538400Y-108822200D01*
G75*
G02*
X129738400Y-109022200I0J-200000D01*
G01*
X129738400Y-109422200D01*
G75*
G02*
X129538400Y-109622200I-200000J0D01*
G01*
G37*
G36*
G01*
X129538400Y-107972200D02*
X128988400Y-107972200D01*
G75*
G02*
X128788400Y-107772200I0J200000D01*
G01*
X128788400Y-107372200D01*
G75*
G02*
X128988400Y-107172200I200000J0D01*
G01*
X129538400Y-107172200D01*
G75*
G02*
X129738400Y-107372200I0J-200000D01*
G01*
X129738400Y-107772200D01*
G75*
G02*
X129538400Y-107972200I-200000J0D01*
G01*
G37*
G36*
G01*
X149517646Y-93228307D02*
X149517646Y-92678307D01*
G75*
G02*
X149717646Y-92478307I200000J0D01*
G01*
X150117646Y-92478307D01*
G75*
G02*
X150317646Y-92678307I0J-200000D01*
G01*
X150317646Y-93228307D01*
G75*
G02*
X150117646Y-93428307I-200000J0D01*
G01*
X149717646Y-93428307D01*
G75*
G02*
X149517646Y-93228307I0J200000D01*
G01*
G37*
G36*
G01*
X151167646Y-93228307D02*
X151167646Y-92678307D01*
G75*
G02*
X151367646Y-92478307I200000J0D01*
G01*
X151767646Y-92478307D01*
G75*
G02*
X151967646Y-92678307I0J-200000D01*
G01*
X151967646Y-93228307D01*
G75*
G02*
X151767646Y-93428307I-200000J0D01*
G01*
X151367646Y-93428307D01*
G75*
G02*
X151167646Y-93228307I0J200000D01*
G01*
G37*
G36*
G01*
X112988140Y-73272257D02*
X113377049Y-72883348D01*
G75*
G02*
X113659891Y-72883348I141421J-141421D01*
G01*
X113942734Y-73166191D01*
G75*
G02*
X113942734Y-73449033I-141421J-141421D01*
G01*
X113553825Y-73837942D01*
G75*
G02*
X113270983Y-73837942I-141421J141421D01*
G01*
X112988140Y-73555099D01*
G75*
G02*
X112988140Y-73272257I141421J141421D01*
G01*
G37*
G36*
G01*
X114154866Y-74438983D02*
X114543775Y-74050074D01*
G75*
G02*
X114826617Y-74050074I141421J-141421D01*
G01*
X115109460Y-74332917D01*
G75*
G02*
X115109460Y-74615759I-141421J-141421D01*
G01*
X114720551Y-75004668D01*
G75*
G02*
X114437709Y-75004668I-141421J141421D01*
G01*
X114154866Y-74721825D01*
G75*
G02*
X114154866Y-74438983I141421J141421D01*
G01*
G37*
G36*
G01*
X127464000Y-100974600D02*
X127964000Y-100974600D01*
G75*
G02*
X128189000Y-101199600I0J-225000D01*
G01*
X128189000Y-101649600D01*
G75*
G02*
X127964000Y-101874600I-225000J0D01*
G01*
X127464000Y-101874600D01*
G75*
G02*
X127239000Y-101649600I0J225000D01*
G01*
X127239000Y-101199600D01*
G75*
G02*
X127464000Y-100974600I225000J0D01*
G01*
G37*
G36*
G01*
X127464000Y-102524600D02*
X127964000Y-102524600D01*
G75*
G02*
X128189000Y-102749600I0J-225000D01*
G01*
X128189000Y-103199600D01*
G75*
G02*
X127964000Y-103424600I-225000J0D01*
G01*
X127464000Y-103424600D01*
G75*
G02*
X127239000Y-103199600I0J225000D01*
G01*
X127239000Y-102749600D01*
G75*
G02*
X127464000Y-102524600I225000J0D01*
G01*
G37*
G36*
G01*
X101873757Y-100280763D02*
X101520203Y-99927209D01*
G75*
G02*
X101520203Y-99609011I159099J159099D01*
G01*
X101838401Y-99290813D01*
G75*
G02*
X102156599Y-99290813I159099J-159099D01*
G01*
X102510153Y-99644367D01*
G75*
G02*
X102510153Y-99962565I-159099J-159099D01*
G01*
X102191955Y-100280763D01*
G75*
G02*
X101873757Y-100280763I-159099J159099D01*
G01*
G37*
G36*
G01*
X102969773Y-99184747D02*
X102616219Y-98831193D01*
G75*
G02*
X102616219Y-98512995I159099J159099D01*
G01*
X102934417Y-98194797D01*
G75*
G02*
X103252615Y-98194797I159099J-159099D01*
G01*
X103606169Y-98548351D01*
G75*
G02*
X103606169Y-98866549I-159099J-159099D01*
G01*
X103287971Y-99184747D01*
G75*
G02*
X102969773Y-99184747I-159099J159099D01*
G01*
G37*
G36*
G01*
X143720000Y-100987600D02*
X144220000Y-100987600D01*
G75*
G02*
X144445000Y-101212600I0J-225000D01*
G01*
X144445000Y-101662600D01*
G75*
G02*
X144220000Y-101887600I-225000J0D01*
G01*
X143720000Y-101887600D01*
G75*
G02*
X143495000Y-101662600I0J225000D01*
G01*
X143495000Y-101212600D01*
G75*
G02*
X143720000Y-100987600I225000J0D01*
G01*
G37*
G36*
G01*
X143720000Y-102537600D02*
X144220000Y-102537600D01*
G75*
G02*
X144445000Y-102762600I0J-225000D01*
G01*
X144445000Y-103212600D01*
G75*
G02*
X144220000Y-103437600I-225000J0D01*
G01*
X143720000Y-103437600D01*
G75*
G02*
X143495000Y-103212600I0J225000D01*
G01*
X143495000Y-102762600D01*
G75*
G02*
X143720000Y-102537600I225000J0D01*
G01*
G37*
G36*
G01*
X92681121Y-88754190D02*
X93034675Y-88400636D01*
G75*
G02*
X93352873Y-88400636I159099J-159099D01*
G01*
X93671071Y-88718834D01*
G75*
G02*
X93671071Y-89037032I-159099J-159099D01*
G01*
X93317517Y-89390586D01*
G75*
G02*
X92999319Y-89390586I-159099J159099D01*
G01*
X92681121Y-89072388D01*
G75*
G02*
X92681121Y-88754190I159099J159099D01*
G01*
G37*
G36*
G01*
X93777137Y-89850206D02*
X94130691Y-89496652D01*
G75*
G02*
X94448889Y-89496652I159099J-159099D01*
G01*
X94767087Y-89814850D01*
G75*
G02*
X94767087Y-90133048I-159099J-159099D01*
G01*
X94413533Y-90486602D01*
G75*
G02*
X94095335Y-90486602I-159099J159099D01*
G01*
X93777137Y-90168404D01*
G75*
G02*
X93777137Y-89850206I159099J159099D01*
G01*
G37*
G36*
G01*
X131250000Y-80823000D02*
X130750000Y-80823000D01*
G75*
G02*
X130525000Y-80598000I0J225000D01*
G01*
X130525000Y-80148000D01*
G75*
G02*
X130750000Y-79923000I225000J0D01*
G01*
X131250000Y-79923000D01*
G75*
G02*
X131475000Y-80148000I0J-225000D01*
G01*
X131475000Y-80598000D01*
G75*
G02*
X131250000Y-80823000I-225000J0D01*
G01*
G37*
G36*
G01*
X131250000Y-79273000D02*
X130750000Y-79273000D01*
G75*
G02*
X130525000Y-79048000I0J225000D01*
G01*
X130525000Y-78598000D01*
G75*
G02*
X130750000Y-78373000I225000J0D01*
G01*
X131250000Y-78373000D01*
G75*
G02*
X131475000Y-78598000I0J-225000D01*
G01*
X131475000Y-79048000D01*
G75*
G02*
X131250000Y-79273000I-225000J0D01*
G01*
G37*
G36*
G01*
X114720551Y-69744540D02*
X115109460Y-70133449D01*
G75*
G02*
X115109460Y-70416291I-141421J-141421D01*
G01*
X114826617Y-70699134D01*
G75*
G02*
X114543775Y-70699134I-141421J141421D01*
G01*
X114154866Y-70310225D01*
G75*
G02*
X114154866Y-70027383I141421J141421D01*
G01*
X114437709Y-69744540D01*
G75*
G02*
X114720551Y-69744540I141421J-141421D01*
G01*
G37*
G36*
G01*
X113553825Y-70911266D02*
X113942734Y-71300175D01*
G75*
G02*
X113942734Y-71583017I-141421J-141421D01*
G01*
X113659891Y-71865860D01*
G75*
G02*
X113377049Y-71865860I-141421J141421D01*
G01*
X112988140Y-71476951D01*
G75*
G02*
X112988140Y-71194109I141421J141421D01*
G01*
X113270983Y-70911266D01*
G75*
G02*
X113553825Y-70911266I141421J-141421D01*
G01*
G37*
G36*
G01*
X124884352Y-61523749D02*
X124884352Y-62036249D01*
G75*
G02*
X124665602Y-62254999I-218750J0D01*
G01*
X124228102Y-62254999D01*
G75*
G02*
X124009352Y-62036249I0J218750D01*
G01*
X124009352Y-61523749D01*
G75*
G02*
X124228102Y-61304999I218750J0D01*
G01*
X124665602Y-61304999D01*
G75*
G02*
X124884352Y-61523749I0J-218750D01*
G01*
G37*
G36*
G01*
X123309352Y-61523749D02*
X123309352Y-62036249D01*
G75*
G02*
X123090602Y-62254999I-218750J0D01*
G01*
X122653102Y-62254999D01*
G75*
G02*
X122434352Y-62036249I0J218750D01*
G01*
X122434352Y-61523749D01*
G75*
G02*
X122653102Y-61304999I218750J0D01*
G01*
X123090602Y-61304999D01*
G75*
G02*
X123309352Y-61523749I0J-218750D01*
G01*
G37*
G36*
G01*
X131211000Y-58869600D02*
X130661000Y-58869600D01*
G75*
G02*
X130461000Y-58669600I0J200000D01*
G01*
X130461000Y-58269600D01*
G75*
G02*
X130661000Y-58069600I200000J0D01*
G01*
X131211000Y-58069600D01*
G75*
G02*
X131411000Y-58269600I0J-200000D01*
G01*
X131411000Y-58669600D01*
G75*
G02*
X131211000Y-58869600I-200000J0D01*
G01*
G37*
G36*
G01*
X131211000Y-57219600D02*
X130661000Y-57219600D01*
G75*
G02*
X130461000Y-57019600I0J200000D01*
G01*
X130461000Y-56619600D01*
G75*
G02*
X130661000Y-56419600I200000J0D01*
G01*
X131211000Y-56419600D01*
G75*
G02*
X131411000Y-56619600I0J-200000D01*
G01*
X131411000Y-57019600D01*
G75*
G02*
X131211000Y-57219600I-200000J0D01*
G01*
G37*
G36*
G01*
X139774600Y-103424600D02*
X139224600Y-103424600D01*
G75*
G02*
X139024600Y-103224600I0J200000D01*
G01*
X139024600Y-102824600D01*
G75*
G02*
X139224600Y-102624600I200000J0D01*
G01*
X139774600Y-102624600D01*
G75*
G02*
X139974600Y-102824600I0J-200000D01*
G01*
X139974600Y-103224600D01*
G75*
G02*
X139774600Y-103424600I-200000J0D01*
G01*
G37*
G36*
G01*
X139774600Y-101774600D02*
X139224600Y-101774600D01*
G75*
G02*
X139024600Y-101574600I0J200000D01*
G01*
X139024600Y-101174600D01*
G75*
G02*
X139224600Y-100974600I200000J0D01*
G01*
X139774600Y-100974600D01*
G75*
G02*
X139974600Y-101174600I0J-200000D01*
G01*
X139974600Y-101574600D01*
G75*
G02*
X139774600Y-101774600I-200000J0D01*
G01*
G37*
G36*
G01*
X101278249Y-81058660D02*
X100889340Y-80669751D01*
G75*
G02*
X100889340Y-80386909I141421J141421D01*
G01*
X101172183Y-80104066D01*
G75*
G02*
X101455025Y-80104066I141421J-141421D01*
G01*
X101843934Y-80492975D01*
G75*
G02*
X101843934Y-80775817I-141421J-141421D01*
G01*
X101561091Y-81058660D01*
G75*
G02*
X101278249Y-81058660I-141421J141421D01*
G01*
G37*
G36*
G01*
X102444975Y-79891934D02*
X102056066Y-79503025D01*
G75*
G02*
X102056066Y-79220183I141421J141421D01*
G01*
X102338909Y-78937340D01*
G75*
G02*
X102621751Y-78937340I141421J-141421D01*
G01*
X103010660Y-79326249D01*
G75*
G02*
X103010660Y-79609091I-141421J-141421D01*
G01*
X102727817Y-79891934D01*
G75*
G02*
X102444975Y-79891934I-141421J141421D01*
G01*
G37*
G36*
G01*
X140773600Y-101000600D02*
X141273600Y-101000600D01*
G75*
G02*
X141498600Y-101225600I0J-225000D01*
G01*
X141498600Y-101675600D01*
G75*
G02*
X141273600Y-101900600I-225000J0D01*
G01*
X140773600Y-101900600D01*
G75*
G02*
X140548600Y-101675600I0J225000D01*
G01*
X140548600Y-101225600D01*
G75*
G02*
X140773600Y-101000600I225000J0D01*
G01*
G37*
G36*
G01*
X140773600Y-102550600D02*
X141273600Y-102550600D01*
G75*
G02*
X141498600Y-102775600I0J-225000D01*
G01*
X141498600Y-103225600D01*
G75*
G02*
X141273600Y-103450600I-225000J0D01*
G01*
X140773600Y-103450600D01*
G75*
G02*
X140548600Y-103225600I0J225000D01*
G01*
X140548600Y-102775600D01*
G75*
G02*
X140773600Y-102550600I225000J0D01*
G01*
G37*
G36*
G01*
X132159200Y-56419600D02*
X132659200Y-56419600D01*
G75*
G02*
X132884200Y-56644600I0J-225000D01*
G01*
X132884200Y-57094600D01*
G75*
G02*
X132659200Y-57319600I-225000J0D01*
G01*
X132159200Y-57319600D01*
G75*
G02*
X131934200Y-57094600I0J225000D01*
G01*
X131934200Y-56644600D01*
G75*
G02*
X132159200Y-56419600I225000J0D01*
G01*
G37*
G36*
G01*
X132159200Y-57969600D02*
X132659200Y-57969600D01*
G75*
G02*
X132884200Y-58194600I0J-225000D01*
G01*
X132884200Y-58644600D01*
G75*
G02*
X132659200Y-58869600I-225000J0D01*
G01*
X132159200Y-58869600D01*
G75*
G02*
X131934200Y-58644600I0J225000D01*
G01*
X131934200Y-58194600D01*
G75*
G02*
X132159200Y-57969600I225000J0D01*
G01*
G37*
G36*
G01*
X116148066Y-73393301D02*
X116360198Y-73181169D01*
G75*
G02*
X116572330Y-73181169I106066J-106066D01*
G01*
X117403180Y-74012019D01*
G75*
G02*
X117403180Y-74224151I-106066J-106066D01*
G01*
X117191048Y-74436283D01*
G75*
G02*
X116978916Y-74436283I-106066J106066D01*
G01*
X116148066Y-73605433D01*
G75*
G02*
X116148066Y-73393301I106066J106066D01*
G01*
G37*
G36*
G01*
X117491569Y-72049798D02*
X117703701Y-71837666D01*
G75*
G02*
X117915833Y-71837666I106066J-106066D01*
G01*
X118746683Y-72668516D01*
G75*
G02*
X118746683Y-72880648I-106066J-106066D01*
G01*
X118534551Y-73092780D01*
G75*
G02*
X118322419Y-73092780I-106066J106066D01*
G01*
X117491569Y-72261930D01*
G75*
G02*
X117491569Y-72049798I106066J106066D01*
G01*
G37*
G36*
G01*
X118145643Y-74047375D02*
X118357775Y-73835243D01*
G75*
G02*
X118569907Y-73835243I106066J-106066D01*
G01*
X119400757Y-74666093D01*
G75*
G02*
X119400757Y-74878225I-106066J-106066D01*
G01*
X119188625Y-75090357D01*
G75*
G02*
X118976493Y-75090357I-106066J106066D01*
G01*
X118145643Y-74259507D01*
G75*
G02*
X118145643Y-74047375I106066J106066D01*
G01*
G37*
G36*
G01*
X138276400Y-103437600D02*
X137776400Y-103437600D01*
G75*
G02*
X137551400Y-103212600I0J225000D01*
G01*
X137551400Y-102762600D01*
G75*
G02*
X137776400Y-102537600I225000J0D01*
G01*
X138276400Y-102537600D01*
G75*
G02*
X138501400Y-102762600I0J-225000D01*
G01*
X138501400Y-103212600D01*
G75*
G02*
X138276400Y-103437600I-225000J0D01*
G01*
G37*
G36*
G01*
X138276400Y-101887600D02*
X137776400Y-101887600D01*
G75*
G02*
X137551400Y-101662600I0J225000D01*
G01*
X137551400Y-101212600D01*
G75*
G02*
X137776400Y-100987600I225000J0D01*
G01*
X138276400Y-100987600D01*
G75*
G02*
X138501400Y-101212600I0J-225000D01*
G01*
X138501400Y-101662600D01*
G75*
G02*
X138276400Y-101887600I-225000J0D01*
G01*
G37*
G36*
G01*
X124843751Y-64615000D02*
X124843751Y-64915000D01*
G75*
G02*
X124693751Y-65065000I-150000J0D01*
G01*
X123668751Y-65065000D01*
G75*
G02*
X123518751Y-64915000I0J150000D01*
G01*
X123518751Y-64615000D01*
G75*
G02*
X123668751Y-64465000I150000J0D01*
G01*
X124693751Y-64465000D01*
G75*
G02*
X124843751Y-64615000I0J-150000D01*
G01*
G37*
G36*
G01*
X124843751Y-65565000D02*
X124843751Y-65865000D01*
G75*
G02*
X124693751Y-66015000I-150000J0D01*
G01*
X123668751Y-66015000D01*
G75*
G02*
X123518751Y-65865000I0J150000D01*
G01*
X123518751Y-65565000D01*
G75*
G02*
X123668751Y-65415000I150000J0D01*
G01*
X124693751Y-65415000D01*
G75*
G02*
X124843751Y-65565000I0J-150000D01*
G01*
G37*
G36*
G01*
X124843751Y-66515000D02*
X124843751Y-66815000D01*
G75*
G02*
X124693751Y-66965000I-150000J0D01*
G01*
X123668751Y-66965000D01*
G75*
G02*
X123518751Y-66815000I0J150000D01*
G01*
X123518751Y-66515000D01*
G75*
G02*
X123668751Y-66365000I150000J0D01*
G01*
X124693751Y-66365000D01*
G75*
G02*
X124843751Y-66515000I0J-150000D01*
G01*
G37*
G36*
G01*
X122568751Y-66515000D02*
X122568751Y-66815000D01*
G75*
G02*
X122418751Y-66965000I-150000J0D01*
G01*
X121393751Y-66965000D01*
G75*
G02*
X121243751Y-66815000I0J150000D01*
G01*
X121243751Y-66515000D01*
G75*
G02*
X121393751Y-66365000I150000J0D01*
G01*
X122418751Y-66365000D01*
G75*
G02*
X122568751Y-66515000I0J-150000D01*
G01*
G37*
G36*
G01*
X122568751Y-64615000D02*
X122568751Y-64915000D01*
G75*
G02*
X122418751Y-65065000I-150000J0D01*
G01*
X121393751Y-65065000D01*
G75*
G02*
X121243751Y-64915000I0J150000D01*
G01*
X121243751Y-64615000D01*
G75*
G02*
X121393751Y-64465000I150000J0D01*
G01*
X122418751Y-64465000D01*
G75*
G02*
X122568751Y-64615000I0J-150000D01*
G01*
G37*
G36*
G01*
X158860540Y-87761049D02*
X159249449Y-87372140D01*
G75*
G02*
X159532291Y-87372140I141421J-141421D01*
G01*
X159815134Y-87654983D01*
G75*
G02*
X159815134Y-87937825I-141421J-141421D01*
G01*
X159426225Y-88326734D01*
G75*
G02*
X159143383Y-88326734I-141421J141421D01*
G01*
X158860540Y-88043891D01*
G75*
G02*
X158860540Y-87761049I141421J141421D01*
G01*
G37*
G36*
G01*
X160027266Y-88927775D02*
X160416175Y-88538866D01*
G75*
G02*
X160699017Y-88538866I141421J-141421D01*
G01*
X160981860Y-88821709D01*
G75*
G02*
X160981860Y-89104551I-141421J-141421D01*
G01*
X160592951Y-89493460D01*
G75*
G02*
X160310109Y-89493460I-141421J141421D01*
G01*
X160027266Y-89210617D01*
G75*
G02*
X160027266Y-88927775I141421J141421D01*
G01*
G37*
G36*
G01*
X133958000Y-109622200D02*
X133408000Y-109622200D01*
G75*
G02*
X133208000Y-109422200I0J200000D01*
G01*
X133208000Y-109022200D01*
G75*
G02*
X133408000Y-108822200I200000J0D01*
G01*
X133958000Y-108822200D01*
G75*
G02*
X134158000Y-109022200I0J-200000D01*
G01*
X134158000Y-109422200D01*
G75*
G02*
X133958000Y-109622200I-200000J0D01*
G01*
G37*
G36*
G01*
X133958000Y-107972200D02*
X133408000Y-107972200D01*
G75*
G02*
X133208000Y-107772200I0J200000D01*
G01*
X133208000Y-107372200D01*
G75*
G02*
X133408000Y-107172200I200000J0D01*
G01*
X133958000Y-107172200D01*
G75*
G02*
X134158000Y-107372200I0J-200000D01*
G01*
X134158000Y-107772200D01*
G75*
G02*
X133958000Y-107972200I-200000J0D01*
G01*
G37*
G36*
G01*
X129825000Y-69448000D02*
X129275000Y-69448000D01*
G75*
G02*
X129075000Y-69248000I0J200000D01*
G01*
X129075000Y-68848000D01*
G75*
G02*
X129275000Y-68648000I200000J0D01*
G01*
X129825000Y-68648000D01*
G75*
G02*
X130025000Y-68848000I0J-200000D01*
G01*
X130025000Y-69248000D01*
G75*
G02*
X129825000Y-69448000I-200000J0D01*
G01*
G37*
G36*
G01*
X129825000Y-67798000D02*
X129275000Y-67798000D01*
G75*
G02*
X129075000Y-67598000I0J200000D01*
G01*
X129075000Y-67198000D01*
G75*
G02*
X129275000Y-66998000I200000J0D01*
G01*
X129825000Y-66998000D01*
G75*
G02*
X130025000Y-67198000I0J-200000D01*
G01*
X130025000Y-67598000D01*
G75*
G02*
X129825000Y-67798000I-200000J0D01*
G01*
G37*
G36*
G01*
X163288886Y-96731623D02*
X162899977Y-96342714D01*
G75*
G02*
X162899977Y-96059872I141421J141421D01*
G01*
X163182820Y-95777029D01*
G75*
G02*
X163465662Y-95777029I141421J-141421D01*
G01*
X163854571Y-96165938D01*
G75*
G02*
X163854571Y-96448780I-141421J-141421D01*
G01*
X163571728Y-96731623D01*
G75*
G02*
X163288886Y-96731623I-141421J141421D01*
G01*
G37*
G36*
G01*
X164455612Y-95564897D02*
X164066703Y-95175988D01*
G75*
G02*
X164066703Y-94893146I141421J141421D01*
G01*
X164349546Y-94610303D01*
G75*
G02*
X164632388Y-94610303I141421J-141421D01*
G01*
X165021297Y-94999212D01*
G75*
G02*
X165021297Y-95282054I-141421J-141421D01*
G01*
X164738454Y-95564897D01*
G75*
G02*
X164455612Y-95564897I-141421J141421D01*
G01*
G37*
G36*
G01*
X127630400Y-73467800D02*
X127630400Y-74017800D01*
G75*
G02*
X127430400Y-74217800I-200000J0D01*
G01*
X127030400Y-74217800D01*
G75*
G02*
X126830400Y-74017800I0J200000D01*
G01*
X126830400Y-73467800D01*
G75*
G02*
X127030400Y-73267800I200000J0D01*
G01*
X127430400Y-73267800D01*
G75*
G02*
X127630400Y-73467800I0J-200000D01*
G01*
G37*
G36*
G01*
X125980400Y-73467800D02*
X125980400Y-74017800D01*
G75*
G02*
X125780400Y-74217800I-200000J0D01*
G01*
X125380400Y-74217800D01*
G75*
G02*
X125180400Y-74017800I0J200000D01*
G01*
X125180400Y-73467800D01*
G75*
G02*
X125380400Y-73267800I200000J0D01*
G01*
X125780400Y-73267800D01*
G75*
G02*
X125980400Y-73467800I0J-200000D01*
G01*
G37*
G36*
G01*
X126592000Y-109622200D02*
X126042000Y-109622200D01*
G75*
G02*
X125842000Y-109422200I0J200000D01*
G01*
X125842000Y-109022200D01*
G75*
G02*
X126042000Y-108822200I200000J0D01*
G01*
X126592000Y-108822200D01*
G75*
G02*
X126792000Y-109022200I0J-200000D01*
G01*
X126792000Y-109422200D01*
G75*
G02*
X126592000Y-109622200I-200000J0D01*
G01*
G37*
G36*
G01*
X126592000Y-107972200D02*
X126042000Y-107972200D01*
G75*
G02*
X125842000Y-107772200I0J200000D01*
G01*
X125842000Y-107372200D01*
G75*
G02*
X126042000Y-107172200I200000J0D01*
G01*
X126592000Y-107172200D01*
G75*
G02*
X126792000Y-107372200I0J-200000D01*
G01*
X126792000Y-107772200D01*
G75*
G02*
X126592000Y-107972200I-200000J0D01*
G01*
G37*
G36*
G01*
X161011817Y-85609771D02*
X161365371Y-85256217D01*
G75*
G02*
X161683569Y-85256217I159099J-159099D01*
G01*
X162001767Y-85574415D01*
G75*
G02*
X162001767Y-85892613I-159099J-159099D01*
G01*
X161648213Y-86246167D01*
G75*
G02*
X161330015Y-86246167I-159099J159099D01*
G01*
X161011817Y-85927969D01*
G75*
G02*
X161011817Y-85609771I159099J159099D01*
G01*
G37*
G36*
G01*
X162107833Y-86705787D02*
X162461387Y-86352233D01*
G75*
G02*
X162779585Y-86352233I159099J-159099D01*
G01*
X163097783Y-86670431D01*
G75*
G02*
X163097783Y-86988629I-159099J-159099D01*
G01*
X162744229Y-87342183D01*
G75*
G02*
X162426031Y-87342183I-159099J159099D01*
G01*
X162107833Y-87023985D01*
G75*
G02*
X162107833Y-86705787I159099J159099D01*
G01*
G37*
G36*
G01*
X125293200Y-74737100D02*
X125593200Y-74737100D01*
G75*
G02*
X125743200Y-74887100I0J-150000D01*
G01*
X125743200Y-76062100D01*
G75*
G02*
X125593200Y-76212100I-150000J0D01*
G01*
X125293200Y-76212100D01*
G75*
G02*
X125143200Y-76062100I0J150000D01*
G01*
X125143200Y-74887100D01*
G75*
G02*
X125293200Y-74737100I150000J0D01*
G01*
G37*
G36*
G01*
X127193200Y-74737100D02*
X127493200Y-74737100D01*
G75*
G02*
X127643200Y-74887100I0J-150000D01*
G01*
X127643200Y-76062100D01*
G75*
G02*
X127493200Y-76212100I-150000J0D01*
G01*
X127193200Y-76212100D01*
G75*
G02*
X127043200Y-76062100I0J150000D01*
G01*
X127043200Y-74887100D01*
G75*
G02*
X127193200Y-74737100I150000J0D01*
G01*
G37*
G36*
G01*
X126243200Y-76612100D02*
X126543200Y-76612100D01*
G75*
G02*
X126693200Y-76762100I0J-150000D01*
G01*
X126693200Y-77937100D01*
G75*
G02*
X126543200Y-78087100I-150000J0D01*
G01*
X126243200Y-78087100D01*
G75*
G02*
X126093200Y-77937100I0J150000D01*
G01*
X126093200Y-76762100D01*
G75*
G02*
X126243200Y-76612100I150000J0D01*
G01*
G37*
G36*
X99702557Y-101373869D02*
G01*
X100975349Y-100101077D01*
X101682455Y-100808183D01*
X100409663Y-102080975D01*
X99702557Y-101373869D01*
G37*
G36*
X97934791Y-99606103D02*
G01*
X99207583Y-98333311D01*
X99914689Y-99040417D01*
X98641897Y-100313209D01*
X97934791Y-99606103D01*
G37*
G36*
G01*
X122700000Y-100974600D02*
X123200000Y-100974600D01*
G75*
G02*
X123425000Y-101199600I0J-225000D01*
G01*
X123425000Y-101649600D01*
G75*
G02*
X123200000Y-101874600I-225000J0D01*
G01*
X122700000Y-101874600D01*
G75*
G02*
X122475000Y-101649600I0J225000D01*
G01*
X122475000Y-101199600D01*
G75*
G02*
X122700000Y-100974600I225000J0D01*
G01*
G37*
G36*
G01*
X122700000Y-102524600D02*
X123200000Y-102524600D01*
G75*
G02*
X123425000Y-102749600I0J-225000D01*
G01*
X123425000Y-103199600D01*
G75*
G02*
X123200000Y-103424600I-225000J0D01*
G01*
X122700000Y-103424600D01*
G75*
G02*
X122475000Y-103199600I0J225000D01*
G01*
X122475000Y-102749600D01*
G75*
G02*
X122700000Y-102524600I225000J0D01*
G01*
G37*
G36*
G01*
X147375148Y-87964231D02*
X147875148Y-87964231D01*
G75*
G02*
X148100148Y-88189231I0J-225000D01*
G01*
X148100148Y-88639231D01*
G75*
G02*
X147875148Y-88864231I-225000J0D01*
G01*
X147375148Y-88864231D01*
G75*
G02*
X147150148Y-88639231I0J225000D01*
G01*
X147150148Y-88189231D01*
G75*
G02*
X147375148Y-87964231I225000J0D01*
G01*
G37*
G36*
G01*
X147375148Y-89514231D02*
X147875148Y-89514231D01*
G75*
G02*
X148100148Y-89739231I0J-225000D01*
G01*
X148100148Y-90189231D01*
G75*
G02*
X147875148Y-90414231I-225000J0D01*
G01*
X147375148Y-90414231D01*
G75*
G02*
X147150148Y-90189231I0J225000D01*
G01*
X147150148Y-89739231D01*
G75*
G02*
X147375148Y-89514231I225000J0D01*
G01*
G37*
G36*
G01*
X139706248Y-55423800D02*
X139706248Y-58423800D01*
G75*
G02*
X139456248Y-58673800I-250000J0D01*
G01*
X138956248Y-58673800D01*
G75*
G02*
X138706248Y-58423800I0J250000D01*
G01*
X138706248Y-55423800D01*
G75*
G02*
X138956248Y-55173800I250000J0D01*
G01*
X139456248Y-55173800D01*
G75*
G02*
X139706248Y-55423800I0J-250000D01*
G01*
G37*
G36*
G01*
X137706248Y-55423800D02*
X137706248Y-58423800D01*
G75*
G02*
X137456248Y-58673800I-250000J0D01*
G01*
X136956248Y-58673800D01*
G75*
G02*
X136706248Y-58423800I0J250000D01*
G01*
X136706248Y-55423800D01*
G75*
G02*
X136956248Y-55173800I250000J0D01*
G01*
X137456248Y-55173800D01*
G75*
G02*
X137706248Y-55423800I0J-250000D01*
G01*
G37*
G36*
G01*
X142306248Y-61223801D02*
X142306248Y-64123799D01*
G75*
G02*
X142056247Y-64373800I-250001J0D01*
G01*
X141056249Y-64373800D01*
G75*
G02*
X140806248Y-64123799I0J250001D01*
G01*
X140806248Y-61223801D01*
G75*
G02*
X141056249Y-60973800I250001J0D01*
G01*
X142056247Y-60973800D01*
G75*
G02*
X142306248Y-61223801I0J-250001D01*
G01*
G37*
G36*
G01*
X135606248Y-61223801D02*
X135606248Y-64123799D01*
G75*
G02*
X135356247Y-64373800I-250001J0D01*
G01*
X134356249Y-64373800D01*
G75*
G02*
X134106248Y-64123799I0J250001D01*
G01*
X134106248Y-61223801D01*
G75*
G02*
X134356249Y-60973800I250001J0D01*
G01*
X135356247Y-60973800D01*
G75*
G02*
X135606248Y-61223801I0J-250001D01*
G01*
G37*
G36*
G01*
X102620946Y-82451357D02*
X102267392Y-82097803D01*
G75*
G02*
X102267392Y-81779605I159099J159099D01*
G01*
X102585590Y-81461407D01*
G75*
G02*
X102903788Y-81461407I159099J-159099D01*
G01*
X103257342Y-81814961D01*
G75*
G02*
X103257342Y-82133159I-159099J-159099D01*
G01*
X102939144Y-82451357D01*
G75*
G02*
X102620946Y-82451357I-159099J159099D01*
G01*
G37*
G36*
G01*
X103716962Y-81355341D02*
X103363408Y-81001787D01*
G75*
G02*
X103363408Y-80683589I159099J159099D01*
G01*
X103681606Y-80365391D01*
G75*
G02*
X103999804Y-80365391I159099J-159099D01*
G01*
X104353358Y-80718945D01*
G75*
G02*
X104353358Y-81037143I-159099J-159099D01*
G01*
X104035160Y-81355341D01*
G75*
G02*
X103716962Y-81355341I-159099J159099D01*
G01*
G37*
G36*
G01*
X129913400Y-66492652D02*
X129613400Y-66492652D01*
G75*
G02*
X129463400Y-66342652I0J150000D01*
G01*
X129463400Y-65317652D01*
G75*
G02*
X129613400Y-65167652I150000J0D01*
G01*
X129913400Y-65167652D01*
G75*
G02*
X130063400Y-65317652I0J-150000D01*
G01*
X130063400Y-66342652D01*
G75*
G02*
X129913400Y-66492652I-150000J0D01*
G01*
G37*
G36*
G01*
X128963400Y-66492652D02*
X128663400Y-66492652D01*
G75*
G02*
X128513400Y-66342652I0J150000D01*
G01*
X128513400Y-65317652D01*
G75*
G02*
X128663400Y-65167652I150000J0D01*
G01*
X128963400Y-65167652D01*
G75*
G02*
X129113400Y-65317652I0J-150000D01*
G01*
X129113400Y-66342652D01*
G75*
G02*
X128963400Y-66492652I-150000J0D01*
G01*
G37*
G36*
G01*
X128013400Y-66492652D02*
X127713400Y-66492652D01*
G75*
G02*
X127563400Y-66342652I0J150000D01*
G01*
X127563400Y-65317652D01*
G75*
G02*
X127713400Y-65167652I150000J0D01*
G01*
X128013400Y-65167652D01*
G75*
G02*
X128163400Y-65317652I0J-150000D01*
G01*
X128163400Y-66342652D01*
G75*
G02*
X128013400Y-66492652I-150000J0D01*
G01*
G37*
G36*
G01*
X128013400Y-64217652D02*
X127713400Y-64217652D01*
G75*
G02*
X127563400Y-64067652I0J150000D01*
G01*
X127563400Y-63042652D01*
G75*
G02*
X127713400Y-62892652I150000J0D01*
G01*
X128013400Y-62892652D01*
G75*
G02*
X128163400Y-63042652I0J-150000D01*
G01*
X128163400Y-64067652D01*
G75*
G02*
X128013400Y-64217652I-150000J0D01*
G01*
G37*
G36*
G01*
X129913400Y-64217652D02*
X129613400Y-64217652D01*
G75*
G02*
X129463400Y-64067652I0J150000D01*
G01*
X129463400Y-63042652D01*
G75*
G02*
X129613400Y-62892652I150000J0D01*
G01*
X129913400Y-62892652D01*
G75*
G02*
X130063400Y-63042652I0J-150000D01*
G01*
X130063400Y-64067652D01*
G75*
G02*
X129913400Y-64217652I-150000J0D01*
G01*
G37*
G36*
G01*
X117095126Y-70027010D02*
X117519390Y-70451274D01*
G75*
G02*
X117519390Y-70804828I-176777J-176777D01*
G01*
X117095126Y-71229092D01*
G75*
G02*
X116741572Y-71229092I-176777J176777D01*
G01*
X116317308Y-70804828D01*
G75*
G02*
X116317308Y-70451274I176777J176777D01*
G01*
X116741572Y-70027010D01*
G75*
G02*
X117095126Y-70027010I176777J-176777D01*
G01*
G37*
G36*
G01*
X115115228Y-72006908D02*
X115539492Y-72431172D01*
G75*
G02*
X115539492Y-72784726I-176777J-176777D01*
G01*
X115115228Y-73208990D01*
G75*
G02*
X114761674Y-73208990I-176777J176777D01*
G01*
X114337410Y-72784726D01*
G75*
G02*
X114337410Y-72431172I176777J176777D01*
G01*
X114761674Y-72006908D01*
G75*
G02*
X115115228Y-72006908I176777J-176777D01*
G01*
G37*
G36*
G01*
X144501817Y-66762839D02*
X144855371Y-66409285D01*
G75*
G02*
X145173569Y-66409285I159099J-159099D01*
G01*
X145491767Y-66727483D01*
G75*
G02*
X145491767Y-67045681I-159099J-159099D01*
G01*
X145138213Y-67399235D01*
G75*
G02*
X144820015Y-67399235I-159099J159099D01*
G01*
X144501817Y-67081037D01*
G75*
G02*
X144501817Y-66762839I159099J159099D01*
G01*
G37*
G36*
G01*
X145597833Y-67858855D02*
X145951387Y-67505301D01*
G75*
G02*
X146269585Y-67505301I159099J-159099D01*
G01*
X146587783Y-67823499D01*
G75*
G02*
X146587783Y-68141697I-159099J-159099D01*
G01*
X146234229Y-68495251D01*
G75*
G02*
X145916031Y-68495251I-159099J159099D01*
G01*
X145597833Y-68177053D01*
G75*
G02*
X145597833Y-67858855I159099J159099D01*
G01*
G37*
G36*
G01*
X159097049Y-92795460D02*
X158708140Y-92406551D01*
G75*
G02*
X158708140Y-92123709I141421J141421D01*
G01*
X158990983Y-91840866D01*
G75*
G02*
X159273825Y-91840866I141421J-141421D01*
G01*
X159662734Y-92229775D01*
G75*
G02*
X159662734Y-92512617I-141421J-141421D01*
G01*
X159379891Y-92795460D01*
G75*
G02*
X159097049Y-92795460I-141421J141421D01*
G01*
G37*
G36*
G01*
X160263775Y-91628734D02*
X159874866Y-91239825D01*
G75*
G02*
X159874866Y-90956983I141421J141421D01*
G01*
X160157709Y-90674140D01*
G75*
G02*
X160440551Y-90674140I141421J-141421D01*
G01*
X160829460Y-91063049D01*
G75*
G02*
X160829460Y-91345891I-141421J-141421D01*
G01*
X160546617Y-91628734D01*
G75*
G02*
X160263775Y-91628734I-141421J141421D01*
G01*
G37*
G36*
G01*
X136274999Y-102659799D02*
X136274999Y-103209799D01*
G75*
G02*
X136074999Y-103409799I-200000J0D01*
G01*
X135674999Y-103409799D01*
G75*
G02*
X135474999Y-103209799I0J200000D01*
G01*
X135474999Y-102659799D01*
G75*
G02*
X135674999Y-102459799I200000J0D01*
G01*
X136074999Y-102459799D01*
G75*
G02*
X136274999Y-102659799I0J-200000D01*
G01*
G37*
G36*
G01*
X134624999Y-102659799D02*
X134624999Y-103209799D01*
G75*
G02*
X134424999Y-103409799I-200000J0D01*
G01*
X134024999Y-103409799D01*
G75*
G02*
X133824999Y-103209799I0J200000D01*
G01*
X133824999Y-102659799D01*
G75*
G02*
X134024999Y-102459799I200000J0D01*
G01*
X134424999Y-102459799D01*
G75*
G02*
X134624999Y-102659799I0J-200000D01*
G01*
G37*
G36*
G01*
X115128625Y-75337379D02*
X115482179Y-74983825D01*
G75*
G02*
X115800377Y-74983825I159099J-159099D01*
G01*
X116118575Y-75302023D01*
G75*
G02*
X116118575Y-75620221I-159099J-159099D01*
G01*
X115765021Y-75973775D01*
G75*
G02*
X115446823Y-75973775I-159099J159099D01*
G01*
X115128625Y-75655577D01*
G75*
G02*
X115128625Y-75337379I159099J159099D01*
G01*
G37*
G36*
G01*
X116224641Y-76433395D02*
X116578195Y-76079841D01*
G75*
G02*
X116896393Y-76079841I159099J-159099D01*
G01*
X117214591Y-76398039D01*
G75*
G02*
X117214591Y-76716237I-159099J-159099D01*
G01*
X116861037Y-77069791D01*
G75*
G02*
X116542839Y-77069791I-159099J159099D01*
G01*
X116224641Y-76751593D01*
G75*
G02*
X116224641Y-76433395I159099J159099D01*
G01*
G37*
G36*
G01*
X128065200Y-109622200D02*
X127515200Y-109622200D01*
G75*
G02*
X127315200Y-109422200I0J200000D01*
G01*
X127315200Y-109022200D01*
G75*
G02*
X127515200Y-108822200I200000J0D01*
G01*
X128065200Y-108822200D01*
G75*
G02*
X128265200Y-109022200I0J-200000D01*
G01*
X128265200Y-109422200D01*
G75*
G02*
X128065200Y-109622200I-200000J0D01*
G01*
G37*
G36*
G01*
X128065200Y-107972200D02*
X127515200Y-107972200D01*
G75*
G02*
X127315200Y-107772200I0J200000D01*
G01*
X127315200Y-107372200D01*
G75*
G02*
X127515200Y-107172200I200000J0D01*
G01*
X128065200Y-107172200D01*
G75*
G02*
X128265200Y-107372200I0J-200000D01*
G01*
X128265200Y-107772200D01*
G75*
G02*
X128065200Y-107972200I-200000J0D01*
G01*
G37*
G36*
G01*
X148851200Y-87956600D02*
X149401200Y-87956600D01*
G75*
G02*
X149601200Y-88156600I0J-200000D01*
G01*
X149601200Y-88556600D01*
G75*
G02*
X149401200Y-88756600I-200000J0D01*
G01*
X148851200Y-88756600D01*
G75*
G02*
X148651200Y-88556600I0J200000D01*
G01*
X148651200Y-88156600D01*
G75*
G02*
X148851200Y-87956600I200000J0D01*
G01*
G37*
G36*
G01*
X148851200Y-89606600D02*
X149401200Y-89606600D01*
G75*
G02*
X149601200Y-89806600I0J-200000D01*
G01*
X149601200Y-90206600D01*
G75*
G02*
X149401200Y-90406600I-200000J0D01*
G01*
X148851200Y-90406600D01*
G75*
G02*
X148651200Y-90206600I0J200000D01*
G01*
X148651200Y-89806600D01*
G75*
G02*
X148851200Y-89606600I200000J0D01*
G01*
G37*
G36*
G01*
X122113200Y-60448000D02*
X122113200Y-59948000D01*
G75*
G02*
X122338200Y-59723000I225000J0D01*
G01*
X122788200Y-59723000D01*
G75*
G02*
X123013200Y-59948000I0J-225000D01*
G01*
X123013200Y-60448000D01*
G75*
G02*
X122788200Y-60673000I-225000J0D01*
G01*
X122338200Y-60673000D01*
G75*
G02*
X122113200Y-60448000I0J225000D01*
G01*
G37*
G36*
G01*
X123663200Y-60448000D02*
X123663200Y-59948000D01*
G75*
G02*
X123888200Y-59723000I225000J0D01*
G01*
X124338200Y-59723000D01*
G75*
G02*
X124563200Y-59948000I0J-225000D01*
G01*
X124563200Y-60448000D01*
G75*
G02*
X124338200Y-60673000I-225000J0D01*
G01*
X123888200Y-60673000D01*
G75*
G02*
X123663200Y-60448000I0J225000D01*
G01*
G37*
G36*
G01*
X142221800Y-101001400D02*
X142771800Y-101001400D01*
G75*
G02*
X142971800Y-101201400I0J-200000D01*
G01*
X142971800Y-101601400D01*
G75*
G02*
X142771800Y-101801400I-200000J0D01*
G01*
X142221800Y-101801400D01*
G75*
G02*
X142021800Y-101601400I0J200000D01*
G01*
X142021800Y-101201400D01*
G75*
G02*
X142221800Y-101001400I200000J0D01*
G01*
G37*
G36*
G01*
X142221800Y-102651400D02*
X142771800Y-102651400D01*
G75*
G02*
X142971800Y-102851400I0J-200000D01*
G01*
X142971800Y-103251400D01*
G75*
G02*
X142771800Y-103451400I-200000J0D01*
G01*
X142221800Y-103451400D01*
G75*
G02*
X142021800Y-103251400I0J200000D01*
G01*
X142021800Y-102851400D01*
G75*
G02*
X142221800Y-102651400I200000J0D01*
G01*
G37*
G36*
G01*
X126342800Y-59220600D02*
X125842800Y-59220600D01*
G75*
G02*
X125617800Y-58995600I0J225000D01*
G01*
X125617800Y-58545600D01*
G75*
G02*
X125842800Y-58320600I225000J0D01*
G01*
X126342800Y-58320600D01*
G75*
G02*
X126567800Y-58545600I0J-225000D01*
G01*
X126567800Y-58995600D01*
G75*
G02*
X126342800Y-59220600I-225000J0D01*
G01*
G37*
G36*
G01*
X126342800Y-57670600D02*
X125842800Y-57670600D01*
G75*
G02*
X125617800Y-57445600I0J225000D01*
G01*
X125617800Y-56995600D01*
G75*
G02*
X125842800Y-56770600I225000J0D01*
G01*
X126342800Y-56770600D01*
G75*
G02*
X126567800Y-56995600I0J-225000D01*
G01*
X126567800Y-57445600D01*
G75*
G02*
X126342800Y-57670600I-225000J0D01*
G01*
G37*
M02*
