M48
; DRILL file {KiCad 7.0.8-7.0.8~ubuntu23.04.1} date Tue Nov 14 21:47:51 2023
; FORMAT={-:-/ absolute / metric / decimal}
; #@! TF.CreationDate,2023-11-14T21:47:51+00:00
; #@! TF.GenerationSoftware,Kicad,Pcbnew,7.0.8-7.0.8~ubuntu23.04.1
; #@! TF.FileFunction,Plated,1,2,PTH
FMAT,2
METRIC
; #@! TA.AperFunction,Plated,PTH,ViaDrill
T1C0.300
; #@! TA.AperFunction,Plated,PTH,ComponentDrill
T2C0.600
; #@! TA.AperFunction,Plated,PTH,ComponentDrill
T3C1.000
%
G90
G05
T1
X89.65Y-91.898
X92.9Y-93.698
X94.046Y-94.152
X94.06Y-91.138
X94.59Y-98.102
X94.767Y-91.307
X94.98Y-92.018
X95.38Y-98.878
X95.86Y-92.838
X96.835Y-91.898
X97.0Y-99.948
X97.712Y-87.616
X98.35Y-82.848
X98.4Y-84.321
X98.4Y-85.048
X98.553Y-88.465
X98.56Y-91.058
X99.29Y-87.798
X99.37Y-85.958
X100.0Y-103.098
X101.81Y-77.461
X102.29Y-80.978
X102.324Y-87.774
X102.34Y-77.958
X102.75Y-83.748
X103.261Y-88.888
X103.709Y-87.647
X104.14Y-75.048
X104.69Y-75.598
X105.18Y-86.038
X105.49Y-96.361
X105.49Y-97.248
X105.49Y-98.688
X105.734Y-93.196
X105.8Y-86.908
X105.85Y-77.998
X105.928Y-89.87
X106.224Y-96.361
X106.46Y-93.196
X106.59Y-87.688
X106.95Y-101.298
X106.959Y-96.361
X107.44Y-100.61
X107.45Y-70.198
X107.851Y-101.209
X108.25Y-78.398
X108.26Y-80.848
X108.36Y-99.365
X108.512Y-69.434
X108.65Y-76.248
X108.67Y-97.208
X108.832Y-101.92
X109.0Y-78.695
X109.086Y-98.798
X109.086Y-101.205
X109.24Y-104.864
X109.24Y-86.648
X109.5Y-68.448
X109.532Y-98.009
X109.75Y-87.598
X109.756Y-105.375
X110.022Y-97.258
X110.55Y-85.108
X110.56Y-98.798
X110.65Y-101.198
X110.676Y-102.868
X110.676Y-104.61
X110.865Y-88.748
X110.865Y-93.369
X111.168Y-72.833
X111.168Y-76.498
X111.834Y-99.855
X111.915Y-76.805
X112.04Y-71.965
X112.252Y-99.262
X112.36Y-93.828
X112.4Y-87.598
X112.47Y-97.208
X112.47Y-100.278
X112.779Y-103.774
X113.176Y-94.448
X113.176Y-98.528
X113.2Y-77.342
X113.43Y-85.448
X113.45Y-79.398
X113.45Y-81.498
X113.666Y-104.31
X114.3Y-114.298
X114.461Y-107.209
X114.5Y-89.848
X114.84Y-109.148
X114.938Y-71.695
X114.975Y-107.723
X115.027Y-91.2
X115.186Y-105.471
X115.5Y-80.898
X115.7Y-105.984
X115.7Y-60.698
X116.008Y-82.148
X116.213Y-106.498
X116.5Y-93.808
X116.6Y-104.698
X116.727Y-107.012
X117.1Y-80.198
X117.122Y-91.962
X117.122Y-94.58
X117.15Y-87.598
X117.633Y-91.445
X117.65Y-93.748
X117.778Y-66.148
X117.843Y-99.018
X117.91Y-100.325
X117.96Y-103.47
X118.1Y-60.698
X118.655Y-90.548
X118.697Y-100.325
X119.55Y-100.048
X120.202Y-57.3
X120.5Y-111.648
X121.25Y-87.598
X121.618Y-52.873
X121.75Y-122.298
X122.583Y-103.978
X122.83Y-55.616
X122.939Y-72.888
X122.939Y-78.019
X122.985Y-65.692
X123.13Y-97.948
X123.43Y-107.718
X123.44Y-105.671
X123.44Y-106.398
X123.548Y-71.77
X123.548Y-78.648
X123.811Y-95.109
X123.905Y-98.002
X124.176Y-107.116
X124.2Y-58.798
X124.232Y-97.353
X124.258Y-67.688
X124.559Y-96.277
X124.818Y-83.861
X124.92Y-121.249
X124.945Y-118.202
X125.25Y-68.948
X125.411Y-56.202
X125.453Y-76.546
X125.599Y-58.131
X125.777Y-95.297
X126.078Y-106.331
X126.208Y-95.898
X126.271Y-102.962
X126.284Y-105.635
X126.32Y-108.396
X126.4Y-72.298
X126.698Y-93.798
X126.774Y-104.654
X126.85Y-79.148
X126.85Y-85.848
X127.554Y-59.604
X127.633Y-85.842
X127.65Y-92.215
X127.714Y-100.828
X127.79Y-108.399
X128.25Y-56.298
X128.35Y-92.698
X128.359Y-85.849
X128.527Y-100.372
X128.681Y-76.647
X128.758Y-117.084
X128.8Y-64.298
X128.925Y-125.263
X129.077Y-92.698
X129.086Y-85.842
X129.26Y-108.399
X129.492Y-103.978
X129.5Y-69.998
X130.0Y-102.2
X130.0Y-128.298
X130.05Y-85.842
X130.05Y-88.738
X130.711Y-100.676
X130.75Y-108.399
X131.168Y-103.978
X131.422Y-118.202
X131.473Y-86.35
X131.75Y-78.148
X132.0Y-64.998
X132.21Y-108.399
X132.45Y-81.198
X132.489Y-100.394
X132.59Y-101.458
X133.15Y-94.554
X133.15Y-102.454
X133.15Y-77.358
X133.7Y-108.396
X134.0Y-73.498
X134.013Y-103.978
X134.76Y-97.368
X135.004Y-118.176
X135.08Y-83.861
X135.334Y-121.249
X135.6Y-56.948
X135.817Y-100.472
X136.655Y-99.558
X138.001Y-93.487
X138.026Y-96.798
X138.25Y-122.348
X138.433Y-52.822
X138.5Y-88.898
X140.795Y-102.332
X140.8Y-56.948
X141.3Y-93.998
X142.116Y-84.47
X142.116Y-100.371
X142.606Y-85.207
X142.606Y-99.49
X143.632Y-97.12
X143.652Y-91.109
X143.97Y-103.571
X144.159Y-91.643
X144.16Y-97.642
X144.711Y-98.123
X144.78Y-92.038
X145.138Y-105.959
X145.265Y-101.615
X145.272Y-104.654
X145.34Y-98.505
X145.392Y-92.446
X145.79Y-100.928
X145.799Y-102.2
X145.799Y-105.349
X145.9Y-94.402
X145.9Y-98.982
X146.4Y-64.598
X146.489Y-72.888
X146.52Y-98.518
X146.54Y-83.607
X146.54Y-84.47
X146.54Y-85.197
X146.55Y-110.098
X146.609Y-107.226
X147.729Y-115.367
X148.237Y-94.925
X148.542Y-101.615
X148.999Y-104.943
X149.101Y-102.2
X149.8Y-65.048
X149.83Y-112.317
X150.117Y-100.371
X150.25Y-68.448
X150.371Y-112.817
X151.48Y-106.653
X152.022Y-92.446
X152.098Y-95.469
X152.149Y-91.455
X152.18Y-87.905
X152.201Y-87.169
X152.578Y-96.681
X152.654Y-95.959
X152.657Y-93.945
X152.86Y-101.031
X152.936Y-105.298
X153.208Y-97.044
X153.368Y-99.456
X153.597Y-93.386
X155.298Y-94.925
X155.589Y-102.594
X155.705Y-93.843
X156.928Y-101.263
X157.483Y-91.532
X157.838Y-88.484
X158.346Y-92.751
X158.702Y-83.607
X158.905Y-87.315
X159.032Y-97.17
X159.718Y-86.706
X159.743Y-97.907
X161.09Y-99.228
X161.1Y-94.798
X161.75Y-80.598
X161.902Y-96.104
X162.5Y-85.688
X162.5Y-89.498
X162.512Y-96.662
X163.7Y-87.298
X164.0Y-90.998
X164.188Y-96.764
X164.755Y-96.035
X166.322Y-94.681
X166.881Y-94.122
X168.3Y-91.898
T3
X101.912Y-103.544
X103.708Y-101.748
X103.708Y-105.34
X105.504Y-103.544
X105.504Y-107.136
X107.3Y-105.34
X107.3Y-108.932
X109.096Y-107.136
X109.096Y-110.728
X110.892Y-108.932
X110.892Y-112.524
X112.688Y-110.728
X112.688Y-114.32
X114.484Y-112.524
X114.484Y-116.116
X116.28Y-114.32
X116.28Y-117.912
X118.076Y-116.116
T2
X103.868Y-70.934G85X104.434Y-71.5
G05
X106.711Y-73.777G85X107.488Y-74.555
G05
X109.977Y-64.825G85X110.543Y-65.391
G05
X112.82Y-67.667G85X113.598Y-68.445
G05
T0
M30
