%TF.GenerationSoftware,KiCad,Pcbnew,7.0.8-7.0.8~ubuntu23.04.1*%
%TF.CreationDate,2023-11-14T21:47:51+00:00*%
%TF.ProjectId,demo-badge-2023,64656d6f-2d62-4616-9467-652d32303233,1*%
%TF.SameCoordinates,Original*%
%TF.FileFunction,Drillmap*%
%TF.FilePolarity,Positive*%
%FSLAX45Y45*%
G04 Gerber Fmt 4.5, Leading zero omitted, Abs format (unit mm)*
G04 Created by KiCad (PCBNEW 7.0.8-7.0.8~ubuntu23.04.1) date 2023-11-14 21:47:51*
%MOMM*%
%LPD*%
G01*
G04 APERTURE LIST*
%ADD10C,0.100000*%
%ADD11C,0.150000*%
%ADD12C,0.200000*%
%ADD13C,0.060000*%
%ADD14C,0.090000*%
%ADD15C,0.099060*%
G04 APERTURE END LIST*
D10*
X12177040Y-10103120D02*
G75*
G03*
X12075440Y-10103120I-50800J0D01*
G01*
D11*
X8564999Y-8584501D02*
G75*
G03*
X8565000Y-9019800I217651J-217649D01*
G01*
X17435000Y-9019800D02*
X13212132Y-13241634D01*
X14256882Y-5406566D02*
X17435000Y-8584502D01*
X12450000Y-5410948D02*
X13550000Y-5410948D01*
D10*
X11724920Y-10321560D02*
X11724920Y-10103120D01*
D11*
X12783494Y-5160948D02*
X12450000Y-5160948D01*
D10*
X11623320Y-10321560D02*
G75*
G03*
X11724920Y-10321560I50800J0D01*
G01*
X12075440Y-10103120D02*
X12075440Y-10321560D01*
D11*
X13216506Y-5160948D02*
G75*
G03*
X12783494Y-5160948I-216506J-125000D01*
G01*
X17434999Y-9019799D02*
G75*
G03*
X17435000Y-8584502I-217649J217649D01*
G01*
D10*
X11999240Y-10514600D02*
G75*
G03*
X11999240Y-10413000I0J50800D01*
G01*
D11*
X13550000Y-5160948D02*
X13216506Y-5160948D01*
X12450000Y-5160952D02*
G75*
G03*
X12450000Y-5410948I0J-124998D01*
G01*
X12787868Y-13241634D02*
G75*
G03*
X13212132Y-13241634I212132J212132D01*
G01*
D10*
X11623320Y-10103120D02*
X11623320Y-10321560D01*
D11*
X13550000Y-5410952D02*
G75*
G03*
X13550000Y-5160948I0J125002D01*
G01*
D10*
X11801120Y-10514600D02*
X11999240Y-10514600D01*
X11724920Y-10103120D02*
G75*
G03*
X11623320Y-10103120I-50800J0D01*
G01*
X11801120Y-10413000D02*
G75*
G03*
X11801120Y-10514600I0J-50800D01*
G01*
X12177040Y-10321560D02*
X12177040Y-10103120D01*
X12075440Y-10321560D02*
G75*
G03*
X12177040Y-10321560I50800J0D01*
G01*
D11*
X14256882Y-5406566D02*
G75*
G03*
X11743118Y-5406566I-1256882J-1256884D01*
G01*
D10*
X11999240Y-10413000D02*
X11801120Y-10413000D01*
D11*
X8565000Y-8584502D02*
X11743118Y-5406566D01*
X12787868Y-13241634D02*
X8565000Y-9019800D01*
D12*
D13*
X10747118Y-7251515D02*
X10807118Y-7311515D01*
X10807118Y-7251515D02*
X10747118Y-7311515D01*
X11155826Y-6842807D02*
X11215826Y-6902807D01*
X11215826Y-6842807D02*
X11155826Y-6902807D01*
D14*
X10635424Y-7163456D02*
G75*
G03*
X10635424Y-7163456I-45000J0D01*
G01*
X11116256Y-6682624D02*
G75*
G03*
X11116256Y-6682624I-45000J0D01*
G01*
D15*
X10950000Y-8415270D02*
X10950000Y-8514330D01*
X10900470Y-8464800D02*
X10999530Y-8464800D01*
X11051600Y-7907270D02*
X11051600Y-8006330D01*
X11002070Y-7956800D02*
X11101130Y-7956800D01*
X11153200Y-8415270D02*
X11153200Y-8514330D01*
X11103670Y-8464800D02*
X11202730Y-8464800D01*
D10*
X10625882Y-7198421D02*
X10625882Y-7127709D01*
X10555170Y-7127709D01*
X10555170Y-7198421D01*
X10625882Y-7198421D01*
X11106714Y-6717588D02*
X11106714Y-6646877D01*
X11036003Y-6646877D01*
X11036003Y-6717588D01*
X11106714Y-6717588D01*
X12565356Y-8735156D02*
X12565356Y-8664444D01*
X12494644Y-8664444D01*
X12494644Y-8735156D01*
X12565356Y-8735156D01*
X13565356Y-8735156D02*
X13565356Y-8664444D01*
X13494644Y-8664444D01*
X13494644Y-8735156D01*
X13565356Y-8735156D01*
D12*
X8728123Y-13648486D02*
X8728123Y-13448486D01*
X8728123Y-13448486D02*
X8775742Y-13448486D01*
X8775742Y-13448486D02*
X8804314Y-13458010D01*
X8804314Y-13458010D02*
X8823361Y-13477057D01*
X8823361Y-13477057D02*
X8832885Y-13496105D01*
X8832885Y-13496105D02*
X8842409Y-13534200D01*
X8842409Y-13534200D02*
X8842409Y-13562771D01*
X8842409Y-13562771D02*
X8832885Y-13600867D01*
X8832885Y-13600867D02*
X8823361Y-13619914D01*
X8823361Y-13619914D02*
X8804314Y-13638962D01*
X8804314Y-13638962D02*
X8775742Y-13648486D01*
X8775742Y-13648486D02*
X8728123Y-13648486D01*
X8928123Y-13648486D02*
X8928123Y-13515152D01*
X8928123Y-13553248D02*
X8937647Y-13534200D01*
X8937647Y-13534200D02*
X8947171Y-13524676D01*
X8947171Y-13524676D02*
X8966218Y-13515152D01*
X8966218Y-13515152D02*
X8985266Y-13515152D01*
X9051933Y-13648486D02*
X9051933Y-13515152D01*
X9051933Y-13448486D02*
X9042409Y-13458010D01*
X9042409Y-13458010D02*
X9051933Y-13467533D01*
X9051933Y-13467533D02*
X9061457Y-13458010D01*
X9061457Y-13458010D02*
X9051933Y-13448486D01*
X9051933Y-13448486D02*
X9051933Y-13467533D01*
X9175742Y-13648486D02*
X9156695Y-13638962D01*
X9156695Y-13638962D02*
X9147171Y-13619914D01*
X9147171Y-13619914D02*
X9147171Y-13448486D01*
X9280504Y-13648486D02*
X9261457Y-13638962D01*
X9261457Y-13638962D02*
X9251933Y-13619914D01*
X9251933Y-13619914D02*
X9251933Y-13448486D01*
X9509076Y-13648486D02*
X9509076Y-13448486D01*
X9509076Y-13448486D02*
X9575742Y-13591343D01*
X9575742Y-13591343D02*
X9642409Y-13448486D01*
X9642409Y-13448486D02*
X9642409Y-13648486D01*
X9823361Y-13648486D02*
X9823361Y-13543724D01*
X9823361Y-13543724D02*
X9813838Y-13524676D01*
X9813838Y-13524676D02*
X9794790Y-13515152D01*
X9794790Y-13515152D02*
X9756695Y-13515152D01*
X9756695Y-13515152D02*
X9737647Y-13524676D01*
X9823361Y-13638962D02*
X9804314Y-13648486D01*
X9804314Y-13648486D02*
X9756695Y-13648486D01*
X9756695Y-13648486D02*
X9737647Y-13638962D01*
X9737647Y-13638962D02*
X9728123Y-13619914D01*
X9728123Y-13619914D02*
X9728123Y-13600867D01*
X9728123Y-13600867D02*
X9737647Y-13581819D01*
X9737647Y-13581819D02*
X9756695Y-13572295D01*
X9756695Y-13572295D02*
X9804314Y-13572295D01*
X9804314Y-13572295D02*
X9823361Y-13562771D01*
X9918599Y-13515152D02*
X9918599Y-13715152D01*
X9918599Y-13524676D02*
X9937647Y-13515152D01*
X9937647Y-13515152D02*
X9975742Y-13515152D01*
X9975742Y-13515152D02*
X9994790Y-13524676D01*
X9994790Y-13524676D02*
X10004314Y-13534200D01*
X10004314Y-13534200D02*
X10013838Y-13553248D01*
X10013838Y-13553248D02*
X10013838Y-13610390D01*
X10013838Y-13610390D02*
X10004314Y-13629438D01*
X10004314Y-13629438D02*
X9994790Y-13638962D01*
X9994790Y-13638962D02*
X9975742Y-13648486D01*
X9975742Y-13648486D02*
X9937647Y-13648486D01*
X9937647Y-13648486D02*
X9918599Y-13638962D01*
X10099552Y-13629438D02*
X10109076Y-13638962D01*
X10109076Y-13638962D02*
X10099552Y-13648486D01*
X10099552Y-13648486D02*
X10090028Y-13638962D01*
X10090028Y-13638962D02*
X10099552Y-13629438D01*
X10099552Y-13629438D02*
X10099552Y-13648486D01*
X10099552Y-13524676D02*
X10109076Y-13534200D01*
X10109076Y-13534200D02*
X10099552Y-13543724D01*
X10099552Y-13543724D02*
X10090028Y-13534200D01*
X10090028Y-13534200D02*
X10099552Y-13524676D01*
X10099552Y-13524676D02*
X10099552Y-13543724D01*
D13*
X8407346Y-13947002D02*
X8467346Y-14007002D01*
X8467346Y-13947002D02*
X8407346Y-14007002D01*
D12*
X8766218Y-13868486D02*
X8785266Y-13868486D01*
X8785266Y-13868486D02*
X8804314Y-13878010D01*
X8804314Y-13878010D02*
X8813838Y-13887533D01*
X8813838Y-13887533D02*
X8823361Y-13906581D01*
X8823361Y-13906581D02*
X8832885Y-13944676D01*
X8832885Y-13944676D02*
X8832885Y-13992295D01*
X8832885Y-13992295D02*
X8823361Y-14030390D01*
X8823361Y-14030390D02*
X8813838Y-14049438D01*
X8813838Y-14049438D02*
X8804314Y-14058962D01*
X8804314Y-14058962D02*
X8785266Y-14068486D01*
X8785266Y-14068486D02*
X8766218Y-14068486D01*
X8766218Y-14068486D02*
X8747171Y-14058962D01*
X8747171Y-14058962D02*
X8737647Y-14049438D01*
X8737647Y-14049438D02*
X8728123Y-14030390D01*
X8728123Y-14030390D02*
X8718599Y-13992295D01*
X8718599Y-13992295D02*
X8718599Y-13944676D01*
X8718599Y-13944676D02*
X8728123Y-13906581D01*
X8728123Y-13906581D02*
X8737647Y-13887533D01*
X8737647Y-13887533D02*
X8747171Y-13878010D01*
X8747171Y-13878010D02*
X8766218Y-13868486D01*
X8918599Y-14049438D02*
X8928123Y-14058962D01*
X8928123Y-14058962D02*
X8918599Y-14068486D01*
X8918599Y-14068486D02*
X8909076Y-14058962D01*
X8909076Y-14058962D02*
X8918599Y-14049438D01*
X8918599Y-14049438D02*
X8918599Y-14068486D01*
X9099552Y-13868486D02*
X9061457Y-13868486D01*
X9061457Y-13868486D02*
X9042409Y-13878010D01*
X9042409Y-13878010D02*
X9032885Y-13887533D01*
X9032885Y-13887533D02*
X9013838Y-13916105D01*
X9013838Y-13916105D02*
X9004314Y-13954200D01*
X9004314Y-13954200D02*
X9004314Y-14030390D01*
X9004314Y-14030390D02*
X9013838Y-14049438D01*
X9013838Y-14049438D02*
X9023361Y-14058962D01*
X9023361Y-14058962D02*
X9042409Y-14068486D01*
X9042409Y-14068486D02*
X9080504Y-14068486D01*
X9080504Y-14068486D02*
X9099552Y-14058962D01*
X9099552Y-14058962D02*
X9109076Y-14049438D01*
X9109076Y-14049438D02*
X9118599Y-14030390D01*
X9118599Y-14030390D02*
X9118599Y-13982771D01*
X9118599Y-13982771D02*
X9109076Y-13963724D01*
X9109076Y-13963724D02*
X9099552Y-13954200D01*
X9099552Y-13954200D02*
X9080504Y-13944676D01*
X9080504Y-13944676D02*
X9042409Y-13944676D01*
X9042409Y-13944676D02*
X9023361Y-13954200D01*
X9023361Y-13954200D02*
X9013838Y-13963724D01*
X9013838Y-13963724D02*
X9004314Y-13982771D01*
X9242409Y-13868486D02*
X9261457Y-13868486D01*
X9261457Y-13868486D02*
X9280504Y-13878010D01*
X9280504Y-13878010D02*
X9290028Y-13887533D01*
X9290028Y-13887533D02*
X9299552Y-13906581D01*
X9299552Y-13906581D02*
X9309076Y-13944676D01*
X9309076Y-13944676D02*
X9309076Y-13992295D01*
X9309076Y-13992295D02*
X9299552Y-14030390D01*
X9299552Y-14030390D02*
X9290028Y-14049438D01*
X9290028Y-14049438D02*
X9280504Y-14058962D01*
X9280504Y-14058962D02*
X9261457Y-14068486D01*
X9261457Y-14068486D02*
X9242409Y-14068486D01*
X9242409Y-14068486D02*
X9223361Y-14058962D01*
X9223361Y-14058962D02*
X9213838Y-14049438D01*
X9213838Y-14049438D02*
X9204314Y-14030390D01*
X9204314Y-14030390D02*
X9194790Y-13992295D01*
X9194790Y-13992295D02*
X9194790Y-13944676D01*
X9194790Y-13944676D02*
X9204314Y-13906581D01*
X9204314Y-13906581D02*
X9213838Y-13887533D01*
X9213838Y-13887533D02*
X9223361Y-13878010D01*
X9223361Y-13878010D02*
X9242409Y-13868486D01*
X9432885Y-13868486D02*
X9451933Y-13868486D01*
X9451933Y-13868486D02*
X9470980Y-13878010D01*
X9470980Y-13878010D02*
X9480504Y-13887533D01*
X9480504Y-13887533D02*
X9490028Y-13906581D01*
X9490028Y-13906581D02*
X9499552Y-13944676D01*
X9499552Y-13944676D02*
X9499552Y-13992295D01*
X9499552Y-13992295D02*
X9490028Y-14030390D01*
X9490028Y-14030390D02*
X9480504Y-14049438D01*
X9480504Y-14049438D02*
X9470980Y-14058962D01*
X9470980Y-14058962D02*
X9451933Y-14068486D01*
X9451933Y-14068486D02*
X9432885Y-14068486D01*
X9432885Y-14068486D02*
X9413838Y-14058962D01*
X9413838Y-14058962D02*
X9404314Y-14049438D01*
X9404314Y-14049438D02*
X9394790Y-14030390D01*
X9394790Y-14030390D02*
X9385266Y-13992295D01*
X9385266Y-13992295D02*
X9385266Y-13944676D01*
X9385266Y-13944676D02*
X9394790Y-13906581D01*
X9394790Y-13906581D02*
X9404314Y-13887533D01*
X9404314Y-13887533D02*
X9413838Y-13878010D01*
X9413838Y-13878010D02*
X9432885Y-13868486D01*
X9585266Y-14068486D02*
X9585266Y-13935152D01*
X9585266Y-13954200D02*
X9594790Y-13944676D01*
X9594790Y-13944676D02*
X9613838Y-13935152D01*
X9613838Y-13935152D02*
X9642409Y-13935152D01*
X9642409Y-13935152D02*
X9661457Y-13944676D01*
X9661457Y-13944676D02*
X9670980Y-13963724D01*
X9670980Y-13963724D02*
X9670980Y-14068486D01*
X9670980Y-13963724D02*
X9680504Y-13944676D01*
X9680504Y-13944676D02*
X9699552Y-13935152D01*
X9699552Y-13935152D02*
X9728123Y-13935152D01*
X9728123Y-13935152D02*
X9747171Y-13944676D01*
X9747171Y-13944676D02*
X9756695Y-13963724D01*
X9756695Y-13963724D02*
X9756695Y-14068486D01*
X9851933Y-14068486D02*
X9851933Y-13935152D01*
X9851933Y-13954200D02*
X9861457Y-13944676D01*
X9861457Y-13944676D02*
X9880504Y-13935152D01*
X9880504Y-13935152D02*
X9909076Y-13935152D01*
X9909076Y-13935152D02*
X9928123Y-13944676D01*
X9928123Y-13944676D02*
X9937647Y-13963724D01*
X9937647Y-13963724D02*
X9937647Y-14068486D01*
X9937647Y-13963724D02*
X9947171Y-13944676D01*
X9947171Y-13944676D02*
X9966219Y-13935152D01*
X9966219Y-13935152D02*
X9994790Y-13935152D01*
X9994790Y-13935152D02*
X10013838Y-13944676D01*
X10013838Y-13944676D02*
X10023361Y-13963724D01*
X10023361Y-13963724D02*
X10023361Y-14068486D01*
X10413838Y-13858962D02*
X10242409Y-14116105D01*
X10670981Y-13868486D02*
X10690028Y-13868486D01*
X10690028Y-13868486D02*
X10709076Y-13878010D01*
X10709076Y-13878010D02*
X10718600Y-13887533D01*
X10718600Y-13887533D02*
X10728123Y-13906581D01*
X10728123Y-13906581D02*
X10737647Y-13944676D01*
X10737647Y-13944676D02*
X10737647Y-13992295D01*
X10737647Y-13992295D02*
X10728123Y-14030390D01*
X10728123Y-14030390D02*
X10718600Y-14049438D01*
X10718600Y-14049438D02*
X10709076Y-14058962D01*
X10709076Y-14058962D02*
X10690028Y-14068486D01*
X10690028Y-14068486D02*
X10670981Y-14068486D01*
X10670981Y-14068486D02*
X10651933Y-14058962D01*
X10651933Y-14058962D02*
X10642409Y-14049438D01*
X10642409Y-14049438D02*
X10632885Y-14030390D01*
X10632885Y-14030390D02*
X10623362Y-13992295D01*
X10623362Y-13992295D02*
X10623362Y-13944676D01*
X10623362Y-13944676D02*
X10632885Y-13906581D01*
X10632885Y-13906581D02*
X10642409Y-13887533D01*
X10642409Y-13887533D02*
X10651933Y-13878010D01*
X10651933Y-13878010D02*
X10670981Y-13868486D01*
X10823362Y-14049438D02*
X10832885Y-14058962D01*
X10832885Y-14058962D02*
X10823362Y-14068486D01*
X10823362Y-14068486D02*
X10813838Y-14058962D01*
X10813838Y-14058962D02*
X10823362Y-14049438D01*
X10823362Y-14049438D02*
X10823362Y-14068486D01*
X10956695Y-13868486D02*
X10975743Y-13868486D01*
X10975743Y-13868486D02*
X10994790Y-13878010D01*
X10994790Y-13878010D02*
X11004314Y-13887533D01*
X11004314Y-13887533D02*
X11013838Y-13906581D01*
X11013838Y-13906581D02*
X11023362Y-13944676D01*
X11023362Y-13944676D02*
X11023362Y-13992295D01*
X11023362Y-13992295D02*
X11013838Y-14030390D01*
X11013838Y-14030390D02*
X11004314Y-14049438D01*
X11004314Y-14049438D02*
X10994790Y-14058962D01*
X10994790Y-14058962D02*
X10975743Y-14068486D01*
X10975743Y-14068486D02*
X10956695Y-14068486D01*
X10956695Y-14068486D02*
X10937647Y-14058962D01*
X10937647Y-14058962D02*
X10928123Y-14049438D01*
X10928123Y-14049438D02*
X10918600Y-14030390D01*
X10918600Y-14030390D02*
X10909076Y-13992295D01*
X10909076Y-13992295D02*
X10909076Y-13944676D01*
X10909076Y-13944676D02*
X10918600Y-13906581D01*
X10918600Y-13906581D02*
X10928123Y-13887533D01*
X10928123Y-13887533D02*
X10937647Y-13878010D01*
X10937647Y-13878010D02*
X10956695Y-13868486D01*
X11099552Y-13887533D02*
X11109076Y-13878010D01*
X11109076Y-13878010D02*
X11128123Y-13868486D01*
X11128123Y-13868486D02*
X11175743Y-13868486D01*
X11175743Y-13868486D02*
X11194790Y-13878010D01*
X11194790Y-13878010D02*
X11204314Y-13887533D01*
X11204314Y-13887533D02*
X11213838Y-13906581D01*
X11213838Y-13906581D02*
X11213838Y-13925629D01*
X11213838Y-13925629D02*
X11204314Y-13954200D01*
X11204314Y-13954200D02*
X11090028Y-14068486D01*
X11090028Y-14068486D02*
X11213838Y-14068486D01*
X11280504Y-13868486D02*
X11404314Y-13868486D01*
X11404314Y-13868486D02*
X11337647Y-13944676D01*
X11337647Y-13944676D02*
X11366219Y-13944676D01*
X11366219Y-13944676D02*
X11385266Y-13954200D01*
X11385266Y-13954200D02*
X11394790Y-13963724D01*
X11394790Y-13963724D02*
X11404314Y-13982771D01*
X11404314Y-13982771D02*
X11404314Y-14030390D01*
X11404314Y-14030390D02*
X11394790Y-14049438D01*
X11394790Y-14049438D02*
X11385266Y-14058962D01*
X11385266Y-14058962D02*
X11366219Y-14068486D01*
X11366219Y-14068486D02*
X11309076Y-14068486D01*
X11309076Y-14068486D02*
X11290028Y-14058962D01*
X11290028Y-14058962D02*
X11280504Y-14049438D01*
X11575742Y-13868486D02*
X11537647Y-13868486D01*
X11537647Y-13868486D02*
X11518600Y-13878010D01*
X11518600Y-13878010D02*
X11509076Y-13887533D01*
X11509076Y-13887533D02*
X11490028Y-13916105D01*
X11490028Y-13916105D02*
X11480504Y-13954200D01*
X11480504Y-13954200D02*
X11480504Y-14030390D01*
X11480504Y-14030390D02*
X11490028Y-14049438D01*
X11490028Y-14049438D02*
X11499552Y-14058962D01*
X11499552Y-14058962D02*
X11518600Y-14068486D01*
X11518600Y-14068486D02*
X11556695Y-14068486D01*
X11556695Y-14068486D02*
X11575742Y-14058962D01*
X11575742Y-14058962D02*
X11585266Y-14049438D01*
X11585266Y-14049438D02*
X11594790Y-14030390D01*
X11594790Y-14030390D02*
X11594790Y-13982771D01*
X11594790Y-13982771D02*
X11585266Y-13963724D01*
X11585266Y-13963724D02*
X11575742Y-13954200D01*
X11575742Y-13954200D02*
X11556695Y-13944676D01*
X11556695Y-13944676D02*
X11518600Y-13944676D01*
X11518600Y-13944676D02*
X11499552Y-13954200D01*
X11499552Y-13954200D02*
X11490028Y-13963724D01*
X11490028Y-13963724D02*
X11480504Y-13982771D01*
X11670981Y-13868486D02*
X11670981Y-13906581D01*
X11747171Y-13868486D02*
X11747171Y-13906581D01*
X12042409Y-14144676D02*
X12032885Y-14135152D01*
X12032885Y-14135152D02*
X12013838Y-14106581D01*
X12013838Y-14106581D02*
X12004314Y-14087533D01*
X12004314Y-14087533D02*
X11994790Y-14058962D01*
X11994790Y-14058962D02*
X11985266Y-14011343D01*
X11985266Y-14011343D02*
X11985266Y-13973248D01*
X11985266Y-13973248D02*
X11994790Y-13925629D01*
X11994790Y-13925629D02*
X12004314Y-13897057D01*
X12004314Y-13897057D02*
X12013838Y-13878010D01*
X12013838Y-13878010D02*
X12032885Y-13849438D01*
X12032885Y-13849438D02*
X12042409Y-13839914D01*
X12109076Y-13887533D02*
X12118600Y-13878010D01*
X12118600Y-13878010D02*
X12137647Y-13868486D01*
X12137647Y-13868486D02*
X12185266Y-13868486D01*
X12185266Y-13868486D02*
X12204314Y-13878010D01*
X12204314Y-13878010D02*
X12213838Y-13887533D01*
X12213838Y-13887533D02*
X12223362Y-13906581D01*
X12223362Y-13906581D02*
X12223362Y-13925629D01*
X12223362Y-13925629D02*
X12213838Y-13954200D01*
X12213838Y-13954200D02*
X12099552Y-14068486D01*
X12099552Y-14068486D02*
X12223362Y-14068486D01*
X12461457Y-14068486D02*
X12461457Y-13868486D01*
X12547171Y-14068486D02*
X12547171Y-13963724D01*
X12547171Y-13963724D02*
X12537647Y-13944676D01*
X12537647Y-13944676D02*
X12518600Y-13935152D01*
X12518600Y-13935152D02*
X12490028Y-13935152D01*
X12490028Y-13935152D02*
X12470981Y-13944676D01*
X12470981Y-13944676D02*
X12461457Y-13954200D01*
X12670981Y-14068486D02*
X12651933Y-14058962D01*
X12651933Y-14058962D02*
X12642409Y-14049438D01*
X12642409Y-14049438D02*
X12632885Y-14030390D01*
X12632885Y-14030390D02*
X12632885Y-13973248D01*
X12632885Y-13973248D02*
X12642409Y-13954200D01*
X12642409Y-13954200D02*
X12651933Y-13944676D01*
X12651933Y-13944676D02*
X12670981Y-13935152D01*
X12670981Y-13935152D02*
X12699552Y-13935152D01*
X12699552Y-13935152D02*
X12718600Y-13944676D01*
X12718600Y-13944676D02*
X12728124Y-13954200D01*
X12728124Y-13954200D02*
X12737647Y-13973248D01*
X12737647Y-13973248D02*
X12737647Y-14030390D01*
X12737647Y-14030390D02*
X12728124Y-14049438D01*
X12728124Y-14049438D02*
X12718600Y-14058962D01*
X12718600Y-14058962D02*
X12699552Y-14068486D01*
X12699552Y-14068486D02*
X12670981Y-14068486D01*
X12851933Y-14068486D02*
X12832885Y-14058962D01*
X12832885Y-14058962D02*
X12823362Y-14039914D01*
X12823362Y-14039914D02*
X12823362Y-13868486D01*
X13004314Y-14058962D02*
X12985266Y-14068486D01*
X12985266Y-14068486D02*
X12947171Y-14068486D01*
X12947171Y-14068486D02*
X12928124Y-14058962D01*
X12928124Y-14058962D02*
X12918600Y-14039914D01*
X12918600Y-14039914D02*
X12918600Y-13963724D01*
X12918600Y-13963724D02*
X12928124Y-13944676D01*
X12928124Y-13944676D02*
X12947171Y-13935152D01*
X12947171Y-13935152D02*
X12985266Y-13935152D01*
X12985266Y-13935152D02*
X13004314Y-13944676D01*
X13004314Y-13944676D02*
X13013838Y-13963724D01*
X13013838Y-13963724D02*
X13013838Y-13982771D01*
X13013838Y-13982771D02*
X12918600Y-14001819D01*
X13090028Y-14058962D02*
X13109076Y-14068486D01*
X13109076Y-14068486D02*
X13147171Y-14068486D01*
X13147171Y-14068486D02*
X13166219Y-14058962D01*
X13166219Y-14058962D02*
X13175743Y-14039914D01*
X13175743Y-14039914D02*
X13175743Y-14030390D01*
X13175743Y-14030390D02*
X13166219Y-14011343D01*
X13166219Y-14011343D02*
X13147171Y-14001819D01*
X13147171Y-14001819D02*
X13118600Y-14001819D01*
X13118600Y-14001819D02*
X13099552Y-13992295D01*
X13099552Y-13992295D02*
X13090028Y-13973248D01*
X13090028Y-13973248D02*
X13090028Y-13963724D01*
X13090028Y-13963724D02*
X13099552Y-13944676D01*
X13099552Y-13944676D02*
X13118600Y-13935152D01*
X13118600Y-13935152D02*
X13147171Y-13935152D01*
X13147171Y-13935152D02*
X13166219Y-13944676D01*
X13242409Y-14144676D02*
X13251933Y-14135152D01*
X13251933Y-14135152D02*
X13270981Y-14106581D01*
X13270981Y-14106581D02*
X13280505Y-14087533D01*
X13280505Y-14087533D02*
X13290028Y-14058962D01*
X13290028Y-14058962D02*
X13299552Y-14011343D01*
X13299552Y-14011343D02*
X13299552Y-13973248D01*
X13299552Y-13973248D02*
X13290028Y-13925629D01*
X13290028Y-13925629D02*
X13280505Y-13897057D01*
X13280505Y-13897057D02*
X13270981Y-13878010D01*
X13270981Y-13878010D02*
X13251933Y-13849438D01*
X13251933Y-13849438D02*
X13242409Y-13839914D01*
X13604314Y-14144676D02*
X13594790Y-14135152D01*
X13594790Y-14135152D02*
X13575743Y-14106581D01*
X13575743Y-14106581D02*
X13566219Y-14087533D01*
X13566219Y-14087533D02*
X13556695Y-14058962D01*
X13556695Y-14058962D02*
X13547171Y-14011343D01*
X13547171Y-14011343D02*
X13547171Y-13973248D01*
X13547171Y-13973248D02*
X13556695Y-13925629D01*
X13556695Y-13925629D02*
X13566219Y-13897057D01*
X13566219Y-13897057D02*
X13575743Y-13878010D01*
X13575743Y-13878010D02*
X13594790Y-13849438D01*
X13594790Y-13849438D02*
X13604314Y-13839914D01*
X13680505Y-13935152D02*
X13680505Y-14068486D01*
X13680505Y-13954200D02*
X13690028Y-13944676D01*
X13690028Y-13944676D02*
X13709076Y-13935152D01*
X13709076Y-13935152D02*
X13737647Y-13935152D01*
X13737647Y-13935152D02*
X13756695Y-13944676D01*
X13756695Y-13944676D02*
X13766219Y-13963724D01*
X13766219Y-13963724D02*
X13766219Y-14068486D01*
X13890028Y-14068486D02*
X13870981Y-14058962D01*
X13870981Y-14058962D02*
X13861457Y-14049438D01*
X13861457Y-14049438D02*
X13851933Y-14030390D01*
X13851933Y-14030390D02*
X13851933Y-13973248D01*
X13851933Y-13973248D02*
X13861457Y-13954200D01*
X13861457Y-13954200D02*
X13870981Y-13944676D01*
X13870981Y-13944676D02*
X13890028Y-13935152D01*
X13890028Y-13935152D02*
X13918600Y-13935152D01*
X13918600Y-13935152D02*
X13937647Y-13944676D01*
X13937647Y-13944676D02*
X13947171Y-13954200D01*
X13947171Y-13954200D02*
X13956695Y-13973248D01*
X13956695Y-13973248D02*
X13956695Y-14030390D01*
X13956695Y-14030390D02*
X13947171Y-14049438D01*
X13947171Y-14049438D02*
X13937647Y-14058962D01*
X13937647Y-14058962D02*
X13918600Y-14068486D01*
X13918600Y-14068486D02*
X13890028Y-14068486D01*
X14013838Y-13935152D02*
X14090028Y-13935152D01*
X14042409Y-13868486D02*
X14042409Y-14039914D01*
X14042409Y-14039914D02*
X14051933Y-14058962D01*
X14051933Y-14058962D02*
X14070981Y-14068486D01*
X14070981Y-14068486D02*
X14090028Y-14068486D01*
X14309076Y-13935152D02*
X14309076Y-14135152D01*
X14309076Y-13944676D02*
X14328124Y-13935152D01*
X14328124Y-13935152D02*
X14366219Y-13935152D01*
X14366219Y-13935152D02*
X14385267Y-13944676D01*
X14385267Y-13944676D02*
X14394790Y-13954200D01*
X14394790Y-13954200D02*
X14404314Y-13973248D01*
X14404314Y-13973248D02*
X14404314Y-14030390D01*
X14404314Y-14030390D02*
X14394790Y-14049438D01*
X14394790Y-14049438D02*
X14385267Y-14058962D01*
X14385267Y-14058962D02*
X14366219Y-14068486D01*
X14366219Y-14068486D02*
X14328124Y-14068486D01*
X14328124Y-14068486D02*
X14309076Y-14058962D01*
X14518600Y-14068486D02*
X14499552Y-14058962D01*
X14499552Y-14058962D02*
X14490028Y-14039914D01*
X14490028Y-14039914D02*
X14490028Y-13868486D01*
X14680505Y-14068486D02*
X14680505Y-13963724D01*
X14680505Y-13963724D02*
X14670981Y-13944676D01*
X14670981Y-13944676D02*
X14651933Y-13935152D01*
X14651933Y-13935152D02*
X14613838Y-13935152D01*
X14613838Y-13935152D02*
X14594790Y-13944676D01*
X14680505Y-14058962D02*
X14661457Y-14068486D01*
X14661457Y-14068486D02*
X14613838Y-14068486D01*
X14613838Y-14068486D02*
X14594790Y-14058962D01*
X14594790Y-14058962D02*
X14585267Y-14039914D01*
X14585267Y-14039914D02*
X14585267Y-14020867D01*
X14585267Y-14020867D02*
X14594790Y-14001819D01*
X14594790Y-14001819D02*
X14613838Y-13992295D01*
X14613838Y-13992295D02*
X14661457Y-13992295D01*
X14661457Y-13992295D02*
X14680505Y-13982771D01*
X14747171Y-13935152D02*
X14823362Y-13935152D01*
X14775743Y-13868486D02*
X14775743Y-14039914D01*
X14775743Y-14039914D02*
X14785267Y-14058962D01*
X14785267Y-14058962D02*
X14804314Y-14068486D01*
X14804314Y-14068486D02*
X14823362Y-14068486D01*
X14966219Y-14058962D02*
X14947171Y-14068486D01*
X14947171Y-14068486D02*
X14909076Y-14068486D01*
X14909076Y-14068486D02*
X14890028Y-14058962D01*
X14890028Y-14058962D02*
X14880505Y-14039914D01*
X14880505Y-14039914D02*
X14880505Y-13963724D01*
X14880505Y-13963724D02*
X14890028Y-13944676D01*
X14890028Y-13944676D02*
X14909076Y-13935152D01*
X14909076Y-13935152D02*
X14947171Y-13935152D01*
X14947171Y-13935152D02*
X14966219Y-13944676D01*
X14966219Y-13944676D02*
X14975743Y-13963724D01*
X14975743Y-13963724D02*
X14975743Y-13982771D01*
X14975743Y-13982771D02*
X14880505Y-14001819D01*
X15147171Y-14068486D02*
X15147171Y-13868486D01*
X15147171Y-14058962D02*
X15128124Y-14068486D01*
X15128124Y-14068486D02*
X15090028Y-14068486D01*
X15090028Y-14068486D02*
X15070981Y-14058962D01*
X15070981Y-14058962D02*
X15061457Y-14049438D01*
X15061457Y-14049438D02*
X15051933Y-14030390D01*
X15051933Y-14030390D02*
X15051933Y-13973248D01*
X15051933Y-13973248D02*
X15061457Y-13954200D01*
X15061457Y-13954200D02*
X15070981Y-13944676D01*
X15070981Y-13944676D02*
X15090028Y-13935152D01*
X15090028Y-13935152D02*
X15128124Y-13935152D01*
X15128124Y-13935152D02*
X15147171Y-13944676D01*
X15223362Y-14144676D02*
X15232886Y-14135152D01*
X15232886Y-14135152D02*
X15251933Y-14106581D01*
X15251933Y-14106581D02*
X15261457Y-14087533D01*
X15261457Y-14087533D02*
X15270981Y-14058962D01*
X15270981Y-14058962D02*
X15280505Y-14011343D01*
X15280505Y-14011343D02*
X15280505Y-13973248D01*
X15280505Y-13973248D02*
X15270981Y-13925629D01*
X15270981Y-13925629D02*
X15261457Y-13897057D01*
X15261457Y-13897057D02*
X15251933Y-13878010D01*
X15251933Y-13878010D02*
X15232886Y-13849438D01*
X15232886Y-13849438D02*
X15223362Y-13839914D01*
D14*
X8467346Y-14241002D02*
G75*
G03*
X8467346Y-14241002I-45000J0D01*
G01*
D12*
X8766218Y-14132486D02*
X8785266Y-14132486D01*
X8785266Y-14132486D02*
X8804314Y-14142010D01*
X8804314Y-14142010D02*
X8813838Y-14151533D01*
X8813838Y-14151533D02*
X8823361Y-14170581D01*
X8823361Y-14170581D02*
X8832885Y-14208676D01*
X8832885Y-14208676D02*
X8832885Y-14256295D01*
X8832885Y-14256295D02*
X8823361Y-14294390D01*
X8823361Y-14294390D02*
X8813838Y-14313438D01*
X8813838Y-14313438D02*
X8804314Y-14322962D01*
X8804314Y-14322962D02*
X8785266Y-14332486D01*
X8785266Y-14332486D02*
X8766218Y-14332486D01*
X8766218Y-14332486D02*
X8747171Y-14322962D01*
X8747171Y-14322962D02*
X8737647Y-14313438D01*
X8737647Y-14313438D02*
X8728123Y-14294390D01*
X8728123Y-14294390D02*
X8718599Y-14256295D01*
X8718599Y-14256295D02*
X8718599Y-14208676D01*
X8718599Y-14208676D02*
X8728123Y-14170581D01*
X8728123Y-14170581D02*
X8737647Y-14151533D01*
X8737647Y-14151533D02*
X8747171Y-14142010D01*
X8747171Y-14142010D02*
X8766218Y-14132486D01*
X8918599Y-14313438D02*
X8928123Y-14322962D01*
X8928123Y-14322962D02*
X8918599Y-14332486D01*
X8918599Y-14332486D02*
X8909076Y-14322962D01*
X8909076Y-14322962D02*
X8918599Y-14313438D01*
X8918599Y-14313438D02*
X8918599Y-14332486D01*
X9023361Y-14332486D02*
X9061457Y-14332486D01*
X9061457Y-14332486D02*
X9080504Y-14322962D01*
X9080504Y-14322962D02*
X9090028Y-14313438D01*
X9090028Y-14313438D02*
X9109076Y-14284867D01*
X9109076Y-14284867D02*
X9118599Y-14246771D01*
X9118599Y-14246771D02*
X9118599Y-14170581D01*
X9118599Y-14170581D02*
X9109076Y-14151533D01*
X9109076Y-14151533D02*
X9099552Y-14142010D01*
X9099552Y-14142010D02*
X9080504Y-14132486D01*
X9080504Y-14132486D02*
X9042409Y-14132486D01*
X9042409Y-14132486D02*
X9023361Y-14142010D01*
X9023361Y-14142010D02*
X9013838Y-14151533D01*
X9013838Y-14151533D02*
X9004314Y-14170581D01*
X9004314Y-14170581D02*
X9004314Y-14218200D01*
X9004314Y-14218200D02*
X9013838Y-14237248D01*
X9013838Y-14237248D02*
X9023361Y-14246771D01*
X9023361Y-14246771D02*
X9042409Y-14256295D01*
X9042409Y-14256295D02*
X9080504Y-14256295D01*
X9080504Y-14256295D02*
X9099552Y-14246771D01*
X9099552Y-14246771D02*
X9109076Y-14237248D01*
X9109076Y-14237248D02*
X9118599Y-14218200D01*
X9242409Y-14132486D02*
X9261457Y-14132486D01*
X9261457Y-14132486D02*
X9280504Y-14142010D01*
X9280504Y-14142010D02*
X9290028Y-14151533D01*
X9290028Y-14151533D02*
X9299552Y-14170581D01*
X9299552Y-14170581D02*
X9309076Y-14208676D01*
X9309076Y-14208676D02*
X9309076Y-14256295D01*
X9309076Y-14256295D02*
X9299552Y-14294390D01*
X9299552Y-14294390D02*
X9290028Y-14313438D01*
X9290028Y-14313438D02*
X9280504Y-14322962D01*
X9280504Y-14322962D02*
X9261457Y-14332486D01*
X9261457Y-14332486D02*
X9242409Y-14332486D01*
X9242409Y-14332486D02*
X9223361Y-14322962D01*
X9223361Y-14322962D02*
X9213838Y-14313438D01*
X9213838Y-14313438D02*
X9204314Y-14294390D01*
X9204314Y-14294390D02*
X9194790Y-14256295D01*
X9194790Y-14256295D02*
X9194790Y-14208676D01*
X9194790Y-14208676D02*
X9204314Y-14170581D01*
X9204314Y-14170581D02*
X9213838Y-14151533D01*
X9213838Y-14151533D02*
X9223361Y-14142010D01*
X9223361Y-14142010D02*
X9242409Y-14132486D01*
X9432885Y-14132486D02*
X9451933Y-14132486D01*
X9451933Y-14132486D02*
X9470980Y-14142010D01*
X9470980Y-14142010D02*
X9480504Y-14151533D01*
X9480504Y-14151533D02*
X9490028Y-14170581D01*
X9490028Y-14170581D02*
X9499552Y-14208676D01*
X9499552Y-14208676D02*
X9499552Y-14256295D01*
X9499552Y-14256295D02*
X9490028Y-14294390D01*
X9490028Y-14294390D02*
X9480504Y-14313438D01*
X9480504Y-14313438D02*
X9470980Y-14322962D01*
X9470980Y-14322962D02*
X9451933Y-14332486D01*
X9451933Y-14332486D02*
X9432885Y-14332486D01*
X9432885Y-14332486D02*
X9413838Y-14322962D01*
X9413838Y-14322962D02*
X9404314Y-14313438D01*
X9404314Y-14313438D02*
X9394790Y-14294390D01*
X9394790Y-14294390D02*
X9385266Y-14256295D01*
X9385266Y-14256295D02*
X9385266Y-14208676D01*
X9385266Y-14208676D02*
X9394790Y-14170581D01*
X9394790Y-14170581D02*
X9404314Y-14151533D01*
X9404314Y-14151533D02*
X9413838Y-14142010D01*
X9413838Y-14142010D02*
X9432885Y-14132486D01*
X9585266Y-14332486D02*
X9585266Y-14199152D01*
X9585266Y-14218200D02*
X9594790Y-14208676D01*
X9594790Y-14208676D02*
X9613838Y-14199152D01*
X9613838Y-14199152D02*
X9642409Y-14199152D01*
X9642409Y-14199152D02*
X9661457Y-14208676D01*
X9661457Y-14208676D02*
X9670980Y-14227724D01*
X9670980Y-14227724D02*
X9670980Y-14332486D01*
X9670980Y-14227724D02*
X9680504Y-14208676D01*
X9680504Y-14208676D02*
X9699552Y-14199152D01*
X9699552Y-14199152D02*
X9728123Y-14199152D01*
X9728123Y-14199152D02*
X9747171Y-14208676D01*
X9747171Y-14208676D02*
X9756695Y-14227724D01*
X9756695Y-14227724D02*
X9756695Y-14332486D01*
X9851933Y-14332486D02*
X9851933Y-14199152D01*
X9851933Y-14218200D02*
X9861457Y-14208676D01*
X9861457Y-14208676D02*
X9880504Y-14199152D01*
X9880504Y-14199152D02*
X9909076Y-14199152D01*
X9909076Y-14199152D02*
X9928123Y-14208676D01*
X9928123Y-14208676D02*
X9937647Y-14227724D01*
X9937647Y-14227724D02*
X9937647Y-14332486D01*
X9937647Y-14227724D02*
X9947171Y-14208676D01*
X9947171Y-14208676D02*
X9966219Y-14199152D01*
X9966219Y-14199152D02*
X9994790Y-14199152D01*
X9994790Y-14199152D02*
X10013838Y-14208676D01*
X10013838Y-14208676D02*
X10023361Y-14227724D01*
X10023361Y-14227724D02*
X10023361Y-14332486D01*
X10413838Y-14122962D02*
X10242409Y-14380105D01*
X10670981Y-14132486D02*
X10690028Y-14132486D01*
X10690028Y-14132486D02*
X10709076Y-14142010D01*
X10709076Y-14142010D02*
X10718600Y-14151533D01*
X10718600Y-14151533D02*
X10728123Y-14170581D01*
X10728123Y-14170581D02*
X10737647Y-14208676D01*
X10737647Y-14208676D02*
X10737647Y-14256295D01*
X10737647Y-14256295D02*
X10728123Y-14294390D01*
X10728123Y-14294390D02*
X10718600Y-14313438D01*
X10718600Y-14313438D02*
X10709076Y-14322962D01*
X10709076Y-14322962D02*
X10690028Y-14332486D01*
X10690028Y-14332486D02*
X10670981Y-14332486D01*
X10670981Y-14332486D02*
X10651933Y-14322962D01*
X10651933Y-14322962D02*
X10642409Y-14313438D01*
X10642409Y-14313438D02*
X10632885Y-14294390D01*
X10632885Y-14294390D02*
X10623362Y-14256295D01*
X10623362Y-14256295D02*
X10623362Y-14208676D01*
X10623362Y-14208676D02*
X10632885Y-14170581D01*
X10632885Y-14170581D02*
X10642409Y-14151533D01*
X10642409Y-14151533D02*
X10651933Y-14142010D01*
X10651933Y-14142010D02*
X10670981Y-14132486D01*
X10823362Y-14313438D02*
X10832885Y-14322962D01*
X10832885Y-14322962D02*
X10823362Y-14332486D01*
X10823362Y-14332486D02*
X10813838Y-14322962D01*
X10813838Y-14322962D02*
X10823362Y-14313438D01*
X10823362Y-14313438D02*
X10823362Y-14332486D01*
X10956695Y-14132486D02*
X10975743Y-14132486D01*
X10975743Y-14132486D02*
X10994790Y-14142010D01*
X10994790Y-14142010D02*
X11004314Y-14151533D01*
X11004314Y-14151533D02*
X11013838Y-14170581D01*
X11013838Y-14170581D02*
X11023362Y-14208676D01*
X11023362Y-14208676D02*
X11023362Y-14256295D01*
X11023362Y-14256295D02*
X11013838Y-14294390D01*
X11013838Y-14294390D02*
X11004314Y-14313438D01*
X11004314Y-14313438D02*
X10994790Y-14322962D01*
X10994790Y-14322962D02*
X10975743Y-14332486D01*
X10975743Y-14332486D02*
X10956695Y-14332486D01*
X10956695Y-14332486D02*
X10937647Y-14322962D01*
X10937647Y-14322962D02*
X10928123Y-14313438D01*
X10928123Y-14313438D02*
X10918600Y-14294390D01*
X10918600Y-14294390D02*
X10909076Y-14256295D01*
X10909076Y-14256295D02*
X10909076Y-14208676D01*
X10909076Y-14208676D02*
X10918600Y-14170581D01*
X10918600Y-14170581D02*
X10928123Y-14151533D01*
X10928123Y-14151533D02*
X10937647Y-14142010D01*
X10937647Y-14142010D02*
X10956695Y-14132486D01*
X11090028Y-14132486D02*
X11213838Y-14132486D01*
X11213838Y-14132486D02*
X11147171Y-14208676D01*
X11147171Y-14208676D02*
X11175743Y-14208676D01*
X11175743Y-14208676D02*
X11194790Y-14218200D01*
X11194790Y-14218200D02*
X11204314Y-14227724D01*
X11204314Y-14227724D02*
X11213838Y-14246771D01*
X11213838Y-14246771D02*
X11213838Y-14294390D01*
X11213838Y-14294390D02*
X11204314Y-14313438D01*
X11204314Y-14313438D02*
X11194790Y-14322962D01*
X11194790Y-14322962D02*
X11175743Y-14332486D01*
X11175743Y-14332486D02*
X11118600Y-14332486D01*
X11118600Y-14332486D02*
X11099552Y-14322962D01*
X11099552Y-14322962D02*
X11090028Y-14313438D01*
X11394790Y-14132486D02*
X11299552Y-14132486D01*
X11299552Y-14132486D02*
X11290028Y-14227724D01*
X11290028Y-14227724D02*
X11299552Y-14218200D01*
X11299552Y-14218200D02*
X11318600Y-14208676D01*
X11318600Y-14208676D02*
X11366219Y-14208676D01*
X11366219Y-14208676D02*
X11385266Y-14218200D01*
X11385266Y-14218200D02*
X11394790Y-14227724D01*
X11394790Y-14227724D02*
X11404314Y-14246771D01*
X11404314Y-14246771D02*
X11404314Y-14294390D01*
X11404314Y-14294390D02*
X11394790Y-14313438D01*
X11394790Y-14313438D02*
X11385266Y-14322962D01*
X11385266Y-14322962D02*
X11366219Y-14332486D01*
X11366219Y-14332486D02*
X11318600Y-14332486D01*
X11318600Y-14332486D02*
X11299552Y-14322962D01*
X11299552Y-14322962D02*
X11290028Y-14313438D01*
X11575742Y-14199152D02*
X11575742Y-14332486D01*
X11528123Y-14122962D02*
X11480504Y-14265819D01*
X11480504Y-14265819D02*
X11604314Y-14265819D01*
X11670981Y-14132486D02*
X11670981Y-14170581D01*
X11747171Y-14132486D02*
X11747171Y-14170581D01*
X12042409Y-14408676D02*
X12032885Y-14399152D01*
X12032885Y-14399152D02*
X12013838Y-14370581D01*
X12013838Y-14370581D02*
X12004314Y-14351533D01*
X12004314Y-14351533D02*
X11994790Y-14322962D01*
X11994790Y-14322962D02*
X11985266Y-14275343D01*
X11985266Y-14275343D02*
X11985266Y-14237248D01*
X11985266Y-14237248D02*
X11994790Y-14189629D01*
X11994790Y-14189629D02*
X12004314Y-14161057D01*
X12004314Y-14161057D02*
X12013838Y-14142010D01*
X12013838Y-14142010D02*
X12032885Y-14113438D01*
X12032885Y-14113438D02*
X12042409Y-14103914D01*
X12109076Y-14151533D02*
X12118600Y-14142010D01*
X12118600Y-14142010D02*
X12137647Y-14132486D01*
X12137647Y-14132486D02*
X12185266Y-14132486D01*
X12185266Y-14132486D02*
X12204314Y-14142010D01*
X12204314Y-14142010D02*
X12213838Y-14151533D01*
X12213838Y-14151533D02*
X12223362Y-14170581D01*
X12223362Y-14170581D02*
X12223362Y-14189629D01*
X12223362Y-14189629D02*
X12213838Y-14218200D01*
X12213838Y-14218200D02*
X12099552Y-14332486D01*
X12099552Y-14332486D02*
X12223362Y-14332486D01*
X12461457Y-14332486D02*
X12461457Y-14132486D01*
X12547171Y-14332486D02*
X12547171Y-14227724D01*
X12547171Y-14227724D02*
X12537647Y-14208676D01*
X12537647Y-14208676D02*
X12518600Y-14199152D01*
X12518600Y-14199152D02*
X12490028Y-14199152D01*
X12490028Y-14199152D02*
X12470981Y-14208676D01*
X12470981Y-14208676D02*
X12461457Y-14218200D01*
X12670981Y-14332486D02*
X12651933Y-14322962D01*
X12651933Y-14322962D02*
X12642409Y-14313438D01*
X12642409Y-14313438D02*
X12632885Y-14294390D01*
X12632885Y-14294390D02*
X12632885Y-14237248D01*
X12632885Y-14237248D02*
X12642409Y-14218200D01*
X12642409Y-14218200D02*
X12651933Y-14208676D01*
X12651933Y-14208676D02*
X12670981Y-14199152D01*
X12670981Y-14199152D02*
X12699552Y-14199152D01*
X12699552Y-14199152D02*
X12718600Y-14208676D01*
X12718600Y-14208676D02*
X12728124Y-14218200D01*
X12728124Y-14218200D02*
X12737647Y-14237248D01*
X12737647Y-14237248D02*
X12737647Y-14294390D01*
X12737647Y-14294390D02*
X12728124Y-14313438D01*
X12728124Y-14313438D02*
X12718600Y-14322962D01*
X12718600Y-14322962D02*
X12699552Y-14332486D01*
X12699552Y-14332486D02*
X12670981Y-14332486D01*
X12851933Y-14332486D02*
X12832885Y-14322962D01*
X12832885Y-14322962D02*
X12823362Y-14303914D01*
X12823362Y-14303914D02*
X12823362Y-14132486D01*
X13004314Y-14322962D02*
X12985266Y-14332486D01*
X12985266Y-14332486D02*
X12947171Y-14332486D01*
X12947171Y-14332486D02*
X12928124Y-14322962D01*
X12928124Y-14322962D02*
X12918600Y-14303914D01*
X12918600Y-14303914D02*
X12918600Y-14227724D01*
X12918600Y-14227724D02*
X12928124Y-14208676D01*
X12928124Y-14208676D02*
X12947171Y-14199152D01*
X12947171Y-14199152D02*
X12985266Y-14199152D01*
X12985266Y-14199152D02*
X13004314Y-14208676D01*
X13004314Y-14208676D02*
X13013838Y-14227724D01*
X13013838Y-14227724D02*
X13013838Y-14246771D01*
X13013838Y-14246771D02*
X12918600Y-14265819D01*
X13090028Y-14322962D02*
X13109076Y-14332486D01*
X13109076Y-14332486D02*
X13147171Y-14332486D01*
X13147171Y-14332486D02*
X13166219Y-14322962D01*
X13166219Y-14322962D02*
X13175743Y-14303914D01*
X13175743Y-14303914D02*
X13175743Y-14294390D01*
X13175743Y-14294390D02*
X13166219Y-14275343D01*
X13166219Y-14275343D02*
X13147171Y-14265819D01*
X13147171Y-14265819D02*
X13118600Y-14265819D01*
X13118600Y-14265819D02*
X13099552Y-14256295D01*
X13099552Y-14256295D02*
X13090028Y-14237248D01*
X13090028Y-14237248D02*
X13090028Y-14227724D01*
X13090028Y-14227724D02*
X13099552Y-14208676D01*
X13099552Y-14208676D02*
X13118600Y-14199152D01*
X13118600Y-14199152D02*
X13147171Y-14199152D01*
X13147171Y-14199152D02*
X13166219Y-14208676D01*
X13242409Y-14408676D02*
X13251933Y-14399152D01*
X13251933Y-14399152D02*
X13270981Y-14370581D01*
X13270981Y-14370581D02*
X13280505Y-14351533D01*
X13280505Y-14351533D02*
X13290028Y-14322962D01*
X13290028Y-14322962D02*
X13299552Y-14275343D01*
X13299552Y-14275343D02*
X13299552Y-14237248D01*
X13299552Y-14237248D02*
X13290028Y-14189629D01*
X13290028Y-14189629D02*
X13280505Y-14161057D01*
X13280505Y-14161057D02*
X13270981Y-14142010D01*
X13270981Y-14142010D02*
X13251933Y-14113438D01*
X13251933Y-14113438D02*
X13242409Y-14103914D01*
X13604314Y-14408676D02*
X13594790Y-14399152D01*
X13594790Y-14399152D02*
X13575743Y-14370581D01*
X13575743Y-14370581D02*
X13566219Y-14351533D01*
X13566219Y-14351533D02*
X13556695Y-14322962D01*
X13556695Y-14322962D02*
X13547171Y-14275343D01*
X13547171Y-14275343D02*
X13547171Y-14237248D01*
X13547171Y-14237248D02*
X13556695Y-14189629D01*
X13556695Y-14189629D02*
X13566219Y-14161057D01*
X13566219Y-14161057D02*
X13575743Y-14142010D01*
X13575743Y-14142010D02*
X13594790Y-14113438D01*
X13594790Y-14113438D02*
X13604314Y-14103914D01*
X13680505Y-14199152D02*
X13680505Y-14332486D01*
X13680505Y-14218200D02*
X13690028Y-14208676D01*
X13690028Y-14208676D02*
X13709076Y-14199152D01*
X13709076Y-14199152D02*
X13737647Y-14199152D01*
X13737647Y-14199152D02*
X13756695Y-14208676D01*
X13756695Y-14208676D02*
X13766219Y-14227724D01*
X13766219Y-14227724D02*
X13766219Y-14332486D01*
X13890028Y-14332486D02*
X13870981Y-14322962D01*
X13870981Y-14322962D02*
X13861457Y-14313438D01*
X13861457Y-14313438D02*
X13851933Y-14294390D01*
X13851933Y-14294390D02*
X13851933Y-14237248D01*
X13851933Y-14237248D02*
X13861457Y-14218200D01*
X13861457Y-14218200D02*
X13870981Y-14208676D01*
X13870981Y-14208676D02*
X13890028Y-14199152D01*
X13890028Y-14199152D02*
X13918600Y-14199152D01*
X13918600Y-14199152D02*
X13937647Y-14208676D01*
X13937647Y-14208676D02*
X13947171Y-14218200D01*
X13947171Y-14218200D02*
X13956695Y-14237248D01*
X13956695Y-14237248D02*
X13956695Y-14294390D01*
X13956695Y-14294390D02*
X13947171Y-14313438D01*
X13947171Y-14313438D02*
X13937647Y-14322962D01*
X13937647Y-14322962D02*
X13918600Y-14332486D01*
X13918600Y-14332486D02*
X13890028Y-14332486D01*
X14013838Y-14199152D02*
X14090028Y-14199152D01*
X14042409Y-14132486D02*
X14042409Y-14303914D01*
X14042409Y-14303914D02*
X14051933Y-14322962D01*
X14051933Y-14322962D02*
X14070981Y-14332486D01*
X14070981Y-14332486D02*
X14090028Y-14332486D01*
X14309076Y-14199152D02*
X14309076Y-14399152D01*
X14309076Y-14208676D02*
X14328124Y-14199152D01*
X14328124Y-14199152D02*
X14366219Y-14199152D01*
X14366219Y-14199152D02*
X14385267Y-14208676D01*
X14385267Y-14208676D02*
X14394790Y-14218200D01*
X14394790Y-14218200D02*
X14404314Y-14237248D01*
X14404314Y-14237248D02*
X14404314Y-14294390D01*
X14404314Y-14294390D02*
X14394790Y-14313438D01*
X14394790Y-14313438D02*
X14385267Y-14322962D01*
X14385267Y-14322962D02*
X14366219Y-14332486D01*
X14366219Y-14332486D02*
X14328124Y-14332486D01*
X14328124Y-14332486D02*
X14309076Y-14322962D01*
X14518600Y-14332486D02*
X14499552Y-14322962D01*
X14499552Y-14322962D02*
X14490028Y-14303914D01*
X14490028Y-14303914D02*
X14490028Y-14132486D01*
X14680505Y-14332486D02*
X14680505Y-14227724D01*
X14680505Y-14227724D02*
X14670981Y-14208676D01*
X14670981Y-14208676D02*
X14651933Y-14199152D01*
X14651933Y-14199152D02*
X14613838Y-14199152D01*
X14613838Y-14199152D02*
X14594790Y-14208676D01*
X14680505Y-14322962D02*
X14661457Y-14332486D01*
X14661457Y-14332486D02*
X14613838Y-14332486D01*
X14613838Y-14332486D02*
X14594790Y-14322962D01*
X14594790Y-14322962D02*
X14585267Y-14303914D01*
X14585267Y-14303914D02*
X14585267Y-14284867D01*
X14585267Y-14284867D02*
X14594790Y-14265819D01*
X14594790Y-14265819D02*
X14613838Y-14256295D01*
X14613838Y-14256295D02*
X14661457Y-14256295D01*
X14661457Y-14256295D02*
X14680505Y-14246771D01*
X14747171Y-14199152D02*
X14823362Y-14199152D01*
X14775743Y-14132486D02*
X14775743Y-14303914D01*
X14775743Y-14303914D02*
X14785267Y-14322962D01*
X14785267Y-14322962D02*
X14804314Y-14332486D01*
X14804314Y-14332486D02*
X14823362Y-14332486D01*
X14966219Y-14322962D02*
X14947171Y-14332486D01*
X14947171Y-14332486D02*
X14909076Y-14332486D01*
X14909076Y-14332486D02*
X14890028Y-14322962D01*
X14890028Y-14322962D02*
X14880505Y-14303914D01*
X14880505Y-14303914D02*
X14880505Y-14227724D01*
X14880505Y-14227724D02*
X14890028Y-14208676D01*
X14890028Y-14208676D02*
X14909076Y-14199152D01*
X14909076Y-14199152D02*
X14947171Y-14199152D01*
X14947171Y-14199152D02*
X14966219Y-14208676D01*
X14966219Y-14208676D02*
X14975743Y-14227724D01*
X14975743Y-14227724D02*
X14975743Y-14246771D01*
X14975743Y-14246771D02*
X14880505Y-14265819D01*
X15147171Y-14332486D02*
X15147171Y-14132486D01*
X15147171Y-14322962D02*
X15128124Y-14332486D01*
X15128124Y-14332486D02*
X15090028Y-14332486D01*
X15090028Y-14332486D02*
X15070981Y-14322962D01*
X15070981Y-14322962D02*
X15061457Y-14313438D01*
X15061457Y-14313438D02*
X15051933Y-14294390D01*
X15051933Y-14294390D02*
X15051933Y-14237248D01*
X15051933Y-14237248D02*
X15061457Y-14218200D01*
X15061457Y-14218200D02*
X15070981Y-14208676D01*
X15070981Y-14208676D02*
X15090028Y-14199152D01*
X15090028Y-14199152D02*
X15128124Y-14199152D01*
X15128124Y-14199152D02*
X15147171Y-14208676D01*
X15223362Y-14408676D02*
X15232886Y-14399152D01*
X15232886Y-14399152D02*
X15251933Y-14370581D01*
X15251933Y-14370581D02*
X15261457Y-14351533D01*
X15261457Y-14351533D02*
X15270981Y-14322962D01*
X15270981Y-14322962D02*
X15280505Y-14275343D01*
X15280505Y-14275343D02*
X15280505Y-14237248D01*
X15280505Y-14237248D02*
X15270981Y-14189629D01*
X15270981Y-14189629D02*
X15261457Y-14161057D01*
X15261457Y-14161057D02*
X15251933Y-14142010D01*
X15251933Y-14142010D02*
X15232886Y-14113438D01*
X15232886Y-14113438D02*
X15223362Y-14103914D01*
D15*
X8417816Y-14455472D02*
X8417816Y-14554532D01*
X8368286Y-14505002D02*
X8467346Y-14505002D01*
D12*
X8766218Y-14396486D02*
X8785266Y-14396486D01*
X8785266Y-14396486D02*
X8804314Y-14406010D01*
X8804314Y-14406010D02*
X8813838Y-14415533D01*
X8813838Y-14415533D02*
X8823361Y-14434581D01*
X8823361Y-14434581D02*
X8832885Y-14472676D01*
X8832885Y-14472676D02*
X8832885Y-14520295D01*
X8832885Y-14520295D02*
X8823361Y-14558390D01*
X8823361Y-14558390D02*
X8813838Y-14577438D01*
X8813838Y-14577438D02*
X8804314Y-14586962D01*
X8804314Y-14586962D02*
X8785266Y-14596486D01*
X8785266Y-14596486D02*
X8766218Y-14596486D01*
X8766218Y-14596486D02*
X8747171Y-14586962D01*
X8747171Y-14586962D02*
X8737647Y-14577438D01*
X8737647Y-14577438D02*
X8728123Y-14558390D01*
X8728123Y-14558390D02*
X8718599Y-14520295D01*
X8718599Y-14520295D02*
X8718599Y-14472676D01*
X8718599Y-14472676D02*
X8728123Y-14434581D01*
X8728123Y-14434581D02*
X8737647Y-14415533D01*
X8737647Y-14415533D02*
X8747171Y-14406010D01*
X8747171Y-14406010D02*
X8766218Y-14396486D01*
X8918599Y-14577438D02*
X8928123Y-14586962D01*
X8928123Y-14586962D02*
X8918599Y-14596486D01*
X8918599Y-14596486D02*
X8909076Y-14586962D01*
X8909076Y-14586962D02*
X8918599Y-14577438D01*
X8918599Y-14577438D02*
X8918599Y-14596486D01*
X9023361Y-14596486D02*
X9061457Y-14596486D01*
X9061457Y-14596486D02*
X9080504Y-14586962D01*
X9080504Y-14586962D02*
X9090028Y-14577438D01*
X9090028Y-14577438D02*
X9109076Y-14548867D01*
X9109076Y-14548867D02*
X9118599Y-14510771D01*
X9118599Y-14510771D02*
X9118599Y-14434581D01*
X9118599Y-14434581D02*
X9109076Y-14415533D01*
X9109076Y-14415533D02*
X9099552Y-14406010D01*
X9099552Y-14406010D02*
X9080504Y-14396486D01*
X9080504Y-14396486D02*
X9042409Y-14396486D01*
X9042409Y-14396486D02*
X9023361Y-14406010D01*
X9023361Y-14406010D02*
X9013838Y-14415533D01*
X9013838Y-14415533D02*
X9004314Y-14434581D01*
X9004314Y-14434581D02*
X9004314Y-14482200D01*
X9004314Y-14482200D02*
X9013838Y-14501248D01*
X9013838Y-14501248D02*
X9023361Y-14510771D01*
X9023361Y-14510771D02*
X9042409Y-14520295D01*
X9042409Y-14520295D02*
X9080504Y-14520295D01*
X9080504Y-14520295D02*
X9099552Y-14510771D01*
X9099552Y-14510771D02*
X9109076Y-14501248D01*
X9109076Y-14501248D02*
X9118599Y-14482200D01*
X9213838Y-14596486D02*
X9251933Y-14596486D01*
X9251933Y-14596486D02*
X9270980Y-14586962D01*
X9270980Y-14586962D02*
X9280504Y-14577438D01*
X9280504Y-14577438D02*
X9299552Y-14548867D01*
X9299552Y-14548867D02*
X9309076Y-14510771D01*
X9309076Y-14510771D02*
X9309076Y-14434581D01*
X9309076Y-14434581D02*
X9299552Y-14415533D01*
X9299552Y-14415533D02*
X9290028Y-14406010D01*
X9290028Y-14406010D02*
X9270980Y-14396486D01*
X9270980Y-14396486D02*
X9232885Y-14396486D01*
X9232885Y-14396486D02*
X9213838Y-14406010D01*
X9213838Y-14406010D02*
X9204314Y-14415533D01*
X9204314Y-14415533D02*
X9194790Y-14434581D01*
X9194790Y-14434581D02*
X9194790Y-14482200D01*
X9194790Y-14482200D02*
X9204314Y-14501248D01*
X9204314Y-14501248D02*
X9213838Y-14510771D01*
X9213838Y-14510771D02*
X9232885Y-14520295D01*
X9232885Y-14520295D02*
X9270980Y-14520295D01*
X9270980Y-14520295D02*
X9290028Y-14510771D01*
X9290028Y-14510771D02*
X9299552Y-14501248D01*
X9299552Y-14501248D02*
X9309076Y-14482200D01*
X9499552Y-14596486D02*
X9385266Y-14596486D01*
X9442409Y-14596486D02*
X9442409Y-14396486D01*
X9442409Y-14396486D02*
X9423361Y-14425057D01*
X9423361Y-14425057D02*
X9404314Y-14444105D01*
X9404314Y-14444105D02*
X9385266Y-14453629D01*
X9585266Y-14596486D02*
X9585266Y-14463152D01*
X9585266Y-14482200D02*
X9594790Y-14472676D01*
X9594790Y-14472676D02*
X9613838Y-14463152D01*
X9613838Y-14463152D02*
X9642409Y-14463152D01*
X9642409Y-14463152D02*
X9661457Y-14472676D01*
X9661457Y-14472676D02*
X9670980Y-14491724D01*
X9670980Y-14491724D02*
X9670980Y-14596486D01*
X9670980Y-14491724D02*
X9680504Y-14472676D01*
X9680504Y-14472676D02*
X9699552Y-14463152D01*
X9699552Y-14463152D02*
X9728123Y-14463152D01*
X9728123Y-14463152D02*
X9747171Y-14472676D01*
X9747171Y-14472676D02*
X9756695Y-14491724D01*
X9756695Y-14491724D02*
X9756695Y-14596486D01*
X9851933Y-14596486D02*
X9851933Y-14463152D01*
X9851933Y-14482200D02*
X9861457Y-14472676D01*
X9861457Y-14472676D02*
X9880504Y-14463152D01*
X9880504Y-14463152D02*
X9909076Y-14463152D01*
X9909076Y-14463152D02*
X9928123Y-14472676D01*
X9928123Y-14472676D02*
X9937647Y-14491724D01*
X9937647Y-14491724D02*
X9937647Y-14596486D01*
X9937647Y-14491724D02*
X9947171Y-14472676D01*
X9947171Y-14472676D02*
X9966219Y-14463152D01*
X9966219Y-14463152D02*
X9994790Y-14463152D01*
X9994790Y-14463152D02*
X10013838Y-14472676D01*
X10013838Y-14472676D02*
X10023361Y-14491724D01*
X10023361Y-14491724D02*
X10023361Y-14596486D01*
X10413838Y-14386962D02*
X10242409Y-14644105D01*
X10670981Y-14396486D02*
X10690028Y-14396486D01*
X10690028Y-14396486D02*
X10709076Y-14406010D01*
X10709076Y-14406010D02*
X10718600Y-14415533D01*
X10718600Y-14415533D02*
X10728123Y-14434581D01*
X10728123Y-14434581D02*
X10737647Y-14472676D01*
X10737647Y-14472676D02*
X10737647Y-14520295D01*
X10737647Y-14520295D02*
X10728123Y-14558390D01*
X10728123Y-14558390D02*
X10718600Y-14577438D01*
X10718600Y-14577438D02*
X10709076Y-14586962D01*
X10709076Y-14586962D02*
X10690028Y-14596486D01*
X10690028Y-14596486D02*
X10670981Y-14596486D01*
X10670981Y-14596486D02*
X10651933Y-14586962D01*
X10651933Y-14586962D02*
X10642409Y-14577438D01*
X10642409Y-14577438D02*
X10632885Y-14558390D01*
X10632885Y-14558390D02*
X10623362Y-14520295D01*
X10623362Y-14520295D02*
X10623362Y-14472676D01*
X10623362Y-14472676D02*
X10632885Y-14434581D01*
X10632885Y-14434581D02*
X10642409Y-14415533D01*
X10642409Y-14415533D02*
X10651933Y-14406010D01*
X10651933Y-14406010D02*
X10670981Y-14396486D01*
X10823362Y-14577438D02*
X10832885Y-14586962D01*
X10832885Y-14586962D02*
X10823362Y-14596486D01*
X10823362Y-14596486D02*
X10813838Y-14586962D01*
X10813838Y-14586962D02*
X10823362Y-14577438D01*
X10823362Y-14577438D02*
X10823362Y-14596486D01*
X10956695Y-14396486D02*
X10975743Y-14396486D01*
X10975743Y-14396486D02*
X10994790Y-14406010D01*
X10994790Y-14406010D02*
X11004314Y-14415533D01*
X11004314Y-14415533D02*
X11013838Y-14434581D01*
X11013838Y-14434581D02*
X11023362Y-14472676D01*
X11023362Y-14472676D02*
X11023362Y-14520295D01*
X11023362Y-14520295D02*
X11013838Y-14558390D01*
X11013838Y-14558390D02*
X11004314Y-14577438D01*
X11004314Y-14577438D02*
X10994790Y-14586962D01*
X10994790Y-14586962D02*
X10975743Y-14596486D01*
X10975743Y-14596486D02*
X10956695Y-14596486D01*
X10956695Y-14596486D02*
X10937647Y-14586962D01*
X10937647Y-14586962D02*
X10928123Y-14577438D01*
X10928123Y-14577438D02*
X10918600Y-14558390D01*
X10918600Y-14558390D02*
X10909076Y-14520295D01*
X10909076Y-14520295D02*
X10909076Y-14472676D01*
X10909076Y-14472676D02*
X10918600Y-14434581D01*
X10918600Y-14434581D02*
X10928123Y-14415533D01*
X10928123Y-14415533D02*
X10937647Y-14406010D01*
X10937647Y-14406010D02*
X10956695Y-14396486D01*
X11090028Y-14396486D02*
X11213838Y-14396486D01*
X11213838Y-14396486D02*
X11147171Y-14472676D01*
X11147171Y-14472676D02*
X11175743Y-14472676D01*
X11175743Y-14472676D02*
X11194790Y-14482200D01*
X11194790Y-14482200D02*
X11204314Y-14491724D01*
X11204314Y-14491724D02*
X11213838Y-14510771D01*
X11213838Y-14510771D02*
X11213838Y-14558390D01*
X11213838Y-14558390D02*
X11204314Y-14577438D01*
X11204314Y-14577438D02*
X11194790Y-14586962D01*
X11194790Y-14586962D02*
X11175743Y-14596486D01*
X11175743Y-14596486D02*
X11118600Y-14596486D01*
X11118600Y-14596486D02*
X11099552Y-14586962D01*
X11099552Y-14586962D02*
X11090028Y-14577438D01*
X11309076Y-14596486D02*
X11347171Y-14596486D01*
X11347171Y-14596486D02*
X11366219Y-14586962D01*
X11366219Y-14586962D02*
X11375742Y-14577438D01*
X11375742Y-14577438D02*
X11394790Y-14548867D01*
X11394790Y-14548867D02*
X11404314Y-14510771D01*
X11404314Y-14510771D02*
X11404314Y-14434581D01*
X11404314Y-14434581D02*
X11394790Y-14415533D01*
X11394790Y-14415533D02*
X11385266Y-14406010D01*
X11385266Y-14406010D02*
X11366219Y-14396486D01*
X11366219Y-14396486D02*
X11328123Y-14396486D01*
X11328123Y-14396486D02*
X11309076Y-14406010D01*
X11309076Y-14406010D02*
X11299552Y-14415533D01*
X11299552Y-14415533D02*
X11290028Y-14434581D01*
X11290028Y-14434581D02*
X11290028Y-14482200D01*
X11290028Y-14482200D02*
X11299552Y-14501248D01*
X11299552Y-14501248D02*
X11309076Y-14510771D01*
X11309076Y-14510771D02*
X11328123Y-14520295D01*
X11328123Y-14520295D02*
X11366219Y-14520295D01*
X11366219Y-14520295D02*
X11385266Y-14510771D01*
X11385266Y-14510771D02*
X11394790Y-14501248D01*
X11394790Y-14501248D02*
X11404314Y-14482200D01*
X11528123Y-14396486D02*
X11547171Y-14396486D01*
X11547171Y-14396486D02*
X11566219Y-14406010D01*
X11566219Y-14406010D02*
X11575742Y-14415533D01*
X11575742Y-14415533D02*
X11585266Y-14434581D01*
X11585266Y-14434581D02*
X11594790Y-14472676D01*
X11594790Y-14472676D02*
X11594790Y-14520295D01*
X11594790Y-14520295D02*
X11585266Y-14558390D01*
X11585266Y-14558390D02*
X11575742Y-14577438D01*
X11575742Y-14577438D02*
X11566219Y-14586962D01*
X11566219Y-14586962D02*
X11547171Y-14596486D01*
X11547171Y-14596486D02*
X11528123Y-14596486D01*
X11528123Y-14596486D02*
X11509076Y-14586962D01*
X11509076Y-14586962D02*
X11499552Y-14577438D01*
X11499552Y-14577438D02*
X11490028Y-14558390D01*
X11490028Y-14558390D02*
X11480504Y-14520295D01*
X11480504Y-14520295D02*
X11480504Y-14472676D01*
X11480504Y-14472676D02*
X11490028Y-14434581D01*
X11490028Y-14434581D02*
X11499552Y-14415533D01*
X11499552Y-14415533D02*
X11509076Y-14406010D01*
X11509076Y-14406010D02*
X11528123Y-14396486D01*
X11670981Y-14396486D02*
X11670981Y-14434581D01*
X11747171Y-14396486D02*
X11747171Y-14434581D01*
X12042409Y-14672676D02*
X12032885Y-14663152D01*
X12032885Y-14663152D02*
X12013838Y-14634581D01*
X12013838Y-14634581D02*
X12004314Y-14615533D01*
X12004314Y-14615533D02*
X11994790Y-14586962D01*
X11994790Y-14586962D02*
X11985266Y-14539343D01*
X11985266Y-14539343D02*
X11985266Y-14501248D01*
X11985266Y-14501248D02*
X11994790Y-14453629D01*
X11994790Y-14453629D02*
X12004314Y-14425057D01*
X12004314Y-14425057D02*
X12013838Y-14406010D01*
X12013838Y-14406010D02*
X12032885Y-14377438D01*
X12032885Y-14377438D02*
X12042409Y-14367914D01*
X12099552Y-14396486D02*
X12223362Y-14396486D01*
X12223362Y-14396486D02*
X12156695Y-14472676D01*
X12156695Y-14472676D02*
X12185266Y-14472676D01*
X12185266Y-14472676D02*
X12204314Y-14482200D01*
X12204314Y-14482200D02*
X12213838Y-14491724D01*
X12213838Y-14491724D02*
X12223362Y-14510771D01*
X12223362Y-14510771D02*
X12223362Y-14558390D01*
X12223362Y-14558390D02*
X12213838Y-14577438D01*
X12213838Y-14577438D02*
X12204314Y-14586962D01*
X12204314Y-14586962D02*
X12185266Y-14596486D01*
X12185266Y-14596486D02*
X12128123Y-14596486D01*
X12128123Y-14596486D02*
X12109076Y-14586962D01*
X12109076Y-14586962D02*
X12099552Y-14577438D01*
X12461457Y-14596486D02*
X12461457Y-14396486D01*
X12547171Y-14596486D02*
X12547171Y-14491724D01*
X12547171Y-14491724D02*
X12537647Y-14472676D01*
X12537647Y-14472676D02*
X12518600Y-14463152D01*
X12518600Y-14463152D02*
X12490028Y-14463152D01*
X12490028Y-14463152D02*
X12470981Y-14472676D01*
X12470981Y-14472676D02*
X12461457Y-14482200D01*
X12670981Y-14596486D02*
X12651933Y-14586962D01*
X12651933Y-14586962D02*
X12642409Y-14577438D01*
X12642409Y-14577438D02*
X12632885Y-14558390D01*
X12632885Y-14558390D02*
X12632885Y-14501248D01*
X12632885Y-14501248D02*
X12642409Y-14482200D01*
X12642409Y-14482200D02*
X12651933Y-14472676D01*
X12651933Y-14472676D02*
X12670981Y-14463152D01*
X12670981Y-14463152D02*
X12699552Y-14463152D01*
X12699552Y-14463152D02*
X12718600Y-14472676D01*
X12718600Y-14472676D02*
X12728124Y-14482200D01*
X12728124Y-14482200D02*
X12737647Y-14501248D01*
X12737647Y-14501248D02*
X12737647Y-14558390D01*
X12737647Y-14558390D02*
X12728124Y-14577438D01*
X12728124Y-14577438D02*
X12718600Y-14586962D01*
X12718600Y-14586962D02*
X12699552Y-14596486D01*
X12699552Y-14596486D02*
X12670981Y-14596486D01*
X12851933Y-14596486D02*
X12832885Y-14586962D01*
X12832885Y-14586962D02*
X12823362Y-14567914D01*
X12823362Y-14567914D02*
X12823362Y-14396486D01*
X13004314Y-14586962D02*
X12985266Y-14596486D01*
X12985266Y-14596486D02*
X12947171Y-14596486D01*
X12947171Y-14596486D02*
X12928124Y-14586962D01*
X12928124Y-14586962D02*
X12918600Y-14567914D01*
X12918600Y-14567914D02*
X12918600Y-14491724D01*
X12918600Y-14491724D02*
X12928124Y-14472676D01*
X12928124Y-14472676D02*
X12947171Y-14463152D01*
X12947171Y-14463152D02*
X12985266Y-14463152D01*
X12985266Y-14463152D02*
X13004314Y-14472676D01*
X13004314Y-14472676D02*
X13013838Y-14491724D01*
X13013838Y-14491724D02*
X13013838Y-14510771D01*
X13013838Y-14510771D02*
X12918600Y-14529819D01*
X13090028Y-14586962D02*
X13109076Y-14596486D01*
X13109076Y-14596486D02*
X13147171Y-14596486D01*
X13147171Y-14596486D02*
X13166219Y-14586962D01*
X13166219Y-14586962D02*
X13175743Y-14567914D01*
X13175743Y-14567914D02*
X13175743Y-14558390D01*
X13175743Y-14558390D02*
X13166219Y-14539343D01*
X13166219Y-14539343D02*
X13147171Y-14529819D01*
X13147171Y-14529819D02*
X13118600Y-14529819D01*
X13118600Y-14529819D02*
X13099552Y-14520295D01*
X13099552Y-14520295D02*
X13090028Y-14501248D01*
X13090028Y-14501248D02*
X13090028Y-14491724D01*
X13090028Y-14491724D02*
X13099552Y-14472676D01*
X13099552Y-14472676D02*
X13118600Y-14463152D01*
X13118600Y-14463152D02*
X13147171Y-14463152D01*
X13147171Y-14463152D02*
X13166219Y-14472676D01*
X13242409Y-14672676D02*
X13251933Y-14663152D01*
X13251933Y-14663152D02*
X13270981Y-14634581D01*
X13270981Y-14634581D02*
X13280505Y-14615533D01*
X13280505Y-14615533D02*
X13290028Y-14586962D01*
X13290028Y-14586962D02*
X13299552Y-14539343D01*
X13299552Y-14539343D02*
X13299552Y-14501248D01*
X13299552Y-14501248D02*
X13290028Y-14453629D01*
X13290028Y-14453629D02*
X13280505Y-14425057D01*
X13280505Y-14425057D02*
X13270981Y-14406010D01*
X13270981Y-14406010D02*
X13251933Y-14377438D01*
X13251933Y-14377438D02*
X13242409Y-14367914D01*
X13604314Y-14672676D02*
X13594790Y-14663152D01*
X13594790Y-14663152D02*
X13575743Y-14634581D01*
X13575743Y-14634581D02*
X13566219Y-14615533D01*
X13566219Y-14615533D02*
X13556695Y-14586962D01*
X13556695Y-14586962D02*
X13547171Y-14539343D01*
X13547171Y-14539343D02*
X13547171Y-14501248D01*
X13547171Y-14501248D02*
X13556695Y-14453629D01*
X13556695Y-14453629D02*
X13566219Y-14425057D01*
X13566219Y-14425057D02*
X13575743Y-14406010D01*
X13575743Y-14406010D02*
X13594790Y-14377438D01*
X13594790Y-14377438D02*
X13604314Y-14367914D01*
X13680505Y-14463152D02*
X13680505Y-14596486D01*
X13680505Y-14482200D02*
X13690028Y-14472676D01*
X13690028Y-14472676D02*
X13709076Y-14463152D01*
X13709076Y-14463152D02*
X13737647Y-14463152D01*
X13737647Y-14463152D02*
X13756695Y-14472676D01*
X13756695Y-14472676D02*
X13766219Y-14491724D01*
X13766219Y-14491724D02*
X13766219Y-14596486D01*
X13890028Y-14596486D02*
X13870981Y-14586962D01*
X13870981Y-14586962D02*
X13861457Y-14577438D01*
X13861457Y-14577438D02*
X13851933Y-14558390D01*
X13851933Y-14558390D02*
X13851933Y-14501248D01*
X13851933Y-14501248D02*
X13861457Y-14482200D01*
X13861457Y-14482200D02*
X13870981Y-14472676D01*
X13870981Y-14472676D02*
X13890028Y-14463152D01*
X13890028Y-14463152D02*
X13918600Y-14463152D01*
X13918600Y-14463152D02*
X13937647Y-14472676D01*
X13937647Y-14472676D02*
X13947171Y-14482200D01*
X13947171Y-14482200D02*
X13956695Y-14501248D01*
X13956695Y-14501248D02*
X13956695Y-14558390D01*
X13956695Y-14558390D02*
X13947171Y-14577438D01*
X13947171Y-14577438D02*
X13937647Y-14586962D01*
X13937647Y-14586962D02*
X13918600Y-14596486D01*
X13918600Y-14596486D02*
X13890028Y-14596486D01*
X14013838Y-14463152D02*
X14090028Y-14463152D01*
X14042409Y-14396486D02*
X14042409Y-14567914D01*
X14042409Y-14567914D02*
X14051933Y-14586962D01*
X14051933Y-14586962D02*
X14070981Y-14596486D01*
X14070981Y-14596486D02*
X14090028Y-14596486D01*
X14309076Y-14463152D02*
X14309076Y-14663152D01*
X14309076Y-14472676D02*
X14328124Y-14463152D01*
X14328124Y-14463152D02*
X14366219Y-14463152D01*
X14366219Y-14463152D02*
X14385267Y-14472676D01*
X14385267Y-14472676D02*
X14394790Y-14482200D01*
X14394790Y-14482200D02*
X14404314Y-14501248D01*
X14404314Y-14501248D02*
X14404314Y-14558390D01*
X14404314Y-14558390D02*
X14394790Y-14577438D01*
X14394790Y-14577438D02*
X14385267Y-14586962D01*
X14385267Y-14586962D02*
X14366219Y-14596486D01*
X14366219Y-14596486D02*
X14328124Y-14596486D01*
X14328124Y-14596486D02*
X14309076Y-14586962D01*
X14518600Y-14596486D02*
X14499552Y-14586962D01*
X14499552Y-14586962D02*
X14490028Y-14567914D01*
X14490028Y-14567914D02*
X14490028Y-14396486D01*
X14680505Y-14596486D02*
X14680505Y-14491724D01*
X14680505Y-14491724D02*
X14670981Y-14472676D01*
X14670981Y-14472676D02*
X14651933Y-14463152D01*
X14651933Y-14463152D02*
X14613838Y-14463152D01*
X14613838Y-14463152D02*
X14594790Y-14472676D01*
X14680505Y-14586962D02*
X14661457Y-14596486D01*
X14661457Y-14596486D02*
X14613838Y-14596486D01*
X14613838Y-14596486D02*
X14594790Y-14586962D01*
X14594790Y-14586962D02*
X14585267Y-14567914D01*
X14585267Y-14567914D02*
X14585267Y-14548867D01*
X14585267Y-14548867D02*
X14594790Y-14529819D01*
X14594790Y-14529819D02*
X14613838Y-14520295D01*
X14613838Y-14520295D02*
X14661457Y-14520295D01*
X14661457Y-14520295D02*
X14680505Y-14510771D01*
X14747171Y-14463152D02*
X14823362Y-14463152D01*
X14775743Y-14396486D02*
X14775743Y-14567914D01*
X14775743Y-14567914D02*
X14785267Y-14586962D01*
X14785267Y-14586962D02*
X14804314Y-14596486D01*
X14804314Y-14596486D02*
X14823362Y-14596486D01*
X14966219Y-14586962D02*
X14947171Y-14596486D01*
X14947171Y-14596486D02*
X14909076Y-14596486D01*
X14909076Y-14596486D02*
X14890028Y-14586962D01*
X14890028Y-14586962D02*
X14880505Y-14567914D01*
X14880505Y-14567914D02*
X14880505Y-14491724D01*
X14880505Y-14491724D02*
X14890028Y-14472676D01*
X14890028Y-14472676D02*
X14909076Y-14463152D01*
X14909076Y-14463152D02*
X14947171Y-14463152D01*
X14947171Y-14463152D02*
X14966219Y-14472676D01*
X14966219Y-14472676D02*
X14975743Y-14491724D01*
X14975743Y-14491724D02*
X14975743Y-14510771D01*
X14975743Y-14510771D02*
X14880505Y-14529819D01*
X15147171Y-14596486D02*
X15147171Y-14396486D01*
X15147171Y-14586962D02*
X15128124Y-14596486D01*
X15128124Y-14596486D02*
X15090028Y-14596486D01*
X15090028Y-14596486D02*
X15070981Y-14586962D01*
X15070981Y-14586962D02*
X15061457Y-14577438D01*
X15061457Y-14577438D02*
X15051933Y-14558390D01*
X15051933Y-14558390D02*
X15051933Y-14501248D01*
X15051933Y-14501248D02*
X15061457Y-14482200D01*
X15061457Y-14482200D02*
X15070981Y-14472676D01*
X15070981Y-14472676D02*
X15090028Y-14463152D01*
X15090028Y-14463152D02*
X15128124Y-14463152D01*
X15128124Y-14463152D02*
X15147171Y-14472676D01*
X15223362Y-14672676D02*
X15232886Y-14663152D01*
X15232886Y-14663152D02*
X15251933Y-14634581D01*
X15251933Y-14634581D02*
X15261457Y-14615533D01*
X15261457Y-14615533D02*
X15270981Y-14586962D01*
X15270981Y-14586962D02*
X15280505Y-14539343D01*
X15280505Y-14539343D02*
X15280505Y-14501248D01*
X15280505Y-14501248D02*
X15270981Y-14453629D01*
X15270981Y-14453629D02*
X15261457Y-14425057D01*
X15261457Y-14425057D02*
X15251933Y-14406010D01*
X15251933Y-14406010D02*
X15232886Y-14377438D01*
X15232886Y-14377438D02*
X15223362Y-14367914D01*
D10*
X8452702Y-14804358D02*
X8452702Y-14733646D01*
X8381991Y-14733646D01*
X8381991Y-14804358D01*
X8452702Y-14804358D01*
D12*
X8832885Y-14860486D02*
X8718599Y-14860486D01*
X8775742Y-14860486D02*
X8775742Y-14660486D01*
X8775742Y-14660486D02*
X8756695Y-14689057D01*
X8756695Y-14689057D02*
X8737647Y-14708105D01*
X8737647Y-14708105D02*
X8718599Y-14717629D01*
X8918599Y-14841438D02*
X8928123Y-14850962D01*
X8928123Y-14850962D02*
X8918599Y-14860486D01*
X8918599Y-14860486D02*
X8909076Y-14850962D01*
X8909076Y-14850962D02*
X8918599Y-14841438D01*
X8918599Y-14841438D02*
X8918599Y-14860486D01*
X9051933Y-14660486D02*
X9070980Y-14660486D01*
X9070980Y-14660486D02*
X9090028Y-14670010D01*
X9090028Y-14670010D02*
X9099552Y-14679533D01*
X9099552Y-14679533D02*
X9109076Y-14698581D01*
X9109076Y-14698581D02*
X9118599Y-14736676D01*
X9118599Y-14736676D02*
X9118599Y-14784295D01*
X9118599Y-14784295D02*
X9109076Y-14822390D01*
X9109076Y-14822390D02*
X9099552Y-14841438D01*
X9099552Y-14841438D02*
X9090028Y-14850962D01*
X9090028Y-14850962D02*
X9070980Y-14860486D01*
X9070980Y-14860486D02*
X9051933Y-14860486D01*
X9051933Y-14860486D02*
X9032885Y-14850962D01*
X9032885Y-14850962D02*
X9023361Y-14841438D01*
X9023361Y-14841438D02*
X9013838Y-14822390D01*
X9013838Y-14822390D02*
X9004314Y-14784295D01*
X9004314Y-14784295D02*
X9004314Y-14736676D01*
X9004314Y-14736676D02*
X9013838Y-14698581D01*
X9013838Y-14698581D02*
X9023361Y-14679533D01*
X9023361Y-14679533D02*
X9032885Y-14670010D01*
X9032885Y-14670010D02*
X9051933Y-14660486D01*
X9242409Y-14660486D02*
X9261457Y-14660486D01*
X9261457Y-14660486D02*
X9280504Y-14670010D01*
X9280504Y-14670010D02*
X9290028Y-14679533D01*
X9290028Y-14679533D02*
X9299552Y-14698581D01*
X9299552Y-14698581D02*
X9309076Y-14736676D01*
X9309076Y-14736676D02*
X9309076Y-14784295D01*
X9309076Y-14784295D02*
X9299552Y-14822390D01*
X9299552Y-14822390D02*
X9290028Y-14841438D01*
X9290028Y-14841438D02*
X9280504Y-14850962D01*
X9280504Y-14850962D02*
X9261457Y-14860486D01*
X9261457Y-14860486D02*
X9242409Y-14860486D01*
X9242409Y-14860486D02*
X9223361Y-14850962D01*
X9223361Y-14850962D02*
X9213838Y-14841438D01*
X9213838Y-14841438D02*
X9204314Y-14822390D01*
X9204314Y-14822390D02*
X9194790Y-14784295D01*
X9194790Y-14784295D02*
X9194790Y-14736676D01*
X9194790Y-14736676D02*
X9204314Y-14698581D01*
X9204314Y-14698581D02*
X9213838Y-14679533D01*
X9213838Y-14679533D02*
X9223361Y-14670010D01*
X9223361Y-14670010D02*
X9242409Y-14660486D01*
X9432885Y-14660486D02*
X9451933Y-14660486D01*
X9451933Y-14660486D02*
X9470980Y-14670010D01*
X9470980Y-14670010D02*
X9480504Y-14679533D01*
X9480504Y-14679533D02*
X9490028Y-14698581D01*
X9490028Y-14698581D02*
X9499552Y-14736676D01*
X9499552Y-14736676D02*
X9499552Y-14784295D01*
X9499552Y-14784295D02*
X9490028Y-14822390D01*
X9490028Y-14822390D02*
X9480504Y-14841438D01*
X9480504Y-14841438D02*
X9470980Y-14850962D01*
X9470980Y-14850962D02*
X9451933Y-14860486D01*
X9451933Y-14860486D02*
X9432885Y-14860486D01*
X9432885Y-14860486D02*
X9413838Y-14850962D01*
X9413838Y-14850962D02*
X9404314Y-14841438D01*
X9404314Y-14841438D02*
X9394790Y-14822390D01*
X9394790Y-14822390D02*
X9385266Y-14784295D01*
X9385266Y-14784295D02*
X9385266Y-14736676D01*
X9385266Y-14736676D02*
X9394790Y-14698581D01*
X9394790Y-14698581D02*
X9404314Y-14679533D01*
X9404314Y-14679533D02*
X9413838Y-14670010D01*
X9413838Y-14670010D02*
X9432885Y-14660486D01*
X9585266Y-14860486D02*
X9585266Y-14727152D01*
X9585266Y-14746200D02*
X9594790Y-14736676D01*
X9594790Y-14736676D02*
X9613838Y-14727152D01*
X9613838Y-14727152D02*
X9642409Y-14727152D01*
X9642409Y-14727152D02*
X9661457Y-14736676D01*
X9661457Y-14736676D02*
X9670980Y-14755724D01*
X9670980Y-14755724D02*
X9670980Y-14860486D01*
X9670980Y-14755724D02*
X9680504Y-14736676D01*
X9680504Y-14736676D02*
X9699552Y-14727152D01*
X9699552Y-14727152D02*
X9728123Y-14727152D01*
X9728123Y-14727152D02*
X9747171Y-14736676D01*
X9747171Y-14736676D02*
X9756695Y-14755724D01*
X9756695Y-14755724D02*
X9756695Y-14860486D01*
X9851933Y-14860486D02*
X9851933Y-14727152D01*
X9851933Y-14746200D02*
X9861457Y-14736676D01*
X9861457Y-14736676D02*
X9880504Y-14727152D01*
X9880504Y-14727152D02*
X9909076Y-14727152D01*
X9909076Y-14727152D02*
X9928123Y-14736676D01*
X9928123Y-14736676D02*
X9937647Y-14755724D01*
X9937647Y-14755724D02*
X9937647Y-14860486D01*
X9937647Y-14755724D02*
X9947171Y-14736676D01*
X9947171Y-14736676D02*
X9966219Y-14727152D01*
X9966219Y-14727152D02*
X9994790Y-14727152D01*
X9994790Y-14727152D02*
X10013838Y-14736676D01*
X10013838Y-14736676D02*
X10023361Y-14755724D01*
X10023361Y-14755724D02*
X10023361Y-14860486D01*
X10413838Y-14650962D02*
X10242409Y-14908105D01*
X10670981Y-14660486D02*
X10690028Y-14660486D01*
X10690028Y-14660486D02*
X10709076Y-14670010D01*
X10709076Y-14670010D02*
X10718600Y-14679533D01*
X10718600Y-14679533D02*
X10728123Y-14698581D01*
X10728123Y-14698581D02*
X10737647Y-14736676D01*
X10737647Y-14736676D02*
X10737647Y-14784295D01*
X10737647Y-14784295D02*
X10728123Y-14822390D01*
X10728123Y-14822390D02*
X10718600Y-14841438D01*
X10718600Y-14841438D02*
X10709076Y-14850962D01*
X10709076Y-14850962D02*
X10690028Y-14860486D01*
X10690028Y-14860486D02*
X10670981Y-14860486D01*
X10670981Y-14860486D02*
X10651933Y-14850962D01*
X10651933Y-14850962D02*
X10642409Y-14841438D01*
X10642409Y-14841438D02*
X10632885Y-14822390D01*
X10632885Y-14822390D02*
X10623362Y-14784295D01*
X10623362Y-14784295D02*
X10623362Y-14736676D01*
X10623362Y-14736676D02*
X10632885Y-14698581D01*
X10632885Y-14698581D02*
X10642409Y-14679533D01*
X10642409Y-14679533D02*
X10651933Y-14670010D01*
X10651933Y-14670010D02*
X10670981Y-14660486D01*
X10823362Y-14841438D02*
X10832885Y-14850962D01*
X10832885Y-14850962D02*
X10823362Y-14860486D01*
X10823362Y-14860486D02*
X10813838Y-14850962D01*
X10813838Y-14850962D02*
X10823362Y-14841438D01*
X10823362Y-14841438D02*
X10823362Y-14860486D01*
X10956695Y-14660486D02*
X10975743Y-14660486D01*
X10975743Y-14660486D02*
X10994790Y-14670010D01*
X10994790Y-14670010D02*
X11004314Y-14679533D01*
X11004314Y-14679533D02*
X11013838Y-14698581D01*
X11013838Y-14698581D02*
X11023362Y-14736676D01*
X11023362Y-14736676D02*
X11023362Y-14784295D01*
X11023362Y-14784295D02*
X11013838Y-14822390D01*
X11013838Y-14822390D02*
X11004314Y-14841438D01*
X11004314Y-14841438D02*
X10994790Y-14850962D01*
X10994790Y-14850962D02*
X10975743Y-14860486D01*
X10975743Y-14860486D02*
X10956695Y-14860486D01*
X10956695Y-14860486D02*
X10937647Y-14850962D01*
X10937647Y-14850962D02*
X10928123Y-14841438D01*
X10928123Y-14841438D02*
X10918600Y-14822390D01*
X10918600Y-14822390D02*
X10909076Y-14784295D01*
X10909076Y-14784295D02*
X10909076Y-14736676D01*
X10909076Y-14736676D02*
X10918600Y-14698581D01*
X10918600Y-14698581D02*
X10928123Y-14679533D01*
X10928123Y-14679533D02*
X10937647Y-14670010D01*
X10937647Y-14670010D02*
X10956695Y-14660486D01*
X11090028Y-14660486D02*
X11213838Y-14660486D01*
X11213838Y-14660486D02*
X11147171Y-14736676D01*
X11147171Y-14736676D02*
X11175743Y-14736676D01*
X11175743Y-14736676D02*
X11194790Y-14746200D01*
X11194790Y-14746200D02*
X11204314Y-14755724D01*
X11204314Y-14755724D02*
X11213838Y-14774771D01*
X11213838Y-14774771D02*
X11213838Y-14822390D01*
X11213838Y-14822390D02*
X11204314Y-14841438D01*
X11204314Y-14841438D02*
X11194790Y-14850962D01*
X11194790Y-14850962D02*
X11175743Y-14860486D01*
X11175743Y-14860486D02*
X11118600Y-14860486D01*
X11118600Y-14860486D02*
X11099552Y-14850962D01*
X11099552Y-14850962D02*
X11090028Y-14841438D01*
X11309076Y-14860486D02*
X11347171Y-14860486D01*
X11347171Y-14860486D02*
X11366219Y-14850962D01*
X11366219Y-14850962D02*
X11375742Y-14841438D01*
X11375742Y-14841438D02*
X11394790Y-14812867D01*
X11394790Y-14812867D02*
X11404314Y-14774771D01*
X11404314Y-14774771D02*
X11404314Y-14698581D01*
X11404314Y-14698581D02*
X11394790Y-14679533D01*
X11394790Y-14679533D02*
X11385266Y-14670010D01*
X11385266Y-14670010D02*
X11366219Y-14660486D01*
X11366219Y-14660486D02*
X11328123Y-14660486D01*
X11328123Y-14660486D02*
X11309076Y-14670010D01*
X11309076Y-14670010D02*
X11299552Y-14679533D01*
X11299552Y-14679533D02*
X11290028Y-14698581D01*
X11290028Y-14698581D02*
X11290028Y-14746200D01*
X11290028Y-14746200D02*
X11299552Y-14765248D01*
X11299552Y-14765248D02*
X11309076Y-14774771D01*
X11309076Y-14774771D02*
X11328123Y-14784295D01*
X11328123Y-14784295D02*
X11366219Y-14784295D01*
X11366219Y-14784295D02*
X11385266Y-14774771D01*
X11385266Y-14774771D02*
X11394790Y-14765248D01*
X11394790Y-14765248D02*
X11404314Y-14746200D01*
X11575742Y-14727152D02*
X11575742Y-14860486D01*
X11528123Y-14650962D02*
X11480504Y-14793819D01*
X11480504Y-14793819D02*
X11604314Y-14793819D01*
X11670981Y-14660486D02*
X11670981Y-14698581D01*
X11747171Y-14660486D02*
X11747171Y-14698581D01*
X12042409Y-14936676D02*
X12032885Y-14927152D01*
X12032885Y-14927152D02*
X12013838Y-14898581D01*
X12013838Y-14898581D02*
X12004314Y-14879533D01*
X12004314Y-14879533D02*
X11994790Y-14850962D01*
X11994790Y-14850962D02*
X11985266Y-14803343D01*
X11985266Y-14803343D02*
X11985266Y-14765248D01*
X11985266Y-14765248D02*
X11994790Y-14717629D01*
X11994790Y-14717629D02*
X12004314Y-14689057D01*
X12004314Y-14689057D02*
X12013838Y-14670010D01*
X12013838Y-14670010D02*
X12032885Y-14641438D01*
X12032885Y-14641438D02*
X12042409Y-14631914D01*
X12204314Y-14727152D02*
X12204314Y-14860486D01*
X12156695Y-14650962D02*
X12109076Y-14793819D01*
X12109076Y-14793819D02*
X12232885Y-14793819D01*
X12461457Y-14860486D02*
X12461457Y-14660486D01*
X12547171Y-14860486D02*
X12547171Y-14755724D01*
X12547171Y-14755724D02*
X12537647Y-14736676D01*
X12537647Y-14736676D02*
X12518600Y-14727152D01*
X12518600Y-14727152D02*
X12490028Y-14727152D01*
X12490028Y-14727152D02*
X12470981Y-14736676D01*
X12470981Y-14736676D02*
X12461457Y-14746200D01*
X12670981Y-14860486D02*
X12651933Y-14850962D01*
X12651933Y-14850962D02*
X12642409Y-14841438D01*
X12642409Y-14841438D02*
X12632885Y-14822390D01*
X12632885Y-14822390D02*
X12632885Y-14765248D01*
X12632885Y-14765248D02*
X12642409Y-14746200D01*
X12642409Y-14746200D02*
X12651933Y-14736676D01*
X12651933Y-14736676D02*
X12670981Y-14727152D01*
X12670981Y-14727152D02*
X12699552Y-14727152D01*
X12699552Y-14727152D02*
X12718600Y-14736676D01*
X12718600Y-14736676D02*
X12728124Y-14746200D01*
X12728124Y-14746200D02*
X12737647Y-14765248D01*
X12737647Y-14765248D02*
X12737647Y-14822390D01*
X12737647Y-14822390D02*
X12728124Y-14841438D01*
X12728124Y-14841438D02*
X12718600Y-14850962D01*
X12718600Y-14850962D02*
X12699552Y-14860486D01*
X12699552Y-14860486D02*
X12670981Y-14860486D01*
X12851933Y-14860486D02*
X12832885Y-14850962D01*
X12832885Y-14850962D02*
X12823362Y-14831914D01*
X12823362Y-14831914D02*
X12823362Y-14660486D01*
X13004314Y-14850962D02*
X12985266Y-14860486D01*
X12985266Y-14860486D02*
X12947171Y-14860486D01*
X12947171Y-14860486D02*
X12928124Y-14850962D01*
X12928124Y-14850962D02*
X12918600Y-14831914D01*
X12918600Y-14831914D02*
X12918600Y-14755724D01*
X12918600Y-14755724D02*
X12928124Y-14736676D01*
X12928124Y-14736676D02*
X12947171Y-14727152D01*
X12947171Y-14727152D02*
X12985266Y-14727152D01*
X12985266Y-14727152D02*
X13004314Y-14736676D01*
X13004314Y-14736676D02*
X13013838Y-14755724D01*
X13013838Y-14755724D02*
X13013838Y-14774771D01*
X13013838Y-14774771D02*
X12918600Y-14793819D01*
X13090028Y-14850962D02*
X13109076Y-14860486D01*
X13109076Y-14860486D02*
X13147171Y-14860486D01*
X13147171Y-14860486D02*
X13166219Y-14850962D01*
X13166219Y-14850962D02*
X13175743Y-14831914D01*
X13175743Y-14831914D02*
X13175743Y-14822390D01*
X13175743Y-14822390D02*
X13166219Y-14803343D01*
X13166219Y-14803343D02*
X13147171Y-14793819D01*
X13147171Y-14793819D02*
X13118600Y-14793819D01*
X13118600Y-14793819D02*
X13099552Y-14784295D01*
X13099552Y-14784295D02*
X13090028Y-14765248D01*
X13090028Y-14765248D02*
X13090028Y-14755724D01*
X13090028Y-14755724D02*
X13099552Y-14736676D01*
X13099552Y-14736676D02*
X13118600Y-14727152D01*
X13118600Y-14727152D02*
X13147171Y-14727152D01*
X13147171Y-14727152D02*
X13166219Y-14736676D01*
X13242409Y-14936676D02*
X13251933Y-14927152D01*
X13251933Y-14927152D02*
X13270981Y-14898581D01*
X13270981Y-14898581D02*
X13280505Y-14879533D01*
X13280505Y-14879533D02*
X13290028Y-14850962D01*
X13290028Y-14850962D02*
X13299552Y-14803343D01*
X13299552Y-14803343D02*
X13299552Y-14765248D01*
X13299552Y-14765248D02*
X13290028Y-14717629D01*
X13290028Y-14717629D02*
X13280505Y-14689057D01*
X13280505Y-14689057D02*
X13270981Y-14670010D01*
X13270981Y-14670010D02*
X13251933Y-14641438D01*
X13251933Y-14641438D02*
X13242409Y-14631914D01*
X13604314Y-14936676D02*
X13594790Y-14927152D01*
X13594790Y-14927152D02*
X13575743Y-14898581D01*
X13575743Y-14898581D02*
X13566219Y-14879533D01*
X13566219Y-14879533D02*
X13556695Y-14850962D01*
X13556695Y-14850962D02*
X13547171Y-14803343D01*
X13547171Y-14803343D02*
X13547171Y-14765248D01*
X13547171Y-14765248D02*
X13556695Y-14717629D01*
X13556695Y-14717629D02*
X13566219Y-14689057D01*
X13566219Y-14689057D02*
X13575743Y-14670010D01*
X13575743Y-14670010D02*
X13594790Y-14641438D01*
X13594790Y-14641438D02*
X13604314Y-14631914D01*
X13680505Y-14727152D02*
X13680505Y-14860486D01*
X13680505Y-14746200D02*
X13690028Y-14736676D01*
X13690028Y-14736676D02*
X13709076Y-14727152D01*
X13709076Y-14727152D02*
X13737647Y-14727152D01*
X13737647Y-14727152D02*
X13756695Y-14736676D01*
X13756695Y-14736676D02*
X13766219Y-14755724D01*
X13766219Y-14755724D02*
X13766219Y-14860486D01*
X13890028Y-14860486D02*
X13870981Y-14850962D01*
X13870981Y-14850962D02*
X13861457Y-14841438D01*
X13861457Y-14841438D02*
X13851933Y-14822390D01*
X13851933Y-14822390D02*
X13851933Y-14765248D01*
X13851933Y-14765248D02*
X13861457Y-14746200D01*
X13861457Y-14746200D02*
X13870981Y-14736676D01*
X13870981Y-14736676D02*
X13890028Y-14727152D01*
X13890028Y-14727152D02*
X13918600Y-14727152D01*
X13918600Y-14727152D02*
X13937647Y-14736676D01*
X13937647Y-14736676D02*
X13947171Y-14746200D01*
X13947171Y-14746200D02*
X13956695Y-14765248D01*
X13956695Y-14765248D02*
X13956695Y-14822390D01*
X13956695Y-14822390D02*
X13947171Y-14841438D01*
X13947171Y-14841438D02*
X13937647Y-14850962D01*
X13937647Y-14850962D02*
X13918600Y-14860486D01*
X13918600Y-14860486D02*
X13890028Y-14860486D01*
X14013838Y-14727152D02*
X14090028Y-14727152D01*
X14042409Y-14660486D02*
X14042409Y-14831914D01*
X14042409Y-14831914D02*
X14051933Y-14850962D01*
X14051933Y-14850962D02*
X14070981Y-14860486D01*
X14070981Y-14860486D02*
X14090028Y-14860486D01*
X14309076Y-14727152D02*
X14309076Y-14927152D01*
X14309076Y-14736676D02*
X14328124Y-14727152D01*
X14328124Y-14727152D02*
X14366219Y-14727152D01*
X14366219Y-14727152D02*
X14385267Y-14736676D01*
X14385267Y-14736676D02*
X14394790Y-14746200D01*
X14394790Y-14746200D02*
X14404314Y-14765248D01*
X14404314Y-14765248D02*
X14404314Y-14822390D01*
X14404314Y-14822390D02*
X14394790Y-14841438D01*
X14394790Y-14841438D02*
X14385267Y-14850962D01*
X14385267Y-14850962D02*
X14366219Y-14860486D01*
X14366219Y-14860486D02*
X14328124Y-14860486D01*
X14328124Y-14860486D02*
X14309076Y-14850962D01*
X14518600Y-14860486D02*
X14499552Y-14850962D01*
X14499552Y-14850962D02*
X14490028Y-14831914D01*
X14490028Y-14831914D02*
X14490028Y-14660486D01*
X14680505Y-14860486D02*
X14680505Y-14755724D01*
X14680505Y-14755724D02*
X14670981Y-14736676D01*
X14670981Y-14736676D02*
X14651933Y-14727152D01*
X14651933Y-14727152D02*
X14613838Y-14727152D01*
X14613838Y-14727152D02*
X14594790Y-14736676D01*
X14680505Y-14850962D02*
X14661457Y-14860486D01*
X14661457Y-14860486D02*
X14613838Y-14860486D01*
X14613838Y-14860486D02*
X14594790Y-14850962D01*
X14594790Y-14850962D02*
X14585267Y-14831914D01*
X14585267Y-14831914D02*
X14585267Y-14812867D01*
X14585267Y-14812867D02*
X14594790Y-14793819D01*
X14594790Y-14793819D02*
X14613838Y-14784295D01*
X14613838Y-14784295D02*
X14661457Y-14784295D01*
X14661457Y-14784295D02*
X14680505Y-14774771D01*
X14747171Y-14727152D02*
X14823362Y-14727152D01*
X14775743Y-14660486D02*
X14775743Y-14831914D01*
X14775743Y-14831914D02*
X14785267Y-14850962D01*
X14785267Y-14850962D02*
X14804314Y-14860486D01*
X14804314Y-14860486D02*
X14823362Y-14860486D01*
X14966219Y-14850962D02*
X14947171Y-14860486D01*
X14947171Y-14860486D02*
X14909076Y-14860486D01*
X14909076Y-14860486D02*
X14890028Y-14850962D01*
X14890028Y-14850962D02*
X14880505Y-14831914D01*
X14880505Y-14831914D02*
X14880505Y-14755724D01*
X14880505Y-14755724D02*
X14890028Y-14736676D01*
X14890028Y-14736676D02*
X14909076Y-14727152D01*
X14909076Y-14727152D02*
X14947171Y-14727152D01*
X14947171Y-14727152D02*
X14966219Y-14736676D01*
X14966219Y-14736676D02*
X14975743Y-14755724D01*
X14975743Y-14755724D02*
X14975743Y-14774771D01*
X14975743Y-14774771D02*
X14880505Y-14793819D01*
X15147171Y-14860486D02*
X15147171Y-14660486D01*
X15147171Y-14850962D02*
X15128124Y-14860486D01*
X15128124Y-14860486D02*
X15090028Y-14860486D01*
X15090028Y-14860486D02*
X15070981Y-14850962D01*
X15070981Y-14850962D02*
X15061457Y-14841438D01*
X15061457Y-14841438D02*
X15051933Y-14822390D01*
X15051933Y-14822390D02*
X15051933Y-14765248D01*
X15051933Y-14765248D02*
X15061457Y-14746200D01*
X15061457Y-14746200D02*
X15070981Y-14736676D01*
X15070981Y-14736676D02*
X15090028Y-14727152D01*
X15090028Y-14727152D02*
X15128124Y-14727152D01*
X15128124Y-14727152D02*
X15147171Y-14736676D01*
X15223362Y-14936676D02*
X15232886Y-14927152D01*
X15232886Y-14927152D02*
X15251933Y-14898581D01*
X15251933Y-14898581D02*
X15261457Y-14879533D01*
X15261457Y-14879533D02*
X15270981Y-14850962D01*
X15270981Y-14850962D02*
X15280505Y-14803343D01*
X15280505Y-14803343D02*
X15280505Y-14765248D01*
X15280505Y-14765248D02*
X15270981Y-14717629D01*
X15270981Y-14717629D02*
X15261457Y-14689057D01*
X15261457Y-14689057D02*
X15251933Y-14670010D01*
X15251933Y-14670010D02*
X15232886Y-14641438D01*
X15232886Y-14641438D02*
X15223362Y-14631914D01*
M02*
