%TF.GenerationSoftware,KiCad,Pcbnew,7.0.8-7.0.8~ubuntu23.04.1*%
%TF.CreationDate,2023-11-14T21:47:51+00:00*%
%TF.ProjectId,demo-badge-2023,64656d6f-2d62-4616-9467-652d32303233,1*%
%TF.SameCoordinates,Original*%
%TF.FileFunction,Drillmap*%
%TF.FilePolarity,Positive*%
%FSLAX45Y45*%
G04 Gerber Fmt 4.5, Leading zero omitted, Abs format (unit mm)*
G04 Created by KiCad (PCBNEW 7.0.8-7.0.8~ubuntu23.04.1) date 2023-11-14 21:47:51*
%MOMM*%
%LPD*%
G01*
G04 APERTURE LIST*
%ADD10C,0.100000*%
%ADD11C,0.150000*%
%ADD12C,0.200000*%
%ADD13C,0.030000*%
%ADD14C,0.060000*%
G04 APERTURE END LIST*
D10*
X12177040Y-10103120D02*
G75*
G03*
X12075440Y-10103120I-50800J0D01*
G01*
D11*
X8564999Y-8584501D02*
G75*
G03*
X8565000Y-9019800I217651J-217649D01*
G01*
X17435000Y-9019800D02*
X13212132Y-13241634D01*
X14256882Y-5406566D02*
X17435000Y-8584502D01*
X12450000Y-5410948D02*
X13550000Y-5410948D01*
D10*
X11724920Y-10321560D02*
X11724920Y-10103120D01*
D11*
X12783494Y-5160948D02*
X12450000Y-5160948D01*
D10*
X11623320Y-10321560D02*
G75*
G03*
X11724920Y-10321560I50800J0D01*
G01*
X12075440Y-10103120D02*
X12075440Y-10321560D01*
D11*
X13216506Y-5160948D02*
G75*
G03*
X12783494Y-5160948I-216506J-125000D01*
G01*
X17434999Y-9019799D02*
G75*
G03*
X17435000Y-8584502I-217649J217649D01*
G01*
D10*
X11999240Y-10514600D02*
G75*
G03*
X11999240Y-10413000I0J50800D01*
G01*
D11*
X13550000Y-5160948D02*
X13216506Y-5160948D01*
X12450000Y-5160952D02*
G75*
G03*
X12450000Y-5410948I0J-124998D01*
G01*
X12787868Y-13241634D02*
G75*
G03*
X13212132Y-13241634I212132J212132D01*
G01*
D10*
X11623320Y-10103120D02*
X11623320Y-10321560D01*
D11*
X13550000Y-5410952D02*
G75*
G03*
X13550000Y-5160948I0J125002D01*
G01*
D10*
X11801120Y-10514600D02*
X11999240Y-10514600D01*
X11724920Y-10103120D02*
G75*
G03*
X11623320Y-10103120I-50800J0D01*
G01*
X11801120Y-10413000D02*
G75*
G03*
X11801120Y-10514600I0J-50800D01*
G01*
X12177040Y-10321560D02*
X12177040Y-10103120D01*
X12075440Y-10321560D02*
G75*
G03*
X12177040Y-10321560I50800J0D01*
G01*
D11*
X14256882Y-5406566D02*
G75*
G03*
X11743118Y-5406566I-1256882J-1256884D01*
G01*
D10*
X11999240Y-10413000D02*
X11801120Y-10413000D01*
D11*
X8565000Y-8584502D02*
X11743118Y-5406566D01*
X12787868Y-13241634D02*
X8565000Y-9019800D01*
D12*
D13*
X8950000Y-9174800D02*
X8980000Y-9204800D01*
X8980000Y-9174800D02*
X8950000Y-9204800D01*
X9275000Y-9354800D02*
X9305000Y-9384800D01*
X9305000Y-9354800D02*
X9275000Y-9384800D01*
X9389648Y-9400152D02*
X9419648Y-9430152D01*
X9419648Y-9400152D02*
X9389648Y-9430152D01*
X9391000Y-9098800D02*
X9421000Y-9128800D01*
X9421000Y-9098800D02*
X9391000Y-9128800D01*
X9444000Y-9795222D02*
X9474000Y-9825222D01*
X9474000Y-9795222D02*
X9444000Y-9825222D01*
X9461654Y-9115714D02*
X9491654Y-9145714D01*
X9491654Y-9115714D02*
X9461654Y-9145714D01*
X9483000Y-9186800D02*
X9513000Y-9216800D01*
X9513000Y-9186800D02*
X9483000Y-9216800D01*
X9523000Y-9872800D02*
X9553000Y-9902800D01*
X9553000Y-9872800D02*
X9523000Y-9902800D01*
X9571000Y-9268800D02*
X9601000Y-9298800D01*
X9601000Y-9268800D02*
X9571000Y-9298800D01*
X9668521Y-9174800D02*
X9698521Y-9204800D01*
X9698521Y-9174800D02*
X9668521Y-9204800D01*
X9685000Y-9979800D02*
X9715000Y-10009800D01*
X9715000Y-9979800D02*
X9685000Y-10009800D01*
X9756210Y-8746551D02*
X9786210Y-8776551D01*
X9786210Y-8746551D02*
X9756210Y-8776551D01*
X9820000Y-8269800D02*
X9850000Y-8299800D01*
X9850000Y-8269800D02*
X9820000Y-8299800D01*
X9825000Y-8417150D02*
X9855000Y-8447150D01*
X9855000Y-8417150D02*
X9825000Y-8447150D01*
X9825000Y-8489800D02*
X9855000Y-8519800D01*
X9855000Y-8489800D02*
X9825000Y-8519800D01*
X9840292Y-8831537D02*
X9870292Y-8861537D01*
X9870292Y-8831537D02*
X9840292Y-8861537D01*
X9841000Y-9090800D02*
X9871000Y-9120800D01*
X9871000Y-9090800D02*
X9841000Y-9120800D01*
X9914000Y-8764800D02*
X9944000Y-8794800D01*
X9944000Y-8764800D02*
X9914000Y-8794800D01*
X9922000Y-8580800D02*
X9952000Y-8610800D01*
X9952000Y-8580800D02*
X9922000Y-8610800D01*
X9985000Y-10294800D02*
X10015000Y-10324800D01*
X10015000Y-10294800D02*
X9985000Y-10324800D01*
X10165999Y-7731111D02*
X10195999Y-7761111D01*
X10195999Y-7731111D02*
X10165999Y-7761111D01*
X10214000Y-8082800D02*
X10244000Y-8112800D01*
X10244000Y-8082800D02*
X10214000Y-8112800D01*
X10217432Y-8762368D02*
X10247432Y-8792368D01*
X10247432Y-8762368D02*
X10217432Y-8792368D01*
X10219000Y-7780800D02*
X10249000Y-7810800D01*
X10249000Y-7780800D02*
X10219000Y-7810800D01*
X10260000Y-8359800D02*
X10290000Y-8389800D01*
X10290000Y-8359800D02*
X10260000Y-8389800D01*
X10311102Y-8873800D02*
X10341102Y-8903800D01*
X10341102Y-8873800D02*
X10311102Y-8903800D01*
X10355931Y-8749670D02*
X10385931Y-8779670D01*
X10385931Y-8749670D02*
X10355931Y-8779670D01*
X10399000Y-7489800D02*
X10429000Y-7519800D01*
X10429000Y-7489800D02*
X10399000Y-7519800D01*
X10454000Y-7544800D02*
X10484000Y-7574800D01*
X10484000Y-7544800D02*
X10454000Y-7574800D01*
X10503000Y-8588800D02*
X10533000Y-8618800D01*
X10533000Y-8588800D02*
X10503000Y-8618800D01*
X10534000Y-9621150D02*
X10564000Y-9651150D01*
X10564000Y-9621150D02*
X10534000Y-9651150D01*
X10534000Y-9709800D02*
X10564000Y-9739800D01*
X10564000Y-9709800D02*
X10534000Y-9739800D01*
X10534000Y-9853800D02*
X10564000Y-9883800D01*
X10564000Y-9853800D02*
X10534000Y-9883800D01*
X10558372Y-9304600D02*
X10588372Y-9334600D01*
X10588372Y-9304600D02*
X10558372Y-9334600D01*
X10565000Y-8675800D02*
X10595000Y-8705800D01*
X10595000Y-8675800D02*
X10565000Y-8705800D01*
X10570000Y-7784800D02*
X10600000Y-7814800D01*
X10600000Y-7784800D02*
X10570000Y-7814800D01*
X10577774Y-8972026D02*
X10607774Y-9002026D01*
X10607774Y-8972026D02*
X10577774Y-9002026D01*
X10607372Y-9621150D02*
X10637372Y-9651150D01*
X10637372Y-9621150D02*
X10607372Y-9651150D01*
X10631022Y-9304600D02*
X10661022Y-9334600D01*
X10661022Y-9304600D02*
X10631022Y-9334600D01*
X10644000Y-8753800D02*
X10674000Y-8783800D01*
X10674000Y-8753800D02*
X10644000Y-8783800D01*
X10680000Y-10114800D02*
X10710000Y-10144800D01*
X10710000Y-10114800D02*
X10680000Y-10144800D01*
X10680906Y-9621150D02*
X10710906Y-9651150D01*
X10710906Y-9621150D02*
X10680906Y-9651150D01*
X10728965Y-10046031D02*
X10758965Y-10076031D01*
X10758965Y-10046031D02*
X10728965Y-10076031D01*
X10730000Y-7004800D02*
X10760000Y-7034800D01*
X10760000Y-7004800D02*
X10730000Y-7034800D01*
X10770120Y-10105900D02*
X10800120Y-10135900D01*
X10800120Y-10105900D02*
X10770120Y-10135900D01*
X10810000Y-7824800D02*
X10840000Y-7854800D01*
X10840000Y-7824800D02*
X10810000Y-7854800D01*
X10811000Y-8069800D02*
X10841000Y-8099800D01*
X10841000Y-8069800D02*
X10811000Y-8099800D01*
X10820970Y-9921548D02*
X10850970Y-9951548D01*
X10850970Y-9921548D02*
X10820970Y-9951548D01*
X10836160Y-6928360D02*
X10866160Y-6958360D01*
X10866160Y-6928360D02*
X10836160Y-6958360D01*
X10850000Y-7609800D02*
X10880000Y-7639800D01*
X10880000Y-7609800D02*
X10850000Y-7639800D01*
X10852000Y-9705800D02*
X10882000Y-9735800D01*
X10882000Y-9705800D02*
X10852000Y-9735800D01*
X10868170Y-10177020D02*
X10898170Y-10207020D01*
X10898170Y-10177020D02*
X10868170Y-10207020D01*
X10885000Y-7854530D02*
X10915000Y-7884530D01*
X10915000Y-7854530D02*
X10885000Y-7884530D01*
X10893570Y-9864800D02*
X10923570Y-9894800D01*
X10923570Y-9864800D02*
X10893570Y-9894800D01*
X10893570Y-10105468D02*
X10923570Y-10135468D01*
X10923570Y-10105468D02*
X10893570Y-10135468D01*
X10908981Y-10471358D02*
X10938981Y-10501358D01*
X10938981Y-10471358D02*
X10908981Y-10501358D01*
X10909000Y-8649800D02*
X10939000Y-8679800D01*
X10939000Y-8649800D02*
X10909000Y-8679800D01*
X10935000Y-6829800D02*
X10965000Y-6859800D01*
X10965000Y-6829800D02*
X10935000Y-6859800D01*
X10938237Y-9785860D02*
X10968237Y-9815860D01*
X10968237Y-9785860D02*
X10938237Y-9815860D01*
X10960000Y-8744800D02*
X10990000Y-8774800D01*
X10990000Y-8744800D02*
X10960000Y-8774800D01*
X10960620Y-10522460D02*
X10990620Y-10552460D01*
X10990620Y-10522460D02*
X10960620Y-10552460D01*
X10987237Y-9710767D02*
X11017237Y-9740767D01*
X11017237Y-9710767D02*
X10987237Y-9740767D01*
X11040000Y-8495800D02*
X11070000Y-8525800D01*
X11070000Y-8495800D02*
X11040000Y-8525800D01*
X11041000Y-9864800D02*
X11071000Y-9894800D01*
X11071000Y-9864800D02*
X11041000Y-9894800D01*
X11050000Y-10104800D02*
X11080000Y-10134800D01*
X11080000Y-10104800D02*
X11050000Y-10134800D01*
X11052590Y-10271758D02*
X11082590Y-10301758D01*
X11082590Y-10271758D02*
X11052590Y-10301758D01*
X11052590Y-10445958D02*
X11082590Y-10475958D01*
X11082590Y-10445958D02*
X11052590Y-10475958D01*
X11071550Y-8859800D02*
X11101550Y-8889800D01*
X11101550Y-8859800D02*
X11071550Y-8889800D01*
X11071550Y-9321890D02*
X11101550Y-9351890D01*
X11101550Y-9321890D02*
X11071550Y-9351890D01*
X11101750Y-7268336D02*
X11131750Y-7298336D01*
X11131750Y-7268336D02*
X11101750Y-7298336D01*
X11101750Y-7634800D02*
X11131750Y-7664800D01*
X11131750Y-7634800D02*
X11101750Y-7664800D01*
X11168370Y-9970548D02*
X11198370Y-10000548D01*
X11198370Y-9970548D02*
X11168370Y-10000548D01*
X11176454Y-7665503D02*
X11206454Y-7695503D01*
X11206454Y-7665503D02*
X11176454Y-7695503D01*
X11189035Y-7181501D02*
X11219035Y-7211501D01*
X11219035Y-7181501D02*
X11189035Y-7211501D01*
X11210230Y-9911170D02*
X11240230Y-9941170D01*
X11240230Y-9911170D02*
X11210230Y-9941170D01*
X11221000Y-9367800D02*
X11251000Y-9397800D01*
X11251000Y-9367800D02*
X11221000Y-9397800D01*
X11225000Y-8744800D02*
X11255000Y-8774800D01*
X11255000Y-8744800D02*
X11225000Y-8774800D01*
X11232000Y-9705800D02*
X11262000Y-9735800D01*
X11262000Y-9705800D02*
X11232000Y-9735800D01*
X11232030Y-10012810D02*
X11262030Y-10042810D01*
X11262030Y-10012810D02*
X11232030Y-10042810D01*
X11262880Y-10362440D02*
X11292880Y-10392440D01*
X11292880Y-10362440D02*
X11262880Y-10392440D01*
X11302586Y-9429800D02*
X11332586Y-9459800D01*
X11332586Y-9429800D02*
X11302586Y-9459800D01*
X11302586Y-9837799D02*
X11332586Y-9867799D01*
X11332586Y-9837799D02*
X11302586Y-9867799D01*
X11305000Y-7719230D02*
X11335000Y-7749230D01*
X11335000Y-7719230D02*
X11305000Y-7749230D01*
X11327986Y-8529800D02*
X11357986Y-8559800D01*
X11357986Y-8529800D02*
X11327986Y-8559800D01*
X11330000Y-7924800D02*
X11360000Y-7954800D01*
X11360000Y-7924800D02*
X11330000Y-7954800D01*
X11330000Y-8134800D02*
X11360000Y-8164800D01*
X11360000Y-8134800D02*
X11330000Y-8164800D01*
X11351586Y-10415974D02*
X11381586Y-10445974D01*
X11381586Y-10415974D02*
X11351586Y-10445974D01*
X11415000Y-11414800D02*
X11445000Y-11444800D01*
X11445000Y-11414800D02*
X11415000Y-11444800D01*
X11431117Y-10705940D02*
X11461117Y-10735940D01*
X11461117Y-10705940D02*
X11431117Y-10735940D01*
X11435000Y-8969800D02*
X11465000Y-8999800D01*
X11465000Y-8969800D02*
X11435000Y-8999800D01*
X11469000Y-10899800D02*
X11499000Y-10929800D01*
X11499000Y-10899800D02*
X11469000Y-10929800D01*
X11478845Y-7154485D02*
X11508845Y-7184485D01*
X11508845Y-7154485D02*
X11478845Y-7184485D01*
X11482488Y-10757312D02*
X11512488Y-10787312D01*
X11512488Y-10757312D02*
X11482488Y-10787312D01*
X11487736Y-9104950D02*
X11517736Y-9134950D01*
X11517736Y-9104950D02*
X11487736Y-9134950D01*
X11503595Y-10532062D02*
X11533595Y-10562062D01*
X11533595Y-10532062D02*
X11503595Y-10562062D01*
X11535000Y-8074800D02*
X11565000Y-8104800D01*
X11565000Y-8074800D02*
X11535000Y-8104800D01*
X11554966Y-10583434D02*
X11584966Y-10613434D01*
X11584966Y-10583434D02*
X11554966Y-10613434D01*
X11555000Y-6054800D02*
X11585000Y-6084800D01*
X11585000Y-6054800D02*
X11555000Y-6084800D01*
X11585786Y-8199800D02*
X11615786Y-8229800D01*
X11615786Y-8199800D02*
X11585786Y-8229800D01*
X11606338Y-10634805D02*
X11636338Y-10664805D01*
X11636338Y-10634805D02*
X11606338Y-10664805D01*
X11635000Y-9365800D02*
X11665000Y-9395800D01*
X11665000Y-9365800D02*
X11635000Y-9395800D01*
X11645000Y-10454800D02*
X11675000Y-10484800D01*
X11675000Y-10454800D02*
X11645000Y-10484800D01*
X11657709Y-10686177D02*
X11687709Y-10716177D01*
X11687709Y-10686177D02*
X11657709Y-10716177D01*
X11695000Y-8004800D02*
X11725000Y-8034800D01*
X11725000Y-8004800D02*
X11695000Y-8034800D01*
X11697220Y-9181150D02*
X11727220Y-9211150D01*
X11727220Y-9181150D02*
X11697220Y-9211150D01*
X11697220Y-9442960D02*
X11727220Y-9472960D01*
X11727220Y-9442960D02*
X11697220Y-9472960D01*
X11700000Y-8744800D02*
X11730000Y-8774800D01*
X11730000Y-8744800D02*
X11700000Y-8774800D01*
X11748314Y-9129503D02*
X11778314Y-9159503D01*
X11778314Y-9129503D02*
X11748314Y-9159503D01*
X11750000Y-9359800D02*
X11780000Y-9389800D01*
X11780000Y-9359800D02*
X11750000Y-9389800D01*
X11762825Y-6599800D02*
X11792825Y-6629800D01*
X11792825Y-6599800D02*
X11762825Y-6629800D01*
X11769252Y-9886799D02*
X11799252Y-9916799D01*
X11799252Y-9886799D02*
X11769252Y-9916799D01*
X11775960Y-10017524D02*
X11805960Y-10047524D01*
X11805960Y-10017524D02*
X11775960Y-10047524D01*
X11781040Y-10331960D02*
X11811040Y-10361960D01*
X11811040Y-10331960D02*
X11781040Y-10361960D01*
X11795000Y-6054800D02*
X11825000Y-6084800D01*
X11825000Y-6054800D02*
X11795000Y-6084800D01*
X11850550Y-9039800D02*
X11880550Y-9069800D01*
X11880550Y-9039800D02*
X11850550Y-9069800D01*
X11854700Y-10017524D02*
X11884700Y-10047524D01*
X11884700Y-10017524D02*
X11854700Y-10047524D01*
X11940000Y-9989800D02*
X11970000Y-10019800D01*
X11970000Y-9989800D02*
X11940000Y-10019800D01*
X12005160Y-5715040D02*
X12035160Y-5745040D01*
X12035160Y-5715040D02*
X12005160Y-5745040D01*
X12035000Y-11149800D02*
X12065000Y-11179800D01*
X12065000Y-11149800D02*
X12035000Y-11179800D01*
X12110000Y-8744800D02*
X12140000Y-8774800D01*
X12140000Y-8744800D02*
X12110000Y-8774800D01*
X12146800Y-5272280D02*
X12176800Y-5302280D01*
X12176800Y-5272280D02*
X12146800Y-5302280D01*
X12160000Y-12214800D02*
X12190000Y-12244800D01*
X12190000Y-12214800D02*
X12160000Y-12244800D01*
X12243320Y-10382760D02*
X12273320Y-10412760D01*
X12273320Y-10382760D02*
X12243320Y-10412760D01*
X12268000Y-5546600D02*
X12298000Y-5576600D01*
X12298000Y-5546600D02*
X12268000Y-5576600D01*
X12278880Y-7273800D02*
X12308880Y-7303800D01*
X12308880Y-7273800D02*
X12278880Y-7303800D01*
X12278880Y-7786880D02*
X12308880Y-7816880D01*
X12308880Y-7786880D02*
X12278880Y-7816880D01*
X12283505Y-6554160D02*
X12313505Y-6584160D01*
X12313505Y-6554160D02*
X12283505Y-6584160D01*
X12298000Y-9779800D02*
X12328000Y-9809800D01*
X12328000Y-9779800D02*
X12298000Y-9809800D01*
X12328000Y-10756800D02*
X12358000Y-10786800D01*
X12358000Y-10756800D02*
X12328000Y-10786800D01*
X12329000Y-10552150D02*
X12359000Y-10582150D01*
X12359000Y-10552150D02*
X12329000Y-10582150D01*
X12329000Y-10624800D02*
X12359000Y-10654800D01*
X12359000Y-10624800D02*
X12329000Y-10654800D01*
X12339840Y-7162040D02*
X12369840Y-7192040D01*
X12369840Y-7162040D02*
X12339840Y-7192040D01*
X12339840Y-7849800D02*
X12369840Y-7879800D01*
X12369840Y-7849800D02*
X12339840Y-7879800D01*
X12366150Y-9495950D02*
X12396150Y-9525950D01*
X12396150Y-9495950D02*
X12366150Y-9525950D01*
X12375491Y-9785224D02*
X12405491Y-9815224D01*
X12405491Y-9785224D02*
X12375491Y-9815224D01*
X12402559Y-10696647D02*
X12432559Y-10726647D01*
X12432559Y-10696647D02*
X12402559Y-10726647D01*
X12405000Y-5864800D02*
X12435000Y-5894800D01*
X12435000Y-5864800D02*
X12405000Y-5894800D01*
X12408191Y-9720349D02*
X12438191Y-9750349D01*
X12438191Y-9720349D02*
X12408191Y-9750349D01*
X12410825Y-6753800D02*
X12440825Y-6783800D01*
X12440825Y-6753800D02*
X12410825Y-6783800D01*
X12440891Y-9612717D02*
X12470891Y-9642717D01*
X12470891Y-9612717D02*
X12440891Y-9642717D01*
X12466840Y-8371080D02*
X12496840Y-8401080D01*
X12496840Y-8371080D02*
X12466840Y-8401080D01*
X12477000Y-12109934D02*
X12507000Y-12139934D01*
X12507000Y-12109934D02*
X12477000Y-12139934D01*
X12479540Y-11805160D02*
X12509540Y-11835160D01*
X12509540Y-11805160D02*
X12479540Y-11835160D01*
X12510000Y-6879800D02*
X12540000Y-6909800D01*
X12540000Y-6879800D02*
X12510000Y-6909800D01*
X12526150Y-5605230D02*
X12556150Y-5635230D01*
X12556150Y-5605230D02*
X12526150Y-5635230D01*
X12530340Y-7639560D02*
X12560340Y-7669560D01*
X12560340Y-7639560D02*
X12530340Y-7669560D01*
X12544860Y-5798060D02*
X12574860Y-5828060D01*
X12574860Y-5798060D02*
X12544860Y-5828060D01*
X12562693Y-9514667D02*
X12592693Y-9544667D01*
X12592693Y-9514667D02*
X12562693Y-9544667D01*
X12592833Y-10618133D02*
X12622833Y-10648133D01*
X12622833Y-10618133D02*
X12592833Y-10648133D01*
X12605800Y-9574800D02*
X12635800Y-9604800D01*
X12635800Y-9574800D02*
X12605800Y-9604800D01*
X12612071Y-10281160D02*
X12642071Y-10311160D01*
X12642071Y-10281160D02*
X12612071Y-10311160D01*
X12613420Y-10548460D02*
X12643420Y-10578460D01*
X12643420Y-10548460D02*
X12613420Y-10578460D01*
X12617000Y-10824570D02*
X12647000Y-10854570D01*
X12647000Y-10824570D02*
X12617000Y-10854570D01*
X12625000Y-7214800D02*
X12655000Y-7244800D01*
X12655000Y-7214800D02*
X12625000Y-7244800D01*
X12654800Y-9364800D02*
X12684800Y-9394800D01*
X12684800Y-9364800D02*
X12654800Y-9394800D01*
X12662420Y-10450410D02*
X12692420Y-10480410D01*
X12692420Y-10450410D02*
X12662420Y-10480410D01*
X12670000Y-7899800D02*
X12700000Y-7929800D01*
X12700000Y-7899800D02*
X12670000Y-7929800D01*
X12670040Y-8569800D02*
X12700040Y-8599800D01*
X12700040Y-8569800D02*
X12670040Y-8599800D01*
X12740440Y-5945380D02*
X12770440Y-5975380D01*
X12770440Y-5945380D02*
X12740440Y-5975380D01*
X12748259Y-8569200D02*
X12778259Y-8599200D01*
X12778259Y-8569200D02*
X12748259Y-8599200D01*
X12750000Y-9206550D02*
X12780000Y-9236550D01*
X12780000Y-9206550D02*
X12750000Y-9236550D01*
X12756400Y-10067800D02*
X12786400Y-10097800D01*
X12786400Y-10067800D02*
X12756400Y-10097800D01*
X12764000Y-10824870D02*
X12794000Y-10854870D01*
X12794000Y-10824870D02*
X12764000Y-10854870D01*
X12810000Y-5614800D02*
X12840000Y-5644800D01*
X12840000Y-5614800D02*
X12810000Y-5644800D01*
X12820000Y-9254800D02*
X12850000Y-9284800D01*
X12850000Y-9254800D02*
X12820000Y-9284800D01*
X12820907Y-8569853D02*
X12850907Y-8599853D01*
X12850907Y-8569853D02*
X12820907Y-8599853D01*
X12837680Y-10022190D02*
X12867680Y-10052190D01*
X12867680Y-10022190D02*
X12837680Y-10052190D01*
X12853080Y-7649720D02*
X12883080Y-7679720D01*
X12883080Y-7649720D02*
X12853080Y-7679720D01*
X12860750Y-11693400D02*
X12890750Y-11723400D01*
X12890750Y-11693400D02*
X12860750Y-11723400D01*
X12865000Y-6414800D02*
X12895000Y-6444800D01*
X12895000Y-6414800D02*
X12865000Y-6444800D01*
X12877500Y-12511280D02*
X12907500Y-12541280D01*
X12907500Y-12511280D02*
X12877500Y-12541280D01*
X12892650Y-9254800D02*
X12922650Y-9284800D01*
X12922650Y-9254800D02*
X12892650Y-9284800D01*
X12893560Y-8569200D02*
X12923560Y-8599200D01*
X12923560Y-8569200D02*
X12893560Y-8599200D01*
X12911000Y-10824870D02*
X12941000Y-10854870D01*
X12941000Y-10824870D02*
X12911000Y-10854870D01*
X12934200Y-10382760D02*
X12964200Y-10412760D01*
X12964200Y-10382760D02*
X12934200Y-10412760D01*
X12935000Y-6984800D02*
X12965000Y-7014800D01*
X12965000Y-6984800D02*
X12935000Y-7014800D01*
X12985000Y-10204960D02*
X13015000Y-10234960D01*
X13015000Y-10204960D02*
X12985000Y-10234960D01*
X12985000Y-12814800D02*
X13015000Y-12844800D01*
X13015000Y-12814800D02*
X12985000Y-12844800D01*
X12990000Y-8569200D02*
X13020000Y-8599200D01*
X13020000Y-8569200D02*
X12990000Y-8599200D01*
X12990000Y-8858760D02*
X13020000Y-8888760D01*
X13020000Y-8858760D02*
X12990000Y-8888760D01*
X13056120Y-10052560D02*
X13086120Y-10082560D01*
X13086120Y-10052560D02*
X13056120Y-10082560D01*
X13060000Y-10824870D02*
X13090000Y-10854870D01*
X13090000Y-10824870D02*
X13060000Y-10854870D01*
X13101840Y-10382760D02*
X13131840Y-10412760D01*
X13131840Y-10382760D02*
X13101840Y-10412760D01*
X13127240Y-11805160D02*
X13157240Y-11835160D01*
X13157240Y-11805160D02*
X13127240Y-11835160D01*
X13132320Y-8620000D02*
X13162320Y-8650000D01*
X13162320Y-8620000D02*
X13132320Y-8650000D01*
X13160000Y-7799800D02*
X13190000Y-7829800D01*
X13190000Y-7799800D02*
X13160000Y-7829800D01*
X13185000Y-6484800D02*
X13215000Y-6514800D01*
X13215000Y-6484800D02*
X13185000Y-6514800D01*
X13206000Y-10824870D02*
X13236000Y-10854870D01*
X13236000Y-10824870D02*
X13206000Y-10854870D01*
X13230000Y-8104800D02*
X13260000Y-8134800D01*
X13260000Y-8104800D02*
X13230000Y-8134800D01*
X13233920Y-10024410D02*
X13263920Y-10054410D01*
X13263920Y-10024410D02*
X13233920Y-10054410D01*
X13244000Y-10130800D02*
X13274000Y-10160800D01*
X13274000Y-10130800D02*
X13244000Y-10160800D01*
X13299960Y-9440420D02*
X13329960Y-9470420D01*
X13329960Y-9440420D02*
X13299960Y-9470420D01*
X13299960Y-10230360D02*
X13329960Y-10260360D01*
X13329960Y-10230360D02*
X13299960Y-10260360D01*
X13300000Y-7720840D02*
X13330000Y-7750840D01*
X13330000Y-7720840D02*
X13300000Y-7750840D01*
X13355000Y-10824570D02*
X13385000Y-10854570D01*
X13385000Y-10824570D02*
X13355000Y-10854570D01*
X13385000Y-7334800D02*
X13415000Y-7364800D01*
X13415000Y-7334800D02*
X13385000Y-7364800D01*
X13386320Y-10382760D02*
X13416320Y-10412760D01*
X13416320Y-10382760D02*
X13386320Y-10412760D01*
X13461000Y-9721800D02*
X13491000Y-9751800D01*
X13491000Y-9721800D02*
X13461000Y-9751800D01*
X13485380Y-11802620D02*
X13515380Y-11832620D01*
X13515380Y-11802620D02*
X13485380Y-11832620D01*
X13493000Y-8371080D02*
X13523000Y-8401080D01*
X13523000Y-8371080D02*
X13493000Y-8401080D01*
X13518400Y-12109934D02*
X13548400Y-12139934D01*
X13548400Y-12109934D02*
X13518400Y-12139934D01*
X13545000Y-5679800D02*
X13575000Y-5709800D01*
X13575000Y-5679800D02*
X13545000Y-5709800D01*
X13566660Y-10032240D02*
X13596660Y-10062240D01*
X13596660Y-10032240D02*
X13566660Y-10062240D01*
X13650480Y-9940800D02*
X13680480Y-9970800D01*
X13680480Y-9940800D02*
X13650480Y-9970800D01*
X13785100Y-9333740D02*
X13815100Y-9363740D01*
X13815100Y-9333740D02*
X13785100Y-9363740D01*
X13787640Y-9664800D02*
X13817640Y-9694800D01*
X13817640Y-9664800D02*
X13787640Y-9694800D01*
X13810000Y-12219800D02*
X13840000Y-12249800D01*
X13840000Y-12219800D02*
X13810000Y-12249800D01*
X13828280Y-5267200D02*
X13858280Y-5297200D01*
X13858280Y-5267200D02*
X13828280Y-5297200D01*
X13835000Y-8874800D02*
X13865000Y-8904800D01*
X13865000Y-8874800D02*
X13835000Y-8904800D01*
X14064500Y-10218190D02*
X14094500Y-10248190D01*
X14094500Y-10218190D02*
X14064500Y-10248190D01*
X14065000Y-5679800D02*
X14095000Y-5709800D01*
X14095000Y-5679800D02*
X14065000Y-5709800D01*
X14115000Y-9384800D02*
X14145000Y-9414800D01*
X14145000Y-9384800D02*
X14115000Y-9414800D01*
X14196580Y-8432040D02*
X14226580Y-8462040D01*
X14226580Y-8432040D02*
X14196580Y-8462040D01*
X14196580Y-10022080D02*
X14226580Y-10052080D01*
X14226580Y-10022080D02*
X14196580Y-10052080D01*
X14245580Y-8505700D02*
X14275580Y-8535700D01*
X14275580Y-8505700D02*
X14245580Y-8535700D01*
X14245580Y-9934024D02*
X14275580Y-9964024D01*
X14275580Y-9934024D02*
X14245580Y-9964024D01*
X14348236Y-9696960D02*
X14378236Y-9726960D01*
X14378236Y-9696960D02*
X14348236Y-9726960D01*
X14350209Y-9095867D02*
X14380209Y-9125867D01*
X14380209Y-9095867D02*
X14350209Y-9125867D01*
X14382000Y-10342120D02*
X14412000Y-10372120D01*
X14412000Y-10342120D02*
X14382000Y-10372120D01*
X14400886Y-9149256D02*
X14430886Y-9179256D01*
X14430886Y-9149256D02*
X14400886Y-9179256D01*
X14401025Y-9749168D02*
X14431025Y-9779168D01*
X14431025Y-9749168D02*
X14401025Y-9779168D01*
X14456077Y-9797306D02*
X14486077Y-9827306D01*
X14486077Y-9797306D02*
X14456077Y-9827306D01*
X14462993Y-9188768D02*
X14492993Y-9218768D01*
X14492993Y-9188768D02*
X14462993Y-9218768D01*
X14498840Y-10580880D02*
X14528840Y-10610880D01*
X14528840Y-10580880D02*
X14498840Y-10610880D01*
X14511540Y-10146540D02*
X14541540Y-10176540D01*
X14541540Y-10146540D02*
X14511540Y-10176540D01*
X14512230Y-10450410D02*
X14542230Y-10480410D01*
X14542230Y-10450410D02*
X14512230Y-10480410D01*
X14519007Y-9835494D02*
X14549007Y-9865494D01*
X14549007Y-9835494D02*
X14519007Y-9865494D01*
X14524240Y-9229600D02*
X14554240Y-9259600D01*
X14554240Y-9229600D02*
X14524240Y-9259600D01*
X14564000Y-10077800D02*
X14594000Y-10107800D01*
X14594000Y-10077800D02*
X14564000Y-10107800D01*
X14564880Y-10204960D02*
X14594880Y-10234960D01*
X14594880Y-10204960D02*
X14564880Y-10234960D01*
X14564880Y-10519920D02*
X14594880Y-10549920D01*
X14594880Y-10519920D02*
X14564880Y-10549920D01*
X14575040Y-9425180D02*
X14605040Y-9455180D01*
X14605040Y-9425180D02*
X14575040Y-9455180D01*
X14575040Y-9883230D02*
X14605040Y-9913230D01*
X14605040Y-9883230D02*
X14575040Y-9913230D01*
X14625000Y-6444800D02*
X14655000Y-6474800D01*
X14655000Y-6444800D02*
X14625000Y-6474800D01*
X14633860Y-7273800D02*
X14663860Y-7303800D01*
X14663860Y-7273800D02*
X14633860Y-7303800D01*
X14637000Y-9836800D02*
X14667000Y-9866800D01*
X14667000Y-9836800D02*
X14637000Y-9866800D01*
X14639000Y-8345680D02*
X14669000Y-8375680D01*
X14669000Y-8345680D02*
X14639000Y-8375680D01*
X14639000Y-8432040D02*
X14669000Y-8462040D01*
X14669000Y-8432040D02*
X14639000Y-8462040D01*
X14639000Y-8504690D02*
X14669000Y-8534690D01*
X14669000Y-8504690D02*
X14639000Y-8534690D01*
X14640000Y-10994800D02*
X14670000Y-11024800D01*
X14670000Y-10994800D02*
X14640000Y-11024800D01*
X14645852Y-10707572D02*
X14675852Y-10737572D01*
X14675852Y-10707572D02*
X14645852Y-10737572D01*
X14757920Y-11521740D02*
X14787920Y-11551740D01*
X14787920Y-11521740D02*
X14757920Y-11551740D01*
X14808720Y-9477510D02*
X14838720Y-9507510D01*
X14838720Y-9477510D02*
X14808720Y-9507510D01*
X14839200Y-10146540D02*
X14869200Y-10176540D01*
X14869200Y-10146540D02*
X14839200Y-10176540D01*
X14884920Y-10479280D02*
X14914920Y-10509280D01*
X14914920Y-10479280D02*
X14884920Y-10509280D01*
X14895080Y-10204960D02*
X14925080Y-10234960D01*
X14925080Y-10204960D02*
X14895080Y-10234960D01*
X14965000Y-6489800D02*
X14995000Y-6519800D01*
X14995000Y-6489800D02*
X14965000Y-6519800D01*
X14968035Y-11216704D02*
X14998035Y-11246704D01*
X14998035Y-11216704D02*
X14968035Y-11246704D01*
X14996680Y-10022080D02*
X15026680Y-10052080D01*
X15026680Y-10022080D02*
X14996680Y-10052080D01*
X15010000Y-6829800D02*
X15040000Y-6859800D01*
X15040000Y-6829800D02*
X15010000Y-6859800D01*
X15022080Y-11266680D02*
X15052080Y-11296680D01*
X15052080Y-11266680D02*
X15022080Y-11296680D01*
X15132994Y-10650306D02*
X15162994Y-10680306D01*
X15162994Y-10650306D02*
X15132994Y-10680306D01*
X15187180Y-9229600D02*
X15217180Y-9259600D01*
X15217180Y-9229600D02*
X15187180Y-9259600D01*
X15194800Y-9531860D02*
X15224800Y-9561860D01*
X15224800Y-9531860D02*
X15194800Y-9561860D01*
X15199880Y-9130540D02*
X15229880Y-9160540D01*
X15229880Y-9130540D02*
X15199880Y-9160540D01*
X15202951Y-8775471D02*
X15232951Y-8805471D01*
X15232951Y-8775471D02*
X15202951Y-8805471D01*
X15205090Y-8701892D02*
X15235090Y-8731892D01*
X15235090Y-8701892D02*
X15205090Y-8731892D01*
X15242848Y-9653120D02*
X15272848Y-9683120D01*
X15272848Y-9653120D02*
X15242848Y-9683120D01*
X15250371Y-9580860D02*
X15280371Y-9610860D01*
X15280371Y-9580860D02*
X15250371Y-9610860D01*
X15250680Y-9379510D02*
X15280680Y-9409510D01*
X15280680Y-9379510D02*
X15250680Y-9409510D01*
X15271000Y-10088120D02*
X15301000Y-10118120D01*
X15301000Y-10088120D02*
X15271000Y-10118120D01*
X15278620Y-10514840D02*
X15308620Y-10544840D01*
X15308620Y-10514840D02*
X15278620Y-10544840D01*
X15305796Y-9689390D02*
X15335796Y-9719390D01*
X15335796Y-9689390D02*
X15305796Y-9719390D01*
X15321800Y-9930640D02*
X15351800Y-9960640D01*
X15351800Y-9930640D02*
X15321800Y-9960640D01*
X15344660Y-9323580D02*
X15374660Y-9353580D01*
X15374660Y-9323580D02*
X15344660Y-9353580D01*
X15514840Y-9477510D02*
X15544840Y-9507510D01*
X15544840Y-9477510D02*
X15514840Y-9507510D01*
X15543935Y-10244445D02*
X15573935Y-10274445D01*
X15573935Y-10244445D02*
X15543935Y-10274445D01*
X15555480Y-9369300D02*
X15585480Y-9399300D01*
X15585480Y-9369300D02*
X15555480Y-9399300D01*
X15677758Y-10111338D02*
X15707758Y-10141338D01*
X15707758Y-10111338D02*
X15677758Y-10141338D01*
X15733280Y-9138160D02*
X15763280Y-9168160D01*
X15763280Y-9138160D02*
X15733280Y-9168160D01*
X15768840Y-8833360D02*
X15798840Y-8863360D01*
X15798840Y-8833360D02*
X15768840Y-8863360D01*
X15819640Y-9260080D02*
X15849640Y-9290080D01*
X15849640Y-9260080D02*
X15819640Y-9290080D01*
X15855200Y-8345680D02*
X15885200Y-8375680D01*
X15885200Y-8345680D02*
X15855200Y-8375680D01*
X15875520Y-8716520D02*
X15905520Y-8746520D01*
X15905520Y-8716520D02*
X15875520Y-8746520D01*
X15888220Y-9702040D02*
X15918220Y-9732040D01*
X15918220Y-9702040D02*
X15888220Y-9732040D01*
X15956800Y-8655560D02*
X15986800Y-8685560D01*
X15986800Y-8655560D02*
X15956800Y-8685560D01*
X15959340Y-9775700D02*
X15989340Y-9805700D01*
X15989340Y-9775700D02*
X15959340Y-9805700D01*
X16093960Y-9907780D02*
X16123960Y-9937780D01*
X16123960Y-9907780D02*
X16093960Y-9937780D01*
X16095000Y-9464800D02*
X16125000Y-9494800D01*
X16125000Y-9464800D02*
X16095000Y-9494800D01*
X16160000Y-8044800D02*
X16190000Y-8074800D01*
X16190000Y-8044800D02*
X16160000Y-8074800D01*
X16175240Y-9595360D02*
X16205240Y-9625360D01*
X16205240Y-9595360D02*
X16175240Y-9625360D01*
X16235000Y-8553800D02*
X16265000Y-8583800D01*
X16265000Y-8553800D02*
X16235000Y-8583800D01*
X16235000Y-8934800D02*
X16265000Y-8964800D01*
X16265000Y-8934800D02*
X16235000Y-8964800D01*
X16236200Y-9651240D02*
X16266200Y-9681240D01*
X16266200Y-9651240D02*
X16236200Y-9681240D01*
X16355000Y-8714800D02*
X16385000Y-8744800D01*
X16385000Y-8714800D02*
X16355000Y-8744800D01*
X16385000Y-9084800D02*
X16415000Y-9114800D01*
X16415000Y-9084800D02*
X16385000Y-9114800D01*
X16403840Y-9661400D02*
X16433840Y-9691400D01*
X16433840Y-9661400D02*
X16403840Y-9691400D01*
X16460463Y-9588479D02*
X16490463Y-9618479D01*
X16490463Y-9588479D02*
X16460463Y-9618479D01*
X16617200Y-9453120D02*
X16647200Y-9483120D01*
X16647200Y-9453120D02*
X16617200Y-9483120D01*
X16673080Y-9397240D02*
X16703080Y-9427240D01*
X16703080Y-9397240D02*
X16673080Y-9427240D01*
X16815000Y-9174800D02*
X16845000Y-9204800D01*
X16845000Y-9174800D02*
X16815000Y-9204800D01*
D14*
X10445080Y-7121709D02*
G75*
G03*
X10445080Y-7121709I-30000J0D01*
G01*
D12*
X10365582Y-7114638D02*
X10422151Y-7171206D01*
X10422151Y-7171206D02*
G75*
G03*
X10464577Y-7128780I21213J21213D01*
G01*
X10464577Y-7128780D02*
X10408009Y-7072211D01*
X10408009Y-7072211D02*
G75*
G03*
X10365582Y-7114638I-21213J-21213D01*
G01*
D14*
X10739943Y-7416572D02*
G75*
G03*
X10739943Y-7416572I-30000J0D01*
G01*
D12*
X10649839Y-7398895D02*
X10727621Y-7476676D01*
X10727621Y-7476676D02*
G75*
G03*
X10770047Y-7434250I21213J21213D01*
G01*
X10770047Y-7434250D02*
X10692266Y-7356468D01*
X10692266Y-7356468D02*
G75*
G03*
X10649839Y-7398895I-21213J-21213D01*
G01*
D14*
X11056020Y-6510769D02*
G75*
G03*
X11056020Y-6510769I-30000J0D01*
G01*
D12*
X10976523Y-6503697D02*
X11033091Y-6560266D01*
X11033091Y-6560266D02*
G75*
G03*
X11075518Y-6517840I21213J21213D01*
G01*
X11075518Y-6517840D02*
X11018949Y-6461271D01*
X11018949Y-6461271D02*
G75*
G03*
X10976523Y-6503697I-21213J-21213D01*
G01*
D14*
X11350883Y-6805632D02*
G75*
G03*
X11350883Y-6805632I-30000J0D01*
G01*
D12*
X11260779Y-6787954D02*
X11338561Y-6865736D01*
X11338561Y-6865736D02*
G75*
G03*
X11380988Y-6823310I21213J21213D01*
G01*
X11380988Y-6823310D02*
X11303206Y-6745528D01*
X11303206Y-6745528D02*
G75*
G03*
X11260779Y-6787954I-21213J-21213D01*
G01*
D10*
X10191185Y-10304405D02*
X10191185Y-10404405D01*
X10141185Y-10354405D02*
X10241185Y-10354405D01*
X10370790Y-10124800D02*
X10370790Y-10224800D01*
X10320790Y-10174800D02*
X10420790Y-10174800D01*
X10370790Y-10484010D02*
X10370790Y-10584010D01*
X10320790Y-10534010D02*
X10420790Y-10534010D01*
X10550395Y-10304405D02*
X10550395Y-10404405D01*
X10500395Y-10354405D02*
X10600395Y-10354405D01*
X10550395Y-10663615D02*
X10550395Y-10763615D01*
X10500395Y-10713615D02*
X10600395Y-10713615D01*
X10730000Y-10484010D02*
X10730000Y-10584010D01*
X10680000Y-10534010D02*
X10780000Y-10534010D01*
X10730000Y-10843221D02*
X10730000Y-10943221D01*
X10680000Y-10893221D02*
X10780000Y-10893221D01*
X10909605Y-10663615D02*
X10909605Y-10763615D01*
X10859605Y-10713615D02*
X10959605Y-10713615D01*
X10909605Y-11022826D02*
X10909605Y-11122826D01*
X10859605Y-11072826D02*
X10959605Y-11072826D01*
X11089210Y-10843221D02*
X11089210Y-10943221D01*
X11039210Y-10893221D02*
X11139210Y-10893221D01*
X11089210Y-11202431D02*
X11089210Y-11302431D01*
X11039210Y-11252431D02*
X11139210Y-11252431D01*
X11268815Y-11022826D02*
X11268815Y-11122826D01*
X11218815Y-11072826D02*
X11318815Y-11072826D01*
X11268815Y-11382036D02*
X11268815Y-11482036D01*
X11218815Y-11432036D02*
X11318815Y-11432036D01*
X11448420Y-11202431D02*
X11448420Y-11302431D01*
X11398420Y-11252431D02*
X11498420Y-11252431D01*
X11448420Y-11561641D02*
X11448420Y-11661641D01*
X11398420Y-11611641D02*
X11498420Y-11611641D01*
X11628026Y-11382036D02*
X11628026Y-11482036D01*
X11578026Y-11432036D02*
X11678026Y-11432036D01*
X11628026Y-11741246D02*
X11628026Y-11841246D01*
X11578026Y-11791246D02*
X11678026Y-11791246D01*
X11807631Y-11561641D02*
X11807631Y-11661641D01*
X11757631Y-11611641D02*
X11857631Y-11611641D01*
D12*
X8728123Y-13648486D02*
X8728123Y-13448486D01*
X8728123Y-13448486D02*
X8775742Y-13448486D01*
X8775742Y-13448486D02*
X8804314Y-13458010D01*
X8804314Y-13458010D02*
X8823361Y-13477057D01*
X8823361Y-13477057D02*
X8832885Y-13496105D01*
X8832885Y-13496105D02*
X8842409Y-13534200D01*
X8842409Y-13534200D02*
X8842409Y-13562771D01*
X8842409Y-13562771D02*
X8832885Y-13600867D01*
X8832885Y-13600867D02*
X8823361Y-13619914D01*
X8823361Y-13619914D02*
X8804314Y-13638962D01*
X8804314Y-13638962D02*
X8775742Y-13648486D01*
X8775742Y-13648486D02*
X8728123Y-13648486D01*
X8928123Y-13648486D02*
X8928123Y-13515152D01*
X8928123Y-13553248D02*
X8937647Y-13534200D01*
X8937647Y-13534200D02*
X8947171Y-13524676D01*
X8947171Y-13524676D02*
X8966218Y-13515152D01*
X8966218Y-13515152D02*
X8985266Y-13515152D01*
X9051933Y-13648486D02*
X9051933Y-13515152D01*
X9051933Y-13448486D02*
X9042409Y-13458010D01*
X9042409Y-13458010D02*
X9051933Y-13467533D01*
X9051933Y-13467533D02*
X9061457Y-13458010D01*
X9061457Y-13458010D02*
X9051933Y-13448486D01*
X9051933Y-13448486D02*
X9051933Y-13467533D01*
X9175742Y-13648486D02*
X9156695Y-13638962D01*
X9156695Y-13638962D02*
X9147171Y-13619914D01*
X9147171Y-13619914D02*
X9147171Y-13448486D01*
X9280504Y-13648486D02*
X9261457Y-13638962D01*
X9261457Y-13638962D02*
X9251933Y-13619914D01*
X9251933Y-13619914D02*
X9251933Y-13448486D01*
X9509076Y-13648486D02*
X9509076Y-13448486D01*
X9509076Y-13448486D02*
X9575742Y-13591343D01*
X9575742Y-13591343D02*
X9642409Y-13448486D01*
X9642409Y-13448486D02*
X9642409Y-13648486D01*
X9823361Y-13648486D02*
X9823361Y-13543724D01*
X9823361Y-13543724D02*
X9813838Y-13524676D01*
X9813838Y-13524676D02*
X9794790Y-13515152D01*
X9794790Y-13515152D02*
X9756695Y-13515152D01*
X9756695Y-13515152D02*
X9737647Y-13524676D01*
X9823361Y-13638962D02*
X9804314Y-13648486D01*
X9804314Y-13648486D02*
X9756695Y-13648486D01*
X9756695Y-13648486D02*
X9737647Y-13638962D01*
X9737647Y-13638962D02*
X9728123Y-13619914D01*
X9728123Y-13619914D02*
X9728123Y-13600867D01*
X9728123Y-13600867D02*
X9737647Y-13581819D01*
X9737647Y-13581819D02*
X9756695Y-13572295D01*
X9756695Y-13572295D02*
X9804314Y-13572295D01*
X9804314Y-13572295D02*
X9823361Y-13562771D01*
X9918599Y-13515152D02*
X9918599Y-13715152D01*
X9918599Y-13524676D02*
X9937647Y-13515152D01*
X9937647Y-13515152D02*
X9975742Y-13515152D01*
X9975742Y-13515152D02*
X9994790Y-13524676D01*
X9994790Y-13524676D02*
X10004314Y-13534200D01*
X10004314Y-13534200D02*
X10013838Y-13553248D01*
X10013838Y-13553248D02*
X10013838Y-13610390D01*
X10013838Y-13610390D02*
X10004314Y-13629438D01*
X10004314Y-13629438D02*
X9994790Y-13638962D01*
X9994790Y-13638962D02*
X9975742Y-13648486D01*
X9975742Y-13648486D02*
X9937647Y-13648486D01*
X9937647Y-13648486D02*
X9918599Y-13638962D01*
X10099552Y-13629438D02*
X10109076Y-13638962D01*
X10109076Y-13638962D02*
X10099552Y-13648486D01*
X10099552Y-13648486D02*
X10090028Y-13638962D01*
X10090028Y-13638962D02*
X10099552Y-13629438D01*
X10099552Y-13629438D02*
X10099552Y-13648486D01*
X10099552Y-13524676D02*
X10109076Y-13534200D01*
X10109076Y-13534200D02*
X10099552Y-13543724D01*
X10099552Y-13543724D02*
X10090028Y-13534200D01*
X10090028Y-13534200D02*
X10099552Y-13524676D01*
X10099552Y-13524676D02*
X10099552Y-13543724D01*
D13*
X8437346Y-13962002D02*
X8467346Y-13992002D01*
X8467346Y-13962002D02*
X8437346Y-13992002D01*
D12*
X8766218Y-13868486D02*
X8785266Y-13868486D01*
X8785266Y-13868486D02*
X8804314Y-13878010D01*
X8804314Y-13878010D02*
X8813838Y-13887533D01*
X8813838Y-13887533D02*
X8823361Y-13906581D01*
X8823361Y-13906581D02*
X8832885Y-13944676D01*
X8832885Y-13944676D02*
X8832885Y-13992295D01*
X8832885Y-13992295D02*
X8823361Y-14030390D01*
X8823361Y-14030390D02*
X8813838Y-14049438D01*
X8813838Y-14049438D02*
X8804314Y-14058962D01*
X8804314Y-14058962D02*
X8785266Y-14068486D01*
X8785266Y-14068486D02*
X8766218Y-14068486D01*
X8766218Y-14068486D02*
X8747171Y-14058962D01*
X8747171Y-14058962D02*
X8737647Y-14049438D01*
X8737647Y-14049438D02*
X8728123Y-14030390D01*
X8728123Y-14030390D02*
X8718599Y-13992295D01*
X8718599Y-13992295D02*
X8718599Y-13944676D01*
X8718599Y-13944676D02*
X8728123Y-13906581D01*
X8728123Y-13906581D02*
X8737647Y-13887533D01*
X8737647Y-13887533D02*
X8747171Y-13878010D01*
X8747171Y-13878010D02*
X8766218Y-13868486D01*
X8918599Y-14049438D02*
X8928123Y-14058962D01*
X8928123Y-14058962D02*
X8918599Y-14068486D01*
X8918599Y-14068486D02*
X8909076Y-14058962D01*
X8909076Y-14058962D02*
X8918599Y-14049438D01*
X8918599Y-14049438D02*
X8918599Y-14068486D01*
X8994790Y-13868486D02*
X9118599Y-13868486D01*
X9118599Y-13868486D02*
X9051933Y-13944676D01*
X9051933Y-13944676D02*
X9080504Y-13944676D01*
X9080504Y-13944676D02*
X9099552Y-13954200D01*
X9099552Y-13954200D02*
X9109076Y-13963724D01*
X9109076Y-13963724D02*
X9118599Y-13982771D01*
X9118599Y-13982771D02*
X9118599Y-14030390D01*
X9118599Y-14030390D02*
X9109076Y-14049438D01*
X9109076Y-14049438D02*
X9099552Y-14058962D01*
X9099552Y-14058962D02*
X9080504Y-14068486D01*
X9080504Y-14068486D02*
X9023361Y-14068486D01*
X9023361Y-14068486D02*
X9004314Y-14058962D01*
X9004314Y-14058962D02*
X8994790Y-14049438D01*
X9242409Y-13868486D02*
X9261457Y-13868486D01*
X9261457Y-13868486D02*
X9280504Y-13878010D01*
X9280504Y-13878010D02*
X9290028Y-13887533D01*
X9290028Y-13887533D02*
X9299552Y-13906581D01*
X9299552Y-13906581D02*
X9309076Y-13944676D01*
X9309076Y-13944676D02*
X9309076Y-13992295D01*
X9309076Y-13992295D02*
X9299552Y-14030390D01*
X9299552Y-14030390D02*
X9290028Y-14049438D01*
X9290028Y-14049438D02*
X9280504Y-14058962D01*
X9280504Y-14058962D02*
X9261457Y-14068486D01*
X9261457Y-14068486D02*
X9242409Y-14068486D01*
X9242409Y-14068486D02*
X9223361Y-14058962D01*
X9223361Y-14058962D02*
X9213838Y-14049438D01*
X9213838Y-14049438D02*
X9204314Y-14030390D01*
X9204314Y-14030390D02*
X9194790Y-13992295D01*
X9194790Y-13992295D02*
X9194790Y-13944676D01*
X9194790Y-13944676D02*
X9204314Y-13906581D01*
X9204314Y-13906581D02*
X9213838Y-13887533D01*
X9213838Y-13887533D02*
X9223361Y-13878010D01*
X9223361Y-13878010D02*
X9242409Y-13868486D01*
X9432885Y-13868486D02*
X9451933Y-13868486D01*
X9451933Y-13868486D02*
X9470980Y-13878010D01*
X9470980Y-13878010D02*
X9480504Y-13887533D01*
X9480504Y-13887533D02*
X9490028Y-13906581D01*
X9490028Y-13906581D02*
X9499552Y-13944676D01*
X9499552Y-13944676D02*
X9499552Y-13992295D01*
X9499552Y-13992295D02*
X9490028Y-14030390D01*
X9490028Y-14030390D02*
X9480504Y-14049438D01*
X9480504Y-14049438D02*
X9470980Y-14058962D01*
X9470980Y-14058962D02*
X9451933Y-14068486D01*
X9451933Y-14068486D02*
X9432885Y-14068486D01*
X9432885Y-14068486D02*
X9413838Y-14058962D01*
X9413838Y-14058962D02*
X9404314Y-14049438D01*
X9404314Y-14049438D02*
X9394790Y-14030390D01*
X9394790Y-14030390D02*
X9385266Y-13992295D01*
X9385266Y-13992295D02*
X9385266Y-13944676D01*
X9385266Y-13944676D02*
X9394790Y-13906581D01*
X9394790Y-13906581D02*
X9404314Y-13887533D01*
X9404314Y-13887533D02*
X9413838Y-13878010D01*
X9413838Y-13878010D02*
X9432885Y-13868486D01*
X9585266Y-14068486D02*
X9585266Y-13935152D01*
X9585266Y-13954200D02*
X9594790Y-13944676D01*
X9594790Y-13944676D02*
X9613838Y-13935152D01*
X9613838Y-13935152D02*
X9642409Y-13935152D01*
X9642409Y-13935152D02*
X9661457Y-13944676D01*
X9661457Y-13944676D02*
X9670980Y-13963724D01*
X9670980Y-13963724D02*
X9670980Y-14068486D01*
X9670980Y-13963724D02*
X9680504Y-13944676D01*
X9680504Y-13944676D02*
X9699552Y-13935152D01*
X9699552Y-13935152D02*
X9728123Y-13935152D01*
X9728123Y-13935152D02*
X9747171Y-13944676D01*
X9747171Y-13944676D02*
X9756695Y-13963724D01*
X9756695Y-13963724D02*
X9756695Y-14068486D01*
X9851933Y-14068486D02*
X9851933Y-13935152D01*
X9851933Y-13954200D02*
X9861457Y-13944676D01*
X9861457Y-13944676D02*
X9880504Y-13935152D01*
X9880504Y-13935152D02*
X9909076Y-13935152D01*
X9909076Y-13935152D02*
X9928123Y-13944676D01*
X9928123Y-13944676D02*
X9937647Y-13963724D01*
X9937647Y-13963724D02*
X9937647Y-14068486D01*
X9937647Y-13963724D02*
X9947171Y-13944676D01*
X9947171Y-13944676D02*
X9966219Y-13935152D01*
X9966219Y-13935152D02*
X9994790Y-13935152D01*
X9994790Y-13935152D02*
X10013838Y-13944676D01*
X10013838Y-13944676D02*
X10023361Y-13963724D01*
X10023361Y-13963724D02*
X10023361Y-14068486D01*
X10413838Y-13858962D02*
X10242409Y-14116105D01*
X10670981Y-13868486D02*
X10690028Y-13868486D01*
X10690028Y-13868486D02*
X10709076Y-13878010D01*
X10709076Y-13878010D02*
X10718600Y-13887533D01*
X10718600Y-13887533D02*
X10728123Y-13906581D01*
X10728123Y-13906581D02*
X10737647Y-13944676D01*
X10737647Y-13944676D02*
X10737647Y-13992295D01*
X10737647Y-13992295D02*
X10728123Y-14030390D01*
X10728123Y-14030390D02*
X10718600Y-14049438D01*
X10718600Y-14049438D02*
X10709076Y-14058962D01*
X10709076Y-14058962D02*
X10690028Y-14068486D01*
X10690028Y-14068486D02*
X10670981Y-14068486D01*
X10670981Y-14068486D02*
X10651933Y-14058962D01*
X10651933Y-14058962D02*
X10642409Y-14049438D01*
X10642409Y-14049438D02*
X10632885Y-14030390D01*
X10632885Y-14030390D02*
X10623362Y-13992295D01*
X10623362Y-13992295D02*
X10623362Y-13944676D01*
X10623362Y-13944676D02*
X10632885Y-13906581D01*
X10632885Y-13906581D02*
X10642409Y-13887533D01*
X10642409Y-13887533D02*
X10651933Y-13878010D01*
X10651933Y-13878010D02*
X10670981Y-13868486D01*
X10823362Y-14049438D02*
X10832885Y-14058962D01*
X10832885Y-14058962D02*
X10823362Y-14068486D01*
X10823362Y-14068486D02*
X10813838Y-14058962D01*
X10813838Y-14058962D02*
X10823362Y-14049438D01*
X10823362Y-14049438D02*
X10823362Y-14068486D01*
X10956695Y-13868486D02*
X10975743Y-13868486D01*
X10975743Y-13868486D02*
X10994790Y-13878010D01*
X10994790Y-13878010D02*
X11004314Y-13887533D01*
X11004314Y-13887533D02*
X11013838Y-13906581D01*
X11013838Y-13906581D02*
X11023362Y-13944676D01*
X11023362Y-13944676D02*
X11023362Y-13992295D01*
X11023362Y-13992295D02*
X11013838Y-14030390D01*
X11013838Y-14030390D02*
X11004314Y-14049438D01*
X11004314Y-14049438D02*
X10994790Y-14058962D01*
X10994790Y-14058962D02*
X10975743Y-14068486D01*
X10975743Y-14068486D02*
X10956695Y-14068486D01*
X10956695Y-14068486D02*
X10937647Y-14058962D01*
X10937647Y-14058962D02*
X10928123Y-14049438D01*
X10928123Y-14049438D02*
X10918600Y-14030390D01*
X10918600Y-14030390D02*
X10909076Y-13992295D01*
X10909076Y-13992295D02*
X10909076Y-13944676D01*
X10909076Y-13944676D02*
X10918600Y-13906581D01*
X10918600Y-13906581D02*
X10928123Y-13887533D01*
X10928123Y-13887533D02*
X10937647Y-13878010D01*
X10937647Y-13878010D02*
X10956695Y-13868486D01*
X11213838Y-14068486D02*
X11099552Y-14068486D01*
X11156695Y-14068486D02*
X11156695Y-13868486D01*
X11156695Y-13868486D02*
X11137647Y-13897057D01*
X11137647Y-13897057D02*
X11118600Y-13916105D01*
X11118600Y-13916105D02*
X11099552Y-13925629D01*
X11404314Y-14068486D02*
X11290028Y-14068486D01*
X11347171Y-14068486D02*
X11347171Y-13868486D01*
X11347171Y-13868486D02*
X11328123Y-13897057D01*
X11328123Y-13897057D02*
X11309076Y-13916105D01*
X11309076Y-13916105D02*
X11290028Y-13925629D01*
X11518600Y-13954200D02*
X11499552Y-13944676D01*
X11499552Y-13944676D02*
X11490028Y-13935152D01*
X11490028Y-13935152D02*
X11480504Y-13916105D01*
X11480504Y-13916105D02*
X11480504Y-13906581D01*
X11480504Y-13906581D02*
X11490028Y-13887533D01*
X11490028Y-13887533D02*
X11499552Y-13878010D01*
X11499552Y-13878010D02*
X11518600Y-13868486D01*
X11518600Y-13868486D02*
X11556695Y-13868486D01*
X11556695Y-13868486D02*
X11575742Y-13878010D01*
X11575742Y-13878010D02*
X11585266Y-13887533D01*
X11585266Y-13887533D02*
X11594790Y-13906581D01*
X11594790Y-13906581D02*
X11594790Y-13916105D01*
X11594790Y-13916105D02*
X11585266Y-13935152D01*
X11585266Y-13935152D02*
X11575742Y-13944676D01*
X11575742Y-13944676D02*
X11556695Y-13954200D01*
X11556695Y-13954200D02*
X11518600Y-13954200D01*
X11518600Y-13954200D02*
X11499552Y-13963724D01*
X11499552Y-13963724D02*
X11490028Y-13973248D01*
X11490028Y-13973248D02*
X11480504Y-13992295D01*
X11480504Y-13992295D02*
X11480504Y-14030390D01*
X11480504Y-14030390D02*
X11490028Y-14049438D01*
X11490028Y-14049438D02*
X11499552Y-14058962D01*
X11499552Y-14058962D02*
X11518600Y-14068486D01*
X11518600Y-14068486D02*
X11556695Y-14068486D01*
X11556695Y-14068486D02*
X11575742Y-14058962D01*
X11575742Y-14058962D02*
X11585266Y-14049438D01*
X11585266Y-14049438D02*
X11594790Y-14030390D01*
X11594790Y-14030390D02*
X11594790Y-13992295D01*
X11594790Y-13992295D02*
X11585266Y-13973248D01*
X11585266Y-13973248D02*
X11575742Y-13963724D01*
X11575742Y-13963724D02*
X11556695Y-13954200D01*
X11670981Y-13868486D02*
X11670981Y-13906581D01*
X11747171Y-13868486D02*
X11747171Y-13906581D01*
X12042409Y-14144676D02*
X12032885Y-14135152D01*
X12032885Y-14135152D02*
X12013838Y-14106581D01*
X12013838Y-14106581D02*
X12004314Y-14087533D01*
X12004314Y-14087533D02*
X11994790Y-14058962D01*
X11994790Y-14058962D02*
X11985266Y-14011343D01*
X11985266Y-14011343D02*
X11985266Y-13973248D01*
X11985266Y-13973248D02*
X11994790Y-13925629D01*
X11994790Y-13925629D02*
X12004314Y-13897057D01*
X12004314Y-13897057D02*
X12013838Y-13878010D01*
X12013838Y-13878010D02*
X12032885Y-13849438D01*
X12032885Y-13849438D02*
X12042409Y-13839914D01*
X12109076Y-13887533D02*
X12118600Y-13878010D01*
X12118600Y-13878010D02*
X12137647Y-13868486D01*
X12137647Y-13868486D02*
X12185266Y-13868486D01*
X12185266Y-13868486D02*
X12204314Y-13878010D01*
X12204314Y-13878010D02*
X12213838Y-13887533D01*
X12213838Y-13887533D02*
X12223362Y-13906581D01*
X12223362Y-13906581D02*
X12223362Y-13925629D01*
X12223362Y-13925629D02*
X12213838Y-13954200D01*
X12213838Y-13954200D02*
X12099552Y-14068486D01*
X12099552Y-14068486D02*
X12223362Y-14068486D01*
X12318600Y-14068486D02*
X12356695Y-14068486D01*
X12356695Y-14068486D02*
X12375743Y-14058962D01*
X12375743Y-14058962D02*
X12385266Y-14049438D01*
X12385266Y-14049438D02*
X12404314Y-14020867D01*
X12404314Y-14020867D02*
X12413838Y-13982771D01*
X12413838Y-13982771D02*
X12413838Y-13906581D01*
X12413838Y-13906581D02*
X12404314Y-13887533D01*
X12404314Y-13887533D02*
X12394790Y-13878010D01*
X12394790Y-13878010D02*
X12375743Y-13868486D01*
X12375743Y-13868486D02*
X12337647Y-13868486D01*
X12337647Y-13868486D02*
X12318600Y-13878010D01*
X12318600Y-13878010D02*
X12309076Y-13887533D01*
X12309076Y-13887533D02*
X12299552Y-13906581D01*
X12299552Y-13906581D02*
X12299552Y-13954200D01*
X12299552Y-13954200D02*
X12309076Y-13973248D01*
X12309076Y-13973248D02*
X12318600Y-13982771D01*
X12318600Y-13982771D02*
X12337647Y-13992295D01*
X12337647Y-13992295D02*
X12375743Y-13992295D01*
X12375743Y-13992295D02*
X12394790Y-13982771D01*
X12394790Y-13982771D02*
X12404314Y-13973248D01*
X12404314Y-13973248D02*
X12413838Y-13954200D01*
X12604314Y-14068486D02*
X12490028Y-14068486D01*
X12547171Y-14068486D02*
X12547171Y-13868486D01*
X12547171Y-13868486D02*
X12528123Y-13897057D01*
X12528123Y-13897057D02*
X12509076Y-13916105D01*
X12509076Y-13916105D02*
X12490028Y-13925629D01*
X12842409Y-14068486D02*
X12842409Y-13868486D01*
X12928124Y-14068486D02*
X12928124Y-13963724D01*
X12928124Y-13963724D02*
X12918600Y-13944676D01*
X12918600Y-13944676D02*
X12899552Y-13935152D01*
X12899552Y-13935152D02*
X12870981Y-13935152D01*
X12870981Y-13935152D02*
X12851933Y-13944676D01*
X12851933Y-13944676D02*
X12842409Y-13954200D01*
X13051933Y-14068486D02*
X13032885Y-14058962D01*
X13032885Y-14058962D02*
X13023362Y-14049438D01*
X13023362Y-14049438D02*
X13013838Y-14030390D01*
X13013838Y-14030390D02*
X13013838Y-13973248D01*
X13013838Y-13973248D02*
X13023362Y-13954200D01*
X13023362Y-13954200D02*
X13032885Y-13944676D01*
X13032885Y-13944676D02*
X13051933Y-13935152D01*
X13051933Y-13935152D02*
X13080505Y-13935152D01*
X13080505Y-13935152D02*
X13099552Y-13944676D01*
X13099552Y-13944676D02*
X13109076Y-13954200D01*
X13109076Y-13954200D02*
X13118600Y-13973248D01*
X13118600Y-13973248D02*
X13118600Y-14030390D01*
X13118600Y-14030390D02*
X13109076Y-14049438D01*
X13109076Y-14049438D02*
X13099552Y-14058962D01*
X13099552Y-14058962D02*
X13080505Y-14068486D01*
X13080505Y-14068486D02*
X13051933Y-14068486D01*
X13232885Y-14068486D02*
X13213838Y-14058962D01*
X13213838Y-14058962D02*
X13204314Y-14039914D01*
X13204314Y-14039914D02*
X13204314Y-13868486D01*
X13385266Y-14058962D02*
X13366219Y-14068486D01*
X13366219Y-14068486D02*
X13328124Y-14068486D01*
X13328124Y-14068486D02*
X13309076Y-14058962D01*
X13309076Y-14058962D02*
X13299552Y-14039914D01*
X13299552Y-14039914D02*
X13299552Y-13963724D01*
X13299552Y-13963724D02*
X13309076Y-13944676D01*
X13309076Y-13944676D02*
X13328124Y-13935152D01*
X13328124Y-13935152D02*
X13366219Y-13935152D01*
X13366219Y-13935152D02*
X13385266Y-13944676D01*
X13385266Y-13944676D02*
X13394790Y-13963724D01*
X13394790Y-13963724D02*
X13394790Y-13982771D01*
X13394790Y-13982771D02*
X13299552Y-14001819D01*
X13470981Y-14058962D02*
X13490028Y-14068486D01*
X13490028Y-14068486D02*
X13528124Y-14068486D01*
X13528124Y-14068486D02*
X13547171Y-14058962D01*
X13547171Y-14058962D02*
X13556695Y-14039914D01*
X13556695Y-14039914D02*
X13556695Y-14030390D01*
X13556695Y-14030390D02*
X13547171Y-14011343D01*
X13547171Y-14011343D02*
X13528124Y-14001819D01*
X13528124Y-14001819D02*
X13499552Y-14001819D01*
X13499552Y-14001819D02*
X13480505Y-13992295D01*
X13480505Y-13992295D02*
X13470981Y-13973248D01*
X13470981Y-13973248D02*
X13470981Y-13963724D01*
X13470981Y-13963724D02*
X13480505Y-13944676D01*
X13480505Y-13944676D02*
X13499552Y-13935152D01*
X13499552Y-13935152D02*
X13528124Y-13935152D01*
X13528124Y-13935152D02*
X13547171Y-13944676D01*
X13623362Y-14144676D02*
X13632886Y-14135152D01*
X13632886Y-14135152D02*
X13651933Y-14106581D01*
X13651933Y-14106581D02*
X13661457Y-14087533D01*
X13661457Y-14087533D02*
X13670981Y-14058962D01*
X13670981Y-14058962D02*
X13680505Y-14011343D01*
X13680505Y-14011343D02*
X13680505Y-13973248D01*
X13680505Y-13973248D02*
X13670981Y-13925629D01*
X13670981Y-13925629D02*
X13661457Y-13897057D01*
X13661457Y-13897057D02*
X13651933Y-13878010D01*
X13651933Y-13878010D02*
X13632886Y-13849438D01*
X13632886Y-13849438D02*
X13623362Y-13839914D01*
D14*
X8467346Y-14241002D02*
G75*
G03*
X8467346Y-14241002I-30000J0D01*
G01*
D12*
X8766218Y-14132486D02*
X8785266Y-14132486D01*
X8785266Y-14132486D02*
X8804314Y-14142010D01*
X8804314Y-14142010D02*
X8813838Y-14151533D01*
X8813838Y-14151533D02*
X8823361Y-14170581D01*
X8823361Y-14170581D02*
X8832885Y-14208676D01*
X8832885Y-14208676D02*
X8832885Y-14256295D01*
X8832885Y-14256295D02*
X8823361Y-14294390D01*
X8823361Y-14294390D02*
X8813838Y-14313438D01*
X8813838Y-14313438D02*
X8804314Y-14322962D01*
X8804314Y-14322962D02*
X8785266Y-14332486D01*
X8785266Y-14332486D02*
X8766218Y-14332486D01*
X8766218Y-14332486D02*
X8747171Y-14322962D01*
X8747171Y-14322962D02*
X8737647Y-14313438D01*
X8737647Y-14313438D02*
X8728123Y-14294390D01*
X8728123Y-14294390D02*
X8718599Y-14256295D01*
X8718599Y-14256295D02*
X8718599Y-14208676D01*
X8718599Y-14208676D02*
X8728123Y-14170581D01*
X8728123Y-14170581D02*
X8737647Y-14151533D01*
X8737647Y-14151533D02*
X8747171Y-14142010D01*
X8747171Y-14142010D02*
X8766218Y-14132486D01*
X8918599Y-14313438D02*
X8928123Y-14322962D01*
X8928123Y-14322962D02*
X8918599Y-14332486D01*
X8918599Y-14332486D02*
X8909076Y-14322962D01*
X8909076Y-14322962D02*
X8918599Y-14313438D01*
X8918599Y-14313438D02*
X8918599Y-14332486D01*
X9099552Y-14132486D02*
X9061457Y-14132486D01*
X9061457Y-14132486D02*
X9042409Y-14142010D01*
X9042409Y-14142010D02*
X9032885Y-14151533D01*
X9032885Y-14151533D02*
X9013838Y-14180105D01*
X9013838Y-14180105D02*
X9004314Y-14218200D01*
X9004314Y-14218200D02*
X9004314Y-14294390D01*
X9004314Y-14294390D02*
X9013838Y-14313438D01*
X9013838Y-14313438D02*
X9023361Y-14322962D01*
X9023361Y-14322962D02*
X9042409Y-14332486D01*
X9042409Y-14332486D02*
X9080504Y-14332486D01*
X9080504Y-14332486D02*
X9099552Y-14322962D01*
X9099552Y-14322962D02*
X9109076Y-14313438D01*
X9109076Y-14313438D02*
X9118599Y-14294390D01*
X9118599Y-14294390D02*
X9118599Y-14246771D01*
X9118599Y-14246771D02*
X9109076Y-14227724D01*
X9109076Y-14227724D02*
X9099552Y-14218200D01*
X9099552Y-14218200D02*
X9080504Y-14208676D01*
X9080504Y-14208676D02*
X9042409Y-14208676D01*
X9042409Y-14208676D02*
X9023361Y-14218200D01*
X9023361Y-14218200D02*
X9013838Y-14227724D01*
X9013838Y-14227724D02*
X9004314Y-14246771D01*
X9242409Y-14132486D02*
X9261457Y-14132486D01*
X9261457Y-14132486D02*
X9280504Y-14142010D01*
X9280504Y-14142010D02*
X9290028Y-14151533D01*
X9290028Y-14151533D02*
X9299552Y-14170581D01*
X9299552Y-14170581D02*
X9309076Y-14208676D01*
X9309076Y-14208676D02*
X9309076Y-14256295D01*
X9309076Y-14256295D02*
X9299552Y-14294390D01*
X9299552Y-14294390D02*
X9290028Y-14313438D01*
X9290028Y-14313438D02*
X9280504Y-14322962D01*
X9280504Y-14322962D02*
X9261457Y-14332486D01*
X9261457Y-14332486D02*
X9242409Y-14332486D01*
X9242409Y-14332486D02*
X9223361Y-14322962D01*
X9223361Y-14322962D02*
X9213838Y-14313438D01*
X9213838Y-14313438D02*
X9204314Y-14294390D01*
X9204314Y-14294390D02*
X9194790Y-14256295D01*
X9194790Y-14256295D02*
X9194790Y-14208676D01*
X9194790Y-14208676D02*
X9204314Y-14170581D01*
X9204314Y-14170581D02*
X9213838Y-14151533D01*
X9213838Y-14151533D02*
X9223361Y-14142010D01*
X9223361Y-14142010D02*
X9242409Y-14132486D01*
X9432885Y-14132486D02*
X9451933Y-14132486D01*
X9451933Y-14132486D02*
X9470980Y-14142010D01*
X9470980Y-14142010D02*
X9480504Y-14151533D01*
X9480504Y-14151533D02*
X9490028Y-14170581D01*
X9490028Y-14170581D02*
X9499552Y-14208676D01*
X9499552Y-14208676D02*
X9499552Y-14256295D01*
X9499552Y-14256295D02*
X9490028Y-14294390D01*
X9490028Y-14294390D02*
X9480504Y-14313438D01*
X9480504Y-14313438D02*
X9470980Y-14322962D01*
X9470980Y-14322962D02*
X9451933Y-14332486D01*
X9451933Y-14332486D02*
X9432885Y-14332486D01*
X9432885Y-14332486D02*
X9413838Y-14322962D01*
X9413838Y-14322962D02*
X9404314Y-14313438D01*
X9404314Y-14313438D02*
X9394790Y-14294390D01*
X9394790Y-14294390D02*
X9385266Y-14256295D01*
X9385266Y-14256295D02*
X9385266Y-14208676D01*
X9385266Y-14208676D02*
X9394790Y-14170581D01*
X9394790Y-14170581D02*
X9404314Y-14151533D01*
X9404314Y-14151533D02*
X9413838Y-14142010D01*
X9413838Y-14142010D02*
X9432885Y-14132486D01*
X9585266Y-14332486D02*
X9585266Y-14199152D01*
X9585266Y-14218200D02*
X9594790Y-14208676D01*
X9594790Y-14208676D02*
X9613838Y-14199152D01*
X9613838Y-14199152D02*
X9642409Y-14199152D01*
X9642409Y-14199152D02*
X9661457Y-14208676D01*
X9661457Y-14208676D02*
X9670980Y-14227724D01*
X9670980Y-14227724D02*
X9670980Y-14332486D01*
X9670980Y-14227724D02*
X9680504Y-14208676D01*
X9680504Y-14208676D02*
X9699552Y-14199152D01*
X9699552Y-14199152D02*
X9728123Y-14199152D01*
X9728123Y-14199152D02*
X9747171Y-14208676D01*
X9747171Y-14208676D02*
X9756695Y-14227724D01*
X9756695Y-14227724D02*
X9756695Y-14332486D01*
X9851933Y-14332486D02*
X9851933Y-14199152D01*
X9851933Y-14218200D02*
X9861457Y-14208676D01*
X9861457Y-14208676D02*
X9880504Y-14199152D01*
X9880504Y-14199152D02*
X9909076Y-14199152D01*
X9909076Y-14199152D02*
X9928123Y-14208676D01*
X9928123Y-14208676D02*
X9937647Y-14227724D01*
X9937647Y-14227724D02*
X9937647Y-14332486D01*
X9937647Y-14227724D02*
X9947171Y-14208676D01*
X9947171Y-14208676D02*
X9966219Y-14199152D01*
X9966219Y-14199152D02*
X9994790Y-14199152D01*
X9994790Y-14199152D02*
X10013838Y-14208676D01*
X10013838Y-14208676D02*
X10023361Y-14227724D01*
X10023361Y-14227724D02*
X10023361Y-14332486D01*
X10413838Y-14122962D02*
X10242409Y-14380105D01*
X10670981Y-14132486D02*
X10690028Y-14132486D01*
X10690028Y-14132486D02*
X10709076Y-14142010D01*
X10709076Y-14142010D02*
X10718600Y-14151533D01*
X10718600Y-14151533D02*
X10728123Y-14170581D01*
X10728123Y-14170581D02*
X10737647Y-14208676D01*
X10737647Y-14208676D02*
X10737647Y-14256295D01*
X10737647Y-14256295D02*
X10728123Y-14294390D01*
X10728123Y-14294390D02*
X10718600Y-14313438D01*
X10718600Y-14313438D02*
X10709076Y-14322962D01*
X10709076Y-14322962D02*
X10690028Y-14332486D01*
X10690028Y-14332486D02*
X10670981Y-14332486D01*
X10670981Y-14332486D02*
X10651933Y-14322962D01*
X10651933Y-14322962D02*
X10642409Y-14313438D01*
X10642409Y-14313438D02*
X10632885Y-14294390D01*
X10632885Y-14294390D02*
X10623362Y-14256295D01*
X10623362Y-14256295D02*
X10623362Y-14208676D01*
X10623362Y-14208676D02*
X10632885Y-14170581D01*
X10632885Y-14170581D02*
X10642409Y-14151533D01*
X10642409Y-14151533D02*
X10651933Y-14142010D01*
X10651933Y-14142010D02*
X10670981Y-14132486D01*
X10823362Y-14313438D02*
X10832885Y-14322962D01*
X10832885Y-14322962D02*
X10823362Y-14332486D01*
X10823362Y-14332486D02*
X10813838Y-14322962D01*
X10813838Y-14322962D02*
X10823362Y-14313438D01*
X10823362Y-14313438D02*
X10823362Y-14332486D01*
X10956695Y-14132486D02*
X10975743Y-14132486D01*
X10975743Y-14132486D02*
X10994790Y-14142010D01*
X10994790Y-14142010D02*
X11004314Y-14151533D01*
X11004314Y-14151533D02*
X11013838Y-14170581D01*
X11013838Y-14170581D02*
X11023362Y-14208676D01*
X11023362Y-14208676D02*
X11023362Y-14256295D01*
X11023362Y-14256295D02*
X11013838Y-14294390D01*
X11013838Y-14294390D02*
X11004314Y-14313438D01*
X11004314Y-14313438D02*
X10994790Y-14322962D01*
X10994790Y-14322962D02*
X10975743Y-14332486D01*
X10975743Y-14332486D02*
X10956695Y-14332486D01*
X10956695Y-14332486D02*
X10937647Y-14322962D01*
X10937647Y-14322962D02*
X10928123Y-14313438D01*
X10928123Y-14313438D02*
X10918600Y-14294390D01*
X10918600Y-14294390D02*
X10909076Y-14256295D01*
X10909076Y-14256295D02*
X10909076Y-14208676D01*
X10909076Y-14208676D02*
X10918600Y-14170581D01*
X10918600Y-14170581D02*
X10928123Y-14151533D01*
X10928123Y-14151533D02*
X10937647Y-14142010D01*
X10937647Y-14142010D02*
X10956695Y-14132486D01*
X11099552Y-14151533D02*
X11109076Y-14142010D01*
X11109076Y-14142010D02*
X11128123Y-14132486D01*
X11128123Y-14132486D02*
X11175743Y-14132486D01*
X11175743Y-14132486D02*
X11194790Y-14142010D01*
X11194790Y-14142010D02*
X11204314Y-14151533D01*
X11204314Y-14151533D02*
X11213838Y-14170581D01*
X11213838Y-14170581D02*
X11213838Y-14189629D01*
X11213838Y-14189629D02*
X11204314Y-14218200D01*
X11204314Y-14218200D02*
X11090028Y-14332486D01*
X11090028Y-14332486D02*
X11213838Y-14332486D01*
X11280504Y-14132486D02*
X11404314Y-14132486D01*
X11404314Y-14132486D02*
X11337647Y-14208676D01*
X11337647Y-14208676D02*
X11366219Y-14208676D01*
X11366219Y-14208676D02*
X11385266Y-14218200D01*
X11385266Y-14218200D02*
X11394790Y-14227724D01*
X11394790Y-14227724D02*
X11404314Y-14246771D01*
X11404314Y-14246771D02*
X11404314Y-14294390D01*
X11404314Y-14294390D02*
X11394790Y-14313438D01*
X11394790Y-14313438D02*
X11385266Y-14322962D01*
X11385266Y-14322962D02*
X11366219Y-14332486D01*
X11366219Y-14332486D02*
X11309076Y-14332486D01*
X11309076Y-14332486D02*
X11290028Y-14322962D01*
X11290028Y-14322962D02*
X11280504Y-14313438D01*
X11575742Y-14132486D02*
X11537647Y-14132486D01*
X11537647Y-14132486D02*
X11518600Y-14142010D01*
X11518600Y-14142010D02*
X11509076Y-14151533D01*
X11509076Y-14151533D02*
X11490028Y-14180105D01*
X11490028Y-14180105D02*
X11480504Y-14218200D01*
X11480504Y-14218200D02*
X11480504Y-14294390D01*
X11480504Y-14294390D02*
X11490028Y-14313438D01*
X11490028Y-14313438D02*
X11499552Y-14322962D01*
X11499552Y-14322962D02*
X11518600Y-14332486D01*
X11518600Y-14332486D02*
X11556695Y-14332486D01*
X11556695Y-14332486D02*
X11575742Y-14322962D01*
X11575742Y-14322962D02*
X11585266Y-14313438D01*
X11585266Y-14313438D02*
X11594790Y-14294390D01*
X11594790Y-14294390D02*
X11594790Y-14246771D01*
X11594790Y-14246771D02*
X11585266Y-14227724D01*
X11585266Y-14227724D02*
X11575742Y-14218200D01*
X11575742Y-14218200D02*
X11556695Y-14208676D01*
X11556695Y-14208676D02*
X11518600Y-14208676D01*
X11518600Y-14208676D02*
X11499552Y-14218200D01*
X11499552Y-14218200D02*
X11490028Y-14227724D01*
X11490028Y-14227724D02*
X11480504Y-14246771D01*
X11670981Y-14132486D02*
X11670981Y-14170581D01*
X11747171Y-14132486D02*
X11747171Y-14170581D01*
X12042409Y-14408676D02*
X12032885Y-14399152D01*
X12032885Y-14399152D02*
X12013838Y-14370581D01*
X12013838Y-14370581D02*
X12004314Y-14351533D01*
X12004314Y-14351533D02*
X11994790Y-14322962D01*
X11994790Y-14322962D02*
X11985266Y-14275343D01*
X11985266Y-14275343D02*
X11985266Y-14237248D01*
X11985266Y-14237248D02*
X11994790Y-14189629D01*
X11994790Y-14189629D02*
X12004314Y-14161057D01*
X12004314Y-14161057D02*
X12013838Y-14142010D01*
X12013838Y-14142010D02*
X12032885Y-14113438D01*
X12032885Y-14113438D02*
X12042409Y-14103914D01*
X12156695Y-14132486D02*
X12175743Y-14132486D01*
X12175743Y-14132486D02*
X12194790Y-14142010D01*
X12194790Y-14142010D02*
X12204314Y-14151533D01*
X12204314Y-14151533D02*
X12213838Y-14170581D01*
X12213838Y-14170581D02*
X12223362Y-14208676D01*
X12223362Y-14208676D02*
X12223362Y-14256295D01*
X12223362Y-14256295D02*
X12213838Y-14294390D01*
X12213838Y-14294390D02*
X12204314Y-14313438D01*
X12204314Y-14313438D02*
X12194790Y-14322962D01*
X12194790Y-14322962D02*
X12175743Y-14332486D01*
X12175743Y-14332486D02*
X12156695Y-14332486D01*
X12156695Y-14332486D02*
X12137647Y-14322962D01*
X12137647Y-14322962D02*
X12128123Y-14313438D01*
X12128123Y-14313438D02*
X12118600Y-14294390D01*
X12118600Y-14294390D02*
X12109076Y-14256295D01*
X12109076Y-14256295D02*
X12109076Y-14208676D01*
X12109076Y-14208676D02*
X12118600Y-14170581D01*
X12118600Y-14170581D02*
X12128123Y-14151533D01*
X12128123Y-14151533D02*
X12137647Y-14142010D01*
X12137647Y-14142010D02*
X12156695Y-14132486D01*
X12461457Y-14332486D02*
X12461457Y-14132486D01*
X12547171Y-14332486D02*
X12547171Y-14227724D01*
X12547171Y-14227724D02*
X12537647Y-14208676D01*
X12537647Y-14208676D02*
X12518600Y-14199152D01*
X12518600Y-14199152D02*
X12490028Y-14199152D01*
X12490028Y-14199152D02*
X12470981Y-14208676D01*
X12470981Y-14208676D02*
X12461457Y-14218200D01*
X12670981Y-14332486D02*
X12651933Y-14322962D01*
X12651933Y-14322962D02*
X12642409Y-14313438D01*
X12642409Y-14313438D02*
X12632885Y-14294390D01*
X12632885Y-14294390D02*
X12632885Y-14237248D01*
X12632885Y-14237248D02*
X12642409Y-14218200D01*
X12642409Y-14218200D02*
X12651933Y-14208676D01*
X12651933Y-14208676D02*
X12670981Y-14199152D01*
X12670981Y-14199152D02*
X12699552Y-14199152D01*
X12699552Y-14199152D02*
X12718600Y-14208676D01*
X12718600Y-14208676D02*
X12728124Y-14218200D01*
X12728124Y-14218200D02*
X12737647Y-14237248D01*
X12737647Y-14237248D02*
X12737647Y-14294390D01*
X12737647Y-14294390D02*
X12728124Y-14313438D01*
X12728124Y-14313438D02*
X12718600Y-14322962D01*
X12718600Y-14322962D02*
X12699552Y-14332486D01*
X12699552Y-14332486D02*
X12670981Y-14332486D01*
X12851933Y-14332486D02*
X12832885Y-14322962D01*
X12832885Y-14322962D02*
X12823362Y-14303914D01*
X12823362Y-14303914D02*
X12823362Y-14132486D01*
X13004314Y-14322962D02*
X12985266Y-14332486D01*
X12985266Y-14332486D02*
X12947171Y-14332486D01*
X12947171Y-14332486D02*
X12928124Y-14322962D01*
X12928124Y-14322962D02*
X12918600Y-14303914D01*
X12918600Y-14303914D02*
X12918600Y-14227724D01*
X12918600Y-14227724D02*
X12928124Y-14208676D01*
X12928124Y-14208676D02*
X12947171Y-14199152D01*
X12947171Y-14199152D02*
X12985266Y-14199152D01*
X12985266Y-14199152D02*
X13004314Y-14208676D01*
X13004314Y-14208676D02*
X13013838Y-14227724D01*
X13013838Y-14227724D02*
X13013838Y-14246771D01*
X13013838Y-14246771D02*
X12918600Y-14265819D01*
X13090028Y-14322962D02*
X13109076Y-14332486D01*
X13109076Y-14332486D02*
X13147171Y-14332486D01*
X13147171Y-14332486D02*
X13166219Y-14322962D01*
X13166219Y-14322962D02*
X13175743Y-14303914D01*
X13175743Y-14303914D02*
X13175743Y-14294390D01*
X13175743Y-14294390D02*
X13166219Y-14275343D01*
X13166219Y-14275343D02*
X13147171Y-14265819D01*
X13147171Y-14265819D02*
X13118600Y-14265819D01*
X13118600Y-14265819D02*
X13099552Y-14256295D01*
X13099552Y-14256295D02*
X13090028Y-14237248D01*
X13090028Y-14237248D02*
X13090028Y-14227724D01*
X13090028Y-14227724D02*
X13099552Y-14208676D01*
X13099552Y-14208676D02*
X13118600Y-14199152D01*
X13118600Y-14199152D02*
X13147171Y-14199152D01*
X13147171Y-14199152D02*
X13166219Y-14208676D01*
X13413838Y-14256295D02*
X13566219Y-14256295D01*
X13490028Y-14332486D02*
X13490028Y-14180105D01*
X13899552Y-14199152D02*
X13899552Y-14332486D01*
X13851933Y-14122962D02*
X13804314Y-14265819D01*
X13804314Y-14265819D02*
X13928124Y-14265819D01*
X14147171Y-14322962D02*
X14166219Y-14332486D01*
X14166219Y-14332486D02*
X14204314Y-14332486D01*
X14204314Y-14332486D02*
X14223362Y-14322962D01*
X14223362Y-14322962D02*
X14232886Y-14303914D01*
X14232886Y-14303914D02*
X14232886Y-14294390D01*
X14232886Y-14294390D02*
X14223362Y-14275343D01*
X14223362Y-14275343D02*
X14204314Y-14265819D01*
X14204314Y-14265819D02*
X14175743Y-14265819D01*
X14175743Y-14265819D02*
X14156695Y-14256295D01*
X14156695Y-14256295D02*
X14147171Y-14237248D01*
X14147171Y-14237248D02*
X14147171Y-14227724D01*
X14147171Y-14227724D02*
X14156695Y-14208676D01*
X14156695Y-14208676D02*
X14175743Y-14199152D01*
X14175743Y-14199152D02*
X14204314Y-14199152D01*
X14204314Y-14199152D02*
X14223362Y-14208676D01*
X14347171Y-14332486D02*
X14328124Y-14322962D01*
X14328124Y-14322962D02*
X14318600Y-14303914D01*
X14318600Y-14303914D02*
X14318600Y-14132486D01*
X14451933Y-14332486D02*
X14432886Y-14322962D01*
X14432886Y-14322962D02*
X14423362Y-14313438D01*
X14423362Y-14313438D02*
X14413838Y-14294390D01*
X14413838Y-14294390D02*
X14413838Y-14237248D01*
X14413838Y-14237248D02*
X14423362Y-14218200D01*
X14423362Y-14218200D02*
X14432886Y-14208676D01*
X14432886Y-14208676D02*
X14451933Y-14199152D01*
X14451933Y-14199152D02*
X14480505Y-14199152D01*
X14480505Y-14199152D02*
X14499552Y-14208676D01*
X14499552Y-14208676D02*
X14509076Y-14218200D01*
X14509076Y-14218200D02*
X14518600Y-14237248D01*
X14518600Y-14237248D02*
X14518600Y-14294390D01*
X14518600Y-14294390D02*
X14509076Y-14313438D01*
X14509076Y-14313438D02*
X14499552Y-14322962D01*
X14499552Y-14322962D02*
X14480505Y-14332486D01*
X14480505Y-14332486D02*
X14451933Y-14332486D01*
X14575743Y-14199152D02*
X14651933Y-14199152D01*
X14604314Y-14132486D02*
X14604314Y-14303914D01*
X14604314Y-14303914D02*
X14613838Y-14322962D01*
X14613838Y-14322962D02*
X14632886Y-14332486D01*
X14632886Y-14332486D02*
X14651933Y-14332486D01*
X14709076Y-14322962D02*
X14728124Y-14332486D01*
X14728124Y-14332486D02*
X14766219Y-14332486D01*
X14766219Y-14332486D02*
X14785267Y-14322962D01*
X14785267Y-14322962D02*
X14794790Y-14303914D01*
X14794790Y-14303914D02*
X14794790Y-14294390D01*
X14794790Y-14294390D02*
X14785267Y-14275343D01*
X14785267Y-14275343D02*
X14766219Y-14265819D01*
X14766219Y-14265819D02*
X14737648Y-14265819D01*
X14737648Y-14265819D02*
X14718600Y-14256295D01*
X14718600Y-14256295D02*
X14709076Y-14237248D01*
X14709076Y-14237248D02*
X14709076Y-14227724D01*
X14709076Y-14227724D02*
X14718600Y-14208676D01*
X14718600Y-14208676D02*
X14737648Y-14199152D01*
X14737648Y-14199152D02*
X14766219Y-14199152D01*
X14766219Y-14199152D02*
X14785267Y-14208676D01*
X14861457Y-14408676D02*
X14870981Y-14399152D01*
X14870981Y-14399152D02*
X14890029Y-14370581D01*
X14890029Y-14370581D02*
X14899552Y-14351533D01*
X14899552Y-14351533D02*
X14909076Y-14322962D01*
X14909076Y-14322962D02*
X14918600Y-14275343D01*
X14918600Y-14275343D02*
X14918600Y-14237248D01*
X14918600Y-14237248D02*
X14909076Y-14189629D01*
X14909076Y-14189629D02*
X14899552Y-14161057D01*
X14899552Y-14161057D02*
X14890029Y-14142010D01*
X14890029Y-14142010D02*
X14870981Y-14113438D01*
X14870981Y-14113438D02*
X14861457Y-14103914D01*
D10*
X8417346Y-14455002D02*
X8417346Y-14555002D01*
X8367346Y-14505002D02*
X8467346Y-14505002D01*
D12*
X8832885Y-14596486D02*
X8718599Y-14596486D01*
X8775742Y-14596486D02*
X8775742Y-14396486D01*
X8775742Y-14396486D02*
X8756695Y-14425057D01*
X8756695Y-14425057D02*
X8737647Y-14444105D01*
X8737647Y-14444105D02*
X8718599Y-14453629D01*
X8918599Y-14577438D02*
X8928123Y-14586962D01*
X8928123Y-14586962D02*
X8918599Y-14596486D01*
X8918599Y-14596486D02*
X8909076Y-14586962D01*
X8909076Y-14586962D02*
X8918599Y-14577438D01*
X8918599Y-14577438D02*
X8918599Y-14596486D01*
X9051933Y-14396486D02*
X9070980Y-14396486D01*
X9070980Y-14396486D02*
X9090028Y-14406010D01*
X9090028Y-14406010D02*
X9099552Y-14415533D01*
X9099552Y-14415533D02*
X9109076Y-14434581D01*
X9109076Y-14434581D02*
X9118599Y-14472676D01*
X9118599Y-14472676D02*
X9118599Y-14520295D01*
X9118599Y-14520295D02*
X9109076Y-14558390D01*
X9109076Y-14558390D02*
X9099552Y-14577438D01*
X9099552Y-14577438D02*
X9090028Y-14586962D01*
X9090028Y-14586962D02*
X9070980Y-14596486D01*
X9070980Y-14596486D02*
X9051933Y-14596486D01*
X9051933Y-14596486D02*
X9032885Y-14586962D01*
X9032885Y-14586962D02*
X9023361Y-14577438D01*
X9023361Y-14577438D02*
X9013838Y-14558390D01*
X9013838Y-14558390D02*
X9004314Y-14520295D01*
X9004314Y-14520295D02*
X9004314Y-14472676D01*
X9004314Y-14472676D02*
X9013838Y-14434581D01*
X9013838Y-14434581D02*
X9023361Y-14415533D01*
X9023361Y-14415533D02*
X9032885Y-14406010D01*
X9032885Y-14406010D02*
X9051933Y-14396486D01*
X9242409Y-14396486D02*
X9261457Y-14396486D01*
X9261457Y-14396486D02*
X9280504Y-14406010D01*
X9280504Y-14406010D02*
X9290028Y-14415533D01*
X9290028Y-14415533D02*
X9299552Y-14434581D01*
X9299552Y-14434581D02*
X9309076Y-14472676D01*
X9309076Y-14472676D02*
X9309076Y-14520295D01*
X9309076Y-14520295D02*
X9299552Y-14558390D01*
X9299552Y-14558390D02*
X9290028Y-14577438D01*
X9290028Y-14577438D02*
X9280504Y-14586962D01*
X9280504Y-14586962D02*
X9261457Y-14596486D01*
X9261457Y-14596486D02*
X9242409Y-14596486D01*
X9242409Y-14596486D02*
X9223361Y-14586962D01*
X9223361Y-14586962D02*
X9213838Y-14577438D01*
X9213838Y-14577438D02*
X9204314Y-14558390D01*
X9204314Y-14558390D02*
X9194790Y-14520295D01*
X9194790Y-14520295D02*
X9194790Y-14472676D01*
X9194790Y-14472676D02*
X9204314Y-14434581D01*
X9204314Y-14434581D02*
X9213838Y-14415533D01*
X9213838Y-14415533D02*
X9223361Y-14406010D01*
X9223361Y-14406010D02*
X9242409Y-14396486D01*
X9432885Y-14396486D02*
X9451933Y-14396486D01*
X9451933Y-14396486D02*
X9470980Y-14406010D01*
X9470980Y-14406010D02*
X9480504Y-14415533D01*
X9480504Y-14415533D02*
X9490028Y-14434581D01*
X9490028Y-14434581D02*
X9499552Y-14472676D01*
X9499552Y-14472676D02*
X9499552Y-14520295D01*
X9499552Y-14520295D02*
X9490028Y-14558390D01*
X9490028Y-14558390D02*
X9480504Y-14577438D01*
X9480504Y-14577438D02*
X9470980Y-14586962D01*
X9470980Y-14586962D02*
X9451933Y-14596486D01*
X9451933Y-14596486D02*
X9432885Y-14596486D01*
X9432885Y-14596486D02*
X9413838Y-14586962D01*
X9413838Y-14586962D02*
X9404314Y-14577438D01*
X9404314Y-14577438D02*
X9394790Y-14558390D01*
X9394790Y-14558390D02*
X9385266Y-14520295D01*
X9385266Y-14520295D02*
X9385266Y-14472676D01*
X9385266Y-14472676D02*
X9394790Y-14434581D01*
X9394790Y-14434581D02*
X9404314Y-14415533D01*
X9404314Y-14415533D02*
X9413838Y-14406010D01*
X9413838Y-14406010D02*
X9432885Y-14396486D01*
X9585266Y-14596486D02*
X9585266Y-14463152D01*
X9585266Y-14482200D02*
X9594790Y-14472676D01*
X9594790Y-14472676D02*
X9613838Y-14463152D01*
X9613838Y-14463152D02*
X9642409Y-14463152D01*
X9642409Y-14463152D02*
X9661457Y-14472676D01*
X9661457Y-14472676D02*
X9670980Y-14491724D01*
X9670980Y-14491724D02*
X9670980Y-14596486D01*
X9670980Y-14491724D02*
X9680504Y-14472676D01*
X9680504Y-14472676D02*
X9699552Y-14463152D01*
X9699552Y-14463152D02*
X9728123Y-14463152D01*
X9728123Y-14463152D02*
X9747171Y-14472676D01*
X9747171Y-14472676D02*
X9756695Y-14491724D01*
X9756695Y-14491724D02*
X9756695Y-14596486D01*
X9851933Y-14596486D02*
X9851933Y-14463152D01*
X9851933Y-14482200D02*
X9861457Y-14472676D01*
X9861457Y-14472676D02*
X9880504Y-14463152D01*
X9880504Y-14463152D02*
X9909076Y-14463152D01*
X9909076Y-14463152D02*
X9928123Y-14472676D01*
X9928123Y-14472676D02*
X9937647Y-14491724D01*
X9937647Y-14491724D02*
X9937647Y-14596486D01*
X9937647Y-14491724D02*
X9947171Y-14472676D01*
X9947171Y-14472676D02*
X9966219Y-14463152D01*
X9966219Y-14463152D02*
X9994790Y-14463152D01*
X9994790Y-14463152D02*
X10013838Y-14472676D01*
X10013838Y-14472676D02*
X10023361Y-14491724D01*
X10023361Y-14491724D02*
X10023361Y-14596486D01*
X10413838Y-14386962D02*
X10242409Y-14644105D01*
X10670981Y-14396486D02*
X10690028Y-14396486D01*
X10690028Y-14396486D02*
X10709076Y-14406010D01*
X10709076Y-14406010D02*
X10718600Y-14415533D01*
X10718600Y-14415533D02*
X10728123Y-14434581D01*
X10728123Y-14434581D02*
X10737647Y-14472676D01*
X10737647Y-14472676D02*
X10737647Y-14520295D01*
X10737647Y-14520295D02*
X10728123Y-14558390D01*
X10728123Y-14558390D02*
X10718600Y-14577438D01*
X10718600Y-14577438D02*
X10709076Y-14586962D01*
X10709076Y-14586962D02*
X10690028Y-14596486D01*
X10690028Y-14596486D02*
X10670981Y-14596486D01*
X10670981Y-14596486D02*
X10651933Y-14586962D01*
X10651933Y-14586962D02*
X10642409Y-14577438D01*
X10642409Y-14577438D02*
X10632885Y-14558390D01*
X10632885Y-14558390D02*
X10623362Y-14520295D01*
X10623362Y-14520295D02*
X10623362Y-14472676D01*
X10623362Y-14472676D02*
X10632885Y-14434581D01*
X10632885Y-14434581D02*
X10642409Y-14415533D01*
X10642409Y-14415533D02*
X10651933Y-14406010D01*
X10651933Y-14406010D02*
X10670981Y-14396486D01*
X10823362Y-14577438D02*
X10832885Y-14586962D01*
X10832885Y-14586962D02*
X10823362Y-14596486D01*
X10823362Y-14596486D02*
X10813838Y-14586962D01*
X10813838Y-14586962D02*
X10823362Y-14577438D01*
X10823362Y-14577438D02*
X10823362Y-14596486D01*
X10956695Y-14396486D02*
X10975743Y-14396486D01*
X10975743Y-14396486D02*
X10994790Y-14406010D01*
X10994790Y-14406010D02*
X11004314Y-14415533D01*
X11004314Y-14415533D02*
X11013838Y-14434581D01*
X11013838Y-14434581D02*
X11023362Y-14472676D01*
X11023362Y-14472676D02*
X11023362Y-14520295D01*
X11023362Y-14520295D02*
X11013838Y-14558390D01*
X11013838Y-14558390D02*
X11004314Y-14577438D01*
X11004314Y-14577438D02*
X10994790Y-14586962D01*
X10994790Y-14586962D02*
X10975743Y-14596486D01*
X10975743Y-14596486D02*
X10956695Y-14596486D01*
X10956695Y-14596486D02*
X10937647Y-14586962D01*
X10937647Y-14586962D02*
X10928123Y-14577438D01*
X10928123Y-14577438D02*
X10918600Y-14558390D01*
X10918600Y-14558390D02*
X10909076Y-14520295D01*
X10909076Y-14520295D02*
X10909076Y-14472676D01*
X10909076Y-14472676D02*
X10918600Y-14434581D01*
X10918600Y-14434581D02*
X10928123Y-14415533D01*
X10928123Y-14415533D02*
X10937647Y-14406010D01*
X10937647Y-14406010D02*
X10956695Y-14396486D01*
X11090028Y-14396486D02*
X11213838Y-14396486D01*
X11213838Y-14396486D02*
X11147171Y-14472676D01*
X11147171Y-14472676D02*
X11175743Y-14472676D01*
X11175743Y-14472676D02*
X11194790Y-14482200D01*
X11194790Y-14482200D02*
X11204314Y-14491724D01*
X11204314Y-14491724D02*
X11213838Y-14510771D01*
X11213838Y-14510771D02*
X11213838Y-14558390D01*
X11213838Y-14558390D02*
X11204314Y-14577438D01*
X11204314Y-14577438D02*
X11194790Y-14586962D01*
X11194790Y-14586962D02*
X11175743Y-14596486D01*
X11175743Y-14596486D02*
X11118600Y-14596486D01*
X11118600Y-14596486D02*
X11099552Y-14586962D01*
X11099552Y-14586962D02*
X11090028Y-14577438D01*
X11309076Y-14596486D02*
X11347171Y-14596486D01*
X11347171Y-14596486D02*
X11366219Y-14586962D01*
X11366219Y-14586962D02*
X11375742Y-14577438D01*
X11375742Y-14577438D02*
X11394790Y-14548867D01*
X11394790Y-14548867D02*
X11404314Y-14510771D01*
X11404314Y-14510771D02*
X11404314Y-14434581D01*
X11404314Y-14434581D02*
X11394790Y-14415533D01*
X11394790Y-14415533D02*
X11385266Y-14406010D01*
X11385266Y-14406010D02*
X11366219Y-14396486D01*
X11366219Y-14396486D02*
X11328123Y-14396486D01*
X11328123Y-14396486D02*
X11309076Y-14406010D01*
X11309076Y-14406010D02*
X11299552Y-14415533D01*
X11299552Y-14415533D02*
X11290028Y-14434581D01*
X11290028Y-14434581D02*
X11290028Y-14482200D01*
X11290028Y-14482200D02*
X11299552Y-14501248D01*
X11299552Y-14501248D02*
X11309076Y-14510771D01*
X11309076Y-14510771D02*
X11328123Y-14520295D01*
X11328123Y-14520295D02*
X11366219Y-14520295D01*
X11366219Y-14520295D02*
X11385266Y-14510771D01*
X11385266Y-14510771D02*
X11394790Y-14501248D01*
X11394790Y-14501248D02*
X11404314Y-14482200D01*
X11575742Y-14463152D02*
X11575742Y-14596486D01*
X11528123Y-14386962D02*
X11480504Y-14529819D01*
X11480504Y-14529819D02*
X11604314Y-14529819D01*
X11670981Y-14396486D02*
X11670981Y-14434581D01*
X11747171Y-14396486D02*
X11747171Y-14434581D01*
X12042409Y-14672676D02*
X12032885Y-14663152D01*
X12032885Y-14663152D02*
X12013838Y-14634581D01*
X12013838Y-14634581D02*
X12004314Y-14615533D01*
X12004314Y-14615533D02*
X11994790Y-14586962D01*
X11994790Y-14586962D02*
X11985266Y-14539343D01*
X11985266Y-14539343D02*
X11985266Y-14501248D01*
X11985266Y-14501248D02*
X11994790Y-14453629D01*
X11994790Y-14453629D02*
X12004314Y-14425057D01*
X12004314Y-14425057D02*
X12013838Y-14406010D01*
X12013838Y-14406010D02*
X12032885Y-14377438D01*
X12032885Y-14377438D02*
X12042409Y-14367914D01*
X12223362Y-14596486D02*
X12109076Y-14596486D01*
X12166219Y-14596486D02*
X12166219Y-14396486D01*
X12166219Y-14396486D02*
X12147171Y-14425057D01*
X12147171Y-14425057D02*
X12128123Y-14444105D01*
X12128123Y-14444105D02*
X12109076Y-14453629D01*
X12337647Y-14482200D02*
X12318600Y-14472676D01*
X12318600Y-14472676D02*
X12309076Y-14463152D01*
X12309076Y-14463152D02*
X12299552Y-14444105D01*
X12299552Y-14444105D02*
X12299552Y-14434581D01*
X12299552Y-14434581D02*
X12309076Y-14415533D01*
X12309076Y-14415533D02*
X12318600Y-14406010D01*
X12318600Y-14406010D02*
X12337647Y-14396486D01*
X12337647Y-14396486D02*
X12375743Y-14396486D01*
X12375743Y-14396486D02*
X12394790Y-14406010D01*
X12394790Y-14406010D02*
X12404314Y-14415533D01*
X12404314Y-14415533D02*
X12413838Y-14434581D01*
X12413838Y-14434581D02*
X12413838Y-14444105D01*
X12413838Y-14444105D02*
X12404314Y-14463152D01*
X12404314Y-14463152D02*
X12394790Y-14472676D01*
X12394790Y-14472676D02*
X12375743Y-14482200D01*
X12375743Y-14482200D02*
X12337647Y-14482200D01*
X12337647Y-14482200D02*
X12318600Y-14491724D01*
X12318600Y-14491724D02*
X12309076Y-14501248D01*
X12309076Y-14501248D02*
X12299552Y-14520295D01*
X12299552Y-14520295D02*
X12299552Y-14558390D01*
X12299552Y-14558390D02*
X12309076Y-14577438D01*
X12309076Y-14577438D02*
X12318600Y-14586962D01*
X12318600Y-14586962D02*
X12337647Y-14596486D01*
X12337647Y-14596486D02*
X12375743Y-14596486D01*
X12375743Y-14596486D02*
X12394790Y-14586962D01*
X12394790Y-14586962D02*
X12404314Y-14577438D01*
X12404314Y-14577438D02*
X12413838Y-14558390D01*
X12413838Y-14558390D02*
X12413838Y-14520295D01*
X12413838Y-14520295D02*
X12404314Y-14501248D01*
X12404314Y-14501248D02*
X12394790Y-14491724D01*
X12394790Y-14491724D02*
X12375743Y-14482200D01*
X12651933Y-14596486D02*
X12651933Y-14396486D01*
X12737647Y-14596486D02*
X12737647Y-14491724D01*
X12737647Y-14491724D02*
X12728124Y-14472676D01*
X12728124Y-14472676D02*
X12709076Y-14463152D01*
X12709076Y-14463152D02*
X12680504Y-14463152D01*
X12680504Y-14463152D02*
X12661457Y-14472676D01*
X12661457Y-14472676D02*
X12651933Y-14482200D01*
X12861457Y-14596486D02*
X12842409Y-14586962D01*
X12842409Y-14586962D02*
X12832885Y-14577438D01*
X12832885Y-14577438D02*
X12823362Y-14558390D01*
X12823362Y-14558390D02*
X12823362Y-14501248D01*
X12823362Y-14501248D02*
X12832885Y-14482200D01*
X12832885Y-14482200D02*
X12842409Y-14472676D01*
X12842409Y-14472676D02*
X12861457Y-14463152D01*
X12861457Y-14463152D02*
X12890028Y-14463152D01*
X12890028Y-14463152D02*
X12909076Y-14472676D01*
X12909076Y-14472676D02*
X12918600Y-14482200D01*
X12918600Y-14482200D02*
X12928124Y-14501248D01*
X12928124Y-14501248D02*
X12928124Y-14558390D01*
X12928124Y-14558390D02*
X12918600Y-14577438D01*
X12918600Y-14577438D02*
X12909076Y-14586962D01*
X12909076Y-14586962D02*
X12890028Y-14596486D01*
X12890028Y-14596486D02*
X12861457Y-14596486D01*
X13042409Y-14596486D02*
X13023362Y-14586962D01*
X13023362Y-14586962D02*
X13013838Y-14567914D01*
X13013838Y-14567914D02*
X13013838Y-14396486D01*
X13194790Y-14586962D02*
X13175743Y-14596486D01*
X13175743Y-14596486D02*
X13137647Y-14596486D01*
X13137647Y-14596486D02*
X13118600Y-14586962D01*
X13118600Y-14586962D02*
X13109076Y-14567914D01*
X13109076Y-14567914D02*
X13109076Y-14491724D01*
X13109076Y-14491724D02*
X13118600Y-14472676D01*
X13118600Y-14472676D02*
X13137647Y-14463152D01*
X13137647Y-14463152D02*
X13175743Y-14463152D01*
X13175743Y-14463152D02*
X13194790Y-14472676D01*
X13194790Y-14472676D02*
X13204314Y-14491724D01*
X13204314Y-14491724D02*
X13204314Y-14510771D01*
X13204314Y-14510771D02*
X13109076Y-14529819D01*
X13280505Y-14586962D02*
X13299552Y-14596486D01*
X13299552Y-14596486D02*
X13337647Y-14596486D01*
X13337647Y-14596486D02*
X13356695Y-14586962D01*
X13356695Y-14586962D02*
X13366219Y-14567914D01*
X13366219Y-14567914D02*
X13366219Y-14558390D01*
X13366219Y-14558390D02*
X13356695Y-14539343D01*
X13356695Y-14539343D02*
X13337647Y-14529819D01*
X13337647Y-14529819D02*
X13309076Y-14529819D01*
X13309076Y-14529819D02*
X13290028Y-14520295D01*
X13290028Y-14520295D02*
X13280505Y-14501248D01*
X13280505Y-14501248D02*
X13280505Y-14491724D01*
X13280505Y-14491724D02*
X13290028Y-14472676D01*
X13290028Y-14472676D02*
X13309076Y-14463152D01*
X13309076Y-14463152D02*
X13337647Y-14463152D01*
X13337647Y-14463152D02*
X13356695Y-14472676D01*
X13432886Y-14672676D02*
X13442409Y-14663152D01*
X13442409Y-14663152D02*
X13461457Y-14634581D01*
X13461457Y-14634581D02*
X13470981Y-14615533D01*
X13470981Y-14615533D02*
X13480505Y-14586962D01*
X13480505Y-14586962D02*
X13490028Y-14539343D01*
X13490028Y-14539343D02*
X13490028Y-14501248D01*
X13490028Y-14501248D02*
X13480505Y-14453629D01*
X13480505Y-14453629D02*
X13470981Y-14425057D01*
X13470981Y-14425057D02*
X13461457Y-14406010D01*
X13461457Y-14406010D02*
X13442409Y-14377438D01*
X13442409Y-14377438D02*
X13432886Y-14367914D01*
M02*
