G04 #@! TF.GenerationSoftware,KiCad,Pcbnew,7.0.8-7.0.8~ubuntu23.04.1*
G04 #@! TF.CreationDate,2023-11-14T21:47:51+00:00*
G04 #@! TF.ProjectId,demo-badge-2023,64656d6f-2d62-4616-9467-652d32303233,1*
G04 #@! TF.SameCoordinates,Original*
G04 #@! TF.FileFunction,Soldermask,Top*
G04 #@! TF.FilePolarity,Negative*
%FSLAX46Y46*%
G04 Gerber Fmt 4.6, Leading zero omitted, Abs format (unit mm)*
G04 Created by KiCad (PCBNEW 7.0.8-7.0.8~ubuntu23.04.1) date 2023-11-14 21:47:51*
%MOMM*%
%LPD*%
G01*
G04 APERTURE LIST*
%ADD10R,0.711200X0.990600*%
%ADD11R,0.558800X0.889000*%
%ADD12C,1.000000*%
%ADD13R,0.800000X0.800000*%
%ADD14R,0.990600X0.711200*%
%ADD15C,0.600000*%
%ADD16C,0.990600*%
%ADD17C,0.787400*%
%ADD18C,0.900000*%
%ADD19R,0.250000X0.550000*%
G04 APERTURE END LIST*
G36*
G01*
X152025429Y-100648617D02*
X152378983Y-101002171D01*
G75*
G02*
X152378983Y-101320369I-159099J-159099D01*
G01*
X152060785Y-101638567D01*
G75*
G02*
X151742587Y-101638567I-159099J159099D01*
G01*
X151389033Y-101285013D01*
G75*
G02*
X151389033Y-100966815I159099J159099D01*
G01*
X151707231Y-100648617D01*
G75*
G02*
X152025429Y-100648617I159099J-159099D01*
G01*
G37*
G36*
G01*
X150929413Y-101744633D02*
X151282967Y-102098187D01*
G75*
G02*
X151282967Y-102416385I-159099J-159099D01*
G01*
X150964769Y-102734583D01*
G75*
G02*
X150646571Y-102734583I-159099J159099D01*
G01*
X150293017Y-102381029D01*
G75*
G02*
X150293017Y-102062831I159099J159099D01*
G01*
X150611215Y-101744633D01*
G75*
G02*
X150929413Y-101744633I159099J-159099D01*
G01*
G37*
G36*
X161361949Y-84366140D02*
G01*
X160796264Y-83800455D01*
X161079107Y-83517612D01*
X161644792Y-84083297D01*
X161361949Y-84366140D01*
G37*
G36*
X160796264Y-84931825D02*
G01*
X160230579Y-84366140D01*
X160513422Y-84083297D01*
X161079107Y-84648982D01*
X160796264Y-84931825D01*
G37*
G36*
X160230578Y-85497511D02*
G01*
X159664893Y-84931826D01*
X159947736Y-84648983D01*
X160513421Y-85214668D01*
X160230578Y-85497511D01*
G37*
G36*
X159664893Y-86063196D02*
G01*
X159099208Y-85497511D01*
X159382051Y-85214668D01*
X159947736Y-85780353D01*
X159664893Y-86063196D01*
G37*
G36*
X159099207Y-86628882D02*
G01*
X158533522Y-86063197D01*
X158816365Y-85780354D01*
X159382050Y-86346039D01*
X159099207Y-86628882D01*
G37*
G36*
X158533522Y-87194567D02*
G01*
X157967837Y-86628882D01*
X158250680Y-86346039D01*
X158816365Y-86911724D01*
X158533522Y-87194567D01*
G37*
G36*
X157967837Y-87760252D02*
G01*
X157402152Y-87194567D01*
X157684995Y-86911724D01*
X158250680Y-87477409D01*
X157967837Y-87760252D01*
G37*
G36*
X157402151Y-88325938D02*
G01*
X156836466Y-87760253D01*
X157119309Y-87477410D01*
X157684994Y-88043095D01*
X157402151Y-88325938D01*
G37*
G36*
X156836466Y-88891623D02*
G01*
X156270781Y-88325938D01*
X156553624Y-88043095D01*
X157119309Y-88608780D01*
X156836466Y-88891623D01*
G37*
G36*
X156270780Y-89457309D02*
G01*
X155705095Y-88891624D01*
X155987938Y-88608781D01*
X156553623Y-89174466D01*
X156270780Y-89457309D01*
G37*
G36*
X155705095Y-90022994D02*
G01*
X155139410Y-89457309D01*
X155422253Y-89174466D01*
X155987938Y-89740151D01*
X155705095Y-90022994D01*
G37*
G36*
X155280831Y-91154365D02*
G01*
X155846516Y-90588680D01*
X156129359Y-90871523D01*
X155563674Y-91437208D01*
X155280831Y-91154365D01*
G37*
G36*
X155846517Y-91720050D02*
G01*
X156412202Y-91154365D01*
X156695045Y-91437208D01*
X156129360Y-92002893D01*
X155846517Y-91720050D01*
G37*
G36*
X156412202Y-92285736D02*
G01*
X156977887Y-91720051D01*
X157260730Y-92002894D01*
X156695045Y-92568579D01*
X156412202Y-92285736D01*
G37*
G36*
X156977887Y-92851421D02*
G01*
X157543572Y-92285736D01*
X157826415Y-92568579D01*
X157260730Y-93134264D01*
X156977887Y-92851421D01*
G37*
G36*
X157543573Y-93417106D02*
G01*
X158109258Y-92851421D01*
X158392101Y-93134264D01*
X157826416Y-93699949D01*
X157543573Y-93417106D01*
G37*
G36*
X158109258Y-93982792D02*
G01*
X158674943Y-93417107D01*
X158957786Y-93699950D01*
X158392101Y-94265635D01*
X158109258Y-93982792D01*
G37*
G36*
X158674944Y-94548477D02*
G01*
X159240629Y-93982792D01*
X159523472Y-94265635D01*
X158957787Y-94831320D01*
X158674944Y-94548477D01*
G37*
G36*
X159240629Y-95114163D02*
G01*
X159806314Y-94548478D01*
X160089157Y-94831321D01*
X159523472Y-95397006D01*
X159240629Y-95114163D01*
G37*
G36*
X159806315Y-95679848D02*
G01*
X160372000Y-95114163D01*
X160654843Y-95397006D01*
X160089158Y-95962691D01*
X159806315Y-95679848D01*
G37*
G36*
X160372000Y-96245534D02*
G01*
X160937685Y-95679849D01*
X161220528Y-95962692D01*
X160654843Y-96528377D01*
X160372000Y-96245534D01*
G37*
G36*
X160937685Y-96811219D02*
G01*
X161503370Y-96245534D01*
X161786213Y-96528377D01*
X161220528Y-97094062D01*
X160937685Y-96811219D01*
G37*
G36*
X161503371Y-97376904D02*
G01*
X162069056Y-96811219D01*
X162351899Y-97094062D01*
X161786214Y-97659747D01*
X161503371Y-97376904D01*
G37*
G36*
X162069056Y-97942590D02*
G01*
X162634741Y-97376905D01*
X162917584Y-97659748D01*
X162351899Y-98225433D01*
X162069056Y-97942590D01*
G37*
G36*
X164048955Y-98366854D02*
G01*
X163483270Y-97801169D01*
X163766113Y-97518326D01*
X164331798Y-98084011D01*
X164048955Y-98366854D01*
G37*
G36*
X164614640Y-97801169D02*
G01*
X164048955Y-97235484D01*
X164331798Y-96952641D01*
X164897483Y-97518326D01*
X164614640Y-97801169D01*
G37*
G36*
X165180326Y-97235483D02*
G01*
X164614641Y-96669798D01*
X164897484Y-96386955D01*
X165463169Y-96952640D01*
X165180326Y-97235483D01*
G37*
G36*
X165746011Y-96669798D02*
G01*
X165180326Y-96104113D01*
X165463169Y-95821270D01*
X166028854Y-96386955D01*
X165746011Y-96669798D01*
G37*
G36*
X166311697Y-96104112D02*
G01*
X165746012Y-95538427D01*
X166028855Y-95255584D01*
X166594540Y-95821269D01*
X166311697Y-96104112D01*
G37*
G36*
X166877382Y-95538427D02*
G01*
X166311697Y-94972742D01*
X166594540Y-94689899D01*
X167160225Y-95255584D01*
X166877382Y-95538427D01*
G37*
G36*
X167443067Y-94972742D02*
G01*
X166877382Y-94407057D01*
X167160225Y-94124214D01*
X167725910Y-94689899D01*
X167443067Y-94972742D01*
G37*
G36*
X168008753Y-94407056D02*
G01*
X167443068Y-93841371D01*
X167725911Y-93558528D01*
X168291596Y-94124213D01*
X168008753Y-94407056D01*
G37*
G36*
X168574438Y-93841371D02*
G01*
X168008753Y-93275686D01*
X168291596Y-92992843D01*
X168857281Y-93558528D01*
X168574438Y-93841371D01*
G37*
G36*
X169140124Y-93275685D02*
G01*
X168574439Y-92710000D01*
X168857282Y-92427157D01*
X169422967Y-92992842D01*
X169140124Y-93275685D01*
G37*
G36*
X169705809Y-92710000D02*
G01*
X169140124Y-92144315D01*
X169422967Y-91861472D01*
X169988652Y-92427157D01*
X169705809Y-92710000D01*
G37*
G36*
X161856924Y-83729744D02*
G01*
X161361949Y-83234769D01*
X161856924Y-82739794D01*
X162351899Y-83234769D01*
X161856924Y-83729744D01*
G37*
G36*
X154856567Y-90730101D02*
G01*
X154361592Y-90235126D01*
X154856567Y-89740151D01*
X155351542Y-90235126D01*
X154856567Y-90730101D01*
G37*
G36*
X162210478Y-84224718D02*
G01*
X162776163Y-83659033D01*
X163059006Y-83941876D01*
X162493321Y-84507561D01*
X162210478Y-84224718D01*
G37*
G36*
X162776163Y-84790404D02*
G01*
X163341848Y-84224719D01*
X163624691Y-84507562D01*
X163059006Y-85073247D01*
X162776163Y-84790404D01*
G37*
G36*
X163341849Y-85356089D02*
G01*
X163907534Y-84790404D01*
X164190377Y-85073247D01*
X163624692Y-85638932D01*
X163341849Y-85356089D01*
G37*
G36*
X163907534Y-85921774D02*
G01*
X164473219Y-85356089D01*
X164756062Y-85638932D01*
X164190377Y-86204617D01*
X163907534Y-85921774D01*
G37*
G36*
X162564031Y-89174466D02*
G01*
X161538726Y-88149161D01*
X162139767Y-87548120D01*
X162988295Y-87548120D01*
X163589336Y-88149161D01*
X162564031Y-89174466D01*
G37*
G36*
X161167495Y-90571002D02*
G01*
X160142190Y-89545697D01*
X161167495Y-88520392D01*
X162192800Y-89545697D01*
X161167495Y-90571002D01*
G37*
G36*
X159770959Y-91967538D02*
G01*
X158745654Y-90942233D01*
X159770959Y-89916928D01*
X160796264Y-90942233D01*
X159770959Y-91967538D01*
G37*
G36*
X164473219Y-86487460D02*
G01*
X165038904Y-85921775D01*
X165321747Y-86204618D01*
X164756062Y-86770303D01*
X164473219Y-86487460D01*
G37*
G36*
X165038905Y-87053145D02*
G01*
X165604590Y-86487460D01*
X165887433Y-86770303D01*
X165321748Y-87335988D01*
X165038905Y-87053145D01*
G37*
G36*
X165604590Y-87618831D02*
G01*
X166170275Y-87053146D01*
X166453118Y-87335989D01*
X165887433Y-87901674D01*
X165604590Y-87618831D01*
G37*
G36*
X163960567Y-90571002D02*
G01*
X162935262Y-89545697D01*
X163960567Y-88520392D01*
X164985872Y-89545697D01*
X163960567Y-90571002D01*
G37*
G36*
X162564031Y-91967538D02*
G01*
X161538726Y-90942233D01*
X162564031Y-89916928D01*
X163589336Y-90942233D01*
X162564031Y-91967538D01*
G37*
G36*
X161167495Y-93364074D02*
G01*
X160142190Y-92338769D01*
X161167495Y-91313464D01*
X162192800Y-92338769D01*
X161167495Y-93364074D01*
G37*
G36*
X166170276Y-88184516D02*
G01*
X166735961Y-87618831D01*
X167018804Y-87901674D01*
X166453119Y-88467359D01*
X166170276Y-88184516D01*
G37*
G36*
X166735961Y-88750202D02*
G01*
X167301646Y-88184517D01*
X167584489Y-88467360D01*
X167018804Y-89033045D01*
X166735961Y-88750202D01*
G37*
G36*
X165357103Y-91967538D02*
G01*
X164331798Y-90942233D01*
X165357103Y-89916928D01*
X166382408Y-90942233D01*
X165357103Y-91967538D01*
G37*
G36*
X163960567Y-93364074D02*
G01*
X162935262Y-92338769D01*
X163960567Y-91313464D01*
X164985872Y-92338769D01*
X163960567Y-93364074D01*
G37*
G36*
X162564031Y-94760610D02*
G01*
X161538726Y-93735305D01*
X162564031Y-92710000D01*
X163589336Y-93735305D01*
X162564031Y-94760610D01*
G37*
G36*
X167301647Y-89315887D02*
G01*
X167867332Y-88750202D01*
X168150175Y-89033045D01*
X167584490Y-89598730D01*
X167301647Y-89315887D01*
G37*
G36*
X167867332Y-89881572D02*
G01*
X168433017Y-89315887D01*
X168715860Y-89598730D01*
X168150175Y-90164415D01*
X167867332Y-89881572D01*
G37*
G36*
X168433017Y-90447258D02*
G01*
X168998702Y-89881573D01*
X169281545Y-90164416D01*
X168715860Y-90730101D01*
X168433017Y-90447258D01*
G37*
G36*
X168998703Y-91012943D02*
G01*
X169564388Y-90447258D01*
X169847231Y-90730101D01*
X169281546Y-91295786D01*
X168998703Y-91012943D01*
G37*
G36*
X170271495Y-92144315D02*
G01*
X169776520Y-91649340D01*
X170271495Y-91154365D01*
X170766470Y-91649340D01*
X170271495Y-92144315D01*
G37*
G36*
X163271138Y-99144672D02*
G01*
X162776163Y-98649697D01*
X163271138Y-98154722D01*
X163766113Y-98649697D01*
X163271138Y-99144672D01*
G37*
G36*
X104629367Y-78279513D02*
G01*
X104126473Y-78782407D01*
X103426013Y-78081947D01*
X103928907Y-77579053D01*
X104629367Y-78279513D01*
G37*
G36*
X101447385Y-75097531D02*
G01*
X100944491Y-75600425D01*
X100244031Y-74899965D01*
X100746925Y-74397071D01*
X101447385Y-75097531D01*
G37*
G36*
X106149645Y-76759235D02*
G01*
X105646751Y-77262129D01*
X104946291Y-76561669D01*
X105449185Y-76058775D01*
X106149645Y-76759235D01*
G37*
G36*
X102967663Y-73577253D02*
G01*
X102464769Y-74080147D01*
X101764309Y-73379687D01*
X102267203Y-72876793D01*
X102967663Y-73577253D01*
G37*
D10*
X128925001Y-128697341D03*
X128925001Y-124197339D03*
X131074999Y-128697341D03*
X131074999Y-124197339D03*
G36*
G01*
X126373700Y-117945350D02*
X126373700Y-118457850D01*
G75*
G02*
X126154950Y-118676600I-218750J0D01*
G01*
X125717450Y-118676600D01*
G75*
G02*
X125498700Y-118457850I0J218750D01*
G01*
X125498700Y-117945350D01*
G75*
G02*
X125717450Y-117726600I218750J0D01*
G01*
X126154950Y-117726600D01*
G75*
G02*
X126373700Y-117945350I0J-218750D01*
G01*
G37*
G36*
G01*
X124798700Y-117945350D02*
X124798700Y-118457850D01*
G75*
G02*
X124579950Y-118676600I-218750J0D01*
G01*
X124142450Y-118676600D01*
G75*
G02*
X123923700Y-118457850I0J218750D01*
G01*
X123923700Y-117945350D01*
G75*
G02*
X124142450Y-117726600I218750J0D01*
G01*
X124579950Y-117726600D01*
G75*
G02*
X124798700Y-117945350I0J-218750D01*
G01*
G37*
G36*
X150583860Y-105972754D02*
G01*
X149876754Y-106679860D01*
X148816094Y-105619200D01*
X149523200Y-104912094D01*
X150583860Y-105972754D01*
G37*
G36*
X148816094Y-106538439D02*
G01*
X149417135Y-105937398D01*
X150548506Y-107068769D01*
X149947465Y-107669810D01*
X148816094Y-106538439D01*
G37*
G36*
X149487846Y-107351612D02*
G01*
X149912110Y-106927348D01*
X150619216Y-107634454D01*
X150194952Y-108058718D01*
X149487846Y-107351612D01*
G37*
G36*
X148321119Y-108235495D02*
G01*
X147614013Y-108942601D01*
X146553353Y-107881941D01*
X147260459Y-107174835D01*
X148321119Y-108235495D01*
G37*
G36*
X147578657Y-107775876D02*
G01*
X148179698Y-107174835D01*
X149311069Y-108306206D01*
X148710028Y-108907247D01*
X147578657Y-107775876D01*
G37*
G36*
X148568607Y-108270851D02*
G01*
X148992871Y-107846587D01*
X149699977Y-108553693D01*
X149275713Y-108977957D01*
X148568607Y-108270851D01*
G37*
G36*
X149982820Y-109685064D02*
G01*
X150407084Y-109260800D01*
X151114190Y-109967906D01*
X150689926Y-110392170D01*
X149982820Y-109685064D01*
G37*
G36*
X150053530Y-110250749D02*
G01*
X150654571Y-109649708D01*
X151785942Y-110781079D01*
X151184901Y-111382120D01*
X150053530Y-110250749D01*
G37*
G36*
X151785942Y-111700318D02*
G01*
X151078836Y-112407424D01*
X150018176Y-111346764D01*
X150725282Y-110639658D01*
X151785942Y-111700318D01*
G37*
G36*
X150902059Y-108765825D02*
G01*
X151326323Y-108341561D01*
X152033429Y-109048667D01*
X151609165Y-109472931D01*
X150902059Y-108765825D01*
G37*
G36*
X151290967Y-109013312D02*
G01*
X151892008Y-108412271D01*
X153023379Y-109543642D01*
X152422338Y-110144683D01*
X151290967Y-109013312D01*
G37*
G36*
X154048683Y-109437577D02*
G01*
X153341577Y-110144683D01*
X152280917Y-109084023D01*
X152988023Y-108376917D01*
X154048683Y-109437577D01*
G37*
D11*
X139679401Y-101466399D03*
X139679401Y-102966401D03*
X142320599Y-102966401D03*
X142320599Y-101466399D03*
D12*
X125300000Y-86998000D03*
X135300000Y-86998000D03*
G36*
G01*
X134025000Y-82610500D02*
X134025000Y-85185500D01*
G75*
G02*
X133937500Y-85273000I-87500J0D01*
G01*
X133762500Y-85273000D01*
G75*
G02*
X133675000Y-85185500I0J87500D01*
G01*
X133675000Y-82610500D01*
G75*
G02*
X133762500Y-82523000I87500J0D01*
G01*
X133937500Y-82523000D01*
G75*
G02*
X134025000Y-82610500I0J-87500D01*
G01*
G37*
G36*
G01*
X133325000Y-82610500D02*
X133325000Y-85185500D01*
G75*
G02*
X133237500Y-85273000I-87500J0D01*
G01*
X133062500Y-85273000D01*
G75*
G02*
X132975000Y-85185500I0J87500D01*
G01*
X132975000Y-82610500D01*
G75*
G02*
X133062500Y-82523000I87500J0D01*
G01*
X133237500Y-82523000D01*
G75*
G02*
X133325000Y-82610500I0J-87500D01*
G01*
G37*
G36*
G01*
X132625000Y-82610500D02*
X132625000Y-85185500D01*
G75*
G02*
X132537500Y-85273000I-87500J0D01*
G01*
X132362500Y-85273000D01*
G75*
G02*
X132275000Y-85185500I0J87500D01*
G01*
X132275000Y-82610500D01*
G75*
G02*
X132362500Y-82523000I87500J0D01*
G01*
X132537500Y-82523000D01*
G75*
G02*
X132625000Y-82610500I0J-87500D01*
G01*
G37*
G36*
G01*
X131925000Y-82610500D02*
X131925000Y-85185500D01*
G75*
G02*
X131837500Y-85273000I-87500J0D01*
G01*
X131662500Y-85273000D01*
G75*
G02*
X131575000Y-85185500I0J87500D01*
G01*
X131575000Y-82610500D01*
G75*
G02*
X131662500Y-82523000I87500J0D01*
G01*
X131837500Y-82523000D01*
G75*
G02*
X131925000Y-82610500I0J-87500D01*
G01*
G37*
G36*
G01*
X131225000Y-82610500D02*
X131225000Y-85185500D01*
G75*
G02*
X131137500Y-85273000I-87500J0D01*
G01*
X130962500Y-85273000D01*
G75*
G02*
X130875000Y-85185500I0J87500D01*
G01*
X130875000Y-82610500D01*
G75*
G02*
X130962500Y-82523000I87500J0D01*
G01*
X131137500Y-82523000D01*
G75*
G02*
X131225000Y-82610500I0J-87500D01*
G01*
G37*
G36*
G01*
X130525000Y-82610500D02*
X130525000Y-85185500D01*
G75*
G02*
X130437500Y-85273000I-87500J0D01*
G01*
X130262500Y-85273000D01*
G75*
G02*
X130175000Y-85185500I0J87500D01*
G01*
X130175000Y-82610500D01*
G75*
G02*
X130262500Y-82523000I87500J0D01*
G01*
X130437500Y-82523000D01*
G75*
G02*
X130525000Y-82610500I0J-87500D01*
G01*
G37*
G36*
G01*
X129825000Y-82610500D02*
X129825000Y-85185500D01*
G75*
G02*
X129737500Y-85273000I-87500J0D01*
G01*
X129562500Y-85273000D01*
G75*
G02*
X129475000Y-85185500I0J87500D01*
G01*
X129475000Y-82610500D01*
G75*
G02*
X129562500Y-82523000I87500J0D01*
G01*
X129737500Y-82523000D01*
G75*
G02*
X129825000Y-82610500I0J-87500D01*
G01*
G37*
G36*
G01*
X129125000Y-82610500D02*
X129125000Y-85185500D01*
G75*
G02*
X129037500Y-85273000I-87500J0D01*
G01*
X128862500Y-85273000D01*
G75*
G02*
X128775000Y-85185500I0J87500D01*
G01*
X128775000Y-82610500D01*
G75*
G02*
X128862500Y-82523000I87500J0D01*
G01*
X129037500Y-82523000D01*
G75*
G02*
X129125000Y-82610500I0J-87500D01*
G01*
G37*
G36*
G01*
X128425000Y-82610500D02*
X128425000Y-85185500D01*
G75*
G02*
X128337500Y-85273000I-87500J0D01*
G01*
X128162500Y-85273000D01*
G75*
G02*
X128075000Y-85185500I0J87500D01*
G01*
X128075000Y-82610500D01*
G75*
G02*
X128162500Y-82523000I87500J0D01*
G01*
X128337500Y-82523000D01*
G75*
G02*
X128425000Y-82610500I0J-87500D01*
G01*
G37*
G36*
G01*
X127725000Y-82610500D02*
X127725000Y-85185500D01*
G75*
G02*
X127637500Y-85273000I-87500J0D01*
G01*
X127462500Y-85273000D01*
G75*
G02*
X127375000Y-85185500I0J87500D01*
G01*
X127375000Y-82610500D01*
G75*
G02*
X127462500Y-82523000I87500J0D01*
G01*
X127637500Y-82523000D01*
G75*
G02*
X127725000Y-82610500I0J-87500D01*
G01*
G37*
G36*
G01*
X127025000Y-82610500D02*
X127025000Y-85185500D01*
G75*
G02*
X126937500Y-85273000I-87500J0D01*
G01*
X126762500Y-85273000D01*
G75*
G02*
X126675000Y-85185500I0J87500D01*
G01*
X126675000Y-82610500D01*
G75*
G02*
X126762500Y-82523000I87500J0D01*
G01*
X126937500Y-82523000D01*
G75*
G02*
X127025000Y-82610500I0J-87500D01*
G01*
G37*
G36*
G01*
X126325000Y-82610500D02*
X126325000Y-85185500D01*
G75*
G02*
X126237500Y-85273000I-87500J0D01*
G01*
X126062500Y-85273000D01*
G75*
G02*
X125975000Y-85185500I0J87500D01*
G01*
X125975000Y-82610500D01*
G75*
G02*
X126062500Y-82523000I87500J0D01*
G01*
X126237500Y-82523000D01*
G75*
G02*
X126325000Y-82610500I0J-87500D01*
G01*
G37*
G36*
X154563136Y-102024264D02*
G01*
X153856030Y-102731370D01*
X152795370Y-101670710D01*
X153502476Y-100963604D01*
X154563136Y-102024264D01*
G37*
G36*
X152795370Y-102589949D02*
G01*
X153396411Y-101988908D01*
X154527782Y-103120279D01*
X153926741Y-103721320D01*
X152795370Y-102589949D01*
G37*
G36*
X153467122Y-103403122D02*
G01*
X153891386Y-102978858D01*
X154598492Y-103685964D01*
X154174228Y-104110228D01*
X153467122Y-103403122D01*
G37*
G36*
X152300395Y-104287005D02*
G01*
X151593289Y-104994111D01*
X150532629Y-103933451D01*
X151239735Y-103226345D01*
X152300395Y-104287005D01*
G37*
G36*
X151557933Y-103827386D02*
G01*
X152158974Y-103226345D01*
X153290345Y-104357716D01*
X152689304Y-104958757D01*
X151557933Y-103827386D01*
G37*
G36*
X152547883Y-104322361D02*
G01*
X152972147Y-103898097D01*
X153679253Y-104605203D01*
X153254989Y-105029467D01*
X152547883Y-104322361D01*
G37*
G36*
X153962096Y-105736574D02*
G01*
X154386360Y-105312310D01*
X155093466Y-106019416D01*
X154669202Y-106443680D01*
X153962096Y-105736574D01*
G37*
G36*
X154032806Y-106302259D02*
G01*
X154633847Y-105701218D01*
X155765218Y-106832589D01*
X155164177Y-107433630D01*
X154032806Y-106302259D01*
G37*
G36*
X155765218Y-107751828D02*
G01*
X155058112Y-108458934D01*
X153997452Y-107398274D01*
X154704558Y-106691168D01*
X155765218Y-107751828D01*
G37*
G36*
X154881335Y-104817335D02*
G01*
X155305599Y-104393071D01*
X156012705Y-105100177D01*
X155588441Y-105524441D01*
X154881335Y-104817335D01*
G37*
G36*
X155270243Y-105064822D02*
G01*
X155871284Y-104463781D01*
X157002655Y-105595152D01*
X156401614Y-106196193D01*
X155270243Y-105064822D01*
G37*
G36*
X158027959Y-105489087D02*
G01*
X157320853Y-106196193D01*
X156260193Y-105135533D01*
X156967299Y-104428427D01*
X158027959Y-105489087D01*
G37*
D13*
X141750000Y-102216400D03*
X140250000Y-102216400D03*
G36*
G01*
X148113829Y-104509417D02*
X148467383Y-104862971D01*
G75*
G02*
X148467383Y-105181169I-159099J-159099D01*
G01*
X148149185Y-105499367D01*
G75*
G02*
X147830987Y-105499367I-159099J159099D01*
G01*
X147477433Y-105145813D01*
G75*
G02*
X147477433Y-104827615I159099J159099D01*
G01*
X147795631Y-104509417D01*
G75*
G02*
X148113829Y-104509417I159099J-159099D01*
G01*
G37*
G36*
G01*
X147017813Y-105605433D02*
X147371367Y-105958987D01*
G75*
G02*
X147371367Y-106277185I-159099J-159099D01*
G01*
X147053169Y-106595383D01*
G75*
G02*
X146734971Y-106595383I-159099J159099D01*
G01*
X146381417Y-106241829D01*
G75*
G02*
X146381417Y-105923631I159099J159099D01*
G01*
X146699615Y-105605433D01*
G75*
G02*
X147017813Y-105605433I159099J-159099D01*
G01*
G37*
G36*
X158536201Y-98071213D02*
G01*
X157829095Y-98778319D01*
X156768435Y-97717659D01*
X157475541Y-97010553D01*
X158536201Y-98071213D01*
G37*
G36*
X156768435Y-98636898D02*
G01*
X157369476Y-98035857D01*
X158500847Y-99167228D01*
X157899806Y-99768269D01*
X156768435Y-98636898D01*
G37*
G36*
X157440187Y-99450071D02*
G01*
X157864451Y-99025807D01*
X158571557Y-99732913D01*
X158147293Y-100157177D01*
X157440187Y-99450071D01*
G37*
G36*
X156273460Y-100333954D02*
G01*
X155566354Y-101041060D01*
X154505694Y-99980400D01*
X155212800Y-99273294D01*
X156273460Y-100333954D01*
G37*
G36*
X155530998Y-99874335D02*
G01*
X156132039Y-99273294D01*
X157263410Y-100404665D01*
X156662369Y-101005706D01*
X155530998Y-99874335D01*
G37*
G36*
X156520948Y-100369310D02*
G01*
X156945212Y-99945046D01*
X157652318Y-100652152D01*
X157228054Y-101076416D01*
X156520948Y-100369310D01*
G37*
G36*
X157935161Y-101783523D02*
G01*
X158359425Y-101359259D01*
X159066531Y-102066365D01*
X158642267Y-102490629D01*
X157935161Y-101783523D01*
G37*
G36*
X158005871Y-102349208D02*
G01*
X158606912Y-101748167D01*
X159738283Y-102879538D01*
X159137242Y-103480579D01*
X158005871Y-102349208D01*
G37*
G36*
X159738283Y-103798777D02*
G01*
X159031177Y-104505883D01*
X157970517Y-103445223D01*
X158677623Y-102738117D01*
X159738283Y-103798777D01*
G37*
G36*
X158854400Y-100864284D02*
G01*
X159278664Y-100440020D01*
X159985770Y-101147126D01*
X159561506Y-101571390D01*
X158854400Y-100864284D01*
G37*
G36*
X159243308Y-101111771D02*
G01*
X159844349Y-100510730D01*
X160975720Y-101642101D01*
X160374679Y-102243142D01*
X159243308Y-101111771D01*
G37*
G36*
X162001024Y-101536036D02*
G01*
X161293918Y-102243142D01*
X160233258Y-101182482D01*
X160940364Y-100475376D01*
X162001024Y-101536036D01*
G37*
G36*
G01*
X133575700Y-118457850D02*
X133575700Y-117945350D01*
G75*
G02*
X133794450Y-117726600I218750J0D01*
G01*
X134231950Y-117726600D01*
G75*
G02*
X134450700Y-117945350I0J-218750D01*
G01*
X134450700Y-118457850D01*
G75*
G02*
X134231950Y-118676600I-218750J0D01*
G01*
X133794450Y-118676600D01*
G75*
G02*
X133575700Y-118457850I0J218750D01*
G01*
G37*
G36*
G01*
X135150700Y-118457850D02*
X135150700Y-117945350D01*
G75*
G02*
X135369450Y-117726600I218750J0D01*
G01*
X135806950Y-117726600D01*
G75*
G02*
X136025700Y-117945350I0J-218750D01*
G01*
X136025700Y-118457850D01*
G75*
G02*
X135806950Y-118676600I-218750J0D01*
G01*
X135369450Y-118676600D01*
G75*
G02*
X135150700Y-118457850I0J218750D01*
G01*
G37*
D14*
X121399999Y-121249342D03*
X125900001Y-121249342D03*
X121399999Y-123399340D03*
X125900001Y-123399340D03*
D10*
X128925001Y-120533342D03*
X128925001Y-116033340D03*
X131074999Y-120533342D03*
X131074999Y-116033340D03*
G36*
X90761322Y-92098662D02*
G01*
X91256296Y-92593636D01*
X90195636Y-93654296D01*
X89700662Y-93159322D01*
X90761322Y-92098662D01*
G37*
G36*
X90973326Y-94431986D02*
G01*
X90478352Y-93937012D01*
X91539012Y-92876352D01*
X92033986Y-93371326D01*
X90973326Y-94431986D01*
G37*
G36*
X91751016Y-95209676D02*
G01*
X91256042Y-94714702D01*
X92316702Y-93654042D01*
X92811676Y-94149016D01*
X91751016Y-95209676D01*
G37*
G36*
X92528706Y-95987366D02*
G01*
X92033732Y-95492392D01*
X93094392Y-94431732D01*
X93589366Y-94926706D01*
X92528706Y-95987366D01*
G37*
G36*
X93305887Y-96764547D02*
G01*
X92810913Y-96269573D01*
X93871573Y-95208913D01*
X94366547Y-95703887D01*
X93305887Y-96764547D01*
G37*
G36*
X94084086Y-97542746D02*
G01*
X93589112Y-97047772D01*
X94649772Y-95987112D01*
X95144746Y-96482086D01*
X94084086Y-97542746D01*
G37*
G36*
X94861777Y-98320437D02*
G01*
X94366803Y-97825463D01*
X95427463Y-96764803D01*
X95922437Y-97259777D01*
X94861777Y-98320437D01*
G37*
G36*
X95639467Y-99098127D02*
G01*
X95144493Y-98603153D01*
X96205153Y-97542493D01*
X96700127Y-98037467D01*
X95639467Y-99098127D01*
G37*
G36*
X105538962Y-89198632D02*
G01*
X105043988Y-88703658D01*
X106104648Y-87642998D01*
X106599622Y-88137972D01*
X105538962Y-89198632D01*
G37*
G36*
X104761272Y-88420942D02*
G01*
X104266298Y-87925968D01*
X105326958Y-86865308D01*
X105821932Y-87360282D01*
X104761272Y-88420942D01*
G37*
G36*
X103983581Y-87643252D02*
G01*
X103488607Y-87148278D01*
X104549267Y-86087618D01*
X105044241Y-86582592D01*
X103983581Y-87643252D01*
G37*
G36*
X103205382Y-86865052D02*
G01*
X102710408Y-86370078D01*
X103771068Y-85309418D01*
X104266042Y-85804392D01*
X103205382Y-86865052D01*
G37*
G36*
X102428201Y-86087871D02*
G01*
X101933227Y-85592897D01*
X102993887Y-84532237D01*
X103488861Y-85027211D01*
X102428201Y-86087871D01*
G37*
G36*
X101650511Y-85310181D02*
G01*
X101155537Y-84815207D01*
X102216197Y-83754547D01*
X102711171Y-84249521D01*
X101650511Y-85310181D01*
G37*
G36*
X100872821Y-84532491D02*
G01*
X100377847Y-84037517D01*
X101438507Y-82976857D01*
X101933481Y-83471831D01*
X100872821Y-84532491D01*
G37*
G36*
X100095130Y-83754801D02*
G01*
X99600156Y-83259827D01*
X100660816Y-82199167D01*
X101155790Y-82694141D01*
X100095130Y-83754801D01*
G37*
D15*
X94401903Y-90082389D03*
X95250431Y-90930917D03*
X96098959Y-91779445D03*
X96947487Y-92627973D03*
X97796016Y-93476501D03*
X98644544Y-94325029D03*
X99493072Y-95173557D03*
X95462563Y-89021728D03*
X96311091Y-89870257D03*
X97159619Y-90718785D03*
X98008148Y-91567313D03*
X98856676Y-92415841D03*
X99705204Y-93264369D03*
X100553732Y-94112897D03*
X96523223Y-87961068D03*
X97371751Y-88809596D03*
X98220280Y-89658124D03*
X99068808Y-90506653D03*
X99917336Y-91355181D03*
X100765864Y-92203709D03*
X101614392Y-93052237D03*
X97583883Y-86900408D03*
X98432412Y-87748936D03*
X99280940Y-88597464D03*
X100129468Y-89445992D03*
X100977996Y-90294521D03*
X101826524Y-91143049D03*
X102675052Y-91991577D03*
X98644544Y-85839748D03*
X99493072Y-86688276D03*
X100341600Y-87536804D03*
X101190128Y-88385332D03*
X102038656Y-89233860D03*
X102887184Y-90082389D03*
X103735712Y-90930917D03*
G36*
X92192194Y-90524330D02*
G01*
X91131534Y-89463670D01*
X92192194Y-88403010D01*
X93252854Y-89463670D01*
X92192194Y-90524330D01*
G37*
G36*
X93783185Y-88933340D02*
G01*
X92722525Y-87872680D01*
X93783185Y-86812020D01*
X94843845Y-87872680D01*
X93783185Y-88933340D01*
G37*
G36*
X95374175Y-87342350D02*
G01*
X94313515Y-86281690D01*
X95374175Y-85221030D01*
X96434835Y-86281690D01*
X95374175Y-87342350D01*
G37*
G36*
X96965165Y-85751359D02*
G01*
X95904505Y-84690699D01*
X96965165Y-83630039D01*
X98025825Y-84690699D01*
X96965165Y-85751359D01*
G37*
X103099316Y-88173200D03*
X103947845Y-89021728D03*
G36*
X104796373Y-90294521D02*
G01*
X104372109Y-89870257D01*
X104796373Y-89445993D01*
X105220637Y-89870257D01*
X104796373Y-90294521D01*
G37*
X93341243Y-91143049D03*
X94189771Y-91991577D03*
X95038299Y-92840105D03*
X95886827Y-93688633D03*
X96735355Y-94537161D03*
X97583883Y-95385689D03*
X98432412Y-96234218D03*
D16*
X110516000Y-79568000D03*
X111532000Y-84648000D03*
X109500000Y-84648000D03*
D17*
X109881000Y-80838000D03*
X111151000Y-80838000D03*
X109881000Y-82108000D03*
X111151000Y-82108000D03*
X109881000Y-83378000D03*
X111151000Y-83378000D03*
D18*
X110712563Y-66826237D03*
X105904237Y-71634563D03*
G36*
X110005456Y-68099029D02*
G01*
X110712563Y-67391922D01*
X111843934Y-68523293D01*
X111136827Y-69230400D01*
X110005456Y-68099029D01*
G37*
G36*
X108237689Y-69866796D02*
G01*
X108944796Y-69159689D01*
X110076167Y-70291060D01*
X109369060Y-70998167D01*
X108237689Y-69866796D01*
G37*
G36*
X106469922Y-71634563D02*
G01*
X107177029Y-70927456D01*
X108308400Y-72058827D01*
X107601293Y-72765934D01*
X106469922Y-71634563D01*
G37*
G36*
X108308400Y-66401973D02*
G01*
X109015507Y-65694866D01*
X110146878Y-66826237D01*
X109439771Y-67533344D01*
X108308400Y-66401973D01*
G37*
G36*
X106540633Y-68169740D02*
G01*
X107247740Y-67462633D01*
X108379111Y-68594004D01*
X107672004Y-69301111D01*
X106540633Y-68169740D01*
G37*
G36*
X104772866Y-69937507D02*
G01*
X105479973Y-69230400D01*
X106611344Y-70361771D01*
X105904237Y-71068878D01*
X104772866Y-69937507D01*
G37*
D12*
X110713586Y-66822326D03*
X105905260Y-71630652D03*
G36*
X111562115Y-68095118D02*
G01*
X113329882Y-69862885D01*
X112481353Y-70711414D01*
X110713586Y-68943647D01*
X111562115Y-68095118D01*
G37*
G36*
X109794348Y-69862885D02*
G01*
X111562115Y-71630652D01*
X110713586Y-72479181D01*
X108945819Y-70711414D01*
X109794348Y-69862885D01*
G37*
G36*
X108026581Y-71630652D02*
G01*
X109794348Y-73398419D01*
X108945819Y-74246948D01*
X107178052Y-72479181D01*
X108026581Y-71630652D01*
G37*
G36*
G01*
X155937029Y-96737017D02*
X156290583Y-97090571D01*
G75*
G02*
X156290583Y-97408769I-159099J-159099D01*
G01*
X155972385Y-97726967D01*
G75*
G02*
X155654187Y-97726967I-159099J159099D01*
G01*
X155300633Y-97373413D01*
G75*
G02*
X155300633Y-97055215I159099J159099D01*
G01*
X155618831Y-96737017D01*
G75*
G02*
X155937029Y-96737017I159099J-159099D01*
G01*
G37*
G36*
G01*
X154841013Y-97833033D02*
X155194567Y-98186587D01*
G75*
G02*
X155194567Y-98504785I-159099J-159099D01*
G01*
X154876369Y-98822983D01*
G75*
G02*
X154558171Y-98822983I-159099J159099D01*
G01*
X154204617Y-98469429D01*
G75*
G02*
X154204617Y-98151231I159099J159099D01*
G01*
X154522815Y-97833033D01*
G75*
G02*
X154841013Y-97833033I159099J-159099D01*
G01*
G37*
D14*
X134099999Y-121249342D03*
X138600001Y-121249342D03*
X134099999Y-123399340D03*
X138600001Y-123399340D03*
D19*
X119750000Y-101041400D03*
X119250000Y-101041400D03*
X118750000Y-101041400D03*
X118250000Y-101041400D03*
X118250000Y-103391400D03*
X118750000Y-103391400D03*
X119250000Y-103391400D03*
X119750000Y-103391400D03*
G36*
X118150000Y-102716400D02*
G01*
X118150000Y-101716400D01*
X119550000Y-101716400D01*
X119850000Y-102016400D01*
X119850000Y-102716400D01*
X118150000Y-102716400D01*
G37*
G36*
G01*
X128525000Y-101553900D02*
X128525000Y-101378900D01*
G75*
G02*
X128612500Y-101291400I87500J0D01*
G01*
X129062500Y-101291400D01*
G75*
G02*
X129150000Y-101378900I0J-87500D01*
G01*
X129150000Y-101553900D01*
G75*
G02*
X129062500Y-101641400I-87500J0D01*
G01*
X128612500Y-101641400D01*
G75*
G02*
X128525000Y-101553900I0J87500D01*
G01*
G37*
G36*
G01*
X128525000Y-102053900D02*
X128525000Y-101878900D01*
G75*
G02*
X128612500Y-101791400I87500J0D01*
G01*
X129062500Y-101791400D01*
G75*
G02*
X129150000Y-101878900I0J-87500D01*
G01*
X129150000Y-102053900D01*
G75*
G02*
X129062500Y-102141400I-87500J0D01*
G01*
X128612500Y-102141400D01*
G75*
G02*
X128525000Y-102053900I0J87500D01*
G01*
G37*
G36*
G01*
X128525000Y-102553900D02*
X128525000Y-102378900D01*
G75*
G02*
X128612500Y-102291400I87500J0D01*
G01*
X129062500Y-102291400D01*
G75*
G02*
X129150000Y-102378900I0J-87500D01*
G01*
X129150000Y-102553900D01*
G75*
G02*
X129062500Y-102641400I-87500J0D01*
G01*
X128612500Y-102641400D01*
G75*
G02*
X128525000Y-102553900I0J87500D01*
G01*
G37*
G36*
G01*
X128525000Y-103053900D02*
X128525000Y-102878900D01*
G75*
G02*
X128612500Y-102791400I87500J0D01*
G01*
X129062500Y-102791400D01*
G75*
G02*
X129150000Y-102878900I0J-87500D01*
G01*
X129150000Y-103053900D01*
G75*
G02*
X129062500Y-103141400I-87500J0D01*
G01*
X128612500Y-103141400D01*
G75*
G02*
X128525000Y-103053900I0J87500D01*
G01*
G37*
G36*
G01*
X129325000Y-103353900D02*
X129325000Y-102903900D01*
G75*
G02*
X129412500Y-102816400I87500J0D01*
G01*
X129587500Y-102816400D01*
G75*
G02*
X129675000Y-102903900I0J-87500D01*
G01*
X129675000Y-103353900D01*
G75*
G02*
X129587500Y-103441400I-87500J0D01*
G01*
X129412500Y-103441400D01*
G75*
G02*
X129325000Y-103353900I0J87500D01*
G01*
G37*
G36*
G01*
X129825000Y-103353900D02*
X129825000Y-102903900D01*
G75*
G02*
X129912500Y-102816400I87500J0D01*
G01*
X130087500Y-102816400D01*
G75*
G02*
X130175000Y-102903900I0J-87500D01*
G01*
X130175000Y-103353900D01*
G75*
G02*
X130087500Y-103441400I-87500J0D01*
G01*
X129912500Y-103441400D01*
G75*
G02*
X129825000Y-103353900I0J87500D01*
G01*
G37*
G36*
G01*
X130325000Y-103353900D02*
X130325000Y-102903900D01*
G75*
G02*
X130412500Y-102816400I87500J0D01*
G01*
X130587500Y-102816400D01*
G75*
G02*
X130675000Y-102903900I0J-87500D01*
G01*
X130675000Y-103353900D01*
G75*
G02*
X130587500Y-103441400I-87500J0D01*
G01*
X130412500Y-103441400D01*
G75*
G02*
X130325000Y-103353900I0J87500D01*
G01*
G37*
G36*
G01*
X130850000Y-103053900D02*
X130850000Y-102878900D01*
G75*
G02*
X130937500Y-102791400I87500J0D01*
G01*
X131387500Y-102791400D01*
G75*
G02*
X131475000Y-102878900I0J-87500D01*
G01*
X131475000Y-103053900D01*
G75*
G02*
X131387500Y-103141400I-87500J0D01*
G01*
X130937500Y-103141400D01*
G75*
G02*
X130850000Y-103053900I0J87500D01*
G01*
G37*
G36*
G01*
X130850000Y-102553900D02*
X130850000Y-102378900D01*
G75*
G02*
X130937500Y-102291400I87500J0D01*
G01*
X131387500Y-102291400D01*
G75*
G02*
X131475000Y-102378900I0J-87500D01*
G01*
X131475000Y-102553900D01*
G75*
G02*
X131387500Y-102641400I-87500J0D01*
G01*
X130937500Y-102641400D01*
G75*
G02*
X130850000Y-102553900I0J87500D01*
G01*
G37*
G36*
G01*
X130850000Y-102053900D02*
X130850000Y-101878900D01*
G75*
G02*
X130937500Y-101791400I87500J0D01*
G01*
X131387500Y-101791400D01*
G75*
G02*
X131475000Y-101878900I0J-87500D01*
G01*
X131475000Y-102053900D01*
G75*
G02*
X131387500Y-102141400I-87500J0D01*
G01*
X130937500Y-102141400D01*
G75*
G02*
X130850000Y-102053900I0J87500D01*
G01*
G37*
G36*
G01*
X130850000Y-101553900D02*
X130850000Y-101378900D01*
G75*
G02*
X130937500Y-101291400I87500J0D01*
G01*
X131387500Y-101291400D01*
G75*
G02*
X131475000Y-101378900I0J-87500D01*
G01*
X131475000Y-101553900D01*
G75*
G02*
X131387500Y-101641400I-87500J0D01*
G01*
X130937500Y-101641400D01*
G75*
G02*
X130850000Y-101553900I0J87500D01*
G01*
G37*
G36*
G01*
X130325000Y-101528900D02*
X130325000Y-101078900D01*
G75*
G02*
X130412500Y-100991400I87500J0D01*
G01*
X130587500Y-100991400D01*
G75*
G02*
X130675000Y-101078900I0J-87500D01*
G01*
X130675000Y-101528900D01*
G75*
G02*
X130587500Y-101616400I-87500J0D01*
G01*
X130412500Y-101616400D01*
G75*
G02*
X130325000Y-101528900I0J87500D01*
G01*
G37*
G36*
G01*
X129825000Y-101528900D02*
X129825000Y-101078900D01*
G75*
G02*
X129912500Y-100991400I87500J0D01*
G01*
X130087500Y-100991400D01*
G75*
G02*
X130175000Y-101078900I0J-87500D01*
G01*
X130175000Y-101528900D01*
G75*
G02*
X130087500Y-101616400I-87500J0D01*
G01*
X129912500Y-101616400D01*
G75*
G02*
X129825000Y-101528900I0J87500D01*
G01*
G37*
G36*
G01*
X129325000Y-101528900D02*
X129325000Y-101078900D01*
G75*
G02*
X129412500Y-100991400I87500J0D01*
G01*
X129587500Y-100991400D01*
G75*
G02*
X129675000Y-101078900I0J-87500D01*
G01*
X129675000Y-101528900D01*
G75*
G02*
X129587500Y-101616400I-87500J0D01*
G01*
X129412500Y-101616400D01*
G75*
G02*
X129325000Y-101528900I0J87500D01*
G01*
G37*
G36*
X116280256Y-119114543D02*
G01*
X115078174Y-117912461D01*
X116280256Y-116710379D01*
X117482338Y-117912461D01*
X116280256Y-119114543D01*
G37*
G36*
G01*
X117475266Y-116717451D02*
X117475266Y-116717451D01*
G75*
G02*
X117475266Y-115515369I601041J601041D01*
G01*
X117475266Y-115515369D01*
G75*
G02*
X118677348Y-115515369I601041J-601041D01*
G01*
X118677348Y-115515369D01*
G75*
G02*
X118677348Y-116717451I-601041J-601041D01*
G01*
X118677348Y-116717451D01*
G75*
G02*
X117475266Y-116717451I-601041J601041D01*
G01*
G37*
G36*
G01*
X113883164Y-116717451D02*
X113883164Y-116717451D01*
G75*
G02*
X113883164Y-115515369I601041J601041D01*
G01*
X113883164Y-115515369D01*
G75*
G02*
X115085246Y-115515369I601041J-601041D01*
G01*
X115085246Y-115515369D01*
G75*
G02*
X115085246Y-116717451I-601041J-601041D01*
G01*
X115085246Y-116717451D01*
G75*
G02*
X113883164Y-116717451I-601041J601041D01*
G01*
G37*
G36*
G01*
X115679215Y-114921400D02*
X115679215Y-114921400D01*
G75*
G02*
X115679215Y-113719318I601041J601041D01*
G01*
X115679215Y-113719318D01*
G75*
G02*
X116881297Y-113719318I601041J-601041D01*
G01*
X116881297Y-113719318D01*
G75*
G02*
X116881297Y-114921400I-601041J-601041D01*
G01*
X116881297Y-114921400D01*
G75*
G02*
X115679215Y-114921400I-601041J601041D01*
G01*
G37*
G36*
G01*
X112087113Y-114921400D02*
X112087113Y-114921400D01*
G75*
G02*
X112087113Y-113719318I601041J601041D01*
G01*
X112087113Y-113719318D01*
G75*
G02*
X113289195Y-113719318I601041J-601041D01*
G01*
X113289195Y-113719318D01*
G75*
G02*
X113289195Y-114921400I-601041J-601041D01*
G01*
X113289195Y-114921400D01*
G75*
G02*
X112087113Y-114921400I-601041J601041D01*
G01*
G37*
G36*
G01*
X113883164Y-113125348D02*
X113883164Y-113125348D01*
G75*
G02*
X113883164Y-111923266I601041J601041D01*
G01*
X113883164Y-111923266D01*
G75*
G02*
X115085246Y-111923266I601041J-601041D01*
G01*
X115085246Y-111923266D01*
G75*
G02*
X115085246Y-113125348I-601041J-601041D01*
G01*
X115085246Y-113125348D01*
G75*
G02*
X113883164Y-113125348I-601041J601041D01*
G01*
G37*
G36*
G01*
X110291061Y-113125348D02*
X110291061Y-113125348D01*
G75*
G02*
X110291061Y-111923266I601041J601041D01*
G01*
X110291061Y-111923266D01*
G75*
G02*
X111493143Y-111923266I601041J-601041D01*
G01*
X111493143Y-111923266D01*
G75*
G02*
X111493143Y-113125348I-601041J-601041D01*
G01*
X111493143Y-113125348D01*
G75*
G02*
X110291061Y-113125348I-601041J601041D01*
G01*
G37*
G36*
G01*
X112087113Y-111329297D02*
X112087113Y-111329297D01*
G75*
G02*
X112087113Y-110127215I601041J601041D01*
G01*
X112087113Y-110127215D01*
G75*
G02*
X113289195Y-110127215I601041J-601041D01*
G01*
X113289195Y-110127215D01*
G75*
G02*
X113289195Y-111329297I-601041J-601041D01*
G01*
X113289195Y-111329297D01*
G75*
G02*
X112087113Y-111329297I-601041J601041D01*
G01*
G37*
G36*
G01*
X108495010Y-111329297D02*
X108495010Y-111329297D01*
G75*
G02*
X108495010Y-110127215I601041J601041D01*
G01*
X108495010Y-110127215D01*
G75*
G02*
X109697092Y-110127215I601041J-601041D01*
G01*
X109697092Y-110127215D01*
G75*
G02*
X109697092Y-111329297I-601041J-601041D01*
G01*
X109697092Y-111329297D01*
G75*
G02*
X108495010Y-111329297I-601041J601041D01*
G01*
G37*
G36*
G01*
X110291061Y-109533246D02*
X110291061Y-109533246D01*
G75*
G02*
X110291061Y-108331164I601041J601041D01*
G01*
X110291061Y-108331164D01*
G75*
G02*
X111493143Y-108331164I601041J-601041D01*
G01*
X111493143Y-108331164D01*
G75*
G02*
X111493143Y-109533246I-601041J-601041D01*
G01*
X111493143Y-109533246D01*
G75*
G02*
X110291061Y-109533246I-601041J601041D01*
G01*
G37*
G36*
G01*
X106698959Y-109533246D02*
X106698959Y-109533246D01*
G75*
G02*
X106698959Y-108331164I601041J601041D01*
G01*
X106698959Y-108331164D01*
G75*
G02*
X107901041Y-108331164I601041J-601041D01*
G01*
X107901041Y-108331164D01*
G75*
G02*
X107901041Y-109533246I-601041J-601041D01*
G01*
X107901041Y-109533246D01*
G75*
G02*
X106698959Y-109533246I-601041J601041D01*
G01*
G37*
G36*
G01*
X108495010Y-107737195D02*
X108495010Y-107737195D01*
G75*
G02*
X108495010Y-106535113I601041J601041D01*
G01*
X108495010Y-106535113D01*
G75*
G02*
X109697092Y-106535113I601041J-601041D01*
G01*
X109697092Y-106535113D01*
G75*
G02*
X109697092Y-107737195I-601041J-601041D01*
G01*
X109697092Y-107737195D01*
G75*
G02*
X108495010Y-107737195I-601041J601041D01*
G01*
G37*
G36*
G01*
X104902908Y-107737195D02*
X104902908Y-107737195D01*
G75*
G02*
X104902908Y-106535113I601041J601041D01*
G01*
X104902908Y-106535113D01*
G75*
G02*
X106104990Y-106535113I601041J-601041D01*
G01*
X106104990Y-106535113D01*
G75*
G02*
X106104990Y-107737195I-601041J-601041D01*
G01*
X106104990Y-107737195D01*
G75*
G02*
X104902908Y-107737195I-601041J601041D01*
G01*
G37*
G36*
G01*
X106698959Y-105941143D02*
X106698959Y-105941143D01*
G75*
G02*
X106698959Y-104739061I601041J601041D01*
G01*
X106698959Y-104739061D01*
G75*
G02*
X107901041Y-104739061I601041J-601041D01*
G01*
X107901041Y-104739061D01*
G75*
G02*
X107901041Y-105941143I-601041J-601041D01*
G01*
X107901041Y-105941143D01*
G75*
G02*
X106698959Y-105941143I-601041J601041D01*
G01*
G37*
G36*
G01*
X103106856Y-105941143D02*
X103106856Y-105941143D01*
G75*
G02*
X103106856Y-104739061I601041J601041D01*
G01*
X103106856Y-104739061D01*
G75*
G02*
X104308938Y-104739061I601041J-601041D01*
G01*
X104308938Y-104739061D01*
G75*
G02*
X104308938Y-105941143I-601041J-601041D01*
G01*
X104308938Y-105941143D01*
G75*
G02*
X103106856Y-105941143I-601041J601041D01*
G01*
G37*
G36*
G01*
X104902908Y-104145092D02*
X104902908Y-104145092D01*
G75*
G02*
X104902908Y-102943010I601041J601041D01*
G01*
X104902908Y-102943010D01*
G75*
G02*
X106104990Y-102943010I601041J-601041D01*
G01*
X106104990Y-102943010D01*
G75*
G02*
X106104990Y-104145092I-601041J-601041D01*
G01*
X106104990Y-104145092D01*
G75*
G02*
X104902908Y-104145092I-601041J601041D01*
G01*
G37*
G36*
G01*
X101310805Y-104145092D02*
X101310805Y-104145092D01*
G75*
G02*
X101310805Y-102943010I601041J601041D01*
G01*
X101310805Y-102943010D01*
G75*
G02*
X102512887Y-102943010I601041J-601041D01*
G01*
X102512887Y-102943010D01*
G75*
G02*
X102512887Y-104145092I-601041J-601041D01*
G01*
X102512887Y-104145092D01*
G75*
G02*
X101310805Y-104145092I-601041J601041D01*
G01*
G37*
G36*
G01*
X103106856Y-102349041D02*
X103106856Y-102349041D01*
G75*
G02*
X103106856Y-101146959I601041J601041D01*
G01*
X103106856Y-101146959D01*
G75*
G02*
X104308938Y-101146959I601041J-601041D01*
G01*
X104308938Y-101146959D01*
G75*
G02*
X104308938Y-102349041I-601041J-601041D01*
G01*
X104308938Y-102349041D01*
G75*
G02*
X103106856Y-102349041I-601041J601041D01*
G01*
G37*
D15*
X107771184Y-72815149D03*
X111858261Y-68728072D03*
G36*
G01*
X103549757Y-70616047D02*
X103549757Y-70616047D01*
G75*
G02*
X104186153Y-70616047I318198J-318198D01*
G01*
X104751839Y-71181733D01*
G75*
G02*
X104751839Y-71818129I-318198J-318198D01*
G01*
X104751839Y-71818129D01*
G75*
G02*
X104115443Y-71818129I-318198J318198D01*
G01*
X103549757Y-71252443D01*
G75*
G02*
X103549757Y-70616047I318198J318198D01*
G01*
G37*
G36*
G01*
X106392326Y-73458616D02*
X106392326Y-73458616D01*
G75*
G02*
X107028722Y-73458616I318198J-318198D01*
G01*
X107806540Y-74236434D01*
G75*
G02*
X107806540Y-74872830I-318198J-318198D01*
G01*
X107806540Y-74872830D01*
G75*
G02*
X107170144Y-74872830I-318198J318198D01*
G01*
X106392326Y-74095012D01*
G75*
G02*
X106392326Y-73458616I318198J318198D01*
G01*
G37*
G36*
G01*
X109659159Y-64506645D02*
X109659159Y-64506645D01*
G75*
G02*
X110295555Y-64506645I318198J-318198D01*
G01*
X110861241Y-65072331D01*
G75*
G02*
X110861241Y-65708727I-318198J-318198D01*
G01*
X110861241Y-65708727D01*
G75*
G02*
X110224845Y-65708727I-318198J318198D01*
G01*
X109659159Y-65143041D01*
G75*
G02*
X109659159Y-64506645I318198J318198D01*
G01*
G37*
G36*
G01*
X112501728Y-67349214D02*
X112501728Y-67349214D01*
G75*
G02*
X113138124Y-67349214I318198J-318198D01*
G01*
X113915942Y-68127032D01*
G75*
G02*
X113915942Y-68763428I-318198J-318198D01*
G01*
X113915942Y-68763428D01*
G75*
G02*
X113279546Y-68763428I-318198J318198D01*
G01*
X112501728Y-67985610D01*
G75*
G02*
X112501728Y-67349214I318198J318198D01*
G01*
G37*
M02*
