G04 #@! TF.GenerationSoftware,KiCad,Pcbnew,7.0.8-7.0.8~ubuntu23.04.1*
G04 #@! TF.CreationDate,2023-11-14T21:47:51+00:00*
G04 #@! TF.ProjectId,demo-badge-2023,64656d6f-2d62-4616-9467-652d32303233,1*
G04 #@! TF.SameCoordinates,Original*
G04 #@! TF.FileFunction,Legend,Top*
G04 #@! TF.FilePolarity,Positive*
%FSLAX46Y46*%
G04 Gerber Fmt 4.6, Leading zero omitted, Abs format (unit mm)*
G04 Created by KiCad (PCBNEW 7.0.8-7.0.8~ubuntu23.04.1) date 2023-11-14 21:47:51*
%MOMM*%
%LPD*%
G01*
G04 APERTURE LIST*
%ADD10C,0.200000*%
%ADD11C,0.300000*%
%ADD12C,0.150000*%
%ADD13C,0.120000*%
%ADD14C,0.100000*%
%ADD15C,0.127000*%
%ADD16R,0.711200X0.990600*%
%ADD17R,0.558800X0.889000*%
%ADD18C,1.000000*%
%ADD19R,0.800000X0.800000*%
%ADD20R,0.990600X0.711200*%
%ADD21C,0.600000*%
%ADD22C,0.990600*%
%ADD23C,0.787400*%
%ADD24C,0.900000*%
%ADD25R,0.250000X0.550000*%
G04 APERTURE END LIST*
D10*
X99672792Y-74380166D02*
X99043130Y-74269049D01*
X99228325Y-74824633D02*
X98450507Y-74046816D01*
X98450507Y-74046816D02*
X98746819Y-73750504D01*
X98746819Y-73750504D02*
X98857935Y-73713465D01*
X98857935Y-73713465D02*
X98932013Y-73713465D01*
X98932013Y-73713465D02*
X99043130Y-73750504D01*
X99043130Y-73750504D02*
X99154247Y-73861621D01*
X99154247Y-73861621D02*
X99191286Y-73972738D01*
X99191286Y-73972738D02*
X99191286Y-74046816D01*
X99191286Y-74046816D02*
X99154247Y-74157932D01*
X99154247Y-74157932D02*
X98857935Y-74454244D01*
X99598714Y-73639387D02*
X99857986Y-73380115D01*
X100376531Y-73676426D02*
X100006142Y-74046816D01*
X100006142Y-74046816D02*
X99228325Y-73268998D01*
X99228325Y-73268998D02*
X99598714Y-72898609D01*
X100635804Y-73343076D02*
X100783959Y-73268998D01*
X100783959Y-73268998D02*
X100969154Y-73083803D01*
X100969154Y-73083803D02*
X101006193Y-72972687D01*
X101006193Y-72972687D02*
X101006193Y-72898609D01*
X101006193Y-72898609D02*
X100969154Y-72787492D01*
X100969154Y-72787492D02*
X100895076Y-72713414D01*
X100895076Y-72713414D02*
X100783959Y-72676375D01*
X100783959Y-72676375D02*
X100709882Y-72676375D01*
X100709882Y-72676375D02*
X100598765Y-72713414D01*
X100598765Y-72713414D02*
X100413570Y-72824531D01*
X100413570Y-72824531D02*
X100302453Y-72861570D01*
X100302453Y-72861570D02*
X100228375Y-72861570D01*
X100228375Y-72861570D02*
X100117259Y-72824531D01*
X100117259Y-72824531D02*
X100043181Y-72750453D01*
X100043181Y-72750453D02*
X100006142Y-72639336D01*
X100006142Y-72639336D02*
X100006142Y-72565259D01*
X100006142Y-72565259D02*
X100043181Y-72454142D01*
X100043181Y-72454142D02*
X100228375Y-72268947D01*
X100228375Y-72268947D02*
X100376531Y-72194869D01*
X101043232Y-72194869D02*
X101302504Y-71935597D01*
X101821049Y-72231908D02*
X101450660Y-72602297D01*
X101450660Y-72602297D02*
X100672843Y-71824480D01*
X100672843Y-71824480D02*
X101043232Y-71454091D01*
X101265465Y-71231857D02*
X101709932Y-70787390D01*
X102265516Y-71787441D02*
X101487699Y-71009624D01*
X107833883Y-64663439D02*
X107982039Y-64515284D01*
X107982039Y-64515284D02*
X108093156Y-64478245D01*
X108093156Y-64478245D02*
X108241311Y-64478245D01*
X108241311Y-64478245D02*
X108426506Y-64589362D01*
X108426506Y-64589362D02*
X108685779Y-64848634D01*
X108685779Y-64848634D02*
X108796895Y-65033829D01*
X108796895Y-65033829D02*
X108796895Y-65181984D01*
X108796895Y-65181984D02*
X108759856Y-65293101D01*
X108759856Y-65293101D02*
X108611701Y-65441257D01*
X108611701Y-65441257D02*
X108500584Y-65478296D01*
X108500584Y-65478296D02*
X108352428Y-65478296D01*
X108352428Y-65478296D02*
X108167234Y-65367179D01*
X108167234Y-65367179D02*
X107907961Y-65107907D01*
X107907961Y-65107907D02*
X107796844Y-64922712D01*
X107796844Y-64922712D02*
X107796844Y-64774556D01*
X107796844Y-64774556D02*
X107833883Y-64663439D01*
X109130246Y-64107855D02*
X108870973Y-64367128D01*
X109278401Y-64774556D02*
X108500584Y-63996739D01*
X108500584Y-63996739D02*
X108870973Y-63626349D01*
X109796946Y-63441155D02*
X109537674Y-63700427D01*
X109945102Y-64107856D02*
X109167284Y-63330038D01*
X109167284Y-63330038D02*
X109537674Y-62959649D01*
X98822419Y-99878253D02*
X98044601Y-99100435D01*
X98044601Y-99100435D02*
X98859458Y-99396747D01*
X98859458Y-99396747D02*
X98563146Y-98581890D01*
X98563146Y-98581890D02*
X99340964Y-99359708D01*
X99711353Y-98989318D02*
X99192808Y-98470773D01*
X98933536Y-98211501D02*
X98933536Y-98285579D01*
X98933536Y-98285579D02*
X99007614Y-98285579D01*
X99007614Y-98285579D02*
X99007614Y-98211501D01*
X99007614Y-98211501D02*
X98933536Y-98211501D01*
X98933536Y-98211501D02*
X99007614Y-98285579D01*
X100378054Y-98248539D02*
X100341015Y-98359656D01*
X100341015Y-98359656D02*
X100192860Y-98507812D01*
X100192860Y-98507812D02*
X100081743Y-98544851D01*
X100081743Y-98544851D02*
X100007665Y-98544851D01*
X100007665Y-98544851D02*
X99896548Y-98507812D01*
X99896548Y-98507812D02*
X99674315Y-98285578D01*
X99674315Y-98285578D02*
X99637276Y-98174462D01*
X99637276Y-98174462D02*
X99637276Y-98100384D01*
X99637276Y-98100384D02*
X99674315Y-97989267D01*
X99674315Y-97989267D02*
X99822470Y-97841111D01*
X99822470Y-97841111D02*
X99933587Y-97804072D01*
X100748443Y-97952228D02*
X100229898Y-97433683D01*
X100378054Y-97581839D02*
X100341015Y-97470722D01*
X100341015Y-97470722D02*
X100341015Y-97396644D01*
X100341015Y-97396644D02*
X100378054Y-97285527D01*
X100378054Y-97285527D02*
X100452132Y-97211450D01*
X101341066Y-97359606D02*
X101229949Y-97396644D01*
X101229949Y-97396644D02*
X101155871Y-97396644D01*
X101155871Y-97396644D02*
X101044755Y-97359606D01*
X101044755Y-97359606D02*
X100822521Y-97137372D01*
X100822521Y-97137372D02*
X100785482Y-97026255D01*
X100785482Y-97026255D02*
X100785482Y-96952177D01*
X100785482Y-96952177D02*
X100822521Y-96841061D01*
X100822521Y-96841061D02*
X100933638Y-96729944D01*
X100933638Y-96729944D02*
X101044755Y-96692905D01*
X101044755Y-96692905D02*
X101118832Y-96692905D01*
X101118832Y-96692905D02*
X101229949Y-96729944D01*
X101229949Y-96729944D02*
X101452183Y-96952177D01*
X101452183Y-96952177D02*
X101489222Y-97063294D01*
X101489222Y-97063294D02*
X101489222Y-97137372D01*
X101489222Y-97137372D02*
X101452183Y-97248489D01*
X101452183Y-97248489D02*
X101341066Y-97359606D01*
X102230000Y-96396594D02*
X102192961Y-96507710D01*
X102192961Y-96507710D02*
X102044806Y-96655866D01*
X102044806Y-96655866D02*
X101933689Y-96692905D01*
X101933689Y-96692905D02*
X101859611Y-96692905D01*
X101859611Y-96692905D02*
X101748494Y-96655866D01*
X101748494Y-96655866D02*
X101526261Y-96433632D01*
X101526261Y-96433632D02*
X101489222Y-96322516D01*
X101489222Y-96322516D02*
X101489222Y-96248438D01*
X101489222Y-96248438D02*
X101526261Y-96137321D01*
X101526261Y-96137321D02*
X101674416Y-95989165D01*
X101674416Y-95989165D02*
X101785533Y-95952126D01*
X102711506Y-95989165D02*
X102600389Y-96026204D01*
X102600389Y-96026204D02*
X102526311Y-96026204D01*
X102526311Y-96026204D02*
X102415195Y-95989165D01*
X102415195Y-95989165D02*
X102192961Y-95766932D01*
X102192961Y-95766932D02*
X102155922Y-95655815D01*
X102155922Y-95655815D02*
X102155922Y-95581737D01*
X102155922Y-95581737D02*
X102192961Y-95470620D01*
X102192961Y-95470620D02*
X102304078Y-95359504D01*
X102304078Y-95359504D02*
X102415195Y-95322465D01*
X102415195Y-95322465D02*
X102489273Y-95322465D01*
X102489273Y-95322465D02*
X102600389Y-95359504D01*
X102600389Y-95359504D02*
X102822623Y-95581737D01*
X102822623Y-95581737D02*
X102859662Y-95692854D01*
X102859662Y-95692854D02*
X102859662Y-95766932D01*
X102859662Y-95766932D02*
X102822623Y-95878049D01*
X102822623Y-95878049D02*
X102711506Y-95989165D01*
X102785584Y-94877998D02*
X103304129Y-95396543D01*
X102859662Y-94952076D02*
X102859662Y-94877998D01*
X102859662Y-94877998D02*
X102896701Y-94766881D01*
X102896701Y-94766881D02*
X103007817Y-94655764D01*
X103007817Y-94655764D02*
X103118934Y-94618725D01*
X103118934Y-94618725D02*
X103230051Y-94655764D01*
X103230051Y-94655764D02*
X103637479Y-95063192D01*
X103378207Y-94285375D02*
X103674518Y-93989064D01*
X103230051Y-93914986D02*
X103896752Y-94581686D01*
X103896752Y-94581686D02*
X104007868Y-94618725D01*
X104007868Y-94618725D02*
X104118985Y-94581686D01*
X104118985Y-94581686D02*
X104193063Y-94507608D01*
X104452335Y-94248336D02*
X103933790Y-93729791D01*
X104081946Y-93877947D02*
X104044907Y-93766830D01*
X104044907Y-93766830D02*
X104044907Y-93692752D01*
X104044907Y-93692752D02*
X104081946Y-93581636D01*
X104081946Y-93581636D02*
X104156024Y-93507558D01*
X105044958Y-93655714D02*
X104933841Y-93692753D01*
X104933841Y-93692753D02*
X104859763Y-93692753D01*
X104859763Y-93692753D02*
X104748646Y-93655714D01*
X104748646Y-93655714D02*
X104526413Y-93433480D01*
X104526413Y-93433480D02*
X104489374Y-93322363D01*
X104489374Y-93322363D02*
X104489374Y-93248286D01*
X104489374Y-93248286D02*
X104526413Y-93137169D01*
X104526413Y-93137169D02*
X104637530Y-93026052D01*
X104637530Y-93026052D02*
X104748646Y-92989013D01*
X104748646Y-92989013D02*
X104822724Y-92989013D01*
X104822724Y-92989013D02*
X104933841Y-93026052D01*
X104933841Y-93026052D02*
X105156075Y-93248286D01*
X105156075Y-93248286D02*
X105193113Y-93359402D01*
X105193113Y-93359402D02*
X105193113Y-93433480D01*
X105193113Y-93433480D02*
X105156075Y-93544597D01*
X105156075Y-93544597D02*
X105044958Y-93655714D01*
X105748697Y-92951974D02*
X105637581Y-92989013D01*
X105637581Y-92989013D02*
X105526464Y-92951974D01*
X105526464Y-92951974D02*
X104859763Y-92285274D01*
X106156125Y-92544546D02*
X106045008Y-92581585D01*
X106045008Y-92581585D02*
X105933892Y-92544546D01*
X105933892Y-92544546D02*
X105267191Y-91877846D01*
X106711709Y-91914885D02*
X106674670Y-92026002D01*
X106674670Y-92026002D02*
X106526514Y-92174157D01*
X106526514Y-92174157D02*
X106415397Y-92211196D01*
X106415397Y-92211196D02*
X106304281Y-92174157D01*
X106304281Y-92174157D02*
X106007969Y-91877846D01*
X106007969Y-91877846D02*
X105970930Y-91766729D01*
X105970930Y-91766729D02*
X106007969Y-91655612D01*
X106007969Y-91655612D02*
X106156125Y-91507457D01*
X106156125Y-91507457D02*
X106267242Y-91470418D01*
X106267242Y-91470418D02*
X106378358Y-91507457D01*
X106378358Y-91507457D02*
X106452436Y-91581535D01*
X106452436Y-91581535D02*
X106156125Y-92026002D01*
X107119137Y-91581535D02*
X106600592Y-91062990D01*
X106748748Y-91211145D02*
X106711709Y-91100029D01*
X106711709Y-91100029D02*
X106711709Y-91025951D01*
X106711709Y-91025951D02*
X106748748Y-90914834D01*
X106748748Y-90914834D02*
X106822825Y-90840756D01*
X101019196Y-99148957D02*
X101537741Y-99667502D01*
X101093274Y-99223035D02*
X101093274Y-99148957D01*
X101093274Y-99148957D02*
X101130313Y-99037840D01*
X101130313Y-99037840D02*
X101241430Y-98926724D01*
X101241430Y-98926724D02*
X101352547Y-98889685D01*
X101352547Y-98889685D02*
X101463664Y-98926724D01*
X101463664Y-98926724D02*
X101871092Y-99334152D01*
X102685948Y-98519296D02*
X102056286Y-98408179D01*
X102241481Y-98963763D02*
X101463663Y-98185945D01*
X101463663Y-98185945D02*
X101759975Y-97889634D01*
X101759975Y-97889634D02*
X101871092Y-97852595D01*
X101871092Y-97852595D02*
X101945169Y-97852595D01*
X101945169Y-97852595D02*
X102056286Y-97889634D01*
X102056286Y-97889634D02*
X102167403Y-98000751D01*
X102167403Y-98000751D02*
X102204442Y-98111867D01*
X102204442Y-98111867D02*
X102204442Y-98185945D01*
X102204442Y-98185945D02*
X102167403Y-98297062D01*
X102167403Y-98297062D02*
X101871092Y-98593373D01*
X102871143Y-97519244D02*
X102611870Y-97778517D01*
X103019298Y-98185945D02*
X102241481Y-97408128D01*
X102241481Y-97408128D02*
X102611870Y-97037738D01*
X103278571Y-96371038D02*
X102908181Y-96741427D01*
X102908181Y-96741427D02*
X103241532Y-97148855D01*
X103241532Y-97148855D02*
X103241532Y-97074777D01*
X103241532Y-97074777D02*
X103278571Y-96963661D01*
X103278571Y-96963661D02*
X103463765Y-96778466D01*
X103463765Y-96778466D02*
X103574882Y-96741427D01*
X103574882Y-96741427D02*
X103648960Y-96741427D01*
X103648960Y-96741427D02*
X103760077Y-96778466D01*
X103760077Y-96778466D02*
X103945271Y-96963661D01*
X103945271Y-96963661D02*
X103982310Y-97074777D01*
X103982310Y-97074777D02*
X103982310Y-97148855D01*
X103982310Y-97148855D02*
X103945271Y-97259972D01*
X103945271Y-97259972D02*
X103760077Y-97445167D01*
X103760077Y-97445167D02*
X103648960Y-97482206D01*
X103648960Y-97482206D02*
X103574882Y-97482206D01*
X103685999Y-96111765D02*
X103685999Y-96037688D01*
X103685999Y-96037688D02*
X103723038Y-95926571D01*
X103723038Y-95926571D02*
X103908232Y-95741376D01*
X103908232Y-95741376D02*
X104019349Y-95704337D01*
X104019349Y-95704337D02*
X104093427Y-95704337D01*
X104093427Y-95704337D02*
X104204544Y-95741376D01*
X104204544Y-95741376D02*
X104278622Y-95815454D01*
X104278622Y-95815454D02*
X104352700Y-95963610D01*
X104352700Y-95963610D02*
X104352700Y-96852544D01*
X104352700Y-96852544D02*
X104834206Y-96371038D01*
X104834206Y-95482104D02*
X104723089Y-95519143D01*
X104723089Y-95519143D02*
X104649011Y-95519143D01*
X104649011Y-95519143D02*
X104537894Y-95482104D01*
X104537894Y-95482104D02*
X104500855Y-95445065D01*
X104500855Y-95445065D02*
X104463816Y-95333948D01*
X104463816Y-95333948D02*
X104463816Y-95259870D01*
X104463816Y-95259870D02*
X104500855Y-95148753D01*
X104500855Y-95148753D02*
X104649011Y-95000598D01*
X104649011Y-95000598D02*
X104760128Y-94963559D01*
X104760128Y-94963559D02*
X104834206Y-94963559D01*
X104834206Y-94963559D02*
X104945322Y-95000598D01*
X104945322Y-95000598D02*
X104982361Y-95037637D01*
X104982361Y-95037637D02*
X105019400Y-95148753D01*
X105019400Y-95148753D02*
X105019400Y-95222831D01*
X105019400Y-95222831D02*
X104982361Y-95333948D01*
X104982361Y-95333948D02*
X104834206Y-95482104D01*
X104834206Y-95482104D02*
X104797167Y-95593220D01*
X104797167Y-95593220D02*
X104797167Y-95667298D01*
X104797167Y-95667298D02*
X104834206Y-95778415D01*
X104834206Y-95778415D02*
X104982361Y-95926571D01*
X104982361Y-95926571D02*
X105093478Y-95963610D01*
X105093478Y-95963610D02*
X105167556Y-95963610D01*
X105167556Y-95963610D02*
X105278673Y-95926571D01*
X105278673Y-95926571D02*
X105426828Y-95778415D01*
X105426828Y-95778415D02*
X105463867Y-95667298D01*
X105463867Y-95667298D02*
X105463867Y-95593220D01*
X105463867Y-95593220D02*
X105426828Y-95482104D01*
X105426828Y-95482104D02*
X105278673Y-95333948D01*
X105278673Y-95333948D02*
X105167556Y-95296909D01*
X105167556Y-95296909D02*
X105093478Y-95296909D01*
X105093478Y-95296909D02*
X104982361Y-95333948D01*
X105723140Y-94445014D02*
X106241685Y-94963559D01*
X105241634Y-94333897D02*
X105612023Y-95074676D01*
X105612023Y-95074676D02*
X106093529Y-94593169D01*
X106019451Y-93630157D02*
X106093529Y-93556080D01*
X106093529Y-93556080D02*
X106204646Y-93519041D01*
X106204646Y-93519041D02*
X106278724Y-93519041D01*
X106278724Y-93519041D02*
X106389840Y-93556080D01*
X106389840Y-93556080D02*
X106575035Y-93667196D01*
X106575035Y-93667196D02*
X106760230Y-93852391D01*
X106760230Y-93852391D02*
X106871346Y-94037586D01*
X106871346Y-94037586D02*
X106908385Y-94148702D01*
X106908385Y-94148702D02*
X106908385Y-94222780D01*
X106908385Y-94222780D02*
X106871346Y-94333897D01*
X106871346Y-94333897D02*
X106797269Y-94407975D01*
X106797269Y-94407975D02*
X106686152Y-94445014D01*
X106686152Y-94445014D02*
X106612074Y-94445014D01*
X106612074Y-94445014D02*
X106500957Y-94407975D01*
X106500957Y-94407975D02*
X106315763Y-94296858D01*
X106315763Y-94296858D02*
X106130568Y-94111663D01*
X106130568Y-94111663D02*
X106019451Y-93926469D01*
X106019451Y-93926469D02*
X105982412Y-93815352D01*
X105982412Y-93815352D02*
X105982412Y-93741274D01*
X105982412Y-93741274D02*
X106019451Y-93630157D01*
X110706091Y-75396867D02*
X109928273Y-74619049D01*
X109928273Y-74619049D02*
X110224585Y-74322738D01*
X110224585Y-74322738D02*
X110335702Y-74285699D01*
X110335702Y-74285699D02*
X110409779Y-74285699D01*
X110409779Y-74285699D02*
X110520896Y-74322738D01*
X110520896Y-74322738D02*
X110632013Y-74433855D01*
X110632013Y-74433855D02*
X110669052Y-74544971D01*
X110669052Y-74544971D02*
X110669052Y-74619049D01*
X110669052Y-74619049D02*
X110632013Y-74730166D01*
X110632013Y-74730166D02*
X110335702Y-75026477D01*
X110854246Y-73693076D02*
X111002402Y-73544920D01*
X111002402Y-73544920D02*
X111113519Y-73507881D01*
X111113519Y-73507881D02*
X111261675Y-73507881D01*
X111261675Y-73507881D02*
X111446869Y-73618998D01*
X111446869Y-73618998D02*
X111706142Y-73878271D01*
X111706142Y-73878271D02*
X111817259Y-74063465D01*
X111817259Y-74063465D02*
X111817259Y-74211621D01*
X111817259Y-74211621D02*
X111780220Y-74322738D01*
X111780220Y-74322738D02*
X111632064Y-74470894D01*
X111632064Y-74470894D02*
X111520947Y-74507932D01*
X111520947Y-74507932D02*
X111372791Y-74507932D01*
X111372791Y-74507932D02*
X111187597Y-74396816D01*
X111187597Y-74396816D02*
X110928324Y-74137543D01*
X110928324Y-74137543D02*
X110817208Y-73952349D01*
X110817208Y-73952349D02*
X110817208Y-73804193D01*
X110817208Y-73804193D02*
X110854246Y-73693076D01*
X111446869Y-73100453D02*
X112409881Y-73693076D01*
X112409881Y-73693076D02*
X112002453Y-72989336D01*
X112002453Y-72989336D02*
X112706193Y-73396765D01*
X112706193Y-73396765D02*
X112113570Y-72433753D01*
X112780271Y-72507830D02*
X113039543Y-72248558D01*
X113558088Y-72544869D02*
X113187699Y-72915259D01*
X113187699Y-72915259D02*
X112409882Y-72137441D01*
X112409882Y-72137441D02*
X112780271Y-71767052D01*
X114335906Y-71767052D02*
X113706244Y-71655935D01*
X113891439Y-72211519D02*
X113113621Y-71433702D01*
X113113621Y-71433702D02*
X113409932Y-71137390D01*
X113409932Y-71137390D02*
X113521049Y-71100351D01*
X113521049Y-71100351D02*
X113595127Y-71100351D01*
X113595127Y-71100351D02*
X113706244Y-71137390D01*
X113706244Y-71137390D02*
X113817361Y-71248507D01*
X113817361Y-71248507D02*
X113854400Y-71359624D01*
X113854400Y-71359624D02*
X113854400Y-71433702D01*
X113854400Y-71433702D02*
X113817361Y-71544818D01*
X113817361Y-71544818D02*
X113521049Y-71841130D01*
X147692960Y-68105868D02*
X147581843Y-68142907D01*
X147581843Y-68142907D02*
X147433687Y-68142907D01*
X147433687Y-68142907D02*
X147211453Y-68142907D01*
X147211453Y-68142907D02*
X147100337Y-68179946D01*
X147100337Y-68179946D02*
X147026259Y-68254023D01*
X147248492Y-68402179D02*
X147137376Y-68439218D01*
X147137376Y-68439218D02*
X146989220Y-68439218D01*
X146989220Y-68439218D02*
X146804025Y-68328101D01*
X146804025Y-68328101D02*
X146544753Y-68068829D01*
X146544753Y-68068829D02*
X146433636Y-67883634D01*
X146433636Y-67883634D02*
X146433636Y-67735478D01*
X146433636Y-67735478D02*
X146470675Y-67624362D01*
X146470675Y-67624362D02*
X146618831Y-67476206D01*
X146618831Y-67476206D02*
X146729947Y-67439167D01*
X146729947Y-67439167D02*
X146878103Y-67439167D01*
X146878103Y-67439167D02*
X147063298Y-67550284D01*
X147063298Y-67550284D02*
X147322570Y-67809556D01*
X147322570Y-67809556D02*
X147433687Y-67994751D01*
X147433687Y-67994751D02*
X147433687Y-68142907D01*
X147433687Y-68142907D02*
X147396648Y-68254023D01*
X147396648Y-68254023D02*
X147248492Y-68402179D01*
X147063298Y-67031739D02*
X148026310Y-67624362D01*
X148026310Y-67624362D02*
X147618882Y-66920622D01*
X147618882Y-66920622D02*
X148322621Y-67328050D01*
X148322621Y-67328050D02*
X147729998Y-66365038D01*
X148804127Y-66846544D02*
X148026310Y-66068727D01*
X149174517Y-66476154D02*
X148396700Y-65698337D01*
X149915296Y-65587220D02*
X149915296Y-65661298D01*
X149915296Y-65661298D02*
X149841218Y-65809453D01*
X149841218Y-65809453D02*
X149767140Y-65883531D01*
X149767140Y-65883531D02*
X149618985Y-65957609D01*
X149618985Y-65957609D02*
X149470829Y-65957609D01*
X149470829Y-65957609D02*
X149359712Y-65920570D01*
X149359712Y-65920570D02*
X149174517Y-65809453D01*
X149174517Y-65809453D02*
X149063401Y-65698337D01*
X149063401Y-65698337D02*
X148952284Y-65513142D01*
X148952284Y-65513142D02*
X148915245Y-65402025D01*
X148915245Y-65402025D02*
X148915245Y-65253870D01*
X148915245Y-65253870D02*
X148989323Y-65105714D01*
X148989323Y-65105714D02*
X149063401Y-65031636D01*
X149063401Y-65031636D02*
X149211556Y-64957558D01*
X149211556Y-64957558D02*
X149285634Y-64957558D01*
X146648833Y-71432333D02*
X146796988Y-71358255D01*
X146796988Y-71358255D02*
X146982183Y-71173060D01*
X146982183Y-71173060D02*
X147019222Y-71061944D01*
X147019222Y-71061944D02*
X147019222Y-70987866D01*
X147019222Y-70987866D02*
X146982183Y-70876749D01*
X146982183Y-70876749D02*
X146908105Y-70802671D01*
X146908105Y-70802671D02*
X146796988Y-70765632D01*
X146796988Y-70765632D02*
X146722911Y-70765632D01*
X146722911Y-70765632D02*
X146611794Y-70802671D01*
X146611794Y-70802671D02*
X146426599Y-70913788D01*
X146426599Y-70913788D02*
X146315482Y-70950827D01*
X146315482Y-70950827D02*
X146241405Y-70950827D01*
X146241405Y-70950827D02*
X146130288Y-70913788D01*
X146130288Y-70913788D02*
X146056210Y-70839710D01*
X146056210Y-70839710D02*
X146019171Y-70728593D01*
X146019171Y-70728593D02*
X146019171Y-70654516D01*
X146019171Y-70654516D02*
X146056210Y-70543399D01*
X146056210Y-70543399D02*
X146241405Y-70358204D01*
X146241405Y-70358204D02*
X146389560Y-70284126D01*
X146574755Y-70024854D02*
X147019222Y-69580387D01*
X147574806Y-70580438D02*
X146796988Y-69802620D01*
X147648884Y-69691504D02*
X147908156Y-69432231D01*
X148426701Y-69728543D02*
X148056312Y-70098932D01*
X148056312Y-70098932D02*
X147278494Y-69321114D01*
X147278494Y-69321114D02*
X147648884Y-68950725D01*
X148760051Y-69395192D02*
X147982234Y-68617375D01*
X147982234Y-68617375D02*
X148797090Y-68913686D01*
X148797090Y-68913686D02*
X148500779Y-68098830D01*
X148500779Y-68098830D02*
X149278596Y-68876647D01*
X149648986Y-68506258D02*
X148871168Y-67728440D01*
X148871168Y-67728440D02*
X149686025Y-68024752D01*
X149686025Y-68024752D02*
X149389713Y-67209896D01*
X149389713Y-67209896D02*
X150167531Y-67987713D01*
X150278647Y-67432129D02*
X150649037Y-67061740D01*
X150426803Y-67728440D02*
X149908258Y-66691350D01*
X149908258Y-66691350D02*
X150945348Y-67209895D01*
X152389866Y-65913533D02*
X152278749Y-65950572D01*
X152278749Y-65950572D02*
X152130594Y-65950572D01*
X152130594Y-65950572D02*
X151908360Y-65950572D01*
X151908360Y-65950572D02*
X151797243Y-65987611D01*
X151797243Y-65987611D02*
X151723165Y-66061689D01*
X151945399Y-66209845D02*
X151834282Y-66246884D01*
X151834282Y-66246884D02*
X151686126Y-66246884D01*
X151686126Y-66246884D02*
X151500932Y-66135767D01*
X151500932Y-66135767D02*
X151241659Y-65876494D01*
X151241659Y-65876494D02*
X151130542Y-65691300D01*
X151130542Y-65691300D02*
X151130542Y-65543144D01*
X151130542Y-65543144D02*
X151167581Y-65432027D01*
X151167581Y-65432027D02*
X151315737Y-65283871D01*
X151315737Y-65283871D02*
X151426854Y-65246833D01*
X151426854Y-65246833D02*
X151575010Y-65246833D01*
X151575010Y-65246833D02*
X151760204Y-65357949D01*
X151760204Y-65357949D02*
X152019477Y-65617222D01*
X152019477Y-65617222D02*
X152130594Y-65802416D01*
X152130594Y-65802416D02*
X152130594Y-65950572D01*
X152130594Y-65950572D02*
X152093555Y-66061689D01*
X152093555Y-66061689D02*
X151945399Y-66209845D01*
X151723165Y-64876443D02*
X152167632Y-64431976D01*
X152723216Y-65432027D02*
X151945399Y-64654210D01*
X130314286Y-115426480D02*
X129685714Y-115426480D01*
X130000000Y-115426480D02*
X130000000Y-114326480D01*
X130000000Y-114326480D02*
X129895238Y-114483623D01*
X129895238Y-114483623D02*
X129790476Y-114588385D01*
X129790476Y-114588385D02*
X129685714Y-114640766D01*
X103043155Y-69454167D02*
X103191311Y-69306012D01*
X103191311Y-69306012D02*
X103302428Y-69268973D01*
X103302428Y-69268973D02*
X103450583Y-69268973D01*
X103450583Y-69268973D02*
X103635778Y-69380090D01*
X103635778Y-69380090D02*
X103895051Y-69639362D01*
X103895051Y-69639362D02*
X104006167Y-69824557D01*
X104006167Y-69824557D02*
X104006167Y-69972712D01*
X104006167Y-69972712D02*
X103969128Y-70083829D01*
X103969128Y-70083829D02*
X103820973Y-70231985D01*
X103820973Y-70231985D02*
X103709856Y-70269024D01*
X103709856Y-70269024D02*
X103561700Y-70269024D01*
X103561700Y-70269024D02*
X103376506Y-70157907D01*
X103376506Y-70157907D02*
X103117233Y-69898635D01*
X103117233Y-69898635D02*
X103006116Y-69713440D01*
X103006116Y-69713440D02*
X103006116Y-69565284D01*
X103006116Y-69565284D02*
X103043155Y-69454167D01*
X104487673Y-69565284D02*
X103709856Y-68787467D01*
X103709856Y-68787467D02*
X104932141Y-69120817D01*
X104932141Y-69120817D02*
X104154323Y-68343000D01*
X119242882Y-117600080D02*
X119242882Y-118490557D01*
X119242882Y-118490557D02*
X119295263Y-118595319D01*
X119295263Y-118595319D02*
X119347644Y-118647700D01*
X119347644Y-118647700D02*
X119452406Y-118700080D01*
X119452406Y-118700080D02*
X119661930Y-118700080D01*
X119661930Y-118700080D02*
X119766692Y-118647700D01*
X119766692Y-118647700D02*
X119819073Y-118595319D01*
X119819073Y-118595319D02*
X119871454Y-118490557D01*
X119871454Y-118490557D02*
X119871454Y-117600080D01*
X120342882Y-118647700D02*
X120500025Y-118700080D01*
X120500025Y-118700080D02*
X120761930Y-118700080D01*
X120761930Y-118700080D02*
X120866692Y-118647700D01*
X120866692Y-118647700D02*
X120919073Y-118595319D01*
X120919073Y-118595319D02*
X120971454Y-118490557D01*
X120971454Y-118490557D02*
X120971454Y-118385795D01*
X120971454Y-118385795D02*
X120919073Y-118281033D01*
X120919073Y-118281033D02*
X120866692Y-118228652D01*
X120866692Y-118228652D02*
X120761930Y-118176271D01*
X120761930Y-118176271D02*
X120552406Y-118123890D01*
X120552406Y-118123890D02*
X120447644Y-118071509D01*
X120447644Y-118071509D02*
X120395263Y-118019128D01*
X120395263Y-118019128D02*
X120342882Y-117914366D01*
X120342882Y-117914366D02*
X120342882Y-117809604D01*
X120342882Y-117809604D02*
X120395263Y-117704842D01*
X120395263Y-117704842D02*
X120447644Y-117652461D01*
X120447644Y-117652461D02*
X120552406Y-117600080D01*
X120552406Y-117600080D02*
X120814311Y-117600080D01*
X120814311Y-117600080D02*
X120971454Y-117652461D01*
X121442882Y-118123890D02*
X121809549Y-118123890D01*
X121966692Y-118700080D02*
X121442882Y-118700080D01*
X121442882Y-118700080D02*
X121442882Y-117600080D01*
X121442882Y-117600080D02*
X121966692Y-117600080D01*
X123066692Y-118700080D02*
X122700025Y-118176271D01*
X122438120Y-118700080D02*
X122438120Y-117600080D01*
X122438120Y-117600080D02*
X122857168Y-117600080D01*
X122857168Y-117600080D02*
X122961930Y-117652461D01*
X122961930Y-117652461D02*
X123014311Y-117704842D01*
X123014311Y-117704842D02*
X123066692Y-117809604D01*
X123066692Y-117809604D02*
X123066692Y-117966747D01*
X123066692Y-117966747D02*
X123014311Y-118071509D01*
X123014311Y-118071509D02*
X122961930Y-118123890D01*
X122961930Y-118123890D02*
X122857168Y-118176271D01*
X122857168Y-118176271D02*
X122438120Y-118176271D01*
X128035714Y-96040795D02*
X128559524Y-96040795D01*
X127930952Y-96355080D02*
X128297619Y-95255080D01*
X128297619Y-95255080D02*
X128664286Y-96355080D01*
X129502381Y-96302700D02*
X129397619Y-96355080D01*
X129397619Y-96355080D02*
X129188095Y-96355080D01*
X129188095Y-96355080D02*
X129083333Y-96302700D01*
X129083333Y-96302700D02*
X129030952Y-96250319D01*
X129030952Y-96250319D02*
X128978571Y-96145557D01*
X128978571Y-96145557D02*
X128978571Y-95831271D01*
X128978571Y-95831271D02*
X129030952Y-95726509D01*
X129030952Y-95726509D02*
X129083333Y-95674128D01*
X129083333Y-95674128D02*
X129188095Y-95621747D01*
X129188095Y-95621747D02*
X129397619Y-95621747D01*
X129397619Y-95621747D02*
X129502381Y-95674128D01*
X130445238Y-96302700D02*
X130340476Y-96355080D01*
X130340476Y-96355080D02*
X130130952Y-96355080D01*
X130130952Y-96355080D02*
X130026190Y-96302700D01*
X130026190Y-96302700D02*
X129973809Y-96250319D01*
X129973809Y-96250319D02*
X129921428Y-96145557D01*
X129921428Y-96145557D02*
X129921428Y-95831271D01*
X129921428Y-95831271D02*
X129973809Y-95726509D01*
X129973809Y-95726509D02*
X130026190Y-95674128D01*
X130026190Y-95674128D02*
X130130952Y-95621747D01*
X130130952Y-95621747D02*
X130340476Y-95621747D01*
X130340476Y-95621747D02*
X130445238Y-95674128D01*
X131335714Y-96302700D02*
X131230952Y-96355080D01*
X131230952Y-96355080D02*
X131021428Y-96355080D01*
X131021428Y-96355080D02*
X130916666Y-96302700D01*
X130916666Y-96302700D02*
X130864285Y-96197938D01*
X130864285Y-96197938D02*
X130864285Y-95778890D01*
X130864285Y-95778890D02*
X130916666Y-95674128D01*
X130916666Y-95674128D02*
X131021428Y-95621747D01*
X131021428Y-95621747D02*
X131230952Y-95621747D01*
X131230952Y-95621747D02*
X131335714Y-95674128D01*
X131335714Y-95674128D02*
X131388095Y-95778890D01*
X131388095Y-95778890D02*
X131388095Y-95883652D01*
X131388095Y-95883652D02*
X130864285Y-95988414D01*
X132016666Y-96355080D02*
X131911904Y-96302700D01*
X131911904Y-96302700D02*
X131859523Y-96197938D01*
X131859523Y-96197938D02*
X131859523Y-95255080D01*
X129030953Y-97078461D02*
X128926191Y-97026080D01*
X128926191Y-97026080D02*
X128769048Y-97026080D01*
X128769048Y-97026080D02*
X128611905Y-97078461D01*
X128611905Y-97078461D02*
X128507143Y-97183223D01*
X128507143Y-97183223D02*
X128454762Y-97287985D01*
X128454762Y-97287985D02*
X128402381Y-97497509D01*
X128402381Y-97497509D02*
X128402381Y-97654652D01*
X128402381Y-97654652D02*
X128454762Y-97864176D01*
X128454762Y-97864176D02*
X128507143Y-97968938D01*
X128507143Y-97968938D02*
X128611905Y-98073700D01*
X128611905Y-98073700D02*
X128769048Y-98126080D01*
X128769048Y-98126080D02*
X128873810Y-98126080D01*
X128873810Y-98126080D02*
X129030953Y-98073700D01*
X129030953Y-98073700D02*
X129083334Y-98021319D01*
X129083334Y-98021319D02*
X129083334Y-97654652D01*
X129083334Y-97654652D02*
X128873810Y-97654652D01*
X129450000Y-97392747D02*
X129711905Y-98126080D01*
X129973810Y-97392747D02*
X129711905Y-98126080D01*
X129711905Y-98126080D02*
X129607143Y-98387985D01*
X129607143Y-98387985D02*
X129554762Y-98440366D01*
X129554762Y-98440366D02*
X129450000Y-98492747D01*
X130392857Y-98126080D02*
X130392857Y-97392747D01*
X130392857Y-97602271D02*
X130445238Y-97497509D01*
X130445238Y-97497509D02*
X130497619Y-97445128D01*
X130497619Y-97445128D02*
X130602381Y-97392747D01*
X130602381Y-97392747D02*
X130707143Y-97392747D01*
X131230952Y-98126080D02*
X131126190Y-98073700D01*
X131126190Y-98073700D02*
X131073809Y-98021319D01*
X131073809Y-98021319D02*
X131021428Y-97916557D01*
X131021428Y-97916557D02*
X131021428Y-97602271D01*
X131021428Y-97602271D02*
X131073809Y-97497509D01*
X131073809Y-97497509D02*
X131126190Y-97445128D01*
X131126190Y-97445128D02*
X131230952Y-97392747D01*
X131230952Y-97392747D02*
X131388095Y-97392747D01*
X131388095Y-97392747D02*
X131492857Y-97445128D01*
X131492857Y-97445128D02*
X131545238Y-97497509D01*
X131545238Y-97497509D02*
X131597619Y-97602271D01*
X131597619Y-97602271D02*
X131597619Y-97916557D01*
X131597619Y-97916557D02*
X131545238Y-98021319D01*
X131545238Y-98021319D02*
X131492857Y-98073700D01*
X131492857Y-98073700D02*
X131388095Y-98126080D01*
X131388095Y-98126080D02*
X131230952Y-98126080D01*
X127145238Y-99897080D02*
X126621428Y-99897080D01*
X126621428Y-99897080D02*
X126621428Y-98797080D01*
X127459523Y-99844700D02*
X127616666Y-99897080D01*
X127616666Y-99897080D02*
X127878571Y-99897080D01*
X127878571Y-99897080D02*
X127983333Y-99844700D01*
X127983333Y-99844700D02*
X128035714Y-99792319D01*
X128035714Y-99792319D02*
X128088095Y-99687557D01*
X128088095Y-99687557D02*
X128088095Y-99582795D01*
X128088095Y-99582795D02*
X128035714Y-99478033D01*
X128035714Y-99478033D02*
X127983333Y-99425652D01*
X127983333Y-99425652D02*
X127878571Y-99373271D01*
X127878571Y-99373271D02*
X127669047Y-99320890D01*
X127669047Y-99320890D02*
X127564285Y-99268509D01*
X127564285Y-99268509D02*
X127511904Y-99216128D01*
X127511904Y-99216128D02*
X127459523Y-99111366D01*
X127459523Y-99111366D02*
X127459523Y-99006604D01*
X127459523Y-99006604D02*
X127511904Y-98901842D01*
X127511904Y-98901842D02*
X127564285Y-98849461D01*
X127564285Y-98849461D02*
X127669047Y-98797080D01*
X127669047Y-98797080D02*
X127930952Y-98797080D01*
X127930952Y-98797080D02*
X128088095Y-98849461D01*
X128559523Y-99897080D02*
X128559523Y-98797080D01*
X128559523Y-98797080D02*
X128926190Y-99582795D01*
X128926190Y-99582795D02*
X129292857Y-98797080D01*
X129292857Y-98797080D02*
X129292857Y-99897080D01*
X130288095Y-98797080D02*
X130078571Y-98797080D01*
X130078571Y-98797080D02*
X129973809Y-98849461D01*
X129973809Y-98849461D02*
X129921428Y-98901842D01*
X129921428Y-98901842D02*
X129816666Y-99058985D01*
X129816666Y-99058985D02*
X129764285Y-99268509D01*
X129764285Y-99268509D02*
X129764285Y-99687557D01*
X129764285Y-99687557D02*
X129816666Y-99792319D01*
X129816666Y-99792319D02*
X129869047Y-99844700D01*
X129869047Y-99844700D02*
X129973809Y-99897080D01*
X129973809Y-99897080D02*
X130183333Y-99897080D01*
X130183333Y-99897080D02*
X130288095Y-99844700D01*
X130288095Y-99844700D02*
X130340476Y-99792319D01*
X130340476Y-99792319D02*
X130392857Y-99687557D01*
X130392857Y-99687557D02*
X130392857Y-99425652D01*
X130392857Y-99425652D02*
X130340476Y-99320890D01*
X130340476Y-99320890D02*
X130288095Y-99268509D01*
X130288095Y-99268509D02*
X130183333Y-99216128D01*
X130183333Y-99216128D02*
X129973809Y-99216128D01*
X129973809Y-99216128D02*
X129869047Y-99268509D01*
X129869047Y-99268509D02*
X129816666Y-99320890D01*
X129816666Y-99320890D02*
X129764285Y-99425652D01*
X130864285Y-99897080D02*
X130864285Y-98797080D01*
X130864285Y-98797080D02*
X131126190Y-98797080D01*
X131126190Y-98797080D02*
X131283333Y-98849461D01*
X131283333Y-98849461D02*
X131388095Y-98954223D01*
X131388095Y-98954223D02*
X131440476Y-99058985D01*
X131440476Y-99058985D02*
X131492857Y-99268509D01*
X131492857Y-99268509D02*
X131492857Y-99425652D01*
X131492857Y-99425652D02*
X131440476Y-99635176D01*
X131440476Y-99635176D02*
X131388095Y-99739938D01*
X131388095Y-99739938D02*
X131283333Y-99844700D01*
X131283333Y-99844700D02*
X131126190Y-99897080D01*
X131126190Y-99897080D02*
X130864285Y-99897080D01*
X131911904Y-99844700D02*
X132069047Y-99897080D01*
X132069047Y-99897080D02*
X132330952Y-99897080D01*
X132330952Y-99897080D02*
X132435714Y-99844700D01*
X132435714Y-99844700D02*
X132488095Y-99792319D01*
X132488095Y-99792319D02*
X132540476Y-99687557D01*
X132540476Y-99687557D02*
X132540476Y-99582795D01*
X132540476Y-99582795D02*
X132488095Y-99478033D01*
X132488095Y-99478033D02*
X132435714Y-99425652D01*
X132435714Y-99425652D02*
X132330952Y-99373271D01*
X132330952Y-99373271D02*
X132121428Y-99320890D01*
X132121428Y-99320890D02*
X132016666Y-99268509D01*
X132016666Y-99268509D02*
X131964285Y-99216128D01*
X131964285Y-99216128D02*
X131911904Y-99111366D01*
X131911904Y-99111366D02*
X131911904Y-99006604D01*
X131911904Y-99006604D02*
X131964285Y-98901842D01*
X131964285Y-98901842D02*
X132016666Y-98849461D01*
X132016666Y-98849461D02*
X132121428Y-98797080D01*
X132121428Y-98797080D02*
X132383333Y-98797080D01*
X132383333Y-98797080D02*
X132540476Y-98849461D01*
X133535714Y-99897080D02*
X133011904Y-99897080D01*
X133011904Y-99897080D02*
X133011904Y-98797080D01*
X150838992Y-87317213D02*
X151209381Y-86946823D01*
X150987147Y-87613524D02*
X150468602Y-86576434D01*
X150468602Y-86576434D02*
X151505692Y-87094979D01*
X150913069Y-86131967D02*
X151876082Y-86724590D01*
X151876082Y-86724590D02*
X151468653Y-86020850D01*
X151468653Y-86020850D02*
X152172393Y-86428279D01*
X152172393Y-86428279D02*
X151579770Y-85465267D01*
X152579821Y-85946772D02*
X152727977Y-85872695D01*
X152727977Y-85872695D02*
X152913172Y-85687500D01*
X152913172Y-85687500D02*
X152950210Y-85576383D01*
X152950210Y-85576383D02*
X152950210Y-85502305D01*
X152950210Y-85502305D02*
X152913172Y-85391189D01*
X152913172Y-85391189D02*
X152839094Y-85317111D01*
X152839094Y-85317111D02*
X152727977Y-85280072D01*
X152727977Y-85280072D02*
X152653899Y-85280072D01*
X152653899Y-85280072D02*
X152542782Y-85317111D01*
X152542782Y-85317111D02*
X152357588Y-85428227D01*
X152357588Y-85428227D02*
X152246471Y-85465266D01*
X152246471Y-85465266D02*
X152172393Y-85465266D01*
X152172393Y-85465266D02*
X152061276Y-85428227D01*
X152061276Y-85428227D02*
X151987198Y-85354150D01*
X151987198Y-85354150D02*
X151950159Y-85243033D01*
X151950159Y-85243033D02*
X151950159Y-85168955D01*
X151950159Y-85168955D02*
X151987198Y-85057838D01*
X151987198Y-85057838D02*
X152172393Y-84872644D01*
X152172393Y-84872644D02*
X152320549Y-84798566D01*
X153987300Y-84613371D02*
X153209483Y-83835554D01*
X154468807Y-84131865D02*
X154357690Y-84168904D01*
X154357690Y-84168904D02*
X154283612Y-84168904D01*
X154283612Y-84168904D02*
X154172495Y-84131865D01*
X154172495Y-84131865D02*
X153950262Y-83909631D01*
X153950262Y-83909631D02*
X153913223Y-83798515D01*
X153913223Y-83798515D02*
X153913223Y-83724437D01*
X153913223Y-83724437D02*
X153950262Y-83613320D01*
X153950262Y-83613320D02*
X154061378Y-83502203D01*
X154061378Y-83502203D02*
X154172495Y-83465164D01*
X154172495Y-83465164D02*
X154246573Y-83465164D01*
X154246573Y-83465164D02*
X154357690Y-83502203D01*
X154357690Y-83502203D02*
X154579923Y-83724437D01*
X154579923Y-83724437D02*
X154616962Y-83835554D01*
X154616962Y-83835554D02*
X154616962Y-83909631D01*
X154616962Y-83909631D02*
X154579923Y-84020748D01*
X154579923Y-84020748D02*
X154468807Y-84131865D01*
X154172495Y-82872541D02*
X154616962Y-82428074D01*
X155172546Y-83428125D02*
X154394729Y-82650308D01*
X155839246Y-81946569D02*
X156098519Y-81687296D01*
X156617064Y-81983608D02*
X156246675Y-82353997D01*
X156246675Y-82353997D02*
X155468857Y-81576179D01*
X155468857Y-81576179D02*
X155839246Y-81205790D01*
X156876336Y-81724335D02*
X156765220Y-80798362D01*
X156357791Y-81205790D02*
X157283765Y-81316907D01*
X157061531Y-80502051D02*
X157839348Y-81279868D01*
X157098570Y-80539090D02*
X157135609Y-80427973D01*
X157135609Y-80427973D02*
X157283764Y-80279817D01*
X157283764Y-80279817D02*
X157394881Y-80242778D01*
X157394881Y-80242778D02*
X157468959Y-80242778D01*
X157468959Y-80242778D02*
X157580076Y-80279817D01*
X157580076Y-80279817D02*
X157802309Y-80502051D01*
X157802309Y-80502051D02*
X157839348Y-80613167D01*
X157839348Y-80613167D02*
X157839348Y-80687245D01*
X157839348Y-80687245D02*
X157802309Y-80798362D01*
X157802309Y-80798362D02*
X157654154Y-80946518D01*
X157654154Y-80946518D02*
X157543037Y-80983557D01*
X158283815Y-80316856D02*
X157765270Y-79798311D01*
X157913426Y-79946467D02*
X157876387Y-79835350D01*
X157876387Y-79835350D02*
X157876387Y-79761272D01*
X157876387Y-79761272D02*
X157913426Y-79650155D01*
X157913426Y-79650155D02*
X157987504Y-79576078D01*
X159024594Y-79502000D02*
X158987555Y-79613117D01*
X158987555Y-79613117D02*
X158839399Y-79761273D01*
X158839399Y-79761273D02*
X158728282Y-79798311D01*
X158728282Y-79798311D02*
X158617165Y-79761273D01*
X158617165Y-79761273D02*
X158320854Y-79464961D01*
X158320854Y-79464961D02*
X158283815Y-79353844D01*
X158283815Y-79353844D02*
X158320854Y-79242728D01*
X158320854Y-79242728D02*
X158469010Y-79094572D01*
X158469010Y-79094572D02*
X158580127Y-79057533D01*
X158580127Y-79057533D02*
X158691243Y-79094572D01*
X158691243Y-79094572D02*
X158765321Y-79168650D01*
X158765321Y-79168650D02*
X158469010Y-79613117D01*
X159357944Y-79168650D02*
X159469061Y-79131611D01*
X159469061Y-79131611D02*
X159617216Y-78983455D01*
X159617216Y-78983455D02*
X159654255Y-78872338D01*
X159654255Y-78872338D02*
X159617216Y-78761222D01*
X159617216Y-78761222D02*
X159580177Y-78724183D01*
X159580177Y-78724183D02*
X159469061Y-78687144D01*
X159469061Y-78687144D02*
X159357944Y-78724183D01*
X159357944Y-78724183D02*
X159246827Y-78835299D01*
X159246827Y-78835299D02*
X159135710Y-78872338D01*
X159135710Y-78872338D02*
X159024594Y-78835299D01*
X159024594Y-78835299D02*
X158987555Y-78798261D01*
X158987555Y-78798261D02*
X158950516Y-78687144D01*
X158950516Y-78687144D02*
X158987555Y-78576027D01*
X158987555Y-78576027D02*
X159098671Y-78464910D01*
X159098671Y-78464910D02*
X159209788Y-78427871D01*
X159987605Y-78538988D02*
X160098722Y-78501949D01*
X160098722Y-78501949D02*
X160246878Y-78353794D01*
X160246878Y-78353794D02*
X160283917Y-78242677D01*
X160283917Y-78242677D02*
X160246878Y-78131560D01*
X160246878Y-78131560D02*
X160209839Y-78094521D01*
X160209839Y-78094521D02*
X160098722Y-78057482D01*
X160098722Y-78057482D02*
X159987605Y-78094521D01*
X159987605Y-78094521D02*
X159876489Y-78205638D01*
X159876489Y-78205638D02*
X159765372Y-78242677D01*
X159765372Y-78242677D02*
X159654255Y-78205638D01*
X159654255Y-78205638D02*
X159617216Y-78168599D01*
X159617216Y-78168599D02*
X159580177Y-78057482D01*
X159580177Y-78057482D02*
X159617216Y-77946365D01*
X159617216Y-77946365D02*
X159728333Y-77835249D01*
X159728333Y-77835249D02*
X159839450Y-77798210D01*
X161061734Y-77538937D02*
X160691345Y-77909327D01*
X160691345Y-77909327D02*
X159913528Y-77131509D01*
X161321007Y-77279665D02*
X160802462Y-76761120D01*
X160543189Y-76501847D02*
X160543189Y-76575925D01*
X160543189Y-76575925D02*
X160617267Y-76575925D01*
X160617267Y-76575925D02*
X160617267Y-76501847D01*
X160617267Y-76501847D02*
X160543189Y-76501847D01*
X160543189Y-76501847D02*
X160617267Y-76575925D01*
X161172851Y-76390730D02*
X161691396Y-76909275D01*
X161246929Y-76464808D02*
X161246929Y-76390730D01*
X161246929Y-76390730D02*
X161283968Y-76279614D01*
X161283968Y-76279614D02*
X161395085Y-76168497D01*
X161395085Y-76168497D02*
X161506202Y-76131458D01*
X161506202Y-76131458D02*
X161617318Y-76168497D01*
X161617318Y-76168497D02*
X162024747Y-76575925D01*
X162395136Y-76205536D02*
X161617318Y-75427718D01*
X162172902Y-75835147D02*
X162691447Y-75909224D01*
X162172902Y-75390679D02*
X162172902Y-75983302D01*
X153109847Y-87180540D02*
X153369119Y-86921268D01*
X153887664Y-87217579D02*
X153517275Y-87587969D01*
X153517275Y-87587969D02*
X152739457Y-86810151D01*
X152739457Y-86810151D02*
X153109847Y-86439762D01*
X154146937Y-86884229D02*
X154295092Y-86810151D01*
X154295092Y-86810151D02*
X154480287Y-86624957D01*
X154480287Y-86624957D02*
X154517326Y-86513840D01*
X154517326Y-86513840D02*
X154517326Y-86439762D01*
X154517326Y-86439762D02*
X154480287Y-86328645D01*
X154480287Y-86328645D02*
X154406209Y-86254567D01*
X154406209Y-86254567D02*
X154295092Y-86217528D01*
X154295092Y-86217528D02*
X154221014Y-86217528D01*
X154221014Y-86217528D02*
X154109898Y-86254567D01*
X154109898Y-86254567D02*
X153924703Y-86365684D01*
X153924703Y-86365684D02*
X153813586Y-86402723D01*
X153813586Y-86402723D02*
X153739508Y-86402723D01*
X153739508Y-86402723D02*
X153628392Y-86365684D01*
X153628392Y-86365684D02*
X153554314Y-86291606D01*
X153554314Y-86291606D02*
X153517275Y-86180489D01*
X153517275Y-86180489D02*
X153517275Y-86106412D01*
X153517275Y-86106412D02*
X153554314Y-85995295D01*
X153554314Y-85995295D02*
X153739508Y-85810100D01*
X153739508Y-85810100D02*
X153887664Y-85736022D01*
X154961793Y-86143451D02*
X154183976Y-85365633D01*
X154183976Y-85365633D02*
X154480287Y-85069322D01*
X154480287Y-85069322D02*
X154591404Y-85032283D01*
X154591404Y-85032283D02*
X154665482Y-85032283D01*
X154665482Y-85032283D02*
X154776598Y-85069322D01*
X154776598Y-85069322D02*
X154887715Y-85180438D01*
X154887715Y-85180438D02*
X154924754Y-85291555D01*
X154924754Y-85291555D02*
X154924754Y-85365633D01*
X154924754Y-85365633D02*
X154887715Y-85476750D01*
X154887715Y-85476750D02*
X154591404Y-85773061D01*
X154887715Y-84661893D02*
X155369221Y-84180387D01*
X155369221Y-84180387D02*
X155406260Y-84735971D01*
X155406260Y-84735971D02*
X155517377Y-84624855D01*
X155517377Y-84624855D02*
X155628494Y-84587816D01*
X155628494Y-84587816D02*
X155702571Y-84587816D01*
X155702571Y-84587816D02*
X155813688Y-84624855D01*
X155813688Y-84624855D02*
X155998883Y-84810049D01*
X155998883Y-84810049D02*
X156035922Y-84921166D01*
X156035922Y-84921166D02*
X156035922Y-84995244D01*
X156035922Y-84995244D02*
X155998883Y-85106361D01*
X155998883Y-85106361D02*
X155776649Y-85328594D01*
X155776649Y-85328594D02*
X155665533Y-85365633D01*
X155665533Y-85365633D02*
X155591455Y-85365633D01*
X155739610Y-83958154D02*
X155739610Y-83884076D01*
X155739610Y-83884076D02*
X155776649Y-83772959D01*
X155776649Y-83772959D02*
X155961844Y-83587765D01*
X155961844Y-83587765D02*
X156072961Y-83550726D01*
X156072961Y-83550726D02*
X156147039Y-83550726D01*
X156147039Y-83550726D02*
X156258155Y-83587765D01*
X156258155Y-83587765D02*
X156332233Y-83661843D01*
X156332233Y-83661843D02*
X156406311Y-83809998D01*
X156406311Y-83809998D02*
X156406311Y-84698932D01*
X156406311Y-84698932D02*
X156887817Y-84217426D01*
X156924856Y-83587765D02*
X157517479Y-82995142D01*
X158554569Y-82402519D02*
X158554569Y-82476597D01*
X158554569Y-82476597D02*
X158480491Y-82624752D01*
X158480491Y-82624752D02*
X158406413Y-82698830D01*
X158406413Y-82698830D02*
X158258258Y-82772908D01*
X158258258Y-82772908D02*
X158110102Y-82772908D01*
X158110102Y-82772908D02*
X157998985Y-82735869D01*
X157998985Y-82735869D02*
X157813790Y-82624752D01*
X157813790Y-82624752D02*
X157702674Y-82513636D01*
X157702674Y-82513636D02*
X157591557Y-82328441D01*
X157591557Y-82328441D02*
X157554518Y-82217324D01*
X157554518Y-82217324D02*
X157554518Y-82069169D01*
X157554518Y-82069169D02*
X157628596Y-81921013D01*
X157628596Y-81921013D02*
X157702674Y-81846935D01*
X157702674Y-81846935D02*
X157850829Y-81772857D01*
X157850829Y-81772857D02*
X157924907Y-81772857D01*
X158110102Y-81439507D02*
X158591608Y-80958001D01*
X158591608Y-80958001D02*
X158628647Y-81513585D01*
X158628647Y-81513585D02*
X158739764Y-81402468D01*
X158739764Y-81402468D02*
X158850880Y-81365429D01*
X158850880Y-81365429D02*
X158924958Y-81365429D01*
X158924958Y-81365429D02*
X159036075Y-81402468D01*
X159036075Y-81402468D02*
X159221270Y-81587662D01*
X159221270Y-81587662D02*
X159258309Y-81698779D01*
X159258309Y-81698779D02*
X159258309Y-81772857D01*
X159258309Y-81772857D02*
X159221270Y-81883974D01*
X159221270Y-81883974D02*
X158999036Y-82106207D01*
X158999036Y-82106207D02*
X158887919Y-82143246D01*
X158887919Y-82143246D02*
X158813841Y-82143246D01*
X159406464Y-81106156D02*
X159999087Y-80513534D01*
X160665788Y-80439456D02*
X159887970Y-79661638D01*
X159887970Y-79661638D02*
X160702827Y-79957950D01*
X160702827Y-79957950D02*
X160406515Y-79143093D01*
X160406515Y-79143093D02*
X161184333Y-79920911D01*
X161554722Y-79550521D02*
X160776905Y-78772704D01*
X161925112Y-79180132D02*
X161147294Y-78402314D01*
X161147294Y-78402314D02*
X162369579Y-78735665D01*
X162369579Y-78735665D02*
X161591762Y-77957847D01*
X162739968Y-78365275D02*
X161962151Y-77587458D01*
X127511905Y-122305630D02*
X127669048Y-122358011D01*
X127669048Y-122358011D02*
X127721429Y-122410392D01*
X127721429Y-122410392D02*
X127773810Y-122515154D01*
X127773810Y-122515154D02*
X127773810Y-122672297D01*
X127773810Y-122672297D02*
X127721429Y-122777059D01*
X127721429Y-122777059D02*
X127669048Y-122829440D01*
X127669048Y-122829440D02*
X127564286Y-122881820D01*
X127564286Y-122881820D02*
X127145238Y-122881820D01*
X127145238Y-122881820D02*
X127145238Y-121781820D01*
X127145238Y-121781820D02*
X127511905Y-121781820D01*
X127511905Y-121781820D02*
X127616667Y-121834201D01*
X127616667Y-121834201D02*
X127669048Y-121886582D01*
X127669048Y-121886582D02*
X127721429Y-121991344D01*
X127721429Y-121991344D02*
X127721429Y-122096106D01*
X127721429Y-122096106D02*
X127669048Y-122200868D01*
X127669048Y-122200868D02*
X127616667Y-122253249D01*
X127616667Y-122253249D02*
X127511905Y-122305630D01*
X127511905Y-122305630D02*
X127145238Y-122305630D01*
X128716667Y-122148487D02*
X128716667Y-122881820D01*
X128245238Y-122148487D02*
X128245238Y-122724678D01*
X128245238Y-122724678D02*
X128297619Y-122829440D01*
X128297619Y-122829440D02*
X128402381Y-122881820D01*
X128402381Y-122881820D02*
X128559524Y-122881820D01*
X128559524Y-122881820D02*
X128664286Y-122829440D01*
X128664286Y-122829440D02*
X128716667Y-122777059D01*
X129083333Y-122148487D02*
X129502381Y-122148487D01*
X129240476Y-121781820D02*
X129240476Y-122724678D01*
X129240476Y-122724678D02*
X129292857Y-122829440D01*
X129292857Y-122829440D02*
X129397619Y-122881820D01*
X129397619Y-122881820D02*
X129502381Y-122881820D01*
X129711904Y-122148487D02*
X130130952Y-122148487D01*
X129869047Y-121781820D02*
X129869047Y-122724678D01*
X129869047Y-122724678D02*
X129921428Y-122829440D01*
X129921428Y-122829440D02*
X130026190Y-122881820D01*
X130026190Y-122881820D02*
X130130952Y-122881820D01*
X130654761Y-122881820D02*
X130549999Y-122829440D01*
X130549999Y-122829440D02*
X130497618Y-122777059D01*
X130497618Y-122777059D02*
X130445237Y-122672297D01*
X130445237Y-122672297D02*
X130445237Y-122358011D01*
X130445237Y-122358011D02*
X130497618Y-122253249D01*
X130497618Y-122253249D02*
X130549999Y-122200868D01*
X130549999Y-122200868D02*
X130654761Y-122148487D01*
X130654761Y-122148487D02*
X130811904Y-122148487D01*
X130811904Y-122148487D02*
X130916666Y-122200868D01*
X130916666Y-122200868D02*
X130969047Y-122253249D01*
X130969047Y-122253249D02*
X131021428Y-122358011D01*
X131021428Y-122358011D02*
X131021428Y-122672297D01*
X131021428Y-122672297D02*
X130969047Y-122777059D01*
X130969047Y-122777059D02*
X130916666Y-122829440D01*
X130916666Y-122829440D02*
X130811904Y-122881820D01*
X130811904Y-122881820D02*
X130654761Y-122881820D01*
X131492856Y-122148487D02*
X131492856Y-122881820D01*
X131492856Y-122253249D02*
X131545237Y-122200868D01*
X131545237Y-122200868D02*
X131649999Y-122148487D01*
X131649999Y-122148487D02*
X131807142Y-122148487D01*
X131807142Y-122148487D02*
X131911904Y-122200868D01*
X131911904Y-122200868D02*
X131964285Y-122305630D01*
X131964285Y-122305630D02*
X131964285Y-122881820D01*
X132435713Y-122829440D02*
X132540475Y-122881820D01*
X132540475Y-122881820D02*
X132749999Y-122881820D01*
X132749999Y-122881820D02*
X132854761Y-122829440D01*
X132854761Y-122829440D02*
X132907142Y-122724678D01*
X132907142Y-122724678D02*
X132907142Y-122672297D01*
X132907142Y-122672297D02*
X132854761Y-122567535D01*
X132854761Y-122567535D02*
X132749999Y-122515154D01*
X132749999Y-122515154D02*
X132592856Y-122515154D01*
X132592856Y-122515154D02*
X132488094Y-122462773D01*
X132488094Y-122462773D02*
X132435713Y-122358011D01*
X132435713Y-122358011D02*
X132435713Y-122305630D01*
X132435713Y-122305630D02*
X132488094Y-122200868D01*
X132488094Y-122200868D02*
X132592856Y-122148487D01*
X132592856Y-122148487D02*
X132749999Y-122148487D01*
X132749999Y-122148487D02*
X132854761Y-122200868D01*
D11*
X125071428Y-107427628D02*
X125928571Y-107427628D01*
X124899999Y-107941914D02*
X125499999Y-106141914D01*
X125499999Y-106141914D02*
X126099999Y-107941914D01*
X126528570Y-106141914D02*
X126957142Y-107941914D01*
X126957142Y-107941914D02*
X127299999Y-106656200D01*
X127299999Y-106656200D02*
X127642856Y-107941914D01*
X127642856Y-107941914D02*
X128071428Y-106141914D01*
X128671428Y-107856200D02*
X128928571Y-107941914D01*
X128928571Y-107941914D02*
X129357142Y-107941914D01*
X129357142Y-107941914D02*
X129528571Y-107856200D01*
X129528571Y-107856200D02*
X129614285Y-107770485D01*
X129614285Y-107770485D02*
X129699999Y-107599057D01*
X129699999Y-107599057D02*
X129699999Y-107427628D01*
X129699999Y-107427628D02*
X129614285Y-107256200D01*
X129614285Y-107256200D02*
X129528571Y-107170485D01*
X129528571Y-107170485D02*
X129357142Y-107084771D01*
X129357142Y-107084771D02*
X129014285Y-106999057D01*
X129014285Y-106999057D02*
X128842856Y-106913342D01*
X128842856Y-106913342D02*
X128757142Y-106827628D01*
X128757142Y-106827628D02*
X128671428Y-106656200D01*
X128671428Y-106656200D02*
X128671428Y-106484771D01*
X128671428Y-106484771D02*
X128757142Y-106313342D01*
X128757142Y-106313342D02*
X128842856Y-106227628D01*
X128842856Y-106227628D02*
X129014285Y-106141914D01*
X129014285Y-106141914D02*
X129442856Y-106141914D01*
X129442856Y-106141914D02*
X129699999Y-106227628D01*
X131842857Y-107941914D02*
X131842857Y-106141914D01*
X132957143Y-107941914D02*
X132785714Y-107856200D01*
X132785714Y-107856200D02*
X132700000Y-107770485D01*
X132700000Y-107770485D02*
X132614286Y-107599057D01*
X132614286Y-107599057D02*
X132614286Y-107084771D01*
X132614286Y-107084771D02*
X132700000Y-106913342D01*
X132700000Y-106913342D02*
X132785714Y-106827628D01*
X132785714Y-106827628D02*
X132957143Y-106741914D01*
X132957143Y-106741914D02*
X133214286Y-106741914D01*
X133214286Y-106741914D02*
X133385714Y-106827628D01*
X133385714Y-106827628D02*
X133471429Y-106913342D01*
X133471429Y-106913342D02*
X133557143Y-107084771D01*
X133557143Y-107084771D02*
X133557143Y-107599057D01*
X133557143Y-107599057D02*
X133471429Y-107770485D01*
X133471429Y-107770485D02*
X133385714Y-107856200D01*
X133385714Y-107856200D02*
X133214286Y-107941914D01*
X133214286Y-107941914D02*
X132957143Y-107941914D01*
X134071428Y-106141914D02*
X135100000Y-106141914D01*
X134585714Y-107941914D02*
X134585714Y-106141914D01*
X118600001Y-110668485D02*
X118514287Y-110754200D01*
X118514287Y-110754200D02*
X118257144Y-110839914D01*
X118257144Y-110839914D02*
X118085716Y-110839914D01*
X118085716Y-110839914D02*
X117828573Y-110754200D01*
X117828573Y-110754200D02*
X117657144Y-110582771D01*
X117657144Y-110582771D02*
X117571430Y-110411342D01*
X117571430Y-110411342D02*
X117485716Y-110068485D01*
X117485716Y-110068485D02*
X117485716Y-109811342D01*
X117485716Y-109811342D02*
X117571430Y-109468485D01*
X117571430Y-109468485D02*
X117657144Y-109297057D01*
X117657144Y-109297057D02*
X117828573Y-109125628D01*
X117828573Y-109125628D02*
X118085716Y-109039914D01*
X118085716Y-109039914D02*
X118257144Y-109039914D01*
X118257144Y-109039914D02*
X118514287Y-109125628D01*
X118514287Y-109125628D02*
X118600001Y-109211342D01*
X119628573Y-110839914D02*
X119457144Y-110754200D01*
X119457144Y-110754200D02*
X119371430Y-110668485D01*
X119371430Y-110668485D02*
X119285716Y-110497057D01*
X119285716Y-110497057D02*
X119285716Y-109982771D01*
X119285716Y-109982771D02*
X119371430Y-109811342D01*
X119371430Y-109811342D02*
X119457144Y-109725628D01*
X119457144Y-109725628D02*
X119628573Y-109639914D01*
X119628573Y-109639914D02*
X119885716Y-109639914D01*
X119885716Y-109639914D02*
X120057144Y-109725628D01*
X120057144Y-109725628D02*
X120142859Y-109811342D01*
X120142859Y-109811342D02*
X120228573Y-109982771D01*
X120228573Y-109982771D02*
X120228573Y-110497057D01*
X120228573Y-110497057D02*
X120142859Y-110668485D01*
X120142859Y-110668485D02*
X120057144Y-110754200D01*
X120057144Y-110754200D02*
X119885716Y-110839914D01*
X119885716Y-110839914D02*
X119628573Y-110839914D01*
X121000001Y-109639914D02*
X121000001Y-110839914D01*
X121000001Y-109811342D02*
X121085715Y-109725628D01*
X121085715Y-109725628D02*
X121257144Y-109639914D01*
X121257144Y-109639914D02*
X121514287Y-109639914D01*
X121514287Y-109639914D02*
X121685715Y-109725628D01*
X121685715Y-109725628D02*
X121771430Y-109897057D01*
X121771430Y-109897057D02*
X121771430Y-110839914D01*
X122628572Y-109639914D02*
X122628572Y-110839914D01*
X122628572Y-109811342D02*
X122714286Y-109725628D01*
X122714286Y-109725628D02*
X122885715Y-109639914D01*
X122885715Y-109639914D02*
X123142858Y-109639914D01*
X123142858Y-109639914D02*
X123314286Y-109725628D01*
X123314286Y-109725628D02*
X123400001Y-109897057D01*
X123400001Y-109897057D02*
X123400001Y-110839914D01*
X124942857Y-110754200D02*
X124771429Y-110839914D01*
X124771429Y-110839914D02*
X124428572Y-110839914D01*
X124428572Y-110839914D02*
X124257143Y-110754200D01*
X124257143Y-110754200D02*
X124171429Y-110582771D01*
X124171429Y-110582771D02*
X124171429Y-109897057D01*
X124171429Y-109897057D02*
X124257143Y-109725628D01*
X124257143Y-109725628D02*
X124428572Y-109639914D01*
X124428572Y-109639914D02*
X124771429Y-109639914D01*
X124771429Y-109639914D02*
X124942857Y-109725628D01*
X124942857Y-109725628D02*
X125028572Y-109897057D01*
X125028572Y-109897057D02*
X125028572Y-110068485D01*
X125028572Y-110068485D02*
X124171429Y-110239914D01*
X126571429Y-110754200D02*
X126400000Y-110839914D01*
X126400000Y-110839914D02*
X126057143Y-110839914D01*
X126057143Y-110839914D02*
X125885714Y-110754200D01*
X125885714Y-110754200D02*
X125800000Y-110668485D01*
X125800000Y-110668485D02*
X125714286Y-110497057D01*
X125714286Y-110497057D02*
X125714286Y-109982771D01*
X125714286Y-109982771D02*
X125800000Y-109811342D01*
X125800000Y-109811342D02*
X125885714Y-109725628D01*
X125885714Y-109725628D02*
X126057143Y-109639914D01*
X126057143Y-109639914D02*
X126400000Y-109639914D01*
X126400000Y-109639914D02*
X126571429Y-109725628D01*
X127085714Y-109639914D02*
X127771428Y-109639914D01*
X127342857Y-109039914D02*
X127342857Y-110582771D01*
X127342857Y-110582771D02*
X127428571Y-110754200D01*
X127428571Y-110754200D02*
X127600000Y-110839914D01*
X127600000Y-110839914D02*
X127771428Y-110839914D01*
X129057142Y-110754200D02*
X128885714Y-110839914D01*
X128885714Y-110839914D02*
X128542857Y-110839914D01*
X128542857Y-110839914D02*
X128371428Y-110754200D01*
X128371428Y-110754200D02*
X128285714Y-110582771D01*
X128285714Y-110582771D02*
X128285714Y-109897057D01*
X128285714Y-109897057D02*
X128371428Y-109725628D01*
X128371428Y-109725628D02*
X128542857Y-109639914D01*
X128542857Y-109639914D02*
X128885714Y-109639914D01*
X128885714Y-109639914D02*
X129057142Y-109725628D01*
X129057142Y-109725628D02*
X129142857Y-109897057D01*
X129142857Y-109897057D02*
X129142857Y-110068485D01*
X129142857Y-110068485D02*
X128285714Y-110239914D01*
X130685714Y-110839914D02*
X130685714Y-109039914D01*
X130685714Y-110754200D02*
X130514285Y-110839914D01*
X130514285Y-110839914D02*
X130171428Y-110839914D01*
X130171428Y-110839914D02*
X129999999Y-110754200D01*
X129999999Y-110754200D02*
X129914285Y-110668485D01*
X129914285Y-110668485D02*
X129828571Y-110497057D01*
X129828571Y-110497057D02*
X129828571Y-109982771D01*
X129828571Y-109982771D02*
X129914285Y-109811342D01*
X129914285Y-109811342D02*
X129999999Y-109725628D01*
X129999999Y-109725628D02*
X130171428Y-109639914D01*
X130171428Y-109639914D02*
X130514285Y-109639914D01*
X130514285Y-109639914D02*
X130685714Y-109725628D01*
X132914285Y-110839914D02*
X132914285Y-109039914D01*
X132914285Y-109039914D02*
X133599999Y-109039914D01*
X133599999Y-109039914D02*
X133771428Y-109125628D01*
X133771428Y-109125628D02*
X133857142Y-109211342D01*
X133857142Y-109211342D02*
X133942856Y-109382771D01*
X133942856Y-109382771D02*
X133942856Y-109639914D01*
X133942856Y-109639914D02*
X133857142Y-109811342D01*
X133857142Y-109811342D02*
X133771428Y-109897057D01*
X133771428Y-109897057D02*
X133599999Y-109982771D01*
X133599999Y-109982771D02*
X132914285Y-109982771D01*
X134714285Y-110839914D02*
X134714285Y-109639914D01*
X134714285Y-109982771D02*
X134799999Y-109811342D01*
X134799999Y-109811342D02*
X134885714Y-109725628D01*
X134885714Y-109725628D02*
X135057142Y-109639914D01*
X135057142Y-109639914D02*
X135228571Y-109639914D01*
X136085714Y-110839914D02*
X135914285Y-110754200D01*
X135914285Y-110754200D02*
X135828571Y-110668485D01*
X135828571Y-110668485D02*
X135742857Y-110497057D01*
X135742857Y-110497057D02*
X135742857Y-109982771D01*
X135742857Y-109982771D02*
X135828571Y-109811342D01*
X135828571Y-109811342D02*
X135914285Y-109725628D01*
X135914285Y-109725628D02*
X136085714Y-109639914D01*
X136085714Y-109639914D02*
X136342857Y-109639914D01*
X136342857Y-109639914D02*
X136514285Y-109725628D01*
X136514285Y-109725628D02*
X136600000Y-109811342D01*
X136600000Y-109811342D02*
X136685714Y-109982771D01*
X136685714Y-109982771D02*
X136685714Y-110497057D01*
X136685714Y-110497057D02*
X136600000Y-110668485D01*
X136600000Y-110668485D02*
X136514285Y-110754200D01*
X136514285Y-110754200D02*
X136342857Y-110839914D01*
X136342857Y-110839914D02*
X136085714Y-110839914D01*
X138228571Y-110839914D02*
X138228571Y-109039914D01*
X138228571Y-110754200D02*
X138057142Y-110839914D01*
X138057142Y-110839914D02*
X137714285Y-110839914D01*
X137714285Y-110839914D02*
X137542856Y-110754200D01*
X137542856Y-110754200D02*
X137457142Y-110668485D01*
X137457142Y-110668485D02*
X137371428Y-110497057D01*
X137371428Y-110497057D02*
X137371428Y-109982771D01*
X137371428Y-109982771D02*
X137457142Y-109811342D01*
X137457142Y-109811342D02*
X137542856Y-109725628D01*
X137542856Y-109725628D02*
X137714285Y-109639914D01*
X137714285Y-109639914D02*
X138057142Y-109639914D01*
X138057142Y-109639914D02*
X138228571Y-109725628D01*
X139857142Y-109639914D02*
X139857142Y-110839914D01*
X139085713Y-109639914D02*
X139085713Y-110582771D01*
X139085713Y-110582771D02*
X139171427Y-110754200D01*
X139171427Y-110754200D02*
X139342856Y-110839914D01*
X139342856Y-110839914D02*
X139599999Y-110839914D01*
X139599999Y-110839914D02*
X139771427Y-110754200D01*
X139771427Y-110754200D02*
X139857142Y-110668485D01*
X141485713Y-110754200D02*
X141314284Y-110839914D01*
X141314284Y-110839914D02*
X140971427Y-110839914D01*
X140971427Y-110839914D02*
X140799998Y-110754200D01*
X140799998Y-110754200D02*
X140714284Y-110668485D01*
X140714284Y-110668485D02*
X140628570Y-110497057D01*
X140628570Y-110497057D02*
X140628570Y-109982771D01*
X140628570Y-109982771D02*
X140714284Y-109811342D01*
X140714284Y-109811342D02*
X140799998Y-109725628D01*
X140799998Y-109725628D02*
X140971427Y-109639914D01*
X140971427Y-109639914D02*
X141314284Y-109639914D01*
X141314284Y-109639914D02*
X141485713Y-109725628D01*
X141999998Y-109639914D02*
X142685712Y-109639914D01*
X142257141Y-109039914D02*
X142257141Y-110582771D01*
X142257141Y-110582771D02*
X142342855Y-110754200D01*
X142342855Y-110754200D02*
X142514284Y-110839914D01*
X142514284Y-110839914D02*
X142685712Y-110839914D01*
X121942858Y-113737914D02*
X121942858Y-111937914D01*
X121942858Y-111937914D02*
X122371429Y-111937914D01*
X122371429Y-111937914D02*
X122628572Y-112023628D01*
X122628572Y-112023628D02*
X122800001Y-112195057D01*
X122800001Y-112195057D02*
X122885715Y-112366485D01*
X122885715Y-112366485D02*
X122971429Y-112709342D01*
X122971429Y-112709342D02*
X122971429Y-112966485D01*
X122971429Y-112966485D02*
X122885715Y-113309342D01*
X122885715Y-113309342D02*
X122800001Y-113480771D01*
X122800001Y-113480771D02*
X122628572Y-113652200D01*
X122628572Y-113652200D02*
X122371429Y-113737914D01*
X122371429Y-113737914D02*
X121942858Y-113737914D01*
X124428572Y-113652200D02*
X124257144Y-113737914D01*
X124257144Y-113737914D02*
X123914287Y-113737914D01*
X123914287Y-113737914D02*
X123742858Y-113652200D01*
X123742858Y-113652200D02*
X123657144Y-113480771D01*
X123657144Y-113480771D02*
X123657144Y-112795057D01*
X123657144Y-112795057D02*
X123742858Y-112623628D01*
X123742858Y-112623628D02*
X123914287Y-112537914D01*
X123914287Y-112537914D02*
X124257144Y-112537914D01*
X124257144Y-112537914D02*
X124428572Y-112623628D01*
X124428572Y-112623628D02*
X124514287Y-112795057D01*
X124514287Y-112795057D02*
X124514287Y-112966485D01*
X124514287Y-112966485D02*
X123657144Y-113137914D01*
X125285715Y-113737914D02*
X125285715Y-112537914D01*
X125285715Y-112709342D02*
X125371429Y-112623628D01*
X125371429Y-112623628D02*
X125542858Y-112537914D01*
X125542858Y-112537914D02*
X125800001Y-112537914D01*
X125800001Y-112537914D02*
X125971429Y-112623628D01*
X125971429Y-112623628D02*
X126057144Y-112795057D01*
X126057144Y-112795057D02*
X126057144Y-113737914D01*
X126057144Y-112795057D02*
X126142858Y-112623628D01*
X126142858Y-112623628D02*
X126314286Y-112537914D01*
X126314286Y-112537914D02*
X126571429Y-112537914D01*
X126571429Y-112537914D02*
X126742858Y-112623628D01*
X126742858Y-112623628D02*
X126828572Y-112795057D01*
X126828572Y-112795057D02*
X126828572Y-113737914D01*
X127942858Y-113737914D02*
X127771429Y-113652200D01*
X127771429Y-113652200D02*
X127685715Y-113566485D01*
X127685715Y-113566485D02*
X127600001Y-113395057D01*
X127600001Y-113395057D02*
X127600001Y-112880771D01*
X127600001Y-112880771D02*
X127685715Y-112709342D01*
X127685715Y-112709342D02*
X127771429Y-112623628D01*
X127771429Y-112623628D02*
X127942858Y-112537914D01*
X127942858Y-112537914D02*
X128200001Y-112537914D01*
X128200001Y-112537914D02*
X128371429Y-112623628D01*
X128371429Y-112623628D02*
X128457144Y-112709342D01*
X128457144Y-112709342D02*
X128542858Y-112880771D01*
X128542858Y-112880771D02*
X128542858Y-113395057D01*
X128542858Y-113395057D02*
X128457144Y-113566485D01*
X128457144Y-113566485D02*
X128371429Y-113652200D01*
X128371429Y-113652200D02*
X128200001Y-113737914D01*
X128200001Y-113737914D02*
X127942858Y-113737914D01*
X131285715Y-112795057D02*
X131542858Y-112880771D01*
X131542858Y-112880771D02*
X131628572Y-112966485D01*
X131628572Y-112966485D02*
X131714286Y-113137914D01*
X131714286Y-113137914D02*
X131714286Y-113395057D01*
X131714286Y-113395057D02*
X131628572Y-113566485D01*
X131628572Y-113566485D02*
X131542858Y-113652200D01*
X131542858Y-113652200D02*
X131371429Y-113737914D01*
X131371429Y-113737914D02*
X130685715Y-113737914D01*
X130685715Y-113737914D02*
X130685715Y-111937914D01*
X130685715Y-111937914D02*
X131285715Y-111937914D01*
X131285715Y-111937914D02*
X131457144Y-112023628D01*
X131457144Y-112023628D02*
X131542858Y-112109342D01*
X131542858Y-112109342D02*
X131628572Y-112280771D01*
X131628572Y-112280771D02*
X131628572Y-112452200D01*
X131628572Y-112452200D02*
X131542858Y-112623628D01*
X131542858Y-112623628D02*
X131457144Y-112709342D01*
X131457144Y-112709342D02*
X131285715Y-112795057D01*
X131285715Y-112795057D02*
X130685715Y-112795057D01*
X133257144Y-113737914D02*
X133257144Y-112795057D01*
X133257144Y-112795057D02*
X133171429Y-112623628D01*
X133171429Y-112623628D02*
X133000001Y-112537914D01*
X133000001Y-112537914D02*
X132657144Y-112537914D01*
X132657144Y-112537914D02*
X132485715Y-112623628D01*
X133257144Y-113652200D02*
X133085715Y-113737914D01*
X133085715Y-113737914D02*
X132657144Y-113737914D01*
X132657144Y-113737914D02*
X132485715Y-113652200D01*
X132485715Y-113652200D02*
X132400001Y-113480771D01*
X132400001Y-113480771D02*
X132400001Y-113309342D01*
X132400001Y-113309342D02*
X132485715Y-113137914D01*
X132485715Y-113137914D02*
X132657144Y-113052200D01*
X132657144Y-113052200D02*
X133085715Y-113052200D01*
X133085715Y-113052200D02*
X133257144Y-112966485D01*
X134885715Y-113737914D02*
X134885715Y-111937914D01*
X134885715Y-113652200D02*
X134714286Y-113737914D01*
X134714286Y-113737914D02*
X134371429Y-113737914D01*
X134371429Y-113737914D02*
X134200000Y-113652200D01*
X134200000Y-113652200D02*
X134114286Y-113566485D01*
X134114286Y-113566485D02*
X134028572Y-113395057D01*
X134028572Y-113395057D02*
X134028572Y-112880771D01*
X134028572Y-112880771D02*
X134114286Y-112709342D01*
X134114286Y-112709342D02*
X134200000Y-112623628D01*
X134200000Y-112623628D02*
X134371429Y-112537914D01*
X134371429Y-112537914D02*
X134714286Y-112537914D01*
X134714286Y-112537914D02*
X134885715Y-112623628D01*
X136514286Y-112537914D02*
X136514286Y-113995057D01*
X136514286Y-113995057D02*
X136428571Y-114166485D01*
X136428571Y-114166485D02*
X136342857Y-114252200D01*
X136342857Y-114252200D02*
X136171428Y-114337914D01*
X136171428Y-114337914D02*
X135914286Y-114337914D01*
X135914286Y-114337914D02*
X135742857Y-114252200D01*
X136514286Y-113652200D02*
X136342857Y-113737914D01*
X136342857Y-113737914D02*
X136000000Y-113737914D01*
X136000000Y-113737914D02*
X135828571Y-113652200D01*
X135828571Y-113652200D02*
X135742857Y-113566485D01*
X135742857Y-113566485D02*
X135657143Y-113395057D01*
X135657143Y-113395057D02*
X135657143Y-112880771D01*
X135657143Y-112880771D02*
X135742857Y-112709342D01*
X135742857Y-112709342D02*
X135828571Y-112623628D01*
X135828571Y-112623628D02*
X136000000Y-112537914D01*
X136000000Y-112537914D02*
X136342857Y-112537914D01*
X136342857Y-112537914D02*
X136514286Y-112623628D01*
X138057142Y-113652200D02*
X137885714Y-113737914D01*
X137885714Y-113737914D02*
X137542857Y-113737914D01*
X137542857Y-113737914D02*
X137371428Y-113652200D01*
X137371428Y-113652200D02*
X137285714Y-113480771D01*
X137285714Y-113480771D02*
X137285714Y-112795057D01*
X137285714Y-112795057D02*
X137371428Y-112623628D01*
X137371428Y-112623628D02*
X137542857Y-112537914D01*
X137542857Y-112537914D02*
X137885714Y-112537914D01*
X137885714Y-112537914D02*
X138057142Y-112623628D01*
X138057142Y-112623628D02*
X138142857Y-112795057D01*
X138142857Y-112795057D02*
X138142857Y-112966485D01*
X138142857Y-112966485D02*
X137285714Y-113137914D01*
D10*
X129633333Y-129306480D02*
X130314286Y-129306480D01*
X130314286Y-129306480D02*
X129947619Y-129725528D01*
X129947619Y-129725528D02*
X130104762Y-129725528D01*
X130104762Y-129725528D02*
X130209524Y-129777909D01*
X130209524Y-129777909D02*
X130261905Y-129830290D01*
X130261905Y-129830290D02*
X130314286Y-129935052D01*
X130314286Y-129935052D02*
X130314286Y-130196957D01*
X130314286Y-130196957D02*
X130261905Y-130301719D01*
X130261905Y-130301719D02*
X130209524Y-130354100D01*
X130209524Y-130354100D02*
X130104762Y-130406480D01*
X130104762Y-130406480D02*
X129790476Y-130406480D01*
X129790476Y-130406480D02*
X129685714Y-130354100D01*
X129685714Y-130354100D02*
X129633333Y-130301719D01*
X147372381Y-97760980D02*
X147372381Y-96660980D01*
X147372381Y-96660980D02*
X148000953Y-97760980D01*
X148000953Y-97760980D02*
X148000953Y-96660980D01*
X148943810Y-97708600D02*
X148839048Y-97760980D01*
X148839048Y-97760980D02*
X148629524Y-97760980D01*
X148629524Y-97760980D02*
X148524762Y-97708600D01*
X148524762Y-97708600D02*
X148472381Y-97603838D01*
X148472381Y-97603838D02*
X148472381Y-97184790D01*
X148472381Y-97184790D02*
X148524762Y-97080028D01*
X148524762Y-97080028D02*
X148629524Y-97027647D01*
X148629524Y-97027647D02*
X148839048Y-97027647D01*
X148839048Y-97027647D02*
X148943810Y-97080028D01*
X148943810Y-97080028D02*
X148996191Y-97184790D01*
X148996191Y-97184790D02*
X148996191Y-97289552D01*
X148996191Y-97289552D02*
X148472381Y-97394314D01*
X149624762Y-97760980D02*
X149520000Y-97708600D01*
X149520000Y-97708600D02*
X149467619Y-97656219D01*
X149467619Y-97656219D02*
X149415238Y-97551457D01*
X149415238Y-97551457D02*
X149415238Y-97237171D01*
X149415238Y-97237171D02*
X149467619Y-97132409D01*
X149467619Y-97132409D02*
X149520000Y-97080028D01*
X149520000Y-97080028D02*
X149624762Y-97027647D01*
X149624762Y-97027647D02*
X149781905Y-97027647D01*
X149781905Y-97027647D02*
X149886667Y-97080028D01*
X149886667Y-97080028D02*
X149939048Y-97132409D01*
X149939048Y-97132409D02*
X149991429Y-97237171D01*
X149991429Y-97237171D02*
X149991429Y-97551457D01*
X149991429Y-97551457D02*
X149939048Y-97656219D01*
X149939048Y-97656219D02*
X149886667Y-97708600D01*
X149886667Y-97708600D02*
X149781905Y-97760980D01*
X149781905Y-97760980D02*
X149624762Y-97760980D01*
X150462857Y-97027647D02*
X150462857Y-98127647D01*
X150462857Y-97080028D02*
X150567619Y-97027647D01*
X150567619Y-97027647D02*
X150777143Y-97027647D01*
X150777143Y-97027647D02*
X150881905Y-97080028D01*
X150881905Y-97080028D02*
X150934286Y-97132409D01*
X150934286Y-97132409D02*
X150986667Y-97237171D01*
X150986667Y-97237171D02*
X150986667Y-97551457D01*
X150986667Y-97551457D02*
X150934286Y-97656219D01*
X150934286Y-97656219D02*
X150881905Y-97708600D01*
X150881905Y-97708600D02*
X150777143Y-97760980D01*
X150777143Y-97760980D02*
X150567619Y-97760980D01*
X150567619Y-97760980D02*
X150462857Y-97708600D01*
X151458095Y-97760980D02*
X151458095Y-97027647D01*
X151458095Y-96660980D02*
X151405714Y-96713361D01*
X151405714Y-96713361D02*
X151458095Y-96765742D01*
X151458095Y-96765742D02*
X151510476Y-96713361D01*
X151510476Y-96713361D02*
X151458095Y-96660980D01*
X151458095Y-96660980D02*
X151458095Y-96765742D01*
X151877143Y-97760980D02*
X152453334Y-97027647D01*
X151877143Y-97027647D02*
X152453334Y-97760980D01*
X153291429Y-97708600D02*
X153186667Y-97760980D01*
X153186667Y-97760980D02*
X152977143Y-97760980D01*
X152977143Y-97760980D02*
X152872381Y-97708600D01*
X152872381Y-97708600D02*
X152820000Y-97603838D01*
X152820000Y-97603838D02*
X152820000Y-97184790D01*
X152820000Y-97184790D02*
X152872381Y-97080028D01*
X152872381Y-97080028D02*
X152977143Y-97027647D01*
X152977143Y-97027647D02*
X153186667Y-97027647D01*
X153186667Y-97027647D02*
X153291429Y-97080028D01*
X153291429Y-97080028D02*
X153343810Y-97184790D01*
X153343810Y-97184790D02*
X153343810Y-97289552D01*
X153343810Y-97289552D02*
X152820000Y-97394314D01*
X153972381Y-97760980D02*
X153867619Y-97708600D01*
X153867619Y-97708600D02*
X153815238Y-97603838D01*
X153815238Y-97603838D02*
X153815238Y-96660980D01*
X147529523Y-98431980D02*
X147791428Y-99531980D01*
X147791428Y-99531980D02*
X148000952Y-98746266D01*
X148000952Y-98746266D02*
X148210476Y-99531980D01*
X148210476Y-99531980D02*
X148472381Y-98431980D01*
X148839047Y-99479600D02*
X148996190Y-99531980D01*
X148996190Y-99531980D02*
X149258095Y-99531980D01*
X149258095Y-99531980D02*
X149362857Y-99479600D01*
X149362857Y-99479600D02*
X149415238Y-99427219D01*
X149415238Y-99427219D02*
X149467619Y-99322457D01*
X149467619Y-99322457D02*
X149467619Y-99217695D01*
X149467619Y-99217695D02*
X149415238Y-99112933D01*
X149415238Y-99112933D02*
X149362857Y-99060552D01*
X149362857Y-99060552D02*
X149258095Y-99008171D01*
X149258095Y-99008171D02*
X149048571Y-98955790D01*
X149048571Y-98955790D02*
X148943809Y-98903409D01*
X148943809Y-98903409D02*
X148891428Y-98851028D01*
X148891428Y-98851028D02*
X148839047Y-98746266D01*
X148839047Y-98746266D02*
X148839047Y-98641504D01*
X148839047Y-98641504D02*
X148891428Y-98536742D01*
X148891428Y-98536742D02*
X148943809Y-98484361D01*
X148943809Y-98484361D02*
X149048571Y-98431980D01*
X149048571Y-98431980D02*
X149310476Y-98431980D01*
X149310476Y-98431980D02*
X149467619Y-98484361D01*
X149886666Y-98536742D02*
X149939047Y-98484361D01*
X149939047Y-98484361D02*
X150043809Y-98431980D01*
X150043809Y-98431980D02*
X150305714Y-98431980D01*
X150305714Y-98431980D02*
X150410476Y-98484361D01*
X150410476Y-98484361D02*
X150462857Y-98536742D01*
X150462857Y-98536742D02*
X150515238Y-98641504D01*
X150515238Y-98641504D02*
X150515238Y-98746266D01*
X150515238Y-98746266D02*
X150462857Y-98903409D01*
X150462857Y-98903409D02*
X149834285Y-99531980D01*
X149834285Y-99531980D02*
X150515238Y-99531980D01*
X151143809Y-98903409D02*
X151039047Y-98851028D01*
X151039047Y-98851028D02*
X150986666Y-98798647D01*
X150986666Y-98798647D02*
X150934285Y-98693885D01*
X150934285Y-98693885D02*
X150934285Y-98641504D01*
X150934285Y-98641504D02*
X150986666Y-98536742D01*
X150986666Y-98536742D02*
X151039047Y-98484361D01*
X151039047Y-98484361D02*
X151143809Y-98431980D01*
X151143809Y-98431980D02*
X151353333Y-98431980D01*
X151353333Y-98431980D02*
X151458095Y-98484361D01*
X151458095Y-98484361D02*
X151510476Y-98536742D01*
X151510476Y-98536742D02*
X151562857Y-98641504D01*
X151562857Y-98641504D02*
X151562857Y-98693885D01*
X151562857Y-98693885D02*
X151510476Y-98798647D01*
X151510476Y-98798647D02*
X151458095Y-98851028D01*
X151458095Y-98851028D02*
X151353333Y-98903409D01*
X151353333Y-98903409D02*
X151143809Y-98903409D01*
X151143809Y-98903409D02*
X151039047Y-98955790D01*
X151039047Y-98955790D02*
X150986666Y-99008171D01*
X150986666Y-99008171D02*
X150934285Y-99112933D01*
X150934285Y-99112933D02*
X150934285Y-99322457D01*
X150934285Y-99322457D02*
X150986666Y-99427219D01*
X150986666Y-99427219D02*
X151039047Y-99479600D01*
X151039047Y-99479600D02*
X151143809Y-99531980D01*
X151143809Y-99531980D02*
X151353333Y-99531980D01*
X151353333Y-99531980D02*
X151458095Y-99479600D01*
X151458095Y-99479600D02*
X151510476Y-99427219D01*
X151510476Y-99427219D02*
X151562857Y-99322457D01*
X151562857Y-99322457D02*
X151562857Y-99112933D01*
X151562857Y-99112933D02*
X151510476Y-99008171D01*
X151510476Y-99008171D02*
X151458095Y-98955790D01*
X151458095Y-98955790D02*
X151353333Y-98903409D01*
X152610476Y-99531980D02*
X151981904Y-99531980D01*
X152296190Y-99531980D02*
X152296190Y-98431980D01*
X152296190Y-98431980D02*
X152191428Y-98589123D01*
X152191428Y-98589123D02*
X152086666Y-98693885D01*
X152086666Y-98693885D02*
X151981904Y-98746266D01*
X153029523Y-98536742D02*
X153081904Y-98484361D01*
X153081904Y-98484361D02*
X153186666Y-98431980D01*
X153186666Y-98431980D02*
X153448571Y-98431980D01*
X153448571Y-98431980D02*
X153553333Y-98484361D01*
X153553333Y-98484361D02*
X153605714Y-98536742D01*
X153605714Y-98536742D02*
X153658095Y-98641504D01*
X153658095Y-98641504D02*
X153658095Y-98746266D01*
X153658095Y-98746266D02*
X153605714Y-98903409D01*
X153605714Y-98903409D02*
X152977142Y-99531980D01*
X152977142Y-99531980D02*
X153658095Y-99531980D01*
X114050000Y-95255080D02*
X114678572Y-95255080D01*
X114364286Y-96355080D02*
X114364286Y-95255080D01*
X115464286Y-96302700D02*
X115359524Y-96355080D01*
X115359524Y-96355080D02*
X115150000Y-96355080D01*
X115150000Y-96355080D02*
X115045238Y-96302700D01*
X115045238Y-96302700D02*
X114992857Y-96197938D01*
X114992857Y-96197938D02*
X114992857Y-95778890D01*
X114992857Y-95778890D02*
X115045238Y-95674128D01*
X115045238Y-95674128D02*
X115150000Y-95621747D01*
X115150000Y-95621747D02*
X115359524Y-95621747D01*
X115359524Y-95621747D02*
X115464286Y-95674128D01*
X115464286Y-95674128D02*
X115516667Y-95778890D01*
X115516667Y-95778890D02*
X115516667Y-95883652D01*
X115516667Y-95883652D02*
X114992857Y-95988414D01*
X115988095Y-96355080D02*
X115988095Y-95621747D01*
X115988095Y-95726509D02*
X116040476Y-95674128D01*
X116040476Y-95674128D02*
X116145238Y-95621747D01*
X116145238Y-95621747D02*
X116302381Y-95621747D01*
X116302381Y-95621747D02*
X116407143Y-95674128D01*
X116407143Y-95674128D02*
X116459524Y-95778890D01*
X116459524Y-95778890D02*
X116459524Y-96355080D01*
X116459524Y-95778890D02*
X116511905Y-95674128D01*
X116511905Y-95674128D02*
X116616667Y-95621747D01*
X116616667Y-95621747D02*
X116773810Y-95621747D01*
X116773810Y-95621747D02*
X116878571Y-95674128D01*
X116878571Y-95674128D02*
X116930952Y-95778890D01*
X116930952Y-95778890D02*
X116930952Y-96355080D01*
X117454762Y-95621747D02*
X117454762Y-96721747D01*
X117454762Y-95674128D02*
X117559524Y-95621747D01*
X117559524Y-95621747D02*
X117769048Y-95621747D01*
X117769048Y-95621747D02*
X117873810Y-95674128D01*
X117873810Y-95674128D02*
X117926191Y-95726509D01*
X117926191Y-95726509D02*
X117978572Y-95831271D01*
X117978572Y-95831271D02*
X117978572Y-96145557D01*
X117978572Y-96145557D02*
X117926191Y-96250319D01*
X117926191Y-96250319D02*
X117873810Y-96302700D01*
X117873810Y-96302700D02*
X117769048Y-96355080D01*
X117769048Y-96355080D02*
X117559524Y-96355080D01*
X117559524Y-96355080D02*
X117454762Y-96302700D01*
X118869048Y-96302700D02*
X118764286Y-96355080D01*
X118764286Y-96355080D02*
X118554762Y-96355080D01*
X118554762Y-96355080D02*
X118450000Y-96302700D01*
X118450000Y-96302700D02*
X118397619Y-96197938D01*
X118397619Y-96197938D02*
X118397619Y-95778890D01*
X118397619Y-95778890D02*
X118450000Y-95674128D01*
X118450000Y-95674128D02*
X118554762Y-95621747D01*
X118554762Y-95621747D02*
X118764286Y-95621747D01*
X118764286Y-95621747D02*
X118869048Y-95674128D01*
X118869048Y-95674128D02*
X118921429Y-95778890D01*
X118921429Y-95778890D02*
X118921429Y-95883652D01*
X118921429Y-95883652D02*
X118397619Y-95988414D01*
X119392857Y-96355080D02*
X119392857Y-95621747D01*
X119392857Y-95831271D02*
X119445238Y-95726509D01*
X119445238Y-95726509D02*
X119497619Y-95674128D01*
X119497619Y-95674128D02*
X119602381Y-95621747D01*
X119602381Y-95621747D02*
X119707143Y-95621747D01*
X120545238Y-96355080D02*
X120545238Y-95778890D01*
X120545238Y-95778890D02*
X120492857Y-95674128D01*
X120492857Y-95674128D02*
X120388095Y-95621747D01*
X120388095Y-95621747D02*
X120178571Y-95621747D01*
X120178571Y-95621747D02*
X120073809Y-95674128D01*
X120545238Y-96302700D02*
X120440476Y-96355080D01*
X120440476Y-96355080D02*
X120178571Y-96355080D01*
X120178571Y-96355080D02*
X120073809Y-96302700D01*
X120073809Y-96302700D02*
X120021428Y-96197938D01*
X120021428Y-96197938D02*
X120021428Y-96093176D01*
X120021428Y-96093176D02*
X120073809Y-95988414D01*
X120073809Y-95988414D02*
X120178571Y-95936033D01*
X120178571Y-95936033D02*
X120440476Y-95936033D01*
X120440476Y-95936033D02*
X120545238Y-95883652D01*
X120911904Y-95621747D02*
X121330952Y-95621747D01*
X121069047Y-95255080D02*
X121069047Y-96197938D01*
X121069047Y-96197938D02*
X121121428Y-96302700D01*
X121121428Y-96302700D02*
X121226190Y-96355080D01*
X121226190Y-96355080D02*
X121330952Y-96355080D01*
X122169047Y-95621747D02*
X122169047Y-96355080D01*
X121697618Y-95621747D02*
X121697618Y-96197938D01*
X121697618Y-96197938D02*
X121749999Y-96302700D01*
X121749999Y-96302700D02*
X121854761Y-96355080D01*
X121854761Y-96355080D02*
X122011904Y-96355080D01*
X122011904Y-96355080D02*
X122116666Y-96302700D01*
X122116666Y-96302700D02*
X122169047Y-96250319D01*
X122692856Y-96355080D02*
X122692856Y-95621747D01*
X122692856Y-95831271D02*
X122745237Y-95726509D01*
X122745237Y-95726509D02*
X122797618Y-95674128D01*
X122797618Y-95674128D02*
X122902380Y-95621747D01*
X122902380Y-95621747D02*
X123007142Y-95621747D01*
X123792856Y-96302700D02*
X123688094Y-96355080D01*
X123688094Y-96355080D02*
X123478570Y-96355080D01*
X123478570Y-96355080D02*
X123373808Y-96302700D01*
X123373808Y-96302700D02*
X123321427Y-96197938D01*
X123321427Y-96197938D02*
X123321427Y-95778890D01*
X123321427Y-95778890D02*
X123373808Y-95674128D01*
X123373808Y-95674128D02*
X123478570Y-95621747D01*
X123478570Y-95621747D02*
X123688094Y-95621747D01*
X123688094Y-95621747D02*
X123792856Y-95674128D01*
X123792856Y-95674128D02*
X123845237Y-95778890D01*
X123845237Y-95778890D02*
X123845237Y-95883652D01*
X123845237Y-95883652D02*
X123321427Y-95988414D01*
X115699999Y-98126080D02*
X115699999Y-97026080D01*
X115699999Y-97549890D02*
X116328571Y-97549890D01*
X116328571Y-98126080D02*
X116328571Y-97026080D01*
X117323809Y-97392747D02*
X117323809Y-98126080D01*
X116852380Y-97392747D02*
X116852380Y-97968938D01*
X116852380Y-97968938D02*
X116904761Y-98073700D01*
X116904761Y-98073700D02*
X117009523Y-98126080D01*
X117009523Y-98126080D02*
X117166666Y-98126080D01*
X117166666Y-98126080D02*
X117271428Y-98073700D01*
X117271428Y-98073700D02*
X117323809Y-98021319D01*
X117847618Y-98126080D02*
X117847618Y-97392747D01*
X117847618Y-97497509D02*
X117899999Y-97445128D01*
X117899999Y-97445128D02*
X118004761Y-97392747D01*
X118004761Y-97392747D02*
X118161904Y-97392747D01*
X118161904Y-97392747D02*
X118266666Y-97445128D01*
X118266666Y-97445128D02*
X118319047Y-97549890D01*
X118319047Y-97549890D02*
X118319047Y-98126080D01*
X118319047Y-97549890D02*
X118371428Y-97445128D01*
X118371428Y-97445128D02*
X118476190Y-97392747D01*
X118476190Y-97392747D02*
X118633333Y-97392747D01*
X118633333Y-97392747D02*
X118738094Y-97445128D01*
X118738094Y-97445128D02*
X118790475Y-97549890D01*
X118790475Y-97549890D02*
X118790475Y-98126080D01*
X119314285Y-98126080D02*
X119314285Y-97392747D01*
X119314285Y-97026080D02*
X119261904Y-97078461D01*
X119261904Y-97078461D02*
X119314285Y-97130842D01*
X119314285Y-97130842D02*
X119366666Y-97078461D01*
X119366666Y-97078461D02*
X119314285Y-97026080D01*
X119314285Y-97026080D02*
X119314285Y-97130842D01*
X120309524Y-98126080D02*
X120309524Y-97026080D01*
X120309524Y-98073700D02*
X120204762Y-98126080D01*
X120204762Y-98126080D02*
X119995238Y-98126080D01*
X119995238Y-98126080D02*
X119890476Y-98073700D01*
X119890476Y-98073700D02*
X119838095Y-98021319D01*
X119838095Y-98021319D02*
X119785714Y-97916557D01*
X119785714Y-97916557D02*
X119785714Y-97602271D01*
X119785714Y-97602271D02*
X119838095Y-97497509D01*
X119838095Y-97497509D02*
X119890476Y-97445128D01*
X119890476Y-97445128D02*
X119995238Y-97392747D01*
X119995238Y-97392747D02*
X120204762Y-97392747D01*
X120204762Y-97392747D02*
X120309524Y-97445128D01*
X120833333Y-98126080D02*
X120833333Y-97392747D01*
X120833333Y-97026080D02*
X120780952Y-97078461D01*
X120780952Y-97078461D02*
X120833333Y-97130842D01*
X120833333Y-97130842D02*
X120885714Y-97078461D01*
X120885714Y-97078461D02*
X120833333Y-97026080D01*
X120833333Y-97026080D02*
X120833333Y-97130842D01*
X121200000Y-97392747D02*
X121619048Y-97392747D01*
X121357143Y-97026080D02*
X121357143Y-97968938D01*
X121357143Y-97968938D02*
X121409524Y-98073700D01*
X121409524Y-98073700D02*
X121514286Y-98126080D01*
X121514286Y-98126080D02*
X121619048Y-98126080D01*
X121880952Y-97392747D02*
X122142857Y-98126080D01*
X122404762Y-97392747D02*
X122142857Y-98126080D01*
X122142857Y-98126080D02*
X122038095Y-98387985D01*
X122038095Y-98387985D02*
X121985714Y-98440366D01*
X121985714Y-98440366D02*
X121880952Y-98492747D01*
X114626190Y-99844700D02*
X114783333Y-99897080D01*
X114783333Y-99897080D02*
X115045238Y-99897080D01*
X115045238Y-99897080D02*
X115150000Y-99844700D01*
X115150000Y-99844700D02*
X115202381Y-99792319D01*
X115202381Y-99792319D02*
X115254762Y-99687557D01*
X115254762Y-99687557D02*
X115254762Y-99582795D01*
X115254762Y-99582795D02*
X115202381Y-99478033D01*
X115202381Y-99478033D02*
X115150000Y-99425652D01*
X115150000Y-99425652D02*
X115045238Y-99373271D01*
X115045238Y-99373271D02*
X114835714Y-99320890D01*
X114835714Y-99320890D02*
X114730952Y-99268509D01*
X114730952Y-99268509D02*
X114678571Y-99216128D01*
X114678571Y-99216128D02*
X114626190Y-99111366D01*
X114626190Y-99111366D02*
X114626190Y-99006604D01*
X114626190Y-99006604D02*
X114678571Y-98901842D01*
X114678571Y-98901842D02*
X114730952Y-98849461D01*
X114730952Y-98849461D02*
X114835714Y-98797080D01*
X114835714Y-98797080D02*
X115097619Y-98797080D01*
X115097619Y-98797080D02*
X115254762Y-98849461D01*
X115726190Y-99897080D02*
X115726190Y-98797080D01*
X115726190Y-99320890D02*
X116354762Y-99320890D01*
X116354762Y-99897080D02*
X116354762Y-98797080D01*
X116721428Y-98797080D02*
X117350000Y-98797080D01*
X117035714Y-99897080D02*
X117035714Y-98797080D01*
X117611904Y-98797080D02*
X118292857Y-98797080D01*
X118292857Y-98797080D02*
X117926190Y-99216128D01*
X117926190Y-99216128D02*
X118083333Y-99216128D01*
X118083333Y-99216128D02*
X118188095Y-99268509D01*
X118188095Y-99268509D02*
X118240476Y-99320890D01*
X118240476Y-99320890D02*
X118292857Y-99425652D01*
X118292857Y-99425652D02*
X118292857Y-99687557D01*
X118292857Y-99687557D02*
X118240476Y-99792319D01*
X118240476Y-99792319D02*
X118188095Y-99844700D01*
X118188095Y-99844700D02*
X118083333Y-99897080D01*
X118083333Y-99897080D02*
X117769047Y-99897080D01*
X117769047Y-99897080D02*
X117664285Y-99844700D01*
X117664285Y-99844700D02*
X117611904Y-99792319D01*
X118973809Y-98797080D02*
X119078571Y-98797080D01*
X119078571Y-98797080D02*
X119183333Y-98849461D01*
X119183333Y-98849461D02*
X119235714Y-98901842D01*
X119235714Y-98901842D02*
X119288095Y-99006604D01*
X119288095Y-99006604D02*
X119340476Y-99216128D01*
X119340476Y-99216128D02*
X119340476Y-99478033D01*
X119340476Y-99478033D02*
X119288095Y-99687557D01*
X119288095Y-99687557D02*
X119235714Y-99792319D01*
X119235714Y-99792319D02*
X119183333Y-99844700D01*
X119183333Y-99844700D02*
X119078571Y-99897080D01*
X119078571Y-99897080D02*
X118973809Y-99897080D01*
X118973809Y-99897080D02*
X118869047Y-99844700D01*
X118869047Y-99844700D02*
X118816666Y-99792319D01*
X118816666Y-99792319D02*
X118764285Y-99687557D01*
X118764285Y-99687557D02*
X118711904Y-99478033D01*
X118711904Y-99478033D02*
X118711904Y-99216128D01*
X118711904Y-99216128D02*
X118764285Y-99006604D01*
X118764285Y-99006604D02*
X118816666Y-98901842D01*
X118816666Y-98901842D02*
X118869047Y-98849461D01*
X118869047Y-98849461D02*
X118973809Y-98797080D01*
X119811904Y-99478033D02*
X120650000Y-99478033D01*
X121173809Y-99897080D02*
X121173809Y-98797080D01*
X121173809Y-98797080D02*
X121435714Y-98797080D01*
X121435714Y-98797080D02*
X121592857Y-98849461D01*
X121592857Y-98849461D02*
X121697619Y-98954223D01*
X121697619Y-98954223D02*
X121750000Y-99058985D01*
X121750000Y-99058985D02*
X121802381Y-99268509D01*
X121802381Y-99268509D02*
X121802381Y-99425652D01*
X121802381Y-99425652D02*
X121750000Y-99635176D01*
X121750000Y-99635176D02*
X121697619Y-99739938D01*
X121697619Y-99739938D02*
X121592857Y-99844700D01*
X121592857Y-99844700D02*
X121435714Y-99897080D01*
X121435714Y-99897080D02*
X121173809Y-99897080D01*
X122273809Y-99897080D02*
X122273809Y-98797080D01*
X122745238Y-99844700D02*
X122902381Y-99897080D01*
X122902381Y-99897080D02*
X123164286Y-99897080D01*
X123164286Y-99897080D02*
X123269048Y-99844700D01*
X123269048Y-99844700D02*
X123321429Y-99792319D01*
X123321429Y-99792319D02*
X123373810Y-99687557D01*
X123373810Y-99687557D02*
X123373810Y-99582795D01*
X123373810Y-99582795D02*
X123321429Y-99478033D01*
X123321429Y-99478033D02*
X123269048Y-99425652D01*
X123269048Y-99425652D02*
X123164286Y-99373271D01*
X123164286Y-99373271D02*
X122954762Y-99320890D01*
X122954762Y-99320890D02*
X122850000Y-99268509D01*
X122850000Y-99268509D02*
X122797619Y-99216128D01*
X122797619Y-99216128D02*
X122745238Y-99111366D01*
X122745238Y-99111366D02*
X122745238Y-99006604D01*
X122745238Y-99006604D02*
X122797619Y-98901842D01*
X122797619Y-98901842D02*
X122850000Y-98849461D01*
X122850000Y-98849461D02*
X122954762Y-98797080D01*
X122954762Y-98797080D02*
X123216667Y-98797080D01*
X123216667Y-98797080D02*
X123373810Y-98849461D01*
X137961904Y-96040795D02*
X138485714Y-96040795D01*
X137857142Y-96355080D02*
X138223809Y-95255080D01*
X138223809Y-95255080D02*
X138590476Y-96355080D01*
X138957142Y-96355080D02*
X138957142Y-95621747D01*
X138957142Y-95726509D02*
X139009523Y-95674128D01*
X139009523Y-95674128D02*
X139114285Y-95621747D01*
X139114285Y-95621747D02*
X139271428Y-95621747D01*
X139271428Y-95621747D02*
X139376190Y-95674128D01*
X139376190Y-95674128D02*
X139428571Y-95778890D01*
X139428571Y-95778890D02*
X139428571Y-96355080D01*
X139428571Y-95778890D02*
X139480952Y-95674128D01*
X139480952Y-95674128D02*
X139585714Y-95621747D01*
X139585714Y-95621747D02*
X139742857Y-95621747D01*
X139742857Y-95621747D02*
X139847618Y-95674128D01*
X139847618Y-95674128D02*
X139899999Y-95778890D01*
X139899999Y-95778890D02*
X139899999Y-96355080D01*
X140423809Y-96355080D02*
X140423809Y-95255080D01*
X140423809Y-95674128D02*
X140528571Y-95621747D01*
X140528571Y-95621747D02*
X140738095Y-95621747D01*
X140738095Y-95621747D02*
X140842857Y-95674128D01*
X140842857Y-95674128D02*
X140895238Y-95726509D01*
X140895238Y-95726509D02*
X140947619Y-95831271D01*
X140947619Y-95831271D02*
X140947619Y-96145557D01*
X140947619Y-96145557D02*
X140895238Y-96250319D01*
X140895238Y-96250319D02*
X140842857Y-96302700D01*
X140842857Y-96302700D02*
X140738095Y-96355080D01*
X140738095Y-96355080D02*
X140528571Y-96355080D01*
X140528571Y-96355080D02*
X140423809Y-96302700D01*
X141419047Y-96355080D02*
X141419047Y-95621747D01*
X141419047Y-95255080D02*
X141366666Y-95307461D01*
X141366666Y-95307461D02*
X141419047Y-95359842D01*
X141419047Y-95359842D02*
X141471428Y-95307461D01*
X141471428Y-95307461D02*
X141419047Y-95255080D01*
X141419047Y-95255080D02*
X141419047Y-95359842D01*
X142361905Y-96302700D02*
X142257143Y-96355080D01*
X142257143Y-96355080D02*
X142047619Y-96355080D01*
X142047619Y-96355080D02*
X141942857Y-96302700D01*
X141942857Y-96302700D02*
X141890476Y-96197938D01*
X141890476Y-96197938D02*
X141890476Y-95778890D01*
X141890476Y-95778890D02*
X141942857Y-95674128D01*
X141942857Y-95674128D02*
X142047619Y-95621747D01*
X142047619Y-95621747D02*
X142257143Y-95621747D01*
X142257143Y-95621747D02*
X142361905Y-95674128D01*
X142361905Y-95674128D02*
X142414286Y-95778890D01*
X142414286Y-95778890D02*
X142414286Y-95883652D01*
X142414286Y-95883652D02*
X141890476Y-95988414D01*
X142885714Y-95621747D02*
X142885714Y-96355080D01*
X142885714Y-95726509D02*
X142938095Y-95674128D01*
X142938095Y-95674128D02*
X143042857Y-95621747D01*
X143042857Y-95621747D02*
X143200000Y-95621747D01*
X143200000Y-95621747D02*
X143304762Y-95674128D01*
X143304762Y-95674128D02*
X143357143Y-95778890D01*
X143357143Y-95778890D02*
X143357143Y-96355080D01*
X143723809Y-95621747D02*
X144142857Y-95621747D01*
X143880952Y-95255080D02*
X143880952Y-96197938D01*
X143880952Y-96197938D02*
X143933333Y-96302700D01*
X143933333Y-96302700D02*
X144038095Y-96355080D01*
X144038095Y-96355080D02*
X144142857Y-96355080D01*
X139769048Y-98126080D02*
X139245238Y-98126080D01*
X139245238Y-98126080D02*
X139245238Y-97026080D01*
X140135714Y-98126080D02*
X140135714Y-97392747D01*
X140135714Y-97026080D02*
X140083333Y-97078461D01*
X140083333Y-97078461D02*
X140135714Y-97130842D01*
X140135714Y-97130842D02*
X140188095Y-97078461D01*
X140188095Y-97078461D02*
X140135714Y-97026080D01*
X140135714Y-97026080D02*
X140135714Y-97130842D01*
X141130953Y-97392747D02*
X141130953Y-98283223D01*
X141130953Y-98283223D02*
X141078572Y-98387985D01*
X141078572Y-98387985D02*
X141026191Y-98440366D01*
X141026191Y-98440366D02*
X140921429Y-98492747D01*
X140921429Y-98492747D02*
X140764286Y-98492747D01*
X140764286Y-98492747D02*
X140659524Y-98440366D01*
X141130953Y-98073700D02*
X141026191Y-98126080D01*
X141026191Y-98126080D02*
X140816667Y-98126080D01*
X140816667Y-98126080D02*
X140711905Y-98073700D01*
X140711905Y-98073700D02*
X140659524Y-98021319D01*
X140659524Y-98021319D02*
X140607143Y-97916557D01*
X140607143Y-97916557D02*
X140607143Y-97602271D01*
X140607143Y-97602271D02*
X140659524Y-97497509D01*
X140659524Y-97497509D02*
X140711905Y-97445128D01*
X140711905Y-97445128D02*
X140816667Y-97392747D01*
X140816667Y-97392747D02*
X141026191Y-97392747D01*
X141026191Y-97392747D02*
X141130953Y-97445128D01*
X141654762Y-98126080D02*
X141654762Y-97026080D01*
X142126191Y-98126080D02*
X142126191Y-97549890D01*
X142126191Y-97549890D02*
X142073810Y-97445128D01*
X142073810Y-97445128D02*
X141969048Y-97392747D01*
X141969048Y-97392747D02*
X141811905Y-97392747D01*
X141811905Y-97392747D02*
X141707143Y-97445128D01*
X141707143Y-97445128D02*
X141654762Y-97497509D01*
X142492857Y-97392747D02*
X142911905Y-97392747D01*
X142650000Y-97026080D02*
X142650000Y-97968938D01*
X142650000Y-97968938D02*
X142702381Y-98073700D01*
X142702381Y-98073700D02*
X142807143Y-98126080D01*
X142807143Y-98126080D02*
X142911905Y-98126080D01*
X137045238Y-98797080D02*
X137673810Y-98797080D01*
X137359524Y-99897080D02*
X137359524Y-98797080D01*
X138040476Y-99897080D02*
X138040476Y-99163747D01*
X138040476Y-99373271D02*
X138092857Y-99268509D01*
X138092857Y-99268509D02*
X138145238Y-99216128D01*
X138145238Y-99216128D02*
X138250000Y-99163747D01*
X138250000Y-99163747D02*
X138354762Y-99163747D01*
X139192857Y-99897080D02*
X139192857Y-99320890D01*
X139192857Y-99320890D02*
X139140476Y-99216128D01*
X139140476Y-99216128D02*
X139035714Y-99163747D01*
X139035714Y-99163747D02*
X138826190Y-99163747D01*
X138826190Y-99163747D02*
X138721428Y-99216128D01*
X139192857Y-99844700D02*
X139088095Y-99897080D01*
X139088095Y-99897080D02*
X138826190Y-99897080D01*
X138826190Y-99897080D02*
X138721428Y-99844700D01*
X138721428Y-99844700D02*
X138669047Y-99739938D01*
X138669047Y-99739938D02*
X138669047Y-99635176D01*
X138669047Y-99635176D02*
X138721428Y-99530414D01*
X138721428Y-99530414D02*
X138826190Y-99478033D01*
X138826190Y-99478033D02*
X139088095Y-99478033D01*
X139088095Y-99478033D02*
X139192857Y-99425652D01*
X139716666Y-99163747D02*
X139716666Y-99897080D01*
X139716666Y-99268509D02*
X139769047Y-99216128D01*
X139769047Y-99216128D02*
X139873809Y-99163747D01*
X139873809Y-99163747D02*
X140030952Y-99163747D01*
X140030952Y-99163747D02*
X140135714Y-99216128D01*
X140135714Y-99216128D02*
X140188095Y-99320890D01*
X140188095Y-99320890D02*
X140188095Y-99897080D01*
X140659523Y-99844700D02*
X140764285Y-99897080D01*
X140764285Y-99897080D02*
X140973809Y-99897080D01*
X140973809Y-99897080D02*
X141078571Y-99844700D01*
X141078571Y-99844700D02*
X141130952Y-99739938D01*
X141130952Y-99739938D02*
X141130952Y-99687557D01*
X141130952Y-99687557D02*
X141078571Y-99582795D01*
X141078571Y-99582795D02*
X140973809Y-99530414D01*
X140973809Y-99530414D02*
X140816666Y-99530414D01*
X140816666Y-99530414D02*
X140711904Y-99478033D01*
X140711904Y-99478033D02*
X140659523Y-99373271D01*
X140659523Y-99373271D02*
X140659523Y-99320890D01*
X140659523Y-99320890D02*
X140711904Y-99216128D01*
X140711904Y-99216128D02*
X140816666Y-99163747D01*
X140816666Y-99163747D02*
X140973809Y-99163747D01*
X140973809Y-99163747D02*
X141078571Y-99216128D01*
X141602380Y-99897080D02*
X141602380Y-99163747D01*
X141602380Y-98797080D02*
X141549999Y-98849461D01*
X141549999Y-98849461D02*
X141602380Y-98901842D01*
X141602380Y-98901842D02*
X141654761Y-98849461D01*
X141654761Y-98849461D02*
X141602380Y-98797080D01*
X141602380Y-98797080D02*
X141602380Y-98901842D01*
X142073809Y-99844700D02*
X142178571Y-99897080D01*
X142178571Y-99897080D02*
X142388095Y-99897080D01*
X142388095Y-99897080D02*
X142492857Y-99844700D01*
X142492857Y-99844700D02*
X142545238Y-99739938D01*
X142545238Y-99739938D02*
X142545238Y-99687557D01*
X142545238Y-99687557D02*
X142492857Y-99582795D01*
X142492857Y-99582795D02*
X142388095Y-99530414D01*
X142388095Y-99530414D02*
X142230952Y-99530414D01*
X142230952Y-99530414D02*
X142126190Y-99478033D01*
X142126190Y-99478033D02*
X142073809Y-99373271D01*
X142073809Y-99373271D02*
X142073809Y-99320890D01*
X142073809Y-99320890D02*
X142126190Y-99216128D01*
X142126190Y-99216128D02*
X142230952Y-99163747D01*
X142230952Y-99163747D02*
X142388095Y-99163747D01*
X142388095Y-99163747D02*
X142492857Y-99216128D01*
X142859523Y-99163747D02*
X143278571Y-99163747D01*
X143016666Y-98797080D02*
X143016666Y-99739938D01*
X143016666Y-99739938D02*
X143069047Y-99844700D01*
X143069047Y-99844700D02*
X143173809Y-99897080D01*
X143173809Y-99897080D02*
X143278571Y-99897080D01*
X143802380Y-99897080D02*
X143697618Y-99844700D01*
X143697618Y-99844700D02*
X143645237Y-99792319D01*
X143645237Y-99792319D02*
X143592856Y-99687557D01*
X143592856Y-99687557D02*
X143592856Y-99373271D01*
X143592856Y-99373271D02*
X143645237Y-99268509D01*
X143645237Y-99268509D02*
X143697618Y-99216128D01*
X143697618Y-99216128D02*
X143802380Y-99163747D01*
X143802380Y-99163747D02*
X143959523Y-99163747D01*
X143959523Y-99163747D02*
X144064285Y-99216128D01*
X144064285Y-99216128D02*
X144116666Y-99268509D01*
X144116666Y-99268509D02*
X144169047Y-99373271D01*
X144169047Y-99373271D02*
X144169047Y-99687557D01*
X144169047Y-99687557D02*
X144116666Y-99792319D01*
X144116666Y-99792319D02*
X144064285Y-99844700D01*
X144064285Y-99844700D02*
X143959523Y-99897080D01*
X143959523Y-99897080D02*
X143802380Y-99897080D01*
X144640475Y-99897080D02*
X144640475Y-99163747D01*
X144640475Y-99373271D02*
X144692856Y-99268509D01*
X144692856Y-99268509D02*
X144745237Y-99216128D01*
X144745237Y-99216128D02*
X144849999Y-99163747D01*
X144849999Y-99163747D02*
X144954761Y-99163747D01*
X100760575Y-77574158D02*
X100390186Y-78240858D01*
X100390186Y-78240858D02*
X100908731Y-78018625D01*
X100908731Y-78018625D02*
X100686497Y-78537170D01*
X100686497Y-78537170D02*
X101353198Y-78166780D01*
X101242081Y-79092754D02*
X101205042Y-78981637D01*
X101205042Y-78981637D02*
X101205042Y-78907559D01*
X101205042Y-78907559D02*
X101242081Y-78796442D01*
X101242081Y-78796442D02*
X101464315Y-78574209D01*
X101464315Y-78574209D02*
X101575431Y-78537170D01*
X101575431Y-78537170D02*
X101649509Y-78537170D01*
X101649509Y-78537170D02*
X101760626Y-78574209D01*
X101760626Y-78574209D02*
X101871743Y-78685325D01*
X101871743Y-78685325D02*
X101908782Y-78796442D01*
X101908782Y-78796442D02*
X101908782Y-78870520D01*
X101908782Y-78870520D02*
X101871743Y-78981637D01*
X101871743Y-78981637D02*
X101649509Y-79203870D01*
X101649509Y-79203870D02*
X101538392Y-79240909D01*
X101538392Y-79240909D02*
X101464315Y-79240909D01*
X101464315Y-79240909D02*
X101353198Y-79203870D01*
X101353198Y-79203870D02*
X101242081Y-79092754D01*
X101834704Y-79685376D02*
X102353249Y-79166831D01*
X102205093Y-79314987D02*
X102316210Y-79277948D01*
X102316210Y-79277948D02*
X102390288Y-79277948D01*
X102390288Y-79277948D02*
X102501405Y-79314987D01*
X102501405Y-79314987D02*
X102575482Y-79389065D01*
X102316210Y-80166882D02*
X103094027Y-79389065D01*
X102686599Y-79944649D02*
X102612521Y-80463194D01*
X103131066Y-79944649D02*
X102538443Y-79944649D01*
X102945871Y-80722466D02*
X102982910Y-80833583D01*
X102982910Y-80833583D02*
X103131066Y-80981738D01*
X103131066Y-80981738D02*
X103242183Y-81018777D01*
X103242183Y-81018777D02*
X103353299Y-80981738D01*
X103353299Y-80981738D02*
X103390338Y-80944699D01*
X103390338Y-80944699D02*
X103427377Y-80833583D01*
X103427377Y-80833583D02*
X103390338Y-80722466D01*
X103390338Y-80722466D02*
X103279222Y-80611349D01*
X103279222Y-80611349D02*
X103242183Y-80500232D01*
X103242183Y-80500232D02*
X103279222Y-80389116D01*
X103279222Y-80389116D02*
X103316260Y-80352077D01*
X103316260Y-80352077D02*
X103427377Y-80315038D01*
X103427377Y-80315038D02*
X103538494Y-80352077D01*
X103538494Y-80352077D02*
X103649611Y-80463193D01*
X103649611Y-80463193D02*
X103686650Y-80574310D01*
X104612623Y-81426205D02*
X104242233Y-82092906D01*
X104242233Y-82092906D02*
X104760778Y-81870672D01*
X104760778Y-81870672D02*
X104538545Y-82389217D01*
X104538545Y-82389217D02*
X105205245Y-82018828D01*
X104983012Y-82833684D02*
X105501557Y-82315139D01*
X105760829Y-82055867D02*
X105686752Y-82055867D01*
X105686752Y-82055867D02*
X105686752Y-82129945D01*
X105686752Y-82129945D02*
X105760829Y-82129945D01*
X105760829Y-82129945D02*
X105760829Y-82055867D01*
X105760829Y-82055867D02*
X105686752Y-82129945D01*
X105760830Y-82574412D02*
X106057141Y-82870724D01*
X106131219Y-82426257D02*
X105464518Y-83092957D01*
X105464518Y-83092957D02*
X105427479Y-83204074D01*
X105427479Y-83204074D02*
X105464518Y-83315191D01*
X105464518Y-83315191D02*
X105538596Y-83389269D01*
X105797868Y-83648541D02*
X106575686Y-82870723D01*
X106131219Y-83981891D02*
X106538647Y-83574463D01*
X106538647Y-83574463D02*
X106575686Y-83463346D01*
X106575686Y-83463346D02*
X106538647Y-83352229D01*
X106538647Y-83352229D02*
X106427530Y-83241113D01*
X106427530Y-83241113D02*
X106316413Y-83204074D01*
X106316413Y-83204074D02*
X106242335Y-83204074D01*
X97304473Y-77215250D02*
X97674862Y-77585640D01*
X97008161Y-77363406D02*
X98045251Y-76844861D01*
X98045251Y-76844861D02*
X97526706Y-77881951D01*
X97785979Y-78141223D02*
X98304524Y-77622678D01*
X98230446Y-77696756D02*
X98304524Y-77696756D01*
X98304524Y-77696756D02*
X98415641Y-77733795D01*
X98415641Y-77733795D02*
X98526757Y-77844912D01*
X98526757Y-77844912D02*
X98563796Y-77956029D01*
X98563796Y-77956029D02*
X98526757Y-78067145D01*
X98526757Y-78067145D02*
X98119329Y-78474574D01*
X98526757Y-78067145D02*
X98637874Y-78030107D01*
X98637874Y-78030107D02*
X98748991Y-78067145D01*
X98748991Y-78067145D02*
X98860108Y-78178262D01*
X98860108Y-78178262D02*
X98897147Y-78289379D01*
X98897147Y-78289379D02*
X98860108Y-78400496D01*
X98860108Y-78400496D02*
X98452679Y-78807924D01*
X99156419Y-79511664D02*
X99563848Y-79104236D01*
X99563848Y-79104236D02*
X99600886Y-78993119D01*
X99600886Y-78993119D02*
X99563848Y-78882002D01*
X99563848Y-78882002D02*
X99415692Y-78733846D01*
X99415692Y-78733846D02*
X99304575Y-78696807D01*
X99193458Y-79474625D02*
X99082341Y-79437586D01*
X99082341Y-79437586D02*
X98897147Y-79252391D01*
X98897147Y-79252391D02*
X98860108Y-79141275D01*
X98860108Y-79141275D02*
X98897147Y-79030158D01*
X98897147Y-79030158D02*
X98971225Y-78956080D01*
X98971225Y-78956080D02*
X99082341Y-78919041D01*
X99082341Y-78919041D02*
X99193458Y-78956080D01*
X99193458Y-78956080D02*
X99378653Y-79141275D01*
X99378653Y-79141275D02*
X99489770Y-79178314D01*
X99971276Y-79289430D02*
X100378704Y-79696858D01*
X100378704Y-79696858D02*
X99452731Y-79807975D01*
X99452731Y-79807975D02*
X99860159Y-80215403D01*
X100267587Y-80622831D02*
X100230548Y-80511715D01*
X100230548Y-80511715D02*
X100230548Y-80437637D01*
X100230548Y-80437637D02*
X100267587Y-80326520D01*
X100267587Y-80326520D02*
X100489820Y-80104286D01*
X100489820Y-80104286D02*
X100600937Y-80067248D01*
X100600937Y-80067248D02*
X100675015Y-80067248D01*
X100675015Y-80067248D02*
X100786132Y-80104286D01*
X100786132Y-80104286D02*
X100897249Y-80215403D01*
X100897249Y-80215403D02*
X100934288Y-80326520D01*
X100934288Y-80326520D02*
X100934288Y-80400598D01*
X100934288Y-80400598D02*
X100897249Y-80511715D01*
X100897249Y-80511715D02*
X100675015Y-80733948D01*
X100675015Y-80733948D02*
X100563898Y-80770987D01*
X100563898Y-80770987D02*
X100489820Y-80770987D01*
X100489820Y-80770987D02*
X100378704Y-80733948D01*
X100378704Y-80733948D02*
X100267587Y-80622831D01*
X101378755Y-80696909D02*
X100860210Y-81215454D01*
X101304677Y-80770987D02*
X101378755Y-80770987D01*
X101378755Y-80770987D02*
X101489871Y-80808026D01*
X101489871Y-80808026D02*
X101600988Y-80919143D01*
X101600988Y-80919143D02*
X101638027Y-81030260D01*
X101638027Y-81030260D02*
X101600988Y-81141376D01*
X101600988Y-81141376D02*
X101193560Y-81548805D01*
X102156572Y-82437739D02*
X102230650Y-82585894D01*
X102230650Y-82585894D02*
X102415844Y-82771089D01*
X102415844Y-82771089D02*
X102526961Y-82808128D01*
X102526961Y-82808128D02*
X102601039Y-82808128D01*
X102601039Y-82808128D02*
X102712156Y-82771089D01*
X102712156Y-82771089D02*
X102786234Y-82697011D01*
X102786234Y-82697011D02*
X102823273Y-82585894D01*
X102823273Y-82585894D02*
X102823273Y-82511816D01*
X102823273Y-82511816D02*
X102786234Y-82400700D01*
X102786234Y-82400700D02*
X102675117Y-82215505D01*
X102675117Y-82215505D02*
X102638078Y-82104388D01*
X102638078Y-82104388D02*
X102638078Y-82030310D01*
X102638078Y-82030310D02*
X102675117Y-81919194D01*
X102675117Y-81919194D02*
X102749195Y-81845116D01*
X102749195Y-81845116D02*
X102860311Y-81808077D01*
X102860311Y-81808077D02*
X102934389Y-81808077D01*
X102934389Y-81808077D02*
X103045506Y-81845116D01*
X103045506Y-81845116D02*
X103230701Y-82030310D01*
X103230701Y-82030310D02*
X103304779Y-82178466D01*
X102897350Y-83252595D02*
X103415895Y-82734050D01*
X103675168Y-82474777D02*
X103601090Y-82474777D01*
X103601090Y-82474777D02*
X103601090Y-82548855D01*
X103601090Y-82548855D02*
X103675168Y-82548855D01*
X103675168Y-82548855D02*
X103675168Y-82474777D01*
X103675168Y-82474777D02*
X103601090Y-82548855D01*
X103601090Y-83956335D02*
X104378908Y-83178517D01*
X103638129Y-83919296D02*
X103527012Y-83882257D01*
X103527012Y-83882257D02*
X103378857Y-83734101D01*
X103378857Y-83734101D02*
X103341818Y-83622984D01*
X103341818Y-83622984D02*
X103341818Y-83548907D01*
X103341818Y-83548907D02*
X103378857Y-83437790D01*
X103378857Y-83437790D02*
X103601090Y-83215556D01*
X103601090Y-83215556D02*
X103712207Y-83178517D01*
X103712207Y-83178517D02*
X103786285Y-83178517D01*
X103786285Y-83178517D02*
X103897402Y-83215556D01*
X103897402Y-83215556D02*
X104045557Y-83363712D01*
X104045557Y-83363712D02*
X104082596Y-83474829D01*
X104304830Y-84585997D02*
X104193713Y-84548958D01*
X104193713Y-84548958D02*
X104045557Y-84400802D01*
X104045557Y-84400802D02*
X104008518Y-84289685D01*
X104008518Y-84289685D02*
X104045557Y-84178568D01*
X104045557Y-84178568D02*
X104341869Y-83882257D01*
X104341869Y-83882257D02*
X104452986Y-83845218D01*
X104452986Y-83845218D02*
X104564102Y-83882257D01*
X104564102Y-83882257D02*
X104712258Y-84030413D01*
X104712258Y-84030413D02*
X104749297Y-84141529D01*
X104749297Y-84141529D02*
X104712258Y-84252646D01*
X104712258Y-84252646D02*
X104638180Y-84326724D01*
X104638180Y-84326724D02*
X104193713Y-84030413D01*
X105082647Y-84400802D02*
X104712258Y-85067502D01*
X104712258Y-85067502D02*
X105230803Y-84845269D01*
X105230803Y-84845269D02*
X105008569Y-85363814D01*
X105008569Y-85363814D02*
X105675270Y-84993425D01*
X105786387Y-86141631D02*
X106193815Y-85734203D01*
X106193815Y-85734203D02*
X106230854Y-85623086D01*
X106230854Y-85623086D02*
X106193815Y-85511970D01*
X106193815Y-85511970D02*
X106045659Y-85363814D01*
X106045659Y-85363814D02*
X105934543Y-85326775D01*
X105823426Y-86104592D02*
X105712309Y-86067554D01*
X105712309Y-86067554D02*
X105527114Y-85882359D01*
X105527114Y-85882359D02*
X105490075Y-85771242D01*
X105490075Y-85771242D02*
X105527114Y-85660125D01*
X105527114Y-85660125D02*
X105601192Y-85586047D01*
X105601192Y-85586047D02*
X105712309Y-85549009D01*
X105712309Y-85549009D02*
X105823426Y-85586047D01*
X105823426Y-85586047D02*
X106008620Y-85771242D01*
X106008620Y-85771242D02*
X106119737Y-85808281D01*
X106267893Y-86623137D02*
X106230854Y-86512021D01*
X106230854Y-86512021D02*
X106267893Y-86400904D01*
X106267893Y-86400904D02*
X106934594Y-85734203D01*
X106564204Y-86919448D02*
X107342021Y-86141631D01*
X106934593Y-86697215D02*
X106860515Y-87215760D01*
X107379060Y-86697215D02*
X106786437Y-86697215D01*
X146744805Y-78957711D02*
X146744805Y-79031789D01*
X146744805Y-79031789D02*
X146670727Y-79179945D01*
X146670727Y-79179945D02*
X146596649Y-79254023D01*
X146596649Y-79254023D02*
X146448493Y-79328101D01*
X146448493Y-79328101D02*
X146300337Y-79328101D01*
X146300337Y-79328101D02*
X146189221Y-79291062D01*
X146189221Y-79291062D02*
X146004026Y-79179945D01*
X146004026Y-79179945D02*
X145892909Y-79068828D01*
X145892909Y-79068828D02*
X145781792Y-78883633D01*
X145781792Y-78883633D02*
X145744754Y-78772517D01*
X145744754Y-78772517D02*
X145744754Y-78624361D01*
X145744754Y-78624361D02*
X145818831Y-78476205D01*
X145818831Y-78476205D02*
X145892909Y-78402127D01*
X145892909Y-78402127D02*
X146041065Y-78328049D01*
X146041065Y-78328049D02*
X146115143Y-78328049D01*
X147263350Y-78587322D02*
X147152233Y-78624361D01*
X147152233Y-78624361D02*
X147078155Y-78624361D01*
X147078155Y-78624361D02*
X146967038Y-78587322D01*
X146967038Y-78587322D02*
X146744805Y-78365088D01*
X146744805Y-78365088D02*
X146707766Y-78253972D01*
X146707766Y-78253972D02*
X146707766Y-78179894D01*
X146707766Y-78179894D02*
X146744805Y-78068777D01*
X146744805Y-78068777D02*
X146855921Y-77957660D01*
X146855921Y-77957660D02*
X146967038Y-77920621D01*
X146967038Y-77920621D02*
X147041116Y-77920621D01*
X147041116Y-77920621D02*
X147152233Y-77957660D01*
X147152233Y-77957660D02*
X147374466Y-78179894D01*
X147374466Y-78179894D02*
X147411505Y-78291011D01*
X147411505Y-78291011D02*
X147411505Y-78365088D01*
X147411505Y-78365088D02*
X147374466Y-78476205D01*
X147374466Y-78476205D02*
X147263350Y-78587322D01*
X147967089Y-77883582D02*
X147855972Y-77920621D01*
X147855972Y-77920621D02*
X147744856Y-77883582D01*
X147744856Y-77883582D02*
X147078155Y-77216882D01*
X148374517Y-77476155D02*
X148263400Y-77513194D01*
X148263400Y-77513194D02*
X148189322Y-77513194D01*
X148189322Y-77513194D02*
X148078206Y-77476155D01*
X148078206Y-77476155D02*
X147855972Y-77253921D01*
X147855972Y-77253921D02*
X147818933Y-77142804D01*
X147818933Y-77142804D02*
X147818933Y-77068726D01*
X147818933Y-77068726D02*
X147855972Y-76957610D01*
X147855972Y-76957610D02*
X147967089Y-76846493D01*
X147967089Y-76846493D02*
X148078206Y-76809454D01*
X148078206Y-76809454D02*
X148152283Y-76809454D01*
X148152283Y-76809454D02*
X148263400Y-76846493D01*
X148263400Y-76846493D02*
X148485634Y-77068726D01*
X148485634Y-77068726D02*
X148522673Y-77179843D01*
X148522673Y-77179843D02*
X148522673Y-77253921D01*
X148522673Y-77253921D02*
X148485634Y-77365038D01*
X148485634Y-77365038D02*
X148374517Y-77476155D01*
X148967140Y-76883532D02*
X148448595Y-76364987D01*
X148596750Y-76513143D02*
X148559712Y-76402026D01*
X148559712Y-76402026D02*
X148559712Y-76327948D01*
X148559712Y-76327948D02*
X148596750Y-76216831D01*
X148596750Y-76216831D02*
X148670828Y-76142753D01*
X147071118Y-81284126D02*
X146293300Y-80506308D01*
X146293300Y-80506308D02*
X146478495Y-80321114D01*
X146478495Y-80321114D02*
X146626650Y-80247036D01*
X146626650Y-80247036D02*
X146774806Y-80247036D01*
X146774806Y-80247036D02*
X146885923Y-80284075D01*
X146885923Y-80284075D02*
X147071118Y-80395192D01*
X147071118Y-80395192D02*
X147182234Y-80506308D01*
X147182234Y-80506308D02*
X147293351Y-80691503D01*
X147293351Y-80691503D02*
X147330390Y-80802620D01*
X147330390Y-80802620D02*
X147330390Y-80950776D01*
X147330390Y-80950776D02*
X147256312Y-81098931D01*
X147256312Y-81098931D02*
X147071118Y-81284126D01*
X147848935Y-80506308D02*
X147330390Y-79987763D01*
X147071118Y-79728491D02*
X147071118Y-79802569D01*
X147071118Y-79802569D02*
X147145195Y-79802569D01*
X147145195Y-79802569D02*
X147145195Y-79728491D01*
X147145195Y-79728491D02*
X147071118Y-79728491D01*
X147071118Y-79728491D02*
X147145195Y-79802569D01*
X148145247Y-80135919D02*
X148256364Y-80098880D01*
X148256364Y-80098880D02*
X148404519Y-79950724D01*
X148404519Y-79950724D02*
X148441558Y-79839607D01*
X148441558Y-79839607D02*
X148404519Y-79728491D01*
X148404519Y-79728491D02*
X148367480Y-79691452D01*
X148367480Y-79691452D02*
X148256364Y-79654413D01*
X148256364Y-79654413D02*
X148145247Y-79691452D01*
X148145247Y-79691452D02*
X148034130Y-79802569D01*
X148034130Y-79802569D02*
X147923013Y-79839607D01*
X147923013Y-79839607D02*
X147811896Y-79802569D01*
X147811896Y-79802569D02*
X147774858Y-79765530D01*
X147774858Y-79765530D02*
X147737819Y-79654413D01*
X147737819Y-79654413D02*
X147774858Y-79543296D01*
X147774858Y-79543296D02*
X147885974Y-79432179D01*
X147885974Y-79432179D02*
X147997091Y-79395140D01*
X148330441Y-78987712D02*
X149108259Y-79765530D01*
X148367480Y-79024751D02*
X148404519Y-78913634D01*
X148404519Y-78913634D02*
X148552675Y-78765479D01*
X148552675Y-78765479D02*
X148663792Y-78728440D01*
X148663792Y-78728440D02*
X148737870Y-78728440D01*
X148737870Y-78728440D02*
X148848986Y-78765479D01*
X148848986Y-78765479D02*
X149071220Y-78987712D01*
X149071220Y-78987712D02*
X149108259Y-79098829D01*
X149108259Y-79098829D02*
X149108259Y-79172907D01*
X149108259Y-79172907D02*
X149071220Y-79284024D01*
X149071220Y-79284024D02*
X148923064Y-79432179D01*
X148923064Y-79432179D02*
X148811947Y-79469218D01*
X149663843Y-78691401D02*
X149552726Y-78728440D01*
X149552726Y-78728440D02*
X149441609Y-78691401D01*
X149441609Y-78691401D02*
X148774908Y-78024700D01*
X150293504Y-78061739D02*
X149886076Y-77654311D01*
X149886076Y-77654311D02*
X149774959Y-77617272D01*
X149774959Y-77617272D02*
X149663842Y-77654311D01*
X149663842Y-77654311D02*
X149515687Y-77802467D01*
X149515687Y-77802467D02*
X149478648Y-77913584D01*
X150256465Y-78024701D02*
X150219426Y-78135817D01*
X150219426Y-78135817D02*
X150034232Y-78321012D01*
X150034232Y-78321012D02*
X149923115Y-78358051D01*
X149923115Y-78358051D02*
X149811998Y-78321012D01*
X149811998Y-78321012D02*
X149737920Y-78246934D01*
X149737920Y-78246934D02*
X149700881Y-78135817D01*
X149700881Y-78135817D02*
X149737920Y-78024701D01*
X149737920Y-78024701D02*
X149923115Y-77839506D01*
X149923115Y-77839506D02*
X149960154Y-77728389D01*
X150071270Y-77246883D02*
X150775010Y-77580234D01*
X150441660Y-76876494D02*
X150775010Y-77580234D01*
X150775010Y-77580234D02*
X150886127Y-77839506D01*
X150886127Y-77839506D02*
X150886127Y-77913584D01*
X150886127Y-77913584D02*
X150849088Y-78024701D01*
X139345714Y-121886582D02*
X139398095Y-121834201D01*
X139398095Y-121834201D02*
X139502857Y-121781820D01*
X139502857Y-121781820D02*
X139764762Y-121781820D01*
X139764762Y-121781820D02*
X139869524Y-121834201D01*
X139869524Y-121834201D02*
X139921905Y-121886582D01*
X139921905Y-121886582D02*
X139974286Y-121991344D01*
X139974286Y-121991344D02*
X139974286Y-122096106D01*
X139974286Y-122096106D02*
X139921905Y-122253249D01*
X139921905Y-122253249D02*
X139293333Y-122881820D01*
X139293333Y-122881820D02*
X139974286Y-122881820D01*
X120539524Y-122148487D02*
X120539524Y-122881820D01*
X120277619Y-121729440D02*
X120015714Y-122515154D01*
X120015714Y-122515154D02*
X120696667Y-122515154D01*
X137093482Y-118123890D02*
X137460149Y-118123890D01*
X137617292Y-118700080D02*
X137093482Y-118700080D01*
X137093482Y-118700080D02*
X137093482Y-117600080D01*
X137093482Y-117600080D02*
X137617292Y-117600080D01*
X137931577Y-117600080D02*
X138298244Y-118700080D01*
X138298244Y-118700080D02*
X138664911Y-117600080D01*
X139031577Y-118123890D02*
X139398244Y-118123890D01*
X139555387Y-118700080D02*
X139031577Y-118700080D01*
X139031577Y-118700080D02*
X139031577Y-117600080D01*
X139031577Y-117600080D02*
X139555387Y-117600080D01*
X140026815Y-118700080D02*
X140026815Y-117600080D01*
X140026815Y-117600080D02*
X140655387Y-118700080D01*
X140655387Y-118700080D02*
X140655387Y-117600080D01*
X141022053Y-117600080D02*
X141650625Y-117600080D01*
X141336339Y-118700080D02*
X141336339Y-117600080D01*
D12*
X134228571Y-81060295D02*
X133771428Y-81060295D01*
X134000000Y-81060295D02*
X134000000Y-80260295D01*
X134000000Y-80260295D02*
X133923809Y-80374580D01*
X133923809Y-80374580D02*
X133847619Y-80450771D01*
X133847619Y-80450771D02*
X133771428Y-80488866D01*
X125447618Y-81060295D02*
X124990475Y-81060295D01*
X125219047Y-81060295D02*
X125219047Y-80260295D01*
X125219047Y-80260295D02*
X125142856Y-80374580D01*
X125142856Y-80374580D02*
X125066666Y-80450771D01*
X125066666Y-80450771D02*
X124990475Y-80488866D01*
X125752380Y-80336485D02*
X125790476Y-80298390D01*
X125790476Y-80298390D02*
X125866666Y-80260295D01*
X125866666Y-80260295D02*
X126057142Y-80260295D01*
X126057142Y-80260295D02*
X126133333Y-80298390D01*
X126133333Y-80298390D02*
X126171428Y-80336485D01*
X126171428Y-80336485D02*
X126209523Y-80412676D01*
X126209523Y-80412676D02*
X126209523Y-80488866D01*
X126209523Y-80488866D02*
X126171428Y-80603152D01*
X126171428Y-80603152D02*
X125714285Y-81060295D01*
X125714285Y-81060295D02*
X126209523Y-81060295D01*
X122571428Y-70458057D02*
X122619047Y-70410438D01*
X122619047Y-70410438D02*
X122714285Y-70362819D01*
X122714285Y-70362819D02*
X122952380Y-70362819D01*
X122952380Y-70362819D02*
X123047618Y-70410438D01*
X123047618Y-70410438D02*
X123095237Y-70458057D01*
X123095237Y-70458057D02*
X123142856Y-70553295D01*
X123142856Y-70553295D02*
X123142856Y-70648533D01*
X123142856Y-70648533D02*
X123095237Y-70791390D01*
X123095237Y-70791390D02*
X122523809Y-71362819D01*
X122523809Y-71362819D02*
X123142856Y-71362819D01*
X124047618Y-70362819D02*
X123571428Y-70362819D01*
X123571428Y-70362819D02*
X123523809Y-70839009D01*
X123523809Y-70839009D02*
X123571428Y-70791390D01*
X123571428Y-70791390D02*
X123666666Y-70743771D01*
X123666666Y-70743771D02*
X123904761Y-70743771D01*
X123904761Y-70743771D02*
X123999999Y-70791390D01*
X123999999Y-70791390D02*
X124047618Y-70839009D01*
X124047618Y-70839009D02*
X124095237Y-70934247D01*
X124095237Y-70934247D02*
X124095237Y-71172342D01*
X124095237Y-71172342D02*
X124047618Y-71267580D01*
X124047618Y-71267580D02*
X123999999Y-71315200D01*
X123999999Y-71315200D02*
X123904761Y-71362819D01*
X123904761Y-71362819D02*
X123666666Y-71362819D01*
X123666666Y-71362819D02*
X123571428Y-71315200D01*
X123571428Y-71315200D02*
X123523809Y-71267580D01*
X125190476Y-71362819D02*
X125714285Y-70696152D01*
X125190476Y-70696152D02*
X125714285Y-71362819D01*
X126809524Y-70458057D02*
X126857143Y-70410438D01*
X126857143Y-70410438D02*
X126952381Y-70362819D01*
X126952381Y-70362819D02*
X127190476Y-70362819D01*
X127190476Y-70362819D02*
X127285714Y-70410438D01*
X127285714Y-70410438D02*
X127333333Y-70458057D01*
X127333333Y-70458057D02*
X127380952Y-70553295D01*
X127380952Y-70553295D02*
X127380952Y-70648533D01*
X127380952Y-70648533D02*
X127333333Y-70791390D01*
X127333333Y-70791390D02*
X126761905Y-71362819D01*
X126761905Y-71362819D02*
X127380952Y-71362819D01*
X128000000Y-70362819D02*
X128095238Y-70362819D01*
X128095238Y-70362819D02*
X128190476Y-70410438D01*
X128190476Y-70410438D02*
X128238095Y-70458057D01*
X128238095Y-70458057D02*
X128285714Y-70553295D01*
X128285714Y-70553295D02*
X128333333Y-70743771D01*
X128333333Y-70743771D02*
X128333333Y-70981866D01*
X128333333Y-70981866D02*
X128285714Y-71172342D01*
X128285714Y-71172342D02*
X128238095Y-71267580D01*
X128238095Y-71267580D02*
X128190476Y-71315200D01*
X128190476Y-71315200D02*
X128095238Y-71362819D01*
X128095238Y-71362819D02*
X128000000Y-71362819D01*
X128000000Y-71362819D02*
X127904762Y-71315200D01*
X127904762Y-71315200D02*
X127857143Y-71267580D01*
X127857143Y-71267580D02*
X127809524Y-71172342D01*
X127809524Y-71172342D02*
X127761905Y-70981866D01*
X127761905Y-70981866D02*
X127761905Y-70743771D01*
X127761905Y-70743771D02*
X127809524Y-70553295D01*
X127809524Y-70553295D02*
X127857143Y-70458057D01*
X127857143Y-70458057D02*
X127904762Y-70410438D01*
X127904762Y-70410438D02*
X128000000Y-70362819D01*
X129428572Y-71362819D02*
X129952381Y-70696152D01*
X129428572Y-70696152D02*
X129952381Y-71362819D01*
X131619048Y-71362819D02*
X131047620Y-71362819D01*
X131333334Y-71362819D02*
X131333334Y-70362819D01*
X131333334Y-70362819D02*
X131238096Y-70505676D01*
X131238096Y-70505676D02*
X131142858Y-70600914D01*
X131142858Y-70600914D02*
X131047620Y-70648533D01*
X132047620Y-71267580D02*
X132095239Y-71315200D01*
X132095239Y-71315200D02*
X132047620Y-71362819D01*
X132047620Y-71362819D02*
X132000001Y-71315200D01*
X132000001Y-71315200D02*
X132047620Y-71267580D01*
X132047620Y-71267580D02*
X132047620Y-71362819D01*
X133047619Y-71362819D02*
X132476191Y-71362819D01*
X132761905Y-71362819D02*
X132761905Y-70362819D01*
X132761905Y-70362819D02*
X132666667Y-70505676D01*
X132666667Y-70505676D02*
X132571429Y-70600914D01*
X132571429Y-70600914D02*
X132476191Y-70648533D01*
X133666667Y-70362819D02*
X133761905Y-70362819D01*
X133761905Y-70362819D02*
X133857143Y-70410438D01*
X133857143Y-70410438D02*
X133904762Y-70458057D01*
X133904762Y-70458057D02*
X133952381Y-70553295D01*
X133952381Y-70553295D02*
X134000000Y-70743771D01*
X134000000Y-70743771D02*
X134000000Y-70981866D01*
X134000000Y-70981866D02*
X133952381Y-71172342D01*
X133952381Y-71172342D02*
X133904762Y-71267580D01*
X133904762Y-71267580D02*
X133857143Y-71315200D01*
X133857143Y-71315200D02*
X133761905Y-71362819D01*
X133761905Y-71362819D02*
X133666667Y-71362819D01*
X133666667Y-71362819D02*
X133571429Y-71315200D01*
X133571429Y-71315200D02*
X133523810Y-71267580D01*
X133523810Y-71267580D02*
X133476191Y-71172342D01*
X133476191Y-71172342D02*
X133428572Y-70981866D01*
X133428572Y-70981866D02*
X133428572Y-70743771D01*
X133428572Y-70743771D02*
X133476191Y-70553295D01*
X133476191Y-70553295D02*
X133523810Y-70458057D01*
X133523810Y-70458057D02*
X133571429Y-70410438D01*
X133571429Y-70410438D02*
X133666667Y-70362819D01*
X135190477Y-71362819D02*
X135190477Y-70696152D01*
X135190477Y-70791390D02*
X135238096Y-70743771D01*
X135238096Y-70743771D02*
X135333334Y-70696152D01*
X135333334Y-70696152D02*
X135476191Y-70696152D01*
X135476191Y-70696152D02*
X135571429Y-70743771D01*
X135571429Y-70743771D02*
X135619048Y-70839009D01*
X135619048Y-70839009D02*
X135619048Y-71362819D01*
X135619048Y-70839009D02*
X135666667Y-70743771D01*
X135666667Y-70743771D02*
X135761905Y-70696152D01*
X135761905Y-70696152D02*
X135904762Y-70696152D01*
X135904762Y-70696152D02*
X136000001Y-70743771D01*
X136000001Y-70743771D02*
X136047620Y-70839009D01*
X136047620Y-70839009D02*
X136047620Y-71362819D01*
X136523810Y-71362819D02*
X136523810Y-70696152D01*
X136523810Y-70791390D02*
X136571429Y-70743771D01*
X136571429Y-70743771D02*
X136666667Y-70696152D01*
X136666667Y-70696152D02*
X136809524Y-70696152D01*
X136809524Y-70696152D02*
X136904762Y-70743771D01*
X136904762Y-70743771D02*
X136952381Y-70839009D01*
X136952381Y-70839009D02*
X136952381Y-71362819D01*
X136952381Y-70839009D02*
X137000000Y-70743771D01*
X137000000Y-70743771D02*
X137095238Y-70696152D01*
X137095238Y-70696152D02*
X137238095Y-70696152D01*
X137238095Y-70696152D02*
X137333334Y-70743771D01*
X137333334Y-70743771D02*
X137380953Y-70839009D01*
X137380953Y-70839009D02*
X137380953Y-71362819D01*
X123973809Y-68472819D02*
X124307142Y-69472819D01*
X124307142Y-69472819D02*
X124640475Y-68472819D01*
X124973809Y-69472819D02*
X124973809Y-68472819D01*
X124973809Y-68949009D02*
X125545237Y-68949009D01*
X125545237Y-69472819D02*
X125545237Y-68472819D01*
X126354761Y-68949009D02*
X126497618Y-68996628D01*
X126497618Y-68996628D02*
X126545237Y-69044247D01*
X126545237Y-69044247D02*
X126592856Y-69139485D01*
X126592856Y-69139485D02*
X126592856Y-69282342D01*
X126592856Y-69282342D02*
X126545237Y-69377580D01*
X126545237Y-69377580D02*
X126497618Y-69425200D01*
X126497618Y-69425200D02*
X126402380Y-69472819D01*
X126402380Y-69472819D02*
X126021428Y-69472819D01*
X126021428Y-69472819D02*
X126021428Y-68472819D01*
X126021428Y-68472819D02*
X126354761Y-68472819D01*
X126354761Y-68472819D02*
X126449999Y-68520438D01*
X126449999Y-68520438D02*
X126497618Y-68568057D01*
X126497618Y-68568057D02*
X126545237Y-68663295D01*
X126545237Y-68663295D02*
X126545237Y-68758533D01*
X126545237Y-68758533D02*
X126497618Y-68853771D01*
X126497618Y-68853771D02*
X126449999Y-68901390D01*
X126449999Y-68901390D02*
X126354761Y-68949009D01*
X126354761Y-68949009D02*
X126021428Y-68949009D01*
X127640476Y-68472819D02*
X128211904Y-68472819D01*
X127926190Y-69472819D02*
X127926190Y-68472819D01*
X128973809Y-69472819D02*
X128973809Y-68949009D01*
X128973809Y-68949009D02*
X128926190Y-68853771D01*
X128926190Y-68853771D02*
X128830952Y-68806152D01*
X128830952Y-68806152D02*
X128640476Y-68806152D01*
X128640476Y-68806152D02*
X128545238Y-68853771D01*
X128973809Y-69425200D02*
X128878571Y-69472819D01*
X128878571Y-69472819D02*
X128640476Y-69472819D01*
X128640476Y-69472819D02*
X128545238Y-69425200D01*
X128545238Y-69425200D02*
X128497619Y-69329961D01*
X128497619Y-69329961D02*
X128497619Y-69234723D01*
X128497619Y-69234723D02*
X128545238Y-69139485D01*
X128545238Y-69139485D02*
X128640476Y-69091866D01*
X128640476Y-69091866D02*
X128878571Y-69091866D01*
X128878571Y-69091866D02*
X128973809Y-69044247D01*
X129450000Y-68806152D02*
X129450000Y-69806152D01*
X129450000Y-68853771D02*
X129545238Y-68806152D01*
X129545238Y-68806152D02*
X129735714Y-68806152D01*
X129735714Y-68806152D02*
X129830952Y-68853771D01*
X129830952Y-68853771D02*
X129878571Y-68901390D01*
X129878571Y-68901390D02*
X129926190Y-68996628D01*
X129926190Y-68996628D02*
X129926190Y-69282342D01*
X129926190Y-69282342D02*
X129878571Y-69377580D01*
X129878571Y-69377580D02*
X129830952Y-69425200D01*
X129830952Y-69425200D02*
X129735714Y-69472819D01*
X129735714Y-69472819D02*
X129545238Y-69472819D01*
X129545238Y-69472819D02*
X129450000Y-69425200D01*
X130735714Y-69425200D02*
X130640476Y-69472819D01*
X130640476Y-69472819D02*
X130450000Y-69472819D01*
X130450000Y-69472819D02*
X130354762Y-69425200D01*
X130354762Y-69425200D02*
X130307143Y-69329961D01*
X130307143Y-69329961D02*
X130307143Y-68949009D01*
X130307143Y-68949009D02*
X130354762Y-68853771D01*
X130354762Y-68853771D02*
X130450000Y-68806152D01*
X130450000Y-68806152D02*
X130640476Y-68806152D01*
X130640476Y-68806152D02*
X130735714Y-68853771D01*
X130735714Y-68853771D02*
X130783333Y-68949009D01*
X130783333Y-68949009D02*
X130783333Y-69044247D01*
X130783333Y-69044247D02*
X130307143Y-69139485D01*
X131211905Y-69377580D02*
X131259524Y-69425200D01*
X131259524Y-69425200D02*
X131211905Y-69472819D01*
X131211905Y-69472819D02*
X131164286Y-69425200D01*
X131164286Y-69425200D02*
X131211905Y-69377580D01*
X131211905Y-69377580D02*
X131211905Y-69472819D01*
X131211905Y-68853771D02*
X131259524Y-68901390D01*
X131259524Y-68901390D02*
X131211905Y-68949009D01*
X131211905Y-68949009D02*
X131164286Y-68901390D01*
X131164286Y-68901390D02*
X131211905Y-68853771D01*
X131211905Y-68853771D02*
X131211905Y-68949009D01*
X132926190Y-68472819D02*
X132450000Y-68472819D01*
X132450000Y-68472819D02*
X132402381Y-68949009D01*
X132402381Y-68949009D02*
X132450000Y-68901390D01*
X132450000Y-68901390D02*
X132545238Y-68853771D01*
X132545238Y-68853771D02*
X132783333Y-68853771D01*
X132783333Y-68853771D02*
X132878571Y-68901390D01*
X132878571Y-68901390D02*
X132926190Y-68949009D01*
X132926190Y-68949009D02*
X132973809Y-69044247D01*
X132973809Y-69044247D02*
X132973809Y-69282342D01*
X132973809Y-69282342D02*
X132926190Y-69377580D01*
X132926190Y-69377580D02*
X132878571Y-69425200D01*
X132878571Y-69425200D02*
X132783333Y-69472819D01*
X132783333Y-69472819D02*
X132545238Y-69472819D01*
X132545238Y-69472819D02*
X132450000Y-69425200D01*
X132450000Y-69425200D02*
X132402381Y-69377580D01*
X133450000Y-69472819D02*
X133640476Y-69472819D01*
X133640476Y-69472819D02*
X133735714Y-69425200D01*
X133735714Y-69425200D02*
X133783333Y-69377580D01*
X133783333Y-69377580D02*
X133878571Y-69234723D01*
X133878571Y-69234723D02*
X133926190Y-69044247D01*
X133926190Y-69044247D02*
X133926190Y-68663295D01*
X133926190Y-68663295D02*
X133878571Y-68568057D01*
X133878571Y-68568057D02*
X133830952Y-68520438D01*
X133830952Y-68520438D02*
X133735714Y-68472819D01*
X133735714Y-68472819D02*
X133545238Y-68472819D01*
X133545238Y-68472819D02*
X133450000Y-68520438D01*
X133450000Y-68520438D02*
X133402381Y-68568057D01*
X133402381Y-68568057D02*
X133354762Y-68663295D01*
X133354762Y-68663295D02*
X133354762Y-68901390D01*
X133354762Y-68901390D02*
X133402381Y-68996628D01*
X133402381Y-68996628D02*
X133450000Y-69044247D01*
X133450000Y-69044247D02*
X133545238Y-69091866D01*
X133545238Y-69091866D02*
X133735714Y-69091866D01*
X133735714Y-69091866D02*
X133830952Y-69044247D01*
X133830952Y-69044247D02*
X133878571Y-68996628D01*
X133878571Y-68996628D02*
X133926190Y-68901390D01*
X134830952Y-68472819D02*
X134354762Y-68472819D01*
X134354762Y-68472819D02*
X134307143Y-68949009D01*
X134307143Y-68949009D02*
X134354762Y-68901390D01*
X134354762Y-68901390D02*
X134450000Y-68853771D01*
X134450000Y-68853771D02*
X134688095Y-68853771D01*
X134688095Y-68853771D02*
X134783333Y-68901390D01*
X134783333Y-68901390D02*
X134830952Y-68949009D01*
X134830952Y-68949009D02*
X134878571Y-69044247D01*
X134878571Y-69044247D02*
X134878571Y-69282342D01*
X134878571Y-69282342D02*
X134830952Y-69377580D01*
X134830952Y-69377580D02*
X134783333Y-69425200D01*
X134783333Y-69425200D02*
X134688095Y-69472819D01*
X134688095Y-69472819D02*
X134450000Y-69472819D01*
X134450000Y-69472819D02*
X134354762Y-69425200D01*
X134354762Y-69425200D02*
X134307143Y-69377580D01*
X135259524Y-68568057D02*
X135307143Y-68520438D01*
X135307143Y-68520438D02*
X135402381Y-68472819D01*
X135402381Y-68472819D02*
X135640476Y-68472819D01*
X135640476Y-68472819D02*
X135735714Y-68520438D01*
X135735714Y-68520438D02*
X135783333Y-68568057D01*
X135783333Y-68568057D02*
X135830952Y-68663295D01*
X135830952Y-68663295D02*
X135830952Y-68758533D01*
X135830952Y-68758533D02*
X135783333Y-68901390D01*
X135783333Y-68901390D02*
X135211905Y-69472819D01*
X135211905Y-69472819D02*
X135830952Y-69472819D01*
D13*
X151796030Y-101952819D02*
X151597219Y-102151630D01*
X151074781Y-101231570D02*
X150875970Y-101430381D01*
X154220171Y-89669441D02*
X153654486Y-90235126D01*
X153654486Y-90235126D02*
X154220171Y-90800812D01*
X165604590Y-78567864D02*
X174938400Y-87901674D01*
X161856924Y-82315530D02*
X171190734Y-91649340D01*
X153937328Y-90235126D02*
X165604590Y-78567864D01*
X166223309Y-78903740D02*
X165622268Y-78302699D01*
X174690912Y-87371344D02*
X175221242Y-87901674D01*
X174938400Y-87901674D02*
X163271138Y-99568936D01*
X163271138Y-99568936D02*
X153937328Y-90235126D01*
X175221242Y-87901674D02*
X174761623Y-88361293D01*
X163836823Y-99286093D02*
X163271138Y-99851778D01*
X163271138Y-99851778D02*
X162705452Y-99286093D01*
X104566816Y-77746396D02*
X105113634Y-77199578D01*
X106133382Y-76179830D02*
X102846608Y-72893056D01*
X100260294Y-75479370D02*
X103547068Y-78766144D01*
X101826860Y-73912804D02*
X101280042Y-74459622D01*
X129613341Y-128771440D02*
X130386659Y-128771440D01*
X131828800Y-128771440D02*
X131828800Y-124123240D01*
X128171200Y-124123240D02*
X128171200Y-128771440D01*
X130386659Y-124123240D02*
X129613341Y-124123240D01*
X126633700Y-118936600D02*
X126633700Y-117466600D01*
X126633700Y-117466600D02*
X124348700Y-117466600D01*
X124348700Y-118936600D02*
X126633700Y-118936600D01*
X149664622Y-104134276D02*
X148851449Y-104947448D01*
X154826501Y-109296155D02*
X149664622Y-104134276D01*
X150937414Y-113185242D02*
X145775535Y-108023363D01*
X140140577Y-103689600D02*
X141859423Y-103689600D01*
X141859423Y-100743200D02*
X140140577Y-100743200D01*
X139247400Y-100590800D02*
G75*
G03*
X139247400Y-100590800I-101600J0D01*
G01*
D14*
X114950000Y-60998000D02*
X114950000Y-88498000D01*
X119000000Y-55198000D02*
X141000000Y-55198000D01*
X119000000Y-93998000D02*
X141000000Y-93998000D01*
X124300000Y-82998000D02*
X124300000Y-90798000D01*
X135700000Y-82998000D02*
X124300000Y-82998000D01*
X135700000Y-82998000D02*
X135700000Y-86148000D01*
X135700000Y-86148000D02*
X137700000Y-86148000D01*
X137700000Y-86148000D02*
X137700000Y-90798000D01*
X145050000Y-60998000D02*
X145050000Y-88498000D01*
D13*
X117500000Y-59898000D02*
X118820000Y-59898000D01*
X119300000Y-59898000D02*
X120620000Y-59898000D01*
X121100000Y-59898000D02*
X122420000Y-59898000D01*
X122900000Y-59898000D02*
X124220000Y-59898000D01*
X124700000Y-59898000D02*
X126020000Y-59898000D01*
X126500000Y-59898000D02*
X127820000Y-59898000D01*
X128300000Y-59898000D02*
X129620000Y-59898000D01*
X130100000Y-59898000D02*
X131420000Y-59898000D01*
X131900000Y-59898000D02*
X133220000Y-59898000D01*
X133700000Y-59898000D02*
X135020000Y-59898000D01*
X135500000Y-59898000D02*
X136820000Y-59898000D01*
X137300000Y-59898000D02*
X138620000Y-59898000D01*
X139100000Y-59898000D02*
X140420000Y-59898000D01*
X140900000Y-59898000D02*
X142220000Y-59898000D01*
X142500000Y-59898000D02*
X142500000Y-61218000D01*
X142500000Y-61698000D02*
X142500000Y-63018000D01*
X142500000Y-63498000D02*
X142500000Y-64818000D01*
X142500000Y-65298000D02*
X142500000Y-66618000D01*
X142500000Y-67098000D02*
X142500000Y-68418000D01*
X142500000Y-68898000D02*
X142500000Y-70218000D01*
X142500000Y-70698000D02*
X142500000Y-72018000D01*
X142500000Y-72498000D02*
X142500000Y-73818000D01*
X142500000Y-74298000D02*
X142500000Y-75618000D01*
X142500000Y-76098000D02*
X142500000Y-77418000D01*
X142500000Y-77898000D02*
X142500000Y-79218000D01*
X142500000Y-79698000D02*
X142500000Y-79898000D01*
X142500000Y-79898000D02*
X141180000Y-79898000D01*
X140700000Y-79898000D02*
X139380000Y-79898000D01*
X138900000Y-79898000D02*
X137580000Y-79898000D01*
X137100000Y-79898000D02*
X135780000Y-79898000D01*
X135300000Y-79898000D02*
X133980000Y-79898000D01*
X133500000Y-79898000D02*
X132180000Y-79898000D01*
X131700000Y-79898000D02*
X130380000Y-79898000D01*
X129900000Y-79898000D02*
X128580000Y-79898000D01*
X128100000Y-79898000D02*
X126780000Y-79898000D01*
X126300000Y-79898000D02*
X124980000Y-79898000D01*
X124500000Y-79898000D02*
X123180000Y-79898000D01*
X122700000Y-79898000D02*
X121380000Y-79898000D01*
X120900000Y-79898000D02*
X119580000Y-79898000D01*
X119100000Y-79898000D02*
X117780000Y-79898000D01*
X117500000Y-79898000D02*
X117500000Y-78578000D01*
X117500000Y-78098000D02*
X117500000Y-76778000D01*
X117500000Y-76298000D02*
X117500000Y-74978000D01*
X117500000Y-74498000D02*
X117500000Y-73178000D01*
X117500000Y-72698000D02*
X117500000Y-71378000D01*
X117500000Y-70898000D02*
X117500000Y-69578000D01*
X117500000Y-69098000D02*
X117500000Y-67778000D01*
X117500000Y-67298000D02*
X117500000Y-65978000D01*
X117500000Y-65498000D02*
X117500000Y-64178000D01*
X117500000Y-63698000D02*
X117500000Y-62378000D01*
X117500000Y-61898000D02*
X117500000Y-60578000D01*
X117500000Y-60098000D02*
X117500000Y-59898000D01*
X153643898Y-100185786D02*
X152830725Y-100998958D01*
X158805777Y-105347665D02*
X153643898Y-100185786D01*
X154916690Y-109236752D02*
X149754811Y-104074873D01*
D10*
X142850000Y-102216400D02*
G75*
G03*
X142850000Y-102216400I-100000J0D01*
G01*
D13*
X147884430Y-105813619D02*
X147685619Y-106012430D01*
X147163181Y-105092370D02*
X146964370Y-105291181D01*
X157616963Y-96232735D02*
X156803790Y-97045907D01*
X162778842Y-101394614D02*
X157616963Y-96232735D01*
X158889755Y-105283701D02*
X153727876Y-100121822D01*
X133315700Y-117466600D02*
X133315700Y-118936600D01*
X133315700Y-118936600D02*
X135600700Y-118936600D01*
X135600700Y-117466600D02*
X133315700Y-117466600D01*
X121325900Y-121937682D02*
X121325900Y-122711000D01*
X121325900Y-124153141D02*
X125974100Y-124153141D01*
X125974100Y-120495541D02*
X121325900Y-120495541D01*
X125974100Y-122711000D02*
X125974100Y-121937682D01*
X129613341Y-120607441D02*
X130386659Y-120607441D01*
X131828800Y-120607441D02*
X131828800Y-115959241D01*
X128171200Y-115959241D02*
X128171200Y-120607441D01*
X130386659Y-115959241D02*
X129613341Y-115959241D01*
D15*
X85386292Y-87784292D02*
X95285786Y-77884797D01*
D14*
X96594033Y-98992033D02*
X96700000Y-99098000D01*
D15*
X96700000Y-99098000D02*
X85386292Y-87784292D01*
D14*
X96700000Y-99098000D02*
X96700000Y-99098000D01*
X105608414Y-90189586D02*
X105608414Y-90189586D01*
X95282534Y-77888049D02*
X99720958Y-82326474D01*
X95285786Y-77884797D02*
X95285786Y-77884797D01*
D15*
X95285786Y-77884797D02*
X106599495Y-89198505D01*
X106599495Y-89198505D02*
X96700000Y-99098000D01*
D13*
X109246000Y-80203000D02*
X109881000Y-80203000D01*
X109246000Y-80838000D02*
X109246000Y-80203000D01*
D14*
X112727817Y-67285856D02*
X110252944Y-64810983D01*
X110252944Y-64810983D02*
X109545837Y-65518089D01*
X112020711Y-67992963D02*
X112727817Y-67285856D01*
X108131623Y-66932303D02*
X106717410Y-65518089D01*
X106717410Y-65518089D02*
X105656750Y-66578750D01*
X105656750Y-66578750D02*
X106717410Y-67639410D01*
X107070963Y-72942711D02*
X106363856Y-73649817D01*
X106363856Y-73649817D02*
X103888983Y-71174944D01*
X103888983Y-71174944D02*
X104596089Y-70467837D01*
D10*
X111808579Y-68275806D02*
G75*
G03*
X111950000Y-68134384I70710J70711D01*
G01*
X111949999Y-68134385D02*
G75*
G03*
X111808580Y-68275805I-70710J-70710D01*
G01*
D15*
X112764196Y-67317301D02*
X110218612Y-64771717D01*
X110218612Y-64771717D02*
X103854651Y-71135678D01*
X106400235Y-73681262D02*
X103854651Y-71135678D01*
D13*
X155707630Y-98041219D02*
X155508819Y-98240030D01*
X154986381Y-97319970D02*
X154787570Y-97518781D01*
X134025900Y-121937682D02*
X134025900Y-122711000D01*
X134025900Y-124153141D02*
X138674100Y-124153141D01*
X138674100Y-120495541D02*
X134025900Y-120495541D01*
X138674100Y-122711000D02*
X138674100Y-121937682D01*
X120410000Y-101126400D02*
X120410000Y-102866400D01*
X117590000Y-101566400D02*
X117590000Y-102866400D01*
X128390000Y-103576400D02*
X128390000Y-103401400D01*
X129065000Y-100856400D02*
X128390000Y-100856400D01*
X129065000Y-103576400D02*
X128390000Y-103576400D01*
X130935000Y-100856400D02*
X131610000Y-100856400D01*
X130935000Y-103576400D02*
X131610000Y-103576400D01*
X131610000Y-100856400D02*
X131610000Y-101031400D01*
X131610000Y-103576400D02*
X131610000Y-103401400D01*
%LPC*%
G36*
G01*
X152025429Y-100648617D02*
X152378983Y-101002171D01*
G75*
G02*
X152378983Y-101320369I-159099J-159099D01*
G01*
X152060785Y-101638567D01*
G75*
G02*
X151742587Y-101638567I-159099J159099D01*
G01*
X151389033Y-101285013D01*
G75*
G02*
X151389033Y-100966815I159099J159099D01*
G01*
X151707231Y-100648617D01*
G75*
G02*
X152025429Y-100648617I159099J-159099D01*
G01*
G37*
G36*
G01*
X150929413Y-101744633D02*
X151282967Y-102098187D01*
G75*
G02*
X151282967Y-102416385I-159099J-159099D01*
G01*
X150964769Y-102734583D01*
G75*
G02*
X150646571Y-102734583I-159099J159099D01*
G01*
X150293017Y-102381029D01*
G75*
G02*
X150293017Y-102062831I159099J159099D01*
G01*
X150611215Y-101744633D01*
G75*
G02*
X150929413Y-101744633I159099J-159099D01*
G01*
G37*
G36*
X161361949Y-84366140D02*
G01*
X160796264Y-83800455D01*
X161079107Y-83517612D01*
X161644792Y-84083297D01*
X161361949Y-84366140D01*
G37*
G36*
X160796264Y-84931825D02*
G01*
X160230579Y-84366140D01*
X160513422Y-84083297D01*
X161079107Y-84648982D01*
X160796264Y-84931825D01*
G37*
G36*
X160230578Y-85497511D02*
G01*
X159664893Y-84931826D01*
X159947736Y-84648983D01*
X160513421Y-85214668D01*
X160230578Y-85497511D01*
G37*
G36*
X159664893Y-86063196D02*
G01*
X159099208Y-85497511D01*
X159382051Y-85214668D01*
X159947736Y-85780353D01*
X159664893Y-86063196D01*
G37*
G36*
X159099207Y-86628882D02*
G01*
X158533522Y-86063197D01*
X158816365Y-85780354D01*
X159382050Y-86346039D01*
X159099207Y-86628882D01*
G37*
G36*
X158533522Y-87194567D02*
G01*
X157967837Y-86628882D01*
X158250680Y-86346039D01*
X158816365Y-86911724D01*
X158533522Y-87194567D01*
G37*
G36*
X157967837Y-87760252D02*
G01*
X157402152Y-87194567D01*
X157684995Y-86911724D01*
X158250680Y-87477409D01*
X157967837Y-87760252D01*
G37*
G36*
X157402151Y-88325938D02*
G01*
X156836466Y-87760253D01*
X157119309Y-87477410D01*
X157684994Y-88043095D01*
X157402151Y-88325938D01*
G37*
G36*
X156836466Y-88891623D02*
G01*
X156270781Y-88325938D01*
X156553624Y-88043095D01*
X157119309Y-88608780D01*
X156836466Y-88891623D01*
G37*
G36*
X156270780Y-89457309D02*
G01*
X155705095Y-88891624D01*
X155987938Y-88608781D01*
X156553623Y-89174466D01*
X156270780Y-89457309D01*
G37*
G36*
X155705095Y-90022994D02*
G01*
X155139410Y-89457309D01*
X155422253Y-89174466D01*
X155987938Y-89740151D01*
X155705095Y-90022994D01*
G37*
G36*
X155280831Y-91154365D02*
G01*
X155846516Y-90588680D01*
X156129359Y-90871523D01*
X155563674Y-91437208D01*
X155280831Y-91154365D01*
G37*
G36*
X155846517Y-91720050D02*
G01*
X156412202Y-91154365D01*
X156695045Y-91437208D01*
X156129360Y-92002893D01*
X155846517Y-91720050D01*
G37*
G36*
X156412202Y-92285736D02*
G01*
X156977887Y-91720051D01*
X157260730Y-92002894D01*
X156695045Y-92568579D01*
X156412202Y-92285736D01*
G37*
G36*
X156977887Y-92851421D02*
G01*
X157543572Y-92285736D01*
X157826415Y-92568579D01*
X157260730Y-93134264D01*
X156977887Y-92851421D01*
G37*
G36*
X157543573Y-93417106D02*
G01*
X158109258Y-92851421D01*
X158392101Y-93134264D01*
X157826416Y-93699949D01*
X157543573Y-93417106D01*
G37*
G36*
X158109258Y-93982792D02*
G01*
X158674943Y-93417107D01*
X158957786Y-93699950D01*
X158392101Y-94265635D01*
X158109258Y-93982792D01*
G37*
G36*
X158674944Y-94548477D02*
G01*
X159240629Y-93982792D01*
X159523472Y-94265635D01*
X158957787Y-94831320D01*
X158674944Y-94548477D01*
G37*
G36*
X159240629Y-95114163D02*
G01*
X159806314Y-94548478D01*
X160089157Y-94831321D01*
X159523472Y-95397006D01*
X159240629Y-95114163D01*
G37*
G36*
X159806315Y-95679848D02*
G01*
X160372000Y-95114163D01*
X160654843Y-95397006D01*
X160089158Y-95962691D01*
X159806315Y-95679848D01*
G37*
G36*
X160372000Y-96245534D02*
G01*
X160937685Y-95679849D01*
X161220528Y-95962692D01*
X160654843Y-96528377D01*
X160372000Y-96245534D01*
G37*
G36*
X160937685Y-96811219D02*
G01*
X161503370Y-96245534D01*
X161786213Y-96528377D01*
X161220528Y-97094062D01*
X160937685Y-96811219D01*
G37*
G36*
X161503371Y-97376904D02*
G01*
X162069056Y-96811219D01*
X162351899Y-97094062D01*
X161786214Y-97659747D01*
X161503371Y-97376904D01*
G37*
G36*
X162069056Y-97942590D02*
G01*
X162634741Y-97376905D01*
X162917584Y-97659748D01*
X162351899Y-98225433D01*
X162069056Y-97942590D01*
G37*
G36*
X164048955Y-98366854D02*
G01*
X163483270Y-97801169D01*
X163766113Y-97518326D01*
X164331798Y-98084011D01*
X164048955Y-98366854D01*
G37*
G36*
X164614640Y-97801169D02*
G01*
X164048955Y-97235484D01*
X164331798Y-96952641D01*
X164897483Y-97518326D01*
X164614640Y-97801169D01*
G37*
G36*
X165180326Y-97235483D02*
G01*
X164614641Y-96669798D01*
X164897484Y-96386955D01*
X165463169Y-96952640D01*
X165180326Y-97235483D01*
G37*
G36*
X165746011Y-96669798D02*
G01*
X165180326Y-96104113D01*
X165463169Y-95821270D01*
X166028854Y-96386955D01*
X165746011Y-96669798D01*
G37*
G36*
X166311697Y-96104112D02*
G01*
X165746012Y-95538427D01*
X166028855Y-95255584D01*
X166594540Y-95821269D01*
X166311697Y-96104112D01*
G37*
G36*
X166877382Y-95538427D02*
G01*
X166311697Y-94972742D01*
X166594540Y-94689899D01*
X167160225Y-95255584D01*
X166877382Y-95538427D01*
G37*
G36*
X167443067Y-94972742D02*
G01*
X166877382Y-94407057D01*
X167160225Y-94124214D01*
X167725910Y-94689899D01*
X167443067Y-94972742D01*
G37*
G36*
X168008753Y-94407056D02*
G01*
X167443068Y-93841371D01*
X167725911Y-93558528D01*
X168291596Y-94124213D01*
X168008753Y-94407056D01*
G37*
G36*
X168574438Y-93841371D02*
G01*
X168008753Y-93275686D01*
X168291596Y-92992843D01*
X168857281Y-93558528D01*
X168574438Y-93841371D01*
G37*
G36*
X169140124Y-93275685D02*
G01*
X168574439Y-92710000D01*
X168857282Y-92427157D01*
X169422967Y-92992842D01*
X169140124Y-93275685D01*
G37*
G36*
X169705809Y-92710000D02*
G01*
X169140124Y-92144315D01*
X169422967Y-91861472D01*
X169988652Y-92427157D01*
X169705809Y-92710000D01*
G37*
G36*
X161856924Y-83729744D02*
G01*
X161361949Y-83234769D01*
X161856924Y-82739794D01*
X162351899Y-83234769D01*
X161856924Y-83729744D01*
G37*
G36*
X154856567Y-90730101D02*
G01*
X154361592Y-90235126D01*
X154856567Y-89740151D01*
X155351542Y-90235126D01*
X154856567Y-90730101D01*
G37*
G36*
X162210478Y-84224718D02*
G01*
X162776163Y-83659033D01*
X163059006Y-83941876D01*
X162493321Y-84507561D01*
X162210478Y-84224718D01*
G37*
G36*
X162776163Y-84790404D02*
G01*
X163341848Y-84224719D01*
X163624691Y-84507562D01*
X163059006Y-85073247D01*
X162776163Y-84790404D01*
G37*
G36*
X163341849Y-85356089D02*
G01*
X163907534Y-84790404D01*
X164190377Y-85073247D01*
X163624692Y-85638932D01*
X163341849Y-85356089D01*
G37*
G36*
X163907534Y-85921774D02*
G01*
X164473219Y-85356089D01*
X164756062Y-85638932D01*
X164190377Y-86204617D01*
X163907534Y-85921774D01*
G37*
G36*
X162564031Y-89174466D02*
G01*
X161538726Y-88149161D01*
X162139767Y-87548120D01*
X162988295Y-87548120D01*
X163589336Y-88149161D01*
X162564031Y-89174466D01*
G37*
G36*
X161167495Y-90571002D02*
G01*
X160142190Y-89545697D01*
X161167495Y-88520392D01*
X162192800Y-89545697D01*
X161167495Y-90571002D01*
G37*
G36*
X159770959Y-91967538D02*
G01*
X158745654Y-90942233D01*
X159770959Y-89916928D01*
X160796264Y-90942233D01*
X159770959Y-91967538D01*
G37*
G36*
X164473219Y-86487460D02*
G01*
X165038904Y-85921775D01*
X165321747Y-86204618D01*
X164756062Y-86770303D01*
X164473219Y-86487460D01*
G37*
G36*
X165038905Y-87053145D02*
G01*
X165604590Y-86487460D01*
X165887433Y-86770303D01*
X165321748Y-87335988D01*
X165038905Y-87053145D01*
G37*
G36*
X165604590Y-87618831D02*
G01*
X166170275Y-87053146D01*
X166453118Y-87335989D01*
X165887433Y-87901674D01*
X165604590Y-87618831D01*
G37*
G36*
X163960567Y-90571002D02*
G01*
X162935262Y-89545697D01*
X163960567Y-88520392D01*
X164985872Y-89545697D01*
X163960567Y-90571002D01*
G37*
G36*
X162564031Y-91967538D02*
G01*
X161538726Y-90942233D01*
X162564031Y-89916928D01*
X163589336Y-90942233D01*
X162564031Y-91967538D01*
G37*
G36*
X161167495Y-93364074D02*
G01*
X160142190Y-92338769D01*
X161167495Y-91313464D01*
X162192800Y-92338769D01*
X161167495Y-93364074D01*
G37*
G36*
X166170276Y-88184516D02*
G01*
X166735961Y-87618831D01*
X167018804Y-87901674D01*
X166453119Y-88467359D01*
X166170276Y-88184516D01*
G37*
G36*
X166735961Y-88750202D02*
G01*
X167301646Y-88184517D01*
X167584489Y-88467360D01*
X167018804Y-89033045D01*
X166735961Y-88750202D01*
G37*
G36*
X165357103Y-91967538D02*
G01*
X164331798Y-90942233D01*
X165357103Y-89916928D01*
X166382408Y-90942233D01*
X165357103Y-91967538D01*
G37*
G36*
X163960567Y-93364074D02*
G01*
X162935262Y-92338769D01*
X163960567Y-91313464D01*
X164985872Y-92338769D01*
X163960567Y-93364074D01*
G37*
G36*
X162564031Y-94760610D02*
G01*
X161538726Y-93735305D01*
X162564031Y-92710000D01*
X163589336Y-93735305D01*
X162564031Y-94760610D01*
G37*
G36*
X167301647Y-89315887D02*
G01*
X167867332Y-88750202D01*
X168150175Y-89033045D01*
X167584490Y-89598730D01*
X167301647Y-89315887D01*
G37*
G36*
X167867332Y-89881572D02*
G01*
X168433017Y-89315887D01*
X168715860Y-89598730D01*
X168150175Y-90164415D01*
X167867332Y-89881572D01*
G37*
G36*
X168433017Y-90447258D02*
G01*
X168998702Y-89881573D01*
X169281545Y-90164416D01*
X168715860Y-90730101D01*
X168433017Y-90447258D01*
G37*
G36*
X168998703Y-91012943D02*
G01*
X169564388Y-90447258D01*
X169847231Y-90730101D01*
X169281546Y-91295786D01*
X168998703Y-91012943D01*
G37*
G36*
X170271495Y-92144315D02*
G01*
X169776520Y-91649340D01*
X170271495Y-91154365D01*
X170766470Y-91649340D01*
X170271495Y-92144315D01*
G37*
G36*
X163271138Y-99144672D02*
G01*
X162776163Y-98649697D01*
X163271138Y-98154722D01*
X163766113Y-98649697D01*
X163271138Y-99144672D01*
G37*
G36*
X104629367Y-78279513D02*
G01*
X104126473Y-78782407D01*
X103426013Y-78081947D01*
X103928907Y-77579053D01*
X104629367Y-78279513D01*
G37*
G36*
X101447385Y-75097531D02*
G01*
X100944491Y-75600425D01*
X100244031Y-74899965D01*
X100746925Y-74397071D01*
X101447385Y-75097531D01*
G37*
G36*
X106149645Y-76759235D02*
G01*
X105646751Y-77262129D01*
X104946291Y-76561669D01*
X105449185Y-76058775D01*
X106149645Y-76759235D01*
G37*
G36*
X102967663Y-73577253D02*
G01*
X102464769Y-74080147D01*
X101764309Y-73379687D01*
X102267203Y-72876793D01*
X102967663Y-73577253D01*
G37*
D16*
X128925001Y-128697341D03*
X128925001Y-124197339D03*
X131074999Y-128697341D03*
X131074999Y-124197339D03*
G36*
G01*
X126373700Y-117945350D02*
X126373700Y-118457850D01*
G75*
G02*
X126154950Y-118676600I-218750J0D01*
G01*
X125717450Y-118676600D01*
G75*
G02*
X125498700Y-118457850I0J218750D01*
G01*
X125498700Y-117945350D01*
G75*
G02*
X125717450Y-117726600I218750J0D01*
G01*
X126154950Y-117726600D01*
G75*
G02*
X126373700Y-117945350I0J-218750D01*
G01*
G37*
G36*
G01*
X124798700Y-117945350D02*
X124798700Y-118457850D01*
G75*
G02*
X124579950Y-118676600I-218750J0D01*
G01*
X124142450Y-118676600D01*
G75*
G02*
X123923700Y-118457850I0J218750D01*
G01*
X123923700Y-117945350D01*
G75*
G02*
X124142450Y-117726600I218750J0D01*
G01*
X124579950Y-117726600D01*
G75*
G02*
X124798700Y-117945350I0J-218750D01*
G01*
G37*
G36*
X150583860Y-105972754D02*
G01*
X149876754Y-106679860D01*
X148816094Y-105619200D01*
X149523200Y-104912094D01*
X150583860Y-105972754D01*
G37*
G36*
X148816094Y-106538439D02*
G01*
X149417135Y-105937398D01*
X150548506Y-107068769D01*
X149947465Y-107669810D01*
X148816094Y-106538439D01*
G37*
G36*
X149487846Y-107351612D02*
G01*
X149912110Y-106927348D01*
X150619216Y-107634454D01*
X150194952Y-108058718D01*
X149487846Y-107351612D01*
G37*
G36*
X148321119Y-108235495D02*
G01*
X147614013Y-108942601D01*
X146553353Y-107881941D01*
X147260459Y-107174835D01*
X148321119Y-108235495D01*
G37*
G36*
X147578657Y-107775876D02*
G01*
X148179698Y-107174835D01*
X149311069Y-108306206D01*
X148710028Y-108907247D01*
X147578657Y-107775876D01*
G37*
G36*
X148568607Y-108270851D02*
G01*
X148992871Y-107846587D01*
X149699977Y-108553693D01*
X149275713Y-108977957D01*
X148568607Y-108270851D01*
G37*
G36*
X149982820Y-109685064D02*
G01*
X150407084Y-109260800D01*
X151114190Y-109967906D01*
X150689926Y-110392170D01*
X149982820Y-109685064D01*
G37*
G36*
X150053530Y-110250749D02*
G01*
X150654571Y-109649708D01*
X151785942Y-110781079D01*
X151184901Y-111382120D01*
X150053530Y-110250749D01*
G37*
G36*
X151785942Y-111700318D02*
G01*
X151078836Y-112407424D01*
X150018176Y-111346764D01*
X150725282Y-110639658D01*
X151785942Y-111700318D01*
G37*
G36*
X150902059Y-108765825D02*
G01*
X151326323Y-108341561D01*
X152033429Y-109048667D01*
X151609165Y-109472931D01*
X150902059Y-108765825D01*
G37*
G36*
X151290967Y-109013312D02*
G01*
X151892008Y-108412271D01*
X153023379Y-109543642D01*
X152422338Y-110144683D01*
X151290967Y-109013312D01*
G37*
G36*
X154048683Y-109437577D02*
G01*
X153341577Y-110144683D01*
X152280917Y-109084023D01*
X152988023Y-108376917D01*
X154048683Y-109437577D01*
G37*
D17*
X139679401Y-101466399D03*
X139679401Y-102966401D03*
X142320599Y-102966401D03*
X142320599Y-101466399D03*
D18*
X125300000Y-86998000D03*
X135300000Y-86998000D03*
G36*
G01*
X134025000Y-82610500D02*
X134025000Y-85185500D01*
G75*
G02*
X133937500Y-85273000I-87500J0D01*
G01*
X133762500Y-85273000D01*
G75*
G02*
X133675000Y-85185500I0J87500D01*
G01*
X133675000Y-82610500D01*
G75*
G02*
X133762500Y-82523000I87500J0D01*
G01*
X133937500Y-82523000D01*
G75*
G02*
X134025000Y-82610500I0J-87500D01*
G01*
G37*
G36*
G01*
X133325000Y-82610500D02*
X133325000Y-85185500D01*
G75*
G02*
X133237500Y-85273000I-87500J0D01*
G01*
X133062500Y-85273000D01*
G75*
G02*
X132975000Y-85185500I0J87500D01*
G01*
X132975000Y-82610500D01*
G75*
G02*
X133062500Y-82523000I87500J0D01*
G01*
X133237500Y-82523000D01*
G75*
G02*
X133325000Y-82610500I0J-87500D01*
G01*
G37*
G36*
G01*
X132625000Y-82610500D02*
X132625000Y-85185500D01*
G75*
G02*
X132537500Y-85273000I-87500J0D01*
G01*
X132362500Y-85273000D01*
G75*
G02*
X132275000Y-85185500I0J87500D01*
G01*
X132275000Y-82610500D01*
G75*
G02*
X132362500Y-82523000I87500J0D01*
G01*
X132537500Y-82523000D01*
G75*
G02*
X132625000Y-82610500I0J-87500D01*
G01*
G37*
G36*
G01*
X131925000Y-82610500D02*
X131925000Y-85185500D01*
G75*
G02*
X131837500Y-85273000I-87500J0D01*
G01*
X131662500Y-85273000D01*
G75*
G02*
X131575000Y-85185500I0J87500D01*
G01*
X131575000Y-82610500D01*
G75*
G02*
X131662500Y-82523000I87500J0D01*
G01*
X131837500Y-82523000D01*
G75*
G02*
X131925000Y-82610500I0J-87500D01*
G01*
G37*
G36*
G01*
X131225000Y-82610500D02*
X131225000Y-85185500D01*
G75*
G02*
X131137500Y-85273000I-87500J0D01*
G01*
X130962500Y-85273000D01*
G75*
G02*
X130875000Y-85185500I0J87500D01*
G01*
X130875000Y-82610500D01*
G75*
G02*
X130962500Y-82523000I87500J0D01*
G01*
X131137500Y-82523000D01*
G75*
G02*
X131225000Y-82610500I0J-87500D01*
G01*
G37*
G36*
G01*
X130525000Y-82610500D02*
X130525000Y-85185500D01*
G75*
G02*
X130437500Y-85273000I-87500J0D01*
G01*
X130262500Y-85273000D01*
G75*
G02*
X130175000Y-85185500I0J87500D01*
G01*
X130175000Y-82610500D01*
G75*
G02*
X130262500Y-82523000I87500J0D01*
G01*
X130437500Y-82523000D01*
G75*
G02*
X130525000Y-82610500I0J-87500D01*
G01*
G37*
G36*
G01*
X129825000Y-82610500D02*
X129825000Y-85185500D01*
G75*
G02*
X129737500Y-85273000I-87500J0D01*
G01*
X129562500Y-85273000D01*
G75*
G02*
X129475000Y-85185500I0J87500D01*
G01*
X129475000Y-82610500D01*
G75*
G02*
X129562500Y-82523000I87500J0D01*
G01*
X129737500Y-82523000D01*
G75*
G02*
X129825000Y-82610500I0J-87500D01*
G01*
G37*
G36*
G01*
X129125000Y-82610500D02*
X129125000Y-85185500D01*
G75*
G02*
X129037500Y-85273000I-87500J0D01*
G01*
X128862500Y-85273000D01*
G75*
G02*
X128775000Y-85185500I0J87500D01*
G01*
X128775000Y-82610500D01*
G75*
G02*
X128862500Y-82523000I87500J0D01*
G01*
X129037500Y-82523000D01*
G75*
G02*
X129125000Y-82610500I0J-87500D01*
G01*
G37*
G36*
G01*
X128425000Y-82610500D02*
X128425000Y-85185500D01*
G75*
G02*
X128337500Y-85273000I-87500J0D01*
G01*
X128162500Y-85273000D01*
G75*
G02*
X128075000Y-85185500I0J87500D01*
G01*
X128075000Y-82610500D01*
G75*
G02*
X128162500Y-82523000I87500J0D01*
G01*
X128337500Y-82523000D01*
G75*
G02*
X128425000Y-82610500I0J-87500D01*
G01*
G37*
G36*
G01*
X127725000Y-82610500D02*
X127725000Y-85185500D01*
G75*
G02*
X127637500Y-85273000I-87500J0D01*
G01*
X127462500Y-85273000D01*
G75*
G02*
X127375000Y-85185500I0J87500D01*
G01*
X127375000Y-82610500D01*
G75*
G02*
X127462500Y-82523000I87500J0D01*
G01*
X127637500Y-82523000D01*
G75*
G02*
X127725000Y-82610500I0J-87500D01*
G01*
G37*
G36*
G01*
X127025000Y-82610500D02*
X127025000Y-85185500D01*
G75*
G02*
X126937500Y-85273000I-87500J0D01*
G01*
X126762500Y-85273000D01*
G75*
G02*
X126675000Y-85185500I0J87500D01*
G01*
X126675000Y-82610500D01*
G75*
G02*
X126762500Y-82523000I87500J0D01*
G01*
X126937500Y-82523000D01*
G75*
G02*
X127025000Y-82610500I0J-87500D01*
G01*
G37*
G36*
G01*
X126325000Y-82610500D02*
X126325000Y-85185500D01*
G75*
G02*
X126237500Y-85273000I-87500J0D01*
G01*
X126062500Y-85273000D01*
G75*
G02*
X125975000Y-85185500I0J87500D01*
G01*
X125975000Y-82610500D01*
G75*
G02*
X126062500Y-82523000I87500J0D01*
G01*
X126237500Y-82523000D01*
G75*
G02*
X126325000Y-82610500I0J-87500D01*
G01*
G37*
G36*
X154563136Y-102024264D02*
G01*
X153856030Y-102731370D01*
X152795370Y-101670710D01*
X153502476Y-100963604D01*
X154563136Y-102024264D01*
G37*
G36*
X152795370Y-102589949D02*
G01*
X153396411Y-101988908D01*
X154527782Y-103120279D01*
X153926741Y-103721320D01*
X152795370Y-102589949D01*
G37*
G36*
X153467122Y-103403122D02*
G01*
X153891386Y-102978858D01*
X154598492Y-103685964D01*
X154174228Y-104110228D01*
X153467122Y-103403122D01*
G37*
G36*
X152300395Y-104287005D02*
G01*
X151593289Y-104994111D01*
X150532629Y-103933451D01*
X151239735Y-103226345D01*
X152300395Y-104287005D01*
G37*
G36*
X151557933Y-103827386D02*
G01*
X152158974Y-103226345D01*
X153290345Y-104357716D01*
X152689304Y-104958757D01*
X151557933Y-103827386D01*
G37*
G36*
X152547883Y-104322361D02*
G01*
X152972147Y-103898097D01*
X153679253Y-104605203D01*
X153254989Y-105029467D01*
X152547883Y-104322361D01*
G37*
G36*
X153962096Y-105736574D02*
G01*
X154386360Y-105312310D01*
X155093466Y-106019416D01*
X154669202Y-106443680D01*
X153962096Y-105736574D01*
G37*
G36*
X154032806Y-106302259D02*
G01*
X154633847Y-105701218D01*
X155765218Y-106832589D01*
X155164177Y-107433630D01*
X154032806Y-106302259D01*
G37*
G36*
X155765218Y-107751828D02*
G01*
X155058112Y-108458934D01*
X153997452Y-107398274D01*
X154704558Y-106691168D01*
X155765218Y-107751828D01*
G37*
G36*
X154881335Y-104817335D02*
G01*
X155305599Y-104393071D01*
X156012705Y-105100177D01*
X155588441Y-105524441D01*
X154881335Y-104817335D01*
G37*
G36*
X155270243Y-105064822D02*
G01*
X155871284Y-104463781D01*
X157002655Y-105595152D01*
X156401614Y-106196193D01*
X155270243Y-105064822D01*
G37*
G36*
X158027959Y-105489087D02*
G01*
X157320853Y-106196193D01*
X156260193Y-105135533D01*
X156967299Y-104428427D01*
X158027959Y-105489087D01*
G37*
D19*
X141750000Y-102216400D03*
X140250000Y-102216400D03*
G36*
G01*
X148113829Y-104509417D02*
X148467383Y-104862971D01*
G75*
G02*
X148467383Y-105181169I-159099J-159099D01*
G01*
X148149185Y-105499367D01*
G75*
G02*
X147830987Y-105499367I-159099J159099D01*
G01*
X147477433Y-105145813D01*
G75*
G02*
X147477433Y-104827615I159099J159099D01*
G01*
X147795631Y-104509417D01*
G75*
G02*
X148113829Y-104509417I159099J-159099D01*
G01*
G37*
G36*
G01*
X147017813Y-105605433D02*
X147371367Y-105958987D01*
G75*
G02*
X147371367Y-106277185I-159099J-159099D01*
G01*
X147053169Y-106595383D01*
G75*
G02*
X146734971Y-106595383I-159099J159099D01*
G01*
X146381417Y-106241829D01*
G75*
G02*
X146381417Y-105923631I159099J159099D01*
G01*
X146699615Y-105605433D01*
G75*
G02*
X147017813Y-105605433I159099J-159099D01*
G01*
G37*
G36*
X158536201Y-98071213D02*
G01*
X157829095Y-98778319D01*
X156768435Y-97717659D01*
X157475541Y-97010553D01*
X158536201Y-98071213D01*
G37*
G36*
X156768435Y-98636898D02*
G01*
X157369476Y-98035857D01*
X158500847Y-99167228D01*
X157899806Y-99768269D01*
X156768435Y-98636898D01*
G37*
G36*
X157440187Y-99450071D02*
G01*
X157864451Y-99025807D01*
X158571557Y-99732913D01*
X158147293Y-100157177D01*
X157440187Y-99450071D01*
G37*
G36*
X156273460Y-100333954D02*
G01*
X155566354Y-101041060D01*
X154505694Y-99980400D01*
X155212800Y-99273294D01*
X156273460Y-100333954D01*
G37*
G36*
X155530998Y-99874335D02*
G01*
X156132039Y-99273294D01*
X157263410Y-100404665D01*
X156662369Y-101005706D01*
X155530998Y-99874335D01*
G37*
G36*
X156520948Y-100369310D02*
G01*
X156945212Y-99945046D01*
X157652318Y-100652152D01*
X157228054Y-101076416D01*
X156520948Y-100369310D01*
G37*
G36*
X157935161Y-101783523D02*
G01*
X158359425Y-101359259D01*
X159066531Y-102066365D01*
X158642267Y-102490629D01*
X157935161Y-101783523D01*
G37*
G36*
X158005871Y-102349208D02*
G01*
X158606912Y-101748167D01*
X159738283Y-102879538D01*
X159137242Y-103480579D01*
X158005871Y-102349208D01*
G37*
G36*
X159738283Y-103798777D02*
G01*
X159031177Y-104505883D01*
X157970517Y-103445223D01*
X158677623Y-102738117D01*
X159738283Y-103798777D01*
G37*
G36*
X158854400Y-100864284D02*
G01*
X159278664Y-100440020D01*
X159985770Y-101147126D01*
X159561506Y-101571390D01*
X158854400Y-100864284D01*
G37*
G36*
X159243308Y-101111771D02*
G01*
X159844349Y-100510730D01*
X160975720Y-101642101D01*
X160374679Y-102243142D01*
X159243308Y-101111771D01*
G37*
G36*
X162001024Y-101536036D02*
G01*
X161293918Y-102243142D01*
X160233258Y-101182482D01*
X160940364Y-100475376D01*
X162001024Y-101536036D01*
G37*
G36*
G01*
X133575700Y-118457850D02*
X133575700Y-117945350D01*
G75*
G02*
X133794450Y-117726600I218750J0D01*
G01*
X134231950Y-117726600D01*
G75*
G02*
X134450700Y-117945350I0J-218750D01*
G01*
X134450700Y-118457850D01*
G75*
G02*
X134231950Y-118676600I-218750J0D01*
G01*
X133794450Y-118676600D01*
G75*
G02*
X133575700Y-118457850I0J218750D01*
G01*
G37*
G36*
G01*
X135150700Y-118457850D02*
X135150700Y-117945350D01*
G75*
G02*
X135369450Y-117726600I218750J0D01*
G01*
X135806950Y-117726600D01*
G75*
G02*
X136025700Y-117945350I0J-218750D01*
G01*
X136025700Y-118457850D01*
G75*
G02*
X135806950Y-118676600I-218750J0D01*
G01*
X135369450Y-118676600D01*
G75*
G02*
X135150700Y-118457850I0J218750D01*
G01*
G37*
D20*
X121399999Y-121249342D03*
X125900001Y-121249342D03*
X121399999Y-123399340D03*
X125900001Y-123399340D03*
D16*
X128925001Y-120533342D03*
X128925001Y-116033340D03*
X131074999Y-120533342D03*
X131074999Y-116033340D03*
G36*
X90761322Y-92098662D02*
G01*
X91256296Y-92593636D01*
X90195636Y-93654296D01*
X89700662Y-93159322D01*
X90761322Y-92098662D01*
G37*
G36*
X90973326Y-94431986D02*
G01*
X90478352Y-93937012D01*
X91539012Y-92876352D01*
X92033986Y-93371326D01*
X90973326Y-94431986D01*
G37*
G36*
X91751016Y-95209676D02*
G01*
X91256042Y-94714702D01*
X92316702Y-93654042D01*
X92811676Y-94149016D01*
X91751016Y-95209676D01*
G37*
G36*
X92528706Y-95987366D02*
G01*
X92033732Y-95492392D01*
X93094392Y-94431732D01*
X93589366Y-94926706D01*
X92528706Y-95987366D01*
G37*
G36*
X93305887Y-96764547D02*
G01*
X92810913Y-96269573D01*
X93871573Y-95208913D01*
X94366547Y-95703887D01*
X93305887Y-96764547D01*
G37*
G36*
X94084086Y-97542746D02*
G01*
X93589112Y-97047772D01*
X94649772Y-95987112D01*
X95144746Y-96482086D01*
X94084086Y-97542746D01*
G37*
G36*
X94861777Y-98320437D02*
G01*
X94366803Y-97825463D01*
X95427463Y-96764803D01*
X95922437Y-97259777D01*
X94861777Y-98320437D01*
G37*
G36*
X95639467Y-99098127D02*
G01*
X95144493Y-98603153D01*
X96205153Y-97542493D01*
X96700127Y-98037467D01*
X95639467Y-99098127D01*
G37*
G36*
X105538962Y-89198632D02*
G01*
X105043988Y-88703658D01*
X106104648Y-87642998D01*
X106599622Y-88137972D01*
X105538962Y-89198632D01*
G37*
G36*
X104761272Y-88420942D02*
G01*
X104266298Y-87925968D01*
X105326958Y-86865308D01*
X105821932Y-87360282D01*
X104761272Y-88420942D01*
G37*
G36*
X103983581Y-87643252D02*
G01*
X103488607Y-87148278D01*
X104549267Y-86087618D01*
X105044241Y-86582592D01*
X103983581Y-87643252D01*
G37*
G36*
X103205382Y-86865052D02*
G01*
X102710408Y-86370078D01*
X103771068Y-85309418D01*
X104266042Y-85804392D01*
X103205382Y-86865052D01*
G37*
G36*
X102428201Y-86087871D02*
G01*
X101933227Y-85592897D01*
X102993887Y-84532237D01*
X103488861Y-85027211D01*
X102428201Y-86087871D01*
G37*
G36*
X101650511Y-85310181D02*
G01*
X101155537Y-84815207D01*
X102216197Y-83754547D01*
X102711171Y-84249521D01*
X101650511Y-85310181D01*
G37*
G36*
X100872821Y-84532491D02*
G01*
X100377847Y-84037517D01*
X101438507Y-82976857D01*
X101933481Y-83471831D01*
X100872821Y-84532491D01*
G37*
G36*
X100095130Y-83754801D02*
G01*
X99600156Y-83259827D01*
X100660816Y-82199167D01*
X101155790Y-82694141D01*
X100095130Y-83754801D01*
G37*
D21*
X94401903Y-90082389D03*
X95250431Y-90930917D03*
X96098959Y-91779445D03*
X96947487Y-92627973D03*
X97796016Y-93476501D03*
X98644544Y-94325029D03*
X99493072Y-95173557D03*
X95462563Y-89021728D03*
X96311091Y-89870257D03*
X97159619Y-90718785D03*
X98008148Y-91567313D03*
X98856676Y-92415841D03*
X99705204Y-93264369D03*
X100553732Y-94112897D03*
X96523223Y-87961068D03*
X97371751Y-88809596D03*
X98220280Y-89658124D03*
X99068808Y-90506653D03*
X99917336Y-91355181D03*
X100765864Y-92203709D03*
X101614392Y-93052237D03*
X97583883Y-86900408D03*
X98432412Y-87748936D03*
X99280940Y-88597464D03*
X100129468Y-89445992D03*
X100977996Y-90294521D03*
X101826524Y-91143049D03*
X102675052Y-91991577D03*
X98644544Y-85839748D03*
X99493072Y-86688276D03*
X100341600Y-87536804D03*
X101190128Y-88385332D03*
X102038656Y-89233860D03*
X102887184Y-90082389D03*
X103735712Y-90930917D03*
G36*
X92192194Y-90524330D02*
G01*
X91131534Y-89463670D01*
X92192194Y-88403010D01*
X93252854Y-89463670D01*
X92192194Y-90524330D01*
G37*
G36*
X93783185Y-88933340D02*
G01*
X92722525Y-87872680D01*
X93783185Y-86812020D01*
X94843845Y-87872680D01*
X93783185Y-88933340D01*
G37*
G36*
X95374175Y-87342350D02*
G01*
X94313515Y-86281690D01*
X95374175Y-85221030D01*
X96434835Y-86281690D01*
X95374175Y-87342350D01*
G37*
G36*
X96965165Y-85751359D02*
G01*
X95904505Y-84690699D01*
X96965165Y-83630039D01*
X98025825Y-84690699D01*
X96965165Y-85751359D01*
G37*
X103099316Y-88173200D03*
X103947845Y-89021728D03*
G36*
X104796373Y-90294521D02*
G01*
X104372109Y-89870257D01*
X104796373Y-89445993D01*
X105220637Y-89870257D01*
X104796373Y-90294521D01*
G37*
X93341243Y-91143049D03*
X94189771Y-91991577D03*
X95038299Y-92840105D03*
X95886827Y-93688633D03*
X96735355Y-94537161D03*
X97583883Y-95385689D03*
X98432412Y-96234218D03*
D22*
X110516000Y-79568000D03*
X111532000Y-84648000D03*
X109500000Y-84648000D03*
D23*
X109881000Y-80838000D03*
X111151000Y-80838000D03*
X109881000Y-82108000D03*
X111151000Y-82108000D03*
X109881000Y-83378000D03*
X111151000Y-83378000D03*
D24*
X110712563Y-66826237D03*
X105904237Y-71634563D03*
G36*
X110005456Y-68099029D02*
G01*
X110712563Y-67391922D01*
X111843934Y-68523293D01*
X111136827Y-69230400D01*
X110005456Y-68099029D01*
G37*
G36*
X108237689Y-69866796D02*
G01*
X108944796Y-69159689D01*
X110076167Y-70291060D01*
X109369060Y-70998167D01*
X108237689Y-69866796D01*
G37*
G36*
X106469922Y-71634563D02*
G01*
X107177029Y-70927456D01*
X108308400Y-72058827D01*
X107601293Y-72765934D01*
X106469922Y-71634563D01*
G37*
G36*
X108308400Y-66401973D02*
G01*
X109015507Y-65694866D01*
X110146878Y-66826237D01*
X109439771Y-67533344D01*
X108308400Y-66401973D01*
G37*
G36*
X106540633Y-68169740D02*
G01*
X107247740Y-67462633D01*
X108379111Y-68594004D01*
X107672004Y-69301111D01*
X106540633Y-68169740D01*
G37*
G36*
X104772866Y-69937507D02*
G01*
X105479973Y-69230400D01*
X106611344Y-70361771D01*
X105904237Y-71068878D01*
X104772866Y-69937507D01*
G37*
D18*
X110713586Y-66822326D03*
X105905260Y-71630652D03*
G36*
X111562115Y-68095118D02*
G01*
X113329882Y-69862885D01*
X112481353Y-70711414D01*
X110713586Y-68943647D01*
X111562115Y-68095118D01*
G37*
G36*
X109794348Y-69862885D02*
G01*
X111562115Y-71630652D01*
X110713586Y-72479181D01*
X108945819Y-70711414D01*
X109794348Y-69862885D01*
G37*
G36*
X108026581Y-71630652D02*
G01*
X109794348Y-73398419D01*
X108945819Y-74246948D01*
X107178052Y-72479181D01*
X108026581Y-71630652D01*
G37*
G36*
G01*
X155937029Y-96737017D02*
X156290583Y-97090571D01*
G75*
G02*
X156290583Y-97408769I-159099J-159099D01*
G01*
X155972385Y-97726967D01*
G75*
G02*
X155654187Y-97726967I-159099J159099D01*
G01*
X155300633Y-97373413D01*
G75*
G02*
X155300633Y-97055215I159099J159099D01*
G01*
X155618831Y-96737017D01*
G75*
G02*
X155937029Y-96737017I159099J-159099D01*
G01*
G37*
G36*
G01*
X154841013Y-97833033D02*
X155194567Y-98186587D01*
G75*
G02*
X155194567Y-98504785I-159099J-159099D01*
G01*
X154876369Y-98822983D01*
G75*
G02*
X154558171Y-98822983I-159099J159099D01*
G01*
X154204617Y-98469429D01*
G75*
G02*
X154204617Y-98151231I159099J159099D01*
G01*
X154522815Y-97833033D01*
G75*
G02*
X154841013Y-97833033I159099J-159099D01*
G01*
G37*
D20*
X134099999Y-121249342D03*
X138600001Y-121249342D03*
X134099999Y-123399340D03*
X138600001Y-123399340D03*
D25*
X119750000Y-101041400D03*
X119250000Y-101041400D03*
X118750000Y-101041400D03*
X118250000Y-101041400D03*
X118250000Y-103391400D03*
X118750000Y-103391400D03*
X119250000Y-103391400D03*
X119750000Y-103391400D03*
G36*
X118150000Y-102716400D02*
G01*
X118150000Y-101716400D01*
X119550000Y-101716400D01*
X119850000Y-102016400D01*
X119850000Y-102716400D01*
X118150000Y-102716400D01*
G37*
G36*
G01*
X128525000Y-101553900D02*
X128525000Y-101378900D01*
G75*
G02*
X128612500Y-101291400I87500J0D01*
G01*
X129062500Y-101291400D01*
G75*
G02*
X129150000Y-101378900I0J-87500D01*
G01*
X129150000Y-101553900D01*
G75*
G02*
X129062500Y-101641400I-87500J0D01*
G01*
X128612500Y-101641400D01*
G75*
G02*
X128525000Y-101553900I0J87500D01*
G01*
G37*
G36*
G01*
X128525000Y-102053900D02*
X128525000Y-101878900D01*
G75*
G02*
X128612500Y-101791400I87500J0D01*
G01*
X129062500Y-101791400D01*
G75*
G02*
X129150000Y-101878900I0J-87500D01*
G01*
X129150000Y-102053900D01*
G75*
G02*
X129062500Y-102141400I-87500J0D01*
G01*
X128612500Y-102141400D01*
G75*
G02*
X128525000Y-102053900I0J87500D01*
G01*
G37*
G36*
G01*
X128525000Y-102553900D02*
X128525000Y-102378900D01*
G75*
G02*
X128612500Y-102291400I87500J0D01*
G01*
X129062500Y-102291400D01*
G75*
G02*
X129150000Y-102378900I0J-87500D01*
G01*
X129150000Y-102553900D01*
G75*
G02*
X129062500Y-102641400I-87500J0D01*
G01*
X128612500Y-102641400D01*
G75*
G02*
X128525000Y-102553900I0J87500D01*
G01*
G37*
G36*
G01*
X128525000Y-103053900D02*
X128525000Y-102878900D01*
G75*
G02*
X128612500Y-102791400I87500J0D01*
G01*
X129062500Y-102791400D01*
G75*
G02*
X129150000Y-102878900I0J-87500D01*
G01*
X129150000Y-103053900D01*
G75*
G02*
X129062500Y-103141400I-87500J0D01*
G01*
X128612500Y-103141400D01*
G75*
G02*
X128525000Y-103053900I0J87500D01*
G01*
G37*
G36*
G01*
X129325000Y-103353900D02*
X129325000Y-102903900D01*
G75*
G02*
X129412500Y-102816400I87500J0D01*
G01*
X129587500Y-102816400D01*
G75*
G02*
X129675000Y-102903900I0J-87500D01*
G01*
X129675000Y-103353900D01*
G75*
G02*
X129587500Y-103441400I-87500J0D01*
G01*
X129412500Y-103441400D01*
G75*
G02*
X129325000Y-103353900I0J87500D01*
G01*
G37*
G36*
G01*
X129825000Y-103353900D02*
X129825000Y-102903900D01*
G75*
G02*
X129912500Y-102816400I87500J0D01*
G01*
X130087500Y-102816400D01*
G75*
G02*
X130175000Y-102903900I0J-87500D01*
G01*
X130175000Y-103353900D01*
G75*
G02*
X130087500Y-103441400I-87500J0D01*
G01*
X129912500Y-103441400D01*
G75*
G02*
X129825000Y-103353900I0J87500D01*
G01*
G37*
G36*
G01*
X130325000Y-103353900D02*
X130325000Y-102903900D01*
G75*
G02*
X130412500Y-102816400I87500J0D01*
G01*
X130587500Y-102816400D01*
G75*
G02*
X130675000Y-102903900I0J-87500D01*
G01*
X130675000Y-103353900D01*
G75*
G02*
X130587500Y-103441400I-87500J0D01*
G01*
X130412500Y-103441400D01*
G75*
G02*
X130325000Y-103353900I0J87500D01*
G01*
G37*
G36*
G01*
X130850000Y-103053900D02*
X130850000Y-102878900D01*
G75*
G02*
X130937500Y-102791400I87500J0D01*
G01*
X131387500Y-102791400D01*
G75*
G02*
X131475000Y-102878900I0J-87500D01*
G01*
X131475000Y-103053900D01*
G75*
G02*
X131387500Y-103141400I-87500J0D01*
G01*
X130937500Y-103141400D01*
G75*
G02*
X130850000Y-103053900I0J87500D01*
G01*
G37*
G36*
G01*
X130850000Y-102553900D02*
X130850000Y-102378900D01*
G75*
G02*
X130937500Y-102291400I87500J0D01*
G01*
X131387500Y-102291400D01*
G75*
G02*
X131475000Y-102378900I0J-87500D01*
G01*
X131475000Y-102553900D01*
G75*
G02*
X131387500Y-102641400I-87500J0D01*
G01*
X130937500Y-102641400D01*
G75*
G02*
X130850000Y-102553900I0J87500D01*
G01*
G37*
G36*
G01*
X130850000Y-102053900D02*
X130850000Y-101878900D01*
G75*
G02*
X130937500Y-101791400I87500J0D01*
G01*
X131387500Y-101791400D01*
G75*
G02*
X131475000Y-101878900I0J-87500D01*
G01*
X131475000Y-102053900D01*
G75*
G02*
X131387500Y-102141400I-87500J0D01*
G01*
X130937500Y-102141400D01*
G75*
G02*
X130850000Y-102053900I0J87500D01*
G01*
G37*
G36*
G01*
X130850000Y-101553900D02*
X130850000Y-101378900D01*
G75*
G02*
X130937500Y-101291400I87500J0D01*
G01*
X131387500Y-101291400D01*
G75*
G02*
X131475000Y-101378900I0J-87500D01*
G01*
X131475000Y-101553900D01*
G75*
G02*
X131387500Y-101641400I-87500J0D01*
G01*
X130937500Y-101641400D01*
G75*
G02*
X130850000Y-101553900I0J87500D01*
G01*
G37*
G36*
G01*
X130325000Y-101528900D02*
X130325000Y-101078900D01*
G75*
G02*
X130412500Y-100991400I87500J0D01*
G01*
X130587500Y-100991400D01*
G75*
G02*
X130675000Y-101078900I0J-87500D01*
G01*
X130675000Y-101528900D01*
G75*
G02*
X130587500Y-101616400I-87500J0D01*
G01*
X130412500Y-101616400D01*
G75*
G02*
X130325000Y-101528900I0J87500D01*
G01*
G37*
G36*
G01*
X129825000Y-101528900D02*
X129825000Y-101078900D01*
G75*
G02*
X129912500Y-100991400I87500J0D01*
G01*
X130087500Y-100991400D01*
G75*
G02*
X130175000Y-101078900I0J-87500D01*
G01*
X130175000Y-101528900D01*
G75*
G02*
X130087500Y-101616400I-87500J0D01*
G01*
X129912500Y-101616400D01*
G75*
G02*
X129825000Y-101528900I0J87500D01*
G01*
G37*
G36*
G01*
X129325000Y-101528900D02*
X129325000Y-101078900D01*
G75*
G02*
X129412500Y-100991400I87500J0D01*
G01*
X129587500Y-100991400D01*
G75*
G02*
X129675000Y-101078900I0J-87500D01*
G01*
X129675000Y-101528900D01*
G75*
G02*
X129587500Y-101616400I-87500J0D01*
G01*
X129412500Y-101616400D01*
G75*
G02*
X129325000Y-101528900I0J87500D01*
G01*
G37*
G36*
X116280256Y-119114543D02*
G01*
X115078174Y-117912461D01*
X116280256Y-116710379D01*
X117482338Y-117912461D01*
X116280256Y-119114543D01*
G37*
G36*
G01*
X117475266Y-116717451D02*
X117475266Y-116717451D01*
G75*
G02*
X117475266Y-115515369I601041J601041D01*
G01*
X117475266Y-115515369D01*
G75*
G02*
X118677348Y-115515369I601041J-601041D01*
G01*
X118677348Y-115515369D01*
G75*
G02*
X118677348Y-116717451I-601041J-601041D01*
G01*
X118677348Y-116717451D01*
G75*
G02*
X117475266Y-116717451I-601041J601041D01*
G01*
G37*
G36*
G01*
X113883164Y-116717451D02*
X113883164Y-116717451D01*
G75*
G02*
X113883164Y-115515369I601041J601041D01*
G01*
X113883164Y-115515369D01*
G75*
G02*
X115085246Y-115515369I601041J-601041D01*
G01*
X115085246Y-115515369D01*
G75*
G02*
X115085246Y-116717451I-601041J-601041D01*
G01*
X115085246Y-116717451D01*
G75*
G02*
X113883164Y-116717451I-601041J601041D01*
G01*
G37*
G36*
G01*
X115679215Y-114921400D02*
X115679215Y-114921400D01*
G75*
G02*
X115679215Y-113719318I601041J601041D01*
G01*
X115679215Y-113719318D01*
G75*
G02*
X116881297Y-113719318I601041J-601041D01*
G01*
X116881297Y-113719318D01*
G75*
G02*
X116881297Y-114921400I-601041J-601041D01*
G01*
X116881297Y-114921400D01*
G75*
G02*
X115679215Y-114921400I-601041J601041D01*
G01*
G37*
G36*
G01*
X112087113Y-114921400D02*
X112087113Y-114921400D01*
G75*
G02*
X112087113Y-113719318I601041J601041D01*
G01*
X112087113Y-113719318D01*
G75*
G02*
X113289195Y-113719318I601041J-601041D01*
G01*
X113289195Y-113719318D01*
G75*
G02*
X113289195Y-114921400I-601041J-601041D01*
G01*
X113289195Y-114921400D01*
G75*
G02*
X112087113Y-114921400I-601041J601041D01*
G01*
G37*
G36*
G01*
X113883164Y-113125348D02*
X113883164Y-113125348D01*
G75*
G02*
X113883164Y-111923266I601041J601041D01*
G01*
X113883164Y-111923266D01*
G75*
G02*
X115085246Y-111923266I601041J-601041D01*
G01*
X115085246Y-111923266D01*
G75*
G02*
X115085246Y-113125348I-601041J-601041D01*
G01*
X115085246Y-113125348D01*
G75*
G02*
X113883164Y-113125348I-601041J601041D01*
G01*
G37*
G36*
G01*
X110291061Y-113125348D02*
X110291061Y-113125348D01*
G75*
G02*
X110291061Y-111923266I601041J601041D01*
G01*
X110291061Y-111923266D01*
G75*
G02*
X111493143Y-111923266I601041J-601041D01*
G01*
X111493143Y-111923266D01*
G75*
G02*
X111493143Y-113125348I-601041J-601041D01*
G01*
X111493143Y-113125348D01*
G75*
G02*
X110291061Y-113125348I-601041J601041D01*
G01*
G37*
G36*
G01*
X112087113Y-111329297D02*
X112087113Y-111329297D01*
G75*
G02*
X112087113Y-110127215I601041J601041D01*
G01*
X112087113Y-110127215D01*
G75*
G02*
X113289195Y-110127215I601041J-601041D01*
G01*
X113289195Y-110127215D01*
G75*
G02*
X113289195Y-111329297I-601041J-601041D01*
G01*
X113289195Y-111329297D01*
G75*
G02*
X112087113Y-111329297I-601041J601041D01*
G01*
G37*
G36*
G01*
X108495010Y-111329297D02*
X108495010Y-111329297D01*
G75*
G02*
X108495010Y-110127215I601041J601041D01*
G01*
X108495010Y-110127215D01*
G75*
G02*
X109697092Y-110127215I601041J-601041D01*
G01*
X109697092Y-110127215D01*
G75*
G02*
X109697092Y-111329297I-601041J-601041D01*
G01*
X109697092Y-111329297D01*
G75*
G02*
X108495010Y-111329297I-601041J601041D01*
G01*
G37*
G36*
G01*
X110291061Y-109533246D02*
X110291061Y-109533246D01*
G75*
G02*
X110291061Y-108331164I601041J601041D01*
G01*
X110291061Y-108331164D01*
G75*
G02*
X111493143Y-108331164I601041J-601041D01*
G01*
X111493143Y-108331164D01*
G75*
G02*
X111493143Y-109533246I-601041J-601041D01*
G01*
X111493143Y-109533246D01*
G75*
G02*
X110291061Y-109533246I-601041J601041D01*
G01*
G37*
G36*
G01*
X106698959Y-109533246D02*
X106698959Y-109533246D01*
G75*
G02*
X106698959Y-108331164I601041J601041D01*
G01*
X106698959Y-108331164D01*
G75*
G02*
X107901041Y-108331164I601041J-601041D01*
G01*
X107901041Y-108331164D01*
G75*
G02*
X107901041Y-109533246I-601041J-601041D01*
G01*
X107901041Y-109533246D01*
G75*
G02*
X106698959Y-109533246I-601041J601041D01*
G01*
G37*
G36*
G01*
X108495010Y-107737195D02*
X108495010Y-107737195D01*
G75*
G02*
X108495010Y-106535113I601041J601041D01*
G01*
X108495010Y-106535113D01*
G75*
G02*
X109697092Y-106535113I601041J-601041D01*
G01*
X109697092Y-106535113D01*
G75*
G02*
X109697092Y-107737195I-601041J-601041D01*
G01*
X109697092Y-107737195D01*
G75*
G02*
X108495010Y-107737195I-601041J601041D01*
G01*
G37*
G36*
G01*
X104902908Y-107737195D02*
X104902908Y-107737195D01*
G75*
G02*
X104902908Y-106535113I601041J601041D01*
G01*
X104902908Y-106535113D01*
G75*
G02*
X106104990Y-106535113I601041J-601041D01*
G01*
X106104990Y-106535113D01*
G75*
G02*
X106104990Y-107737195I-601041J-601041D01*
G01*
X106104990Y-107737195D01*
G75*
G02*
X104902908Y-107737195I-601041J601041D01*
G01*
G37*
G36*
G01*
X106698959Y-105941143D02*
X106698959Y-105941143D01*
G75*
G02*
X106698959Y-104739061I601041J601041D01*
G01*
X106698959Y-104739061D01*
G75*
G02*
X107901041Y-104739061I601041J-601041D01*
G01*
X107901041Y-104739061D01*
G75*
G02*
X107901041Y-105941143I-601041J-601041D01*
G01*
X107901041Y-105941143D01*
G75*
G02*
X106698959Y-105941143I-601041J601041D01*
G01*
G37*
G36*
G01*
X103106856Y-105941143D02*
X103106856Y-105941143D01*
G75*
G02*
X103106856Y-104739061I601041J601041D01*
G01*
X103106856Y-104739061D01*
G75*
G02*
X104308938Y-104739061I601041J-601041D01*
G01*
X104308938Y-104739061D01*
G75*
G02*
X104308938Y-105941143I-601041J-601041D01*
G01*
X104308938Y-105941143D01*
G75*
G02*
X103106856Y-105941143I-601041J601041D01*
G01*
G37*
G36*
G01*
X104902908Y-104145092D02*
X104902908Y-104145092D01*
G75*
G02*
X104902908Y-102943010I601041J601041D01*
G01*
X104902908Y-102943010D01*
G75*
G02*
X106104990Y-102943010I601041J-601041D01*
G01*
X106104990Y-102943010D01*
G75*
G02*
X106104990Y-104145092I-601041J-601041D01*
G01*
X106104990Y-104145092D01*
G75*
G02*
X104902908Y-104145092I-601041J601041D01*
G01*
G37*
G36*
G01*
X101310805Y-104145092D02*
X101310805Y-104145092D01*
G75*
G02*
X101310805Y-102943010I601041J601041D01*
G01*
X101310805Y-102943010D01*
G75*
G02*
X102512887Y-102943010I601041J-601041D01*
G01*
X102512887Y-102943010D01*
G75*
G02*
X102512887Y-104145092I-601041J-601041D01*
G01*
X102512887Y-104145092D01*
G75*
G02*
X101310805Y-104145092I-601041J601041D01*
G01*
G37*
G36*
G01*
X103106856Y-102349041D02*
X103106856Y-102349041D01*
G75*
G02*
X103106856Y-101146959I601041J601041D01*
G01*
X103106856Y-101146959D01*
G75*
G02*
X104308938Y-101146959I601041J-601041D01*
G01*
X104308938Y-101146959D01*
G75*
G02*
X104308938Y-102349041I-601041J-601041D01*
G01*
X104308938Y-102349041D01*
G75*
G02*
X103106856Y-102349041I-601041J601041D01*
G01*
G37*
D21*
X107771184Y-72815149D03*
X111858261Y-68728072D03*
G36*
G01*
X103549757Y-70616047D02*
X103549757Y-70616047D01*
G75*
G02*
X104186153Y-70616047I318198J-318198D01*
G01*
X104751839Y-71181733D01*
G75*
G02*
X104751839Y-71818129I-318198J-318198D01*
G01*
X104751839Y-71818129D01*
G75*
G02*
X104115443Y-71818129I-318198J318198D01*
G01*
X103549757Y-71252443D01*
G75*
G02*
X103549757Y-70616047I318198J318198D01*
G01*
G37*
G36*
G01*
X106392326Y-73458616D02*
X106392326Y-73458616D01*
G75*
G02*
X107028722Y-73458616I318198J-318198D01*
G01*
X107806540Y-74236434D01*
G75*
G02*
X107806540Y-74872830I-318198J-318198D01*
G01*
X107806540Y-74872830D01*
G75*
G02*
X107170144Y-74872830I-318198J318198D01*
G01*
X106392326Y-74095012D01*
G75*
G02*
X106392326Y-73458616I318198J318198D01*
G01*
G37*
G36*
G01*
X109659159Y-64506645D02*
X109659159Y-64506645D01*
G75*
G02*
X110295555Y-64506645I318198J-318198D01*
G01*
X110861241Y-65072331D01*
G75*
G02*
X110861241Y-65708727I-318198J-318198D01*
G01*
X110861241Y-65708727D01*
G75*
G02*
X110224845Y-65708727I-318198J318198D01*
G01*
X109659159Y-65143041D01*
G75*
G02*
X109659159Y-64506645I318198J318198D01*
G01*
G37*
G36*
G01*
X112501728Y-67349214D02*
X112501728Y-67349214D01*
G75*
G02*
X113138124Y-67349214I318198J-318198D01*
G01*
X113915942Y-68127032D01*
G75*
G02*
X113915942Y-68763428I-318198J-318198D01*
G01*
X113915942Y-68763428D01*
G75*
G02*
X113279546Y-68763428I-318198J318198D01*
G01*
X112501728Y-67985610D01*
G75*
G02*
X112501728Y-67349214I318198J318198D01*
G01*
G37*
%LPD*%
M02*
